<svg xmlns="http://www.w3.org/2000/svg" width="75.948" height="75.948" viewBox="0 0 75.948 75.948">
  <g id="Grupo_1127552" data-name="Grupo 1127552" transform="translate(-1326.051 -3283)">
    <rect id="Rectángulo_409889" data-name="Rectángulo 409889" width="75.948" height="75.948" transform="translate(1326.051 3283)" fill="none"/>
    <g id="Grupo_1127551" data-name="Grupo 1127551" transform="translate(1198.66 3214.951)">
      <path id="Trazado_918093" data-name="Trazado 918093" d="M169.235,508.338a16.231,16.231,0,0,0-1.929-1.9,16.877,16.877,0,0,0-3.016-2.005c-1.731-.9-3.463.116-4.992,1.011a9.225,9.225,0,0,1-2.6,1.2,2.673,2.673,0,0,1-.519.054,3.921,3.921,0,0,1-1.474-.347,16.588,16.588,0,0,1-1.716-.884c-1.566-.882-3.336-1.881-5.088-.946a16.438,16.438,0,0,0-6.152,5.661,15.051,15.051,0,0,0-2.357,8.07,15.213,15.213,0,0,0,4.94,11.18,17.574,17.574,0,0,0,22.976.639q.368-.307.719-.635a16.342,16.342,0,0,0,1.21-1.259,15.067,15.067,0,0,0,3.729-9.921A15.226,15.226,0,0,0,169.235,508.338ZM156.178,532.1c-8.193,0-14.859-6.214-14.859-13.851a13.759,13.759,0,0,1,7.489-12.03,1.253,1.253,0,0,1,.6-.142,6.372,6.372,0,0,1,2.626,1.067,11.545,11.545,0,0,0,3.09,1.361,4.822,4.822,0,0,0,1.049.122,4.588,4.588,0,0,0,.974-.11,10.934,10.934,0,0,0,3.121-1.41c1.457-.854,2.394-1.345,3.127-.964a13.752,13.752,0,0,1,7.636,12.108c0,7.637-6.665,13.851-14.859,13.851Z" transform="translate(0 -398.504)"/>
      <path id="Trazado_918094" data-name="Trazado 918094" d="M188.572,531.386c-.733-.381-1.67.11-3.127.964a10.955,10.955,0,0,1-3.121,1.41c.014.04.026.078.039.115a.964.964,0,0,1-1.82.64c-.08-.226-.162-.482-.243-.766a11.543,11.543,0,0,1-3.09-1.361,6.293,6.293,0,0,0-2.626-1.067,1.254,1.254,0,0,0-.6.142,13.759,13.759,0,0,0-7.489,12.03c0,7.638,6.666,13.851,14.859,13.851s14.859-6.214,14.859-13.851A13.752,13.752,0,0,0,188.572,531.386Zm-2.833,5.442a9.864,9.864,0,0,1-4.4,1.041h-.221a9.749,9.749,0,0,1-3.926-.925.964.964,0,0,1,.817-1.747,7.838,7.838,0,0,0,3.153.742,7.937,7.937,0,0,0,3.711-.835.964.964,0,1,1,.862,1.724Z" transform="translate(-25.172 -423.743)" fill="red"/>
      <path id="Trazado_918095" data-name="Trazado 918095" d="M318.225,585.587a9.864,9.864,0,0,1-4.4,1.041h-.221a9.748,9.748,0,0,1-3.926-.925.964.964,0,0,1,.817-1.747,7.836,7.836,0,0,0,3.153.742,7.936,7.936,0,0,0,3.711-.835.964.964,0,1,1,.862,1.724Z" transform="translate(-157.658 -472.503)"/>
      <path id="Trazado_918096" data-name="Trazado 918096" d="M359.285,376.586a10.578,10.578,0,0,0-3.835,10.058,11.493,11.493,0,0,0,.455,1.874c.014.04.026.078.039.115a.964.964,0,0,1-1.82.64c-.08-.226-.162-.482-.243-.766a13.611,13.611,0,0,1-.427-2.156,12.88,12.88,0,0,1-.025-2.728,12.393,12.393,0,0,1,2.064-5.727,12.961,12.961,0,0,1,2.577-2.809.965.965,0,0,1,1.213,1.5Z" transform="translate(-198.753 -278.501)"/>
      <path id="Trazado_918097" data-name="Trazado 918097" d="M200.685,388.061a4.285,4.285,0,0,0-1.139-1.092,8.166,8.166,0,0,0-4.533-1.139c-3.823,0-7.814,3.428-7.982,3.57a.965.965,0,0,0,0,1.456c.168.142,4.159,3.574,7.985,3.574a9.339,9.339,0,0,0,3.606-.64,5.6,5.6,0,0,0,.925-.5,3.761,3.761,0,0,0,1.791-3.161A3.554,3.554,0,0,0,200.685,388.061Zm-5.669,4.442c-2.135,0-4.5-1.457-5.778-2.374,1.274-.917,3.634-2.372,5.778-2.372,2.629,0,4.4.954,4.4,2.373S197.646,392.5,195.017,392.5Z" transform="translate(-43.944 -288.667)"/>
      <path id="Trazado_918098" data-name="Trazado 918098" d="M232.544,415.273c0,1.419-1.766,2.373-4.4,2.373-2.135,0-4.5-1.457-5.778-2.374,1.274-.917,3.634-2.372,5.778-2.372C230.777,412.9,232.544,413.854,232.544,415.273Z" transform="translate(-77.075 -313.81)" fill="#009245"/>
      <path id="Trazado_918099" data-name="Trazado 918099" d="M540.874,287.624v7.116a2.932,2.932,0,0,1-2.165,2.831l-4.265,1.413a.627.627,0,0,1-.063.018,1,1,0,0,0-.753.973v6.775a.965.965,0,0,1-1.929,0v-6.779a2.934,2.934,0,0,1,2.165-2.828l4.265-1.413.063-.018a1,1,0,0,0,.753-.973v-7.116a.964.964,0,1,1,1.928,0Z" transform="translate(-364.394 -196.553)"/>
      <path id="Trazado_918100" data-name="Trazado 918100" d="M555.1,175.709v29.175a2.937,2.937,0,0,1-2.933,2.936H534.63a2.937,2.937,0,0,1-2.935-2.934v-3.292a.965.965,0,1,1,1.929,0v3.291a1.007,1.007,0,0,0,1.005,1.005h17.536a1.007,1.007,0,0,0,1.005-1.005V175.71a1,1,0,0,0-.753-.973c-.021-.005-.041-.011-.062-.019l-4.265-1.411a2.934,2.934,0,0,1-2.165-2.831V155.167a1.011,1.011,0,0,0-.094-.427,1,1,0,0,0-.167-.251.964.964,0,1,1,1.428-1.3,2.933,2.933,0,0,1,.761,1.973v15.307a1,1,0,0,0,.753.973l.063.019,4.265,1.417A2.933,2.933,0,0,1,555.1,175.709Z" transform="translate(-364.389 -72.29)"/>
      <path id="Trazado_918101" data-name="Trazado 918101" d="M585.94,79.938a3.839,3.839,0,0,0-1.175-2.581,2.8,2.8,0,0,0-1.9-.65,7.791,7.791,0,0,1-1.81-.285,5.6,5.6,0,0,1-1.139-.44,6.776,6.776,0,0,0-1.6-.586c-1.294-.315-2.633-.64-3.859.117a4.621,4.621,0,0,0-1.6,2.135,8.971,8.971,0,0,0-.814,2.335,6.416,6.416,0,0,0,.375,3.6,3.4,3.4,0,0,1,.258,2.084,2.839,2.839,0,0,1-.618,1.2,2.458,2.458,0,0,0-.648,1.951,4.517,4.517,0,0,0,2.818,3.147,4.393,4.393,0,0,0,1.577.384h.1a2.178,2.178,0,0,0,1.3-.379,1.877,1.877,0,0,0,.534-.6c.548-.951.406-2.4.277-3.713-.05-.509-.121-.88-.178-1.178a2.21,2.21,0,0,1-.045-1.034,5.718,5.718,0,0,1,.818-1.779,6.145,6.145,0,0,1,.854-1.234c.547-.489,1.565-.3,2.551-.109.223.042.452.085.682.121a6.02,6.02,0,0,0,.925.083,2.656,2.656,0,0,0,1.051-.19,1.953,1.953,0,0,0,.7-.5A2.572,2.572,0,0,0,585.94,79.938ZM578.175,81a6.958,6.958,0,0,0-1.225,1.68,7.361,7.361,0,0,0-1.055,2.387,4.057,4.057,0,0,0,.041,1.779c.052.273.111.581.153,1a15.2,15.2,0,0,1,.106,1.745,1.857,1.857,0,0,1-.135.814,2.367,2.367,0,0,1-1.408-.38,2.456,2.456,0,0,1-1.332-1.462c-.016-.127-.02-.153.265-.525a4.678,4.678,0,0,0,.967-1.941,5.232,5.232,0,0,0-.312-3.147,4.523,4.523,0,0,1-.3-2.618,7.031,7.031,0,0,1,.64-1.83c.434-.867.6-1.176.894-1.358a1.32,1.32,0,0,1,.722-.173,7.813,7.813,0,0,1,1.672.293,4.857,4.857,0,0,1,1.205.44,7.456,7.456,0,0,0,1.468.569,9.624,9.624,0,0,0,2.214.356c.554.034.614.054.737.163a1.955,1.955,0,0,1,.533,1.25v.09a.723.723,0,0,1-.092.419c-.134.151-1.132-.038-1.558-.12C581.061,80.188,579.432,79.879,578.175,81Z" transform="translate(-401.25)"/>
      <path id="Trazado_918102" data-name="Trazado 918102" d="M609.2,105.239a.723.723,0,0,1-.092.419c-.134.151-1.132-.038-1.558-.12-1.309-.248-2.937-.557-4.2.564a6.961,6.961,0,0,0-1.225,1.68,7.363,7.363,0,0,0-1.055,2.387,4.058,4.058,0,0,0,.041,1.779c.052.273.111.581.153,1a15.21,15.21,0,0,1,.106,1.745,1.858,1.858,0,0,1-.135.814,2.367,2.367,0,0,1-1.408-.38,2.456,2.456,0,0,1-1.332-1.462c-.016-.127-.02-.153.265-.525a4.678,4.678,0,0,0,.967-1.941,5.232,5.232,0,0,0-.312-3.147,4.524,4.524,0,0,1-.3-2.618,7.035,7.035,0,0,1,.64-1.83c.434-.867.6-1.176.894-1.358a1.319,1.319,0,0,1,.726-.173,7.815,7.815,0,0,1,1.672.293,4.859,4.859,0,0,1,1.205.44,7.454,7.454,0,0,0,1.468.569,9.624,9.624,0,0,0,2.214.356c.554.034.614.054.736.163a1.955,1.955,0,0,1,.533,1.25c0,.032,0,.063,0,.091Z" transform="translate(-426.426 -25.102)" fill="#f7f49a"/>
      <path id="Trazado_918103" data-name="Trazado 918103" d="M652.14,529.2h-2.159a2.855,2.855,0,0,0-2.851,2.852v14.773a2.855,2.855,0,0,0,2.851,2.855h2.159a2.856,2.856,0,0,0,2.852-2.852V532.052A2.856,2.856,0,0,0,652.14,529.2Zm.925,17.625a.925.925,0,0,1-.925.925h-2.159a.925.925,0,0,1-.925-.925V532.052a.925.925,0,0,1,.925-.925h2.159a.925.925,0,0,1,.925.925Z" transform="translate(-471.61 -421.834)"/>
      <path id="Trazado_918104" data-name="Trazado 918104" d="M577.6,194.876c-.021,0-.041-.011-.062-.018l-4.265-1.41a2.934,2.934,0,0,1-2.165-2.831V175.307a1.011,1.011,0,0,0-.094-.427c-.231-.036-.459-.079-.682-.121-.985-.187-2-.38-2.551.109a5.838,5.838,0,0,0-.854,1.234,5.7,5.7,0,0,0-.818,1.779,2.21,2.21,0,0,0,.045,1.034c.057.3.128.668.178,1.178.129,1.31.271,2.762-.277,3.713v6.806a2.932,2.932,0,0,1-2.167,2.836l-4.265,1.413a.636.636,0,0,1-.063.019,1,1,0,0,0-.753.973v6.414a15.055,15.055,0,0,1,0,19.838v2.925a1.007,1.007,0,0,0,1.005,1.005h17.536a1.007,1.007,0,0,0,1.005-1.005V195.853A1,1,0,0,0,577.6,194.876Zm-4.647,22.544a2.856,2.856,0,0,1-2.852,2.855h-2.159a2.855,2.855,0,0,1-2.851-2.852V202.647a2.855,2.855,0,0,1,2.851-2.852H570.1a2.856,2.856,0,0,1,2.852,2.852Z" transform="translate(-389.574 -92.429)" fill="#fbb03b"/>
      <path id="Trazado_918105" data-name="Trazado 918105" d="M678.207,557.205v14.773a.925.925,0,0,1-.925.925h-2.157a.925.925,0,0,1-.925-.925V557.205a.925.925,0,0,1,.925-.925h2.159A.925.925,0,0,1,678.207,557.205Z" transform="translate(-496.754 -446.988)" fill="#ccc"/>
    </g>
  </g>
</svg>
