<svg height="129" viewBox="0 0 129 129" width="129" xmlns="http://www.w3.org/2000/svg" xmlns:xlink="http://www.w3.org/1999/xlink"><radialGradient id="a" cx=".5" cy=".5" gradientUnits="objectBoundingBox" r=".5"><stop offset="0" stop-color="#fff"/><stop offset="1" stop-color="#fff7ea"/></radialGradient><g transform="translate(-425.572 -4163)"><g fill="url(#a)" stroke="#fff" stroke-width="2" transform="translate(440.571 4178)"><circle cx="49.5" cy="49.5" r="49.5" stroke="none"/><circle cx="49.5" cy="49.5" fill="none" r="48.5"/></g><g fill="none" opacity=".43" stroke="#59836b" stroke-width="10"><circle cx="490.071" cy="4227.5" r="64.5" stroke="none"/><circle cx="490.071" cy="4227.5" fill="none" r="59.5"/></g></g><g transform="translate(32.498 32.48)"><path d="m56.14 43.853a11.8 11.8 0 0 1 -9.22 18.117q-.456.03-.92.03t-.92-.03a11.8 11.8 0 0 1 -9.22-18.117l10.14-15.853z" fill="#ccc"/><path d="m46.034 28-10.134 15.853a11.722 11.722 0 0 0 -1.658 4.147h14.792a3 3 0 0 0 3-3v-7.619z" fill="#f2f2f2"/><path d="m46.034 62c.31 0 .616-.01.92-.03a11.711 11.711 0 0 0 10.046-6.992l-19.961-12.914-1.139 1.789a11.8 11.8 0 0 0 9.22 18.117q.451.03.914.03z" fill="#aa2b24"/><path d="m37.039 42.064-1.139 1.789a11.8 11.8 0 0 0 2.081 15.147h11.053a3 3 0 0 0 3-3v-4.235z" fill="#d24034"/><path d="m40.6 16.744c3.733 6.4-.412 14.732-7.846 15.231-.251.016-.5.025-.759.025s-.508-.009-.759-.025c-7.434-.5-11.579-8.834-7.846-15.231l8.61-14.744z" fill="#ccc"/><path d="m32 2-8.6 14.744a10.3 10.3 0 0 0 -.962 2.246h10.682a3 3 0 0 0 3-3v-6.93z" fill="#f2f2f2"/><path d="m41.092 26.061-16.792-10.867-.905 1.55c-3.733 6.4.412 14.732 7.846 15.231.251.016.5.025.759.025s.508-.009.759-.025a9.773 9.773 0 0 0 8.333-5.914z" fill="#f3a845"/><path d="m24.3 15.194-.905 1.55a10.253 10.253 0 0 0 1.481 12.256h7.124a4 4 0 0 0 4-4v-2.235z" fill="#eecc61"/><path d="m28.14 43.853a11.8 11.8 0 0 1 -9.22 18.117q-.456.03-.92.03t-.92-.03a11.8 11.8 0 0 1 -9.22-18.117l10.14-15.853z" fill="#ccc"/><path d="m18.034 28-10.134 15.853a11.722 11.722 0 0 0 -1.658 4.147h14.792a3 3 0 0 0 3-3v-7.619z" fill="#f2f2f2"/><path d="m18.034 62c.31 0 .616-.01.92-.03a11.711 11.711 0 0 0 10.046-6.992l-19.961-12.914-1.139 1.789a11.8 11.8 0 0 0 9.22 18.117q.451.03.914.03z" fill="#2763bb"/><path d="m9.039 42.064-1.139 1.789a11.8 11.8 0 0 0 2.081 15.147h11.053a3 3 0 0 0 3-3v-4.235z" fill="#3079e6"/><path d="m41.671 27.2a11.191 11.191 0 0 0 -.2-10.956l-8.607-14.744a1.041 1.041 0 0 0 -1.728 0l-8.6 14.745a11.191 11.191 0 0 0 -.2 10.956 10.791 10.791 0 0 0 8.846 5.776c.273.017.548.027.825.027s.552-.01.826-.028a10.787 10.787 0 0 0 8.838-5.776zm-9.671-23.216 7.741 13.265a9.16 9.16 0 0 1 .85 7.3l-14.946-9.676zm.693 26.993a10.494 10.494 0 0 1 -1.385 0 8.8 8.8 0 0 1 -7.208-4.717 9.2 9.2 0 0 1 .163-9.011l.377-.647 15.171 9.817a8.793 8.793 0 0 1 -7.118 4.558z"/><path d="m56.982 43.314-10.14-15.853a1.039 1.039 0 0 0 -1.684 0l-10.14 15.853a12.8 12.8 0 0 0 10 19.654q.482.032.982.032t.985-.032a12.8 12.8 0 0 0 10-19.654zm-10.982-13.458 9.3 14.536a10.648 10.648 0 0 1 1.169 9.068l-18.06-11.737zm.855 31.116a13.535 13.535 0 0 1 -1.709 0 10.8 10.8 0 0 1 -8.446-16.58l.629-.984 18.339 11.919a10.721 10.721 0 0 1 -8.813 5.645z"/><path d="m24 19h2v2h-2z"/><path d="m27 21h2v2h-2z"/><path d="m25 24h2v2h-2z"/><path d="m28 26h2v2h-2z"/><path d="m30 23h2v2h-2z"/><path d="m33 25h2v2h-2z"/><path d="m31 28h2v2h-2z"/><path d="m37 46h2v2h-2z"/><path d="m40 48h2v2h-2z"/><path d="m37 50h2v2h-2z"/><path d="m40 52h2v2h-2z"/><path d="m43 50h2v2h-2z"/><path d="m46 52h2v2h-2z"/><path d="m49 54h2v2h-2z"/><path d="m43 54h2v2h-2z"/><path d="m46 57h2v2h-2z"/><path d="m38 55h2v2h-2z"/><path d="m42 57h2v2h-2z"/><path d="m18.842 27.461a1.039 1.039 0 0 0 -1.684 0l-10.14 15.853a12.8 12.8 0 0 0 10 19.654q.482.032.982.032t.985-.032a12.8 12.8 0 0 0 10-19.654zm.013 33.511a13.535 13.535 0 0 1 -1.709 0 10.8 10.8 0 0 1 -8.446-16.58l.629-.984 18.339 11.919a10.721 10.721 0 0 1 -8.813 5.645zm9.611-7.512-18.057-11.737 7.591-11.867 9.3 14.536a10.648 10.648 0 0 1 1.166 9.068z"/><path d="m9 46h2v2h-2z"/><path d="m12 48h2v2h-2z"/><path d="m9 50h2v2h-2z"/><path d="m12 52h2v2h-2z"/><path d="m15 50h2v2h-2z"/><path d="m18 52h2v2h-2z"/><path d="m21 54h2v2h-2z"/><path d="m15 54h2v2h-2z"/><path d="m18 57h2v2h-2z"/><path d="m10 55h2v2h-2z"/><path d="m14 57h2v2h-2z"/></g></svg>