<svg height="82" viewBox="0 0 82 82" width="82" xmlns="http://www.w3.org/2000/svg"><g fill="#fff" stroke="#ffce79" stroke-linejoin="round" stroke-width="5"><circle cx="40.999" cy="41.001" r="36" stroke="none"/><circle cx="40.999" cy="41.001" fill="none" r="38.5"/></g><circle cx="41" cy="41" fill="#73964a" r="24.849"/><path d="m68.826 91.333 1.4-.048 4.392-.672 7.1-3.4 7.307-9.369.675-12.957-5.828-9.907-8.79-4.98-5.032-.766h-1.224a21.08 21.08 0 0 0 0 42.094z" fill="#e3f9ff" transform="translate(-28.997 -29.286)"/><path d="m123.321 169.909a3.484 3.484 0 0 0 2.625 0c9.675-3.929 11.87-10.94 12.085-13.784a6.931 6.931 0 0 0 -5.23-7.619 8.5 8.5 0 0 0 -7.883 2.131.42.42 0 0 1 -.569 0 8.5 8.5 0 0 0 -7.883-2.131 6.931 6.931 0 0 0 -5.23 7.619c.215 2.845 2.41 9.855 12.085 13.784z" fill="#ffce79" transform="translate(-84.951 -118.195)"/><path d="m245.671 7.5c-.393 0-.783.01-1.171.028a25.3 25.3 0 0 1 0 50.536c.388.018.778.028 1.171.028a25.3 25.3 0 0 0 0-50.592z" fill="#455a2d" transform="translate(-204.671 8.204)"/><path d="m245.671 48.917c-.393 0-.783.012-1.171.033a21.08 21.08 0 0 1 0 42.094c.388.021.778.033 1.171.033a21.08 21.08 0 1 0 0-42.16z" fill="#cde3ea" transform="translate(-204.671 -28.997)"/><path d="m240.9 148.514a7.521 7.521 0 0 0 -3.214-.188 7.785 7.785 0 0 1 .873.188 6.931 6.931 0 0 1 5.23 7.619c-.215 2.845-2.41 9.856-12.085 13.784-.047.019-.094.037-.142.054a3.484 3.484 0 0 0 2.483-.054c9.675-3.929 11.87-10.94 12.085-13.784a6.931 6.931 0 0 0 -5.23-7.619z" fill="#cca561" transform="translate(-193.054 -118.203)"/><path d="m205.841 229.562h-3.009a.843.843 0 0 0 -.843.843v1.686a.843.843 0 0 0 .843.843h4.274a1.686 1.686 0 0 0 1.349-.675l.843-1.124a.422.422 0 0 1 .674 0l4.047 5.4a.843.843 0 0 0 1.349 0l2.445-3.26a.843.843 0 0 1 .674-.337h2.894a.843.843 0 0 0 .843-.843v-1.686a.843.843 0 0 0 -.843-.843h-4.158a1.686 1.686 0 0 0 -1.349.675l-.843 1.124a.422.422 0 0 1 -.675 0l-4.047-5.4a.843.843 0 0 0 -1.349 0l-2.445 3.26a.842.842 0 0 1 -.674.337z" fill="#6ecf61" transform="translate(-166.487 -187.72)"/><g fill="none" stroke="#000" stroke-linecap="round" stroke-linejoin="round" stroke-miterlimit="10"><path d="m16.213 13.693a25.295 25.295 0 1 1 -2.54 2.543" transform="translate(8.204 8.204)"/><circle cx="41" cy="41" r="21.08"/><path d="m205.841 229.562h-3.009a.843.843 0 0 0 -.843.843v1.686a.843.843 0 0 0 .843.843h4.274a1.686 1.686 0 0 0 1.349-.675l.843-1.124a.422.422 0 0 1 .674 0l4.047 5.4a.843.843 0 0 0 1.349 0l2.445-3.26a.843.843 0 0 1 .674-.337h2.894a.843.843 0 0 0 .843-.843v-1.686a.843.843 0 0 0 -.843-.843h-4.158a1.686 1.686 0 0 0 -1.349.675l-.843 1.124a.422.422 0 0 1 -.675 0l-4.047-5.4a.843.843 0 0 0 -1.349 0l-2.445 3.26a.842.842 0 0 1 -.674.337z" transform="translate(-166.487 -187.72)"/><path d="m175.25 327.071a24.054 24.054 0 0 0 5.591 3.139 3.483 3.483 0 0 0 2.625 0 23.644 23.644 0 0 0 6.074-3.521" transform="translate(-142.47 -278.494)"/><path d="m136.975 160.014a12.328 12.328 0 0 0 1.056-3.914 6.932 6.932 0 0 0 -5.23-7.621 8.439 8.439 0 0 0 -7.728 1.993.667.667 0 0 1 -.878 0 8.439 8.439 0 0 0 -7.728-1.993 6.933 6.933 0 0 0 -5.23 7.621 14.62 14.62 0 0 0 3.87 8.234" transform="translate(-84.951 -118.171)"/></g></svg>