<svg height="129" viewBox="0 0 129 129" width="129" xmlns="http://www.w3.org/2000/svg" xmlns:xlink="http://www.w3.org/1999/xlink"><radialGradient id="a" cx=".5" cy=".5" gradientUnits="objectBoundingBox" r=".5"><stop offset="0" stop-color="#fff"/><stop offset="1" stop-color="#fff7ea"/></radialGradient><g transform="translate(-425.572 -4163)"><g fill="url(#a)" stroke="#fff" stroke-width="2" transform="translate(440.571 4178)"><circle cx="49.5" cy="49.5" r="49.5" stroke="none"/><circle cx="49.5" cy="49.5" fill="none" r="48.5"/></g><g fill="none" opacity=".43" stroke="#59836b" stroke-width="10"><circle cx="490.071" cy="4227.5" r="64.5" stroke="none"/><circle cx="490.071" cy="4227.5" fill="none" r="59.5"/></g></g><g transform="translate(-27.202 37.082)"><path d="m143.867 17.963h-30.627v-6.031a4.432 4.432 0 0 1 4.432-4.432h21.763a4.432 4.432 0 0 1 4.432 4.432z" fill="#85eddb" transform="translate(-36.829 -6.697)"/><path d="m128.143 7.5h-10.471a4.432 4.432 0 0 0 -4.432 4.432v6.031h10.472v-6.031a4.432 4.432 0 0 1 4.431-4.432z" fill="#71d8c5" transform="translate(-36.828 -6.697)"/><path d="m137.913 147.956h-18.713a5.955 5.955 0 0 1 -5.959-5.956v-36.811h30.627v36.811a5.955 5.955 0 0 1 -5.955 5.956z" fill="#d8d7da" transform="translate(-36.829 -93.923)"/><path d="m128.7 111.031 7.947-2.031v-3.81h-23.407v36.81a5.955 5.955 0 0 0 5.955 5.955h9.359a5.128 5.128 0 0 1 -3.666-1.184 2.087 2.087 0 0 1 1.08-3.557l9.223-1.693h-11.491v-24.05a6.647 6.647 0 0 1 5-6.44z" fill="#c6c5ca" transform="translate(-36.829 -93.924)"/><path d="m113.448 77.268h-30.148a3.817 3.817 0 0 1 -3.806-3.806 3.817 3.817 0 0 1 3.806-3.805h30.15a3.817 3.817 0 0 1 3.806 3.806 3.817 3.817 0 0 1 -3.808 3.805z" fill="#acabb1" transform="translate(-6.696 -62.197)"/><path d="m90.393 73.463a3.817 3.817 0 0 1 3.807-3.806h-10.9a3.817 3.817 0 0 0 -3.806 3.806 3.817 3.817 0 0 0 3.806 3.805h10.9a3.817 3.817 0 0 1 -3.807-3.805z" fill="#898890" transform="translate(-6.696 -62.197)"/><path d="m113.892 380.973h-30.149a3.817 3.817 0 0 1 -3.806-3.806 3.817 3.817 0 0 1 3.806-3.806h30.15a3.817 3.817 0 0 1 3.806 3.806 3.817 3.817 0 0 1 -3.807 3.806z" fill="#acabb1" transform="translate(-7.092 -333.374)"/><path d="m90.837 377.168a3.817 3.817 0 0 1 3.806-3.806h-10.9a3.817 3.817 0 0 0 -3.806 3.806 3.817 3.817 0 0 0 3.806 3.806h10.9a3.817 3.817 0 0 1 -3.806-3.806z" fill="#898890" transform="translate(-7.092 -333.374)"/><path d="m162.83 197.831a9.965 9.965 0 0 1 10.322 10.322 2.322 2.322 0 0 1 -2.217 2.217 9.965 9.965 0 0 1 -10.322-10.322 2.322 2.322 0 0 1 2.217-2.217z" fill="#7ec66a" transform="translate(-79.119 -176.635)"/><path d="m212.438 220.652a9.943 9.943 0 0 0 -4.7-8.832q-.14.167-.276.338a13.2 13.2 0 0 0 -2.819 9.249 9.786 9.786 0 0 0 5.577 1.462 2.322 2.322 0 0 0 2.218-2.217z" fill="#67b758" transform="translate(-118.406 -189.134)"/><path d="m244.914 197.833a10.057 10.057 0 0 0 -10.049 12.4 10.038 10.038 0 0 0 12.267-10.181 2.315 2.315 0 0 0 -2.218-2.219z" fill="#92dd7a" transform="translate(-145.175 -176.637)"/><path d="m111.409 43.793a4.616 4.616 0 0 0 -3.567-4.489v-23.561a4.608 4.608 0 0 0 -1.09-9.086h-29.537v-1.422a3.633 3.633 0 0 1 3.629-3.629h21.763a3.612 3.612 0 0 1 3.466 2.549.8.8 0 0 0 1.534-.477 5.211 5.211 0 0 0 -5-3.679h-21.764a5.241 5.241 0 0 0 -5.235 5.235v1.532a4.608 4.608 0 0 0 0 9v23.534a4.608 4.608 0 0 0 .005 8.978 6.764 6.764 0 0 0 6.753 6.553h18.718a6.765 6.765 0 0 0 6.753-6.553 4.616 4.616 0 0 0 3.572-4.485zm-5.173-27.918v23.31h-29.021v-23.31zm-32.636-4.609a3.006 3.006 0 0 1 3-3h30.15a3 3 0 0 1 0 6h-30.15a3.006 3.006 0 0 1 -3-3zm33.2 35.534h-4.777a.8.8 0 1 0 0 1.607h4.2a5.157 5.157 0 0 1 -5.14 4.827h-18.717a5.157 5.157 0 0 1 -5.14-4.827h21.474a.8.8 0 1 0 0-1.607h-22.05a3 3 0 1 1 0-6h30.15a3 3 0 0 1 0 6z"/><path d="m161.951 204.319a10.46 10.46 0 0 0 9.237-2.158 10.72 10.72 0 0 0 3.995-8.844 3.1 3.1 0 0 0 -2.986-2.986 10.543 10.543 0 0 0 -8.021 3.211 10.647 10.647 0 0 0 -8.076-3.211 3.141 3.141 0 0 0 -2.986 2.986 10.79 10.79 0 0 0 8.837 11.002zm10.177-12.383a1.506 1.506 0 0 1 1.449 1.449 9.322 9.322 0 0 1 -3.411 7.535 8.991 8.991 0 0 1 -6.437 2.056l6.466-6.466a.8.8 0 0 0 -1.136-1.136l-6.4 6.4a9.193 9.193 0 0 1 2.105-6.486 9 9 0 0 1 7.364-3.351zm-17.41 1.449a1.524 1.524 0 0 1 1.449-1.449 9.055 9.055 0 0 1 6.962 2.837 10.9 10.9 0 0 0 -1.525 2.918l-2.452-2.452a.819.819 0 0 0 -1.159 1.159l3.155 3.155a10.778 10.778 0 0 0 -.043 2.905 9.176 9.176 0 0 1 -6.386-9.072z" transform="translate(-72.423 -169.938)"/></g></svg>