<svg xmlns="http://www.w3.org/2000/svg" width="82" height="82" viewBox="0 0 82 82">
  <g id="Grupo_1127832" data-name="Grupo 1127832" transform="translate(-1148.237 -753.831)">
    <g id="Grupo_1116921" data-name="Grupo 1116921" transform="translate(441.187 -2760.169)">
      <g id="Grupo_1116526" data-name="Grupo 1116526" transform="translate(696.899 3503.941)">
        <g id="Elipse_157" data-name="Elipse 157" transform="translate(15.151 15.059)" fill="#fff" stroke="#ffce79" stroke-linejoin="round" stroke-width="5">
          <circle cx="36" cy="36" r="36" stroke="none"/>
          <circle cx="36" cy="36" r="38.5" fill="none"/>
        </g>
      </g>
      <g id="Grupo_1127798" data-name="Grupo 1127798" transform="translate(651.198 3526.996)">
        <g id="Grupo_1127796" data-name="Grupo 1127796" transform="translate(83.457 7.5)">
          <rect id="Rectángulo_413395" data-name="Rectángulo 413395" width="28.47" height="7.964" transform="translate(0 0)" fill="#c38340"/>
          <path id="Trazado_919579" data-name="Trazado 919579" d="M100.778,38.426v.619a3.085,3.085,0,0,1-6.171,0v-.619H83.457V76.881h28.47V38.426Z" transform="translate(-83.457 -35.874)" fill="#f7bd83"/>
          <g id="Grupo_1127795" data-name="Grupo 1127795" transform="translate(0 2.552)">
            <path id="Trazado_919580" data-name="Trazado 919580" d="M85.266,75.072V38.426H83.457V76.881h28.47V75.072Z" transform="translate(-83.457 -38.426)" fill="#f3a451"/>
          </g>
          <path id="Trazado_919581" data-name="Trazado 919581" d="M265.86,219.068h-3.342a6.56,6.56,0,0,0-6.56,6.56v3.343H259.3a6.56,6.56,0,0,0,6.56-6.56Z" transform="translate(-241.722 -201.609)" fill="#54e072"/>
          <path id="Trazado_919582" data-name="Trazado 919582" d="M261.118,239.413h-3.343V236.07a6.529,6.529,0,0,1,1.1-3.64,6.553,6.553,0,0,0-2.92,5.458v3.342H259.3a6.553,6.553,0,0,0,5.458-2.92A6.529,6.529,0,0,1,261.118,239.413Z" transform="translate(-241.723 -213.868)" fill="#00ca0f"/>
          <path id="Trazado_919583" data-name="Trazado 919583" d="M145.86,228.971h-3.342a6.56,6.56,0,0,1-6.56-6.56v-3.342H139.3a6.56,6.56,0,0,1,6.56,6.56Z" transform="translate(-131.625 -201.609)" fill="#54e072"/>
          <path id="Trazado_919584" data-name="Trazado 919584" d="M142.768,227.161a5,5,0,0,1-5-5v-3.091h-1.809v3.343a6.56,6.56,0,0,0,6.56,6.56h3.342v-1.809Z" transform="translate(-131.625 -201.608)" fill="#00ca0f"/>
        </g>
        <g id="Grupo_1127797" data-name="Grupo 1127797" transform="translate(83.457 7.5)">
          <path id="Trazado_919585" data-name="Trazado 919585" d="M105.738,76.881h6.189V38.426h-11.15v.619a3.085,3.085,0,0,1-6.171,0v-.619H83.457V76.881H104.5" transform="translate(-83.457 -35.874)" fill="none" stroke="#000" stroke-miterlimit="10" stroke-width="1"/>
          <path id="Trazado_919586" data-name="Trazado 919586" d="M270.957,7.5h13v2.552" transform="translate(-255.484 -7.5)" fill="none" stroke="#000" stroke-miterlimit="10" stroke-width="1"/>
          <path id="Trazado_919587" data-name="Trazado 919587" d="M83.457,10.052V7.5H97.692" transform="translate(-83.457 -7.5)" fill="none" stroke="#000" stroke-miterlimit="10" stroke-width="1"/>
          <line id="Línea_3854" data-name="Línea 3854" y2="1.238" transform="translate(3.686 8.122)" fill="none" stroke="#000" stroke-miterlimit="10" stroke-width="1"/>
          <line id="Línea_3855" data-name="Línea 3855" y2="1.238" transform="translate(7.4 8.122)" fill="none" stroke="#000" stroke-miterlimit="10" stroke-width="1"/>
          <line id="Línea_3856" data-name="Línea 3856" y2="1.238" transform="translate(5.57 5.647)" fill="none" stroke="#000" stroke-miterlimit="10" stroke-width="1"/>
          <path id="Trazado_919588" data-name="Trazado 919588" d="M265.86,219.068h-3.342a6.56,6.56,0,0,0-6.56,6.56v3.343H259.3a6.56,6.56,0,0,0,6.56-6.56Z" transform="translate(-241.722 -201.609)" fill="none" stroke="#000" stroke-miterlimit="10" stroke-width="1"/>
          <path id="Trazado_919589" data-name="Trazado 919589" d="M145.86,228.971h-3.342a6.56,6.56,0,0,1-6.56-6.56v-3.342H139.3a6.56,6.56,0,0,1,6.56,6.56Z" transform="translate(-131.625 -201.609)" fill="none" stroke="#000" stroke-miterlimit="10" stroke-width="1"/>
          <line id="Línea_3857" data-name="Línea 3857" x1="4.907" y1="4.907" transform="translate(9.329 22.455)" fill="none" stroke="#000" stroke-miterlimit="10" stroke-width="1"/>
          <line id="Línea_3858" data-name="Línea 3858" y1="4.907" x2="4.907" transform="translate(14.28 22.411)" fill="none" stroke="#000" stroke-miterlimit="10" stroke-width="1"/>
        </g>
      </g>
    </g>
  </g>
</svg>
