<svg xmlns="http://www.w3.org/2000/svg" width="82" height="82" viewBox="0 0 82 82">
  <g id="Grupo_1127834" data-name="Grupo 1127834" transform="translate(-16207.372 10854.17)">
    <g id="Grupo_1127463" data-name="Grupo 1127463" transform="translate(15500.321 -14368.169)">
      <g id="Grupo_1116526" data-name="Grupo 1116526" transform="translate(696.899 3503.941)">
        <g id="Elipse_157" data-name="Elipse 157" transform="translate(15.151 15.059)" fill="#fff" stroke="#ffce79" stroke-linejoin="round" stroke-width="5">
          <circle cx="36" cy="36" r="36" stroke="none"/>
          <circle cx="36" cy="36" r="38.5" fill="none"/>
        </g>
      </g>
      <g id="Grupo_1127811" data-name="Grupo 1127811" transform="translate(638.036 3529.502)">
        <path id="Trazado_919600" data-name="Trazado 919600" d="M163.731,76.8v35.7c0,3.757-6.085,6.8-13.6,6.8-.3,0-.586-.008-.875-.017s-.552-.025-.824-.034c-6.714-.416-11.9-3.281-11.9-6.748V81.3a21.221,21.221,0,0,0,10.2,2.3c.238,0,.467-.008.7-.017h.161c.28.008.561.017.841.017s.552-.008.824-.017c.289.008.578.017.875.017.161,0,.331,0,.493-.008.119,0,.238,0,.357-.008.561-.017,1.113-.051,1.649-.1.272-.017.535-.051.8-.085s.527-.068.782-.11a19.1,19.1,0,0,0,5.133-1.487,4.721,4.721,0,0,0,.51-.246c.161-.076.323-.17.476-.255.119-.068.247-.136.365-.212.17-.1.331-.2.484-.314C162.787,79.647,163.731,78.279,163.731,76.8Z" transform="translate(-38.418 -69.151)" fill="#ffa800"/>
        <path id="Trazado_919601" data-name="Trazado 919601" d="M129.6,76.8v35.7c0,3.468-5.184,6.332-11.9,6.748-.272.008-.544.025-.824.034s-.578.017-.875.017c-7.513,0-13.6-3.043-13.6-6.8V76.8c0,1.479.943,2.847,2.55,3.969a8.43,8.43,0,0,0,.85.527A21.221,21.221,0,0,0,116,83.6c.238,0,.467-.008.7-.017h.161C123.971,83.361,129.6,80.412,129.6,76.8Z" transform="translate(-7.685 -69.151)" fill="#fff"/>
        <path id="Trazado_919602" data-name="Trazado 919602" d="M153.5,116.651v31.727c0,3.612-5.269,6.561-11.924,6.782-.272.008-.544.017-.824.017s-.552-.008-.824-.017c-6.655-.221-11.924-3.17-11.924-6.782V116.651a8.428,8.428,0,0,0,.85.527,21.221,21.221,0,0,0,10.2,2.3c.238,0,.467-.008.7-.017h.161c.28.008.561.017.841.017s.552-.008.824-.017c.289.008.578.017.875.017.161,0,.331,0,.493-.008.119,0,.238,0,.357-.008.561-.017,1.113-.051,1.649-.1.272-.017.535-.051.8-.085s.527-.068.782-.11a19.1,19.1,0,0,0,5.133-1.487,4.723,4.723,0,0,0,.51-.247c.161-.076.323-.17.476-.255.119-.068.247-.136.365-.212C153.183,116.863,153.344,116.761,153.5,116.651Z" transform="translate(-30.734 -105.033)" fill="#ffe100"/>
        <ellipse id="Elipse_12375" data-name="Elipse 12375" cx="13.598" cy="6.799" rx="13.598" ry="6.799" transform="translate(98.116 0.85)" fill="#ffa800"/>
        <ellipse id="Elipse_12376" data-name="Elipse 12376" cx="13.598" cy="6.799" rx="13.598" ry="6.799" transform="translate(94.716 0.85)" fill="#fff"/>
        <ellipse id="Elipse_12377" data-name="Elipse 12377" cx="12.749" cy="6.799" rx="12.749" ry="6.799" transform="translate(97.266 0.85)" fill="#ffe100"/>
        <g id="Grupo_1127808" data-name="Grupo 1127808" transform="translate(93.866)">
          <path id="Trazado_919603" data-name="Trazado 919603" d="M110.015,15.3c-9.055,0-16.148-3.36-16.148-7.649S100.96,0,110.015,0s16.148,3.36,16.148,7.649S119.07,15.3,110.015,15.3Zm0-13.6c-8.643,0-14.448,3.076-14.448,5.949s5.806,5.949,14.448,5.949,14.448-3.076,14.448-5.949S118.658,1.7,110.015,1.7Z" transform="translate(-93.867)"/>
          <path id="Trazado_919604" data-name="Trazado 919604" d="M99.151,236.877a.851.851,0,0,1-.345-.074c-3.185-1.421-4.94-3.393-4.94-5.553a.85.85,0,1,1,1.7,0c0,1.428,1.433,2.886,3.933,4a.85.85,0,0,1-.347,1.626Z" transform="translate(-93.866 -207.453)"/>
          <path id="Trazado_919605" data-name="Trazado 919605" d="M357.377,236.877a.85.85,0,0,1-.347-1.626c2.5-1.115,3.933-2.573,3.933-4a.85.85,0,1,1,1.7,0c0,2.16-1.755,4.133-4.94,5.553a.849.849,0,0,1-.345.074Z" transform="translate(-330.366 -207.453)"/>
          <path id="Trazado_919606" data-name="Trazado 919606" d="M110.015,435.166c-9.055,0-16.148-3.36-16.148-7.649a.85.85,0,1,1,1.7,0c0,2.873,5.806,5.949,14.448,5.949s14.448-3.076,14.448-5.949a.85.85,0,1,1,1.7,0C126.163,431.806,119.07,435.166,110.015,435.166Z" transform="translate(-93.867 -384.172)"/>
          <path id="Trazado_919607" data-name="Trazado 919607" d="M223.554,461.386l-.054,0c-.3-.018-.588-.041-.876-.068a.85.85,0,1,1,.158-1.692q.407.038.825.064a.85.85,0,0,1-.052,1.7Z" transform="translate(-209.104 -413.843)"/>
          <path id="Trazado_919608" data-name="Trazado 919608" d="M134.8,415.716a.858.858,0,0,1-.206-.025c-4.127-1.024-6.59-2.983-6.59-5.241a.85.85,0,1,1,1.7,0c0,1.362,2.13,2.8,5.3,3.591a.85.85,0,0,1-.2,1.675Z" transform="translate(-124.6 -368.805)"/>
          <path id="Trazado_919609" data-name="Trazado 919609" d="M94.716,220.914a.85.85,0,0,1-.85-.85V197.117a.85.85,0,1,1,1.7,0v22.947a.85.85,0,0,1-.85.85Z" transform="translate(-93.866 -176.719)"/>
          <path id="Trazado_919610" data-name="Trazado 919610" d="M94.716,75.917a.85.85,0,0,1-.85-.85v-5.95a.85.85,0,1,1,1.7,0v5.95a.85.85,0,0,1-.85.85Z" transform="translate(-93.866 -61.468)"/>
          <path id="Trazado_919611" data-name="Trazado 919611" d="M94.716,163.853a.713.713,0,0,1-.323-.068.8.8,0,0,1-.281-.178.862.862,0,0,1,0-1.207.871.871,0,0,1,.764-.229.517.517,0,0,1,.162.051.644.644,0,0,1,.153.077l.128.1a.862.862,0,0,1,0,1.207l-.128.1a.646.646,0,0,1-.153.077.525.525,0,0,1-.162.051A1.065,1.065,0,0,1,94.716,163.853Z" transform="translate(-93.866 -146.005)"/>
          <path id="Trazado_919612" data-name="Trazado 919612" d="M401.916,105.663a.85.85,0,0,1-.85-.85v-35.7a.85.85,0,1,1,1.7,0v35.7a.85.85,0,0,1-.85.85Z" transform="translate(-370.47 -61.468)"/>
        </g>
        <circle id="Elipse_12378" data-name="Elipse 12378" cx="11.049" cy="11.049" r="11.049" transform="translate(98.966 19.548)" fill="#ffa800"/>
        <ellipse id="Elipse_12379" data-name="Elipse 12379" cx="9.774" cy="11.049" rx="9.774" ry="11.049" transform="translate(98.966 19.548)" fill="#ffe100"/>
        <path id="Trazado_919613" data-name="Trazado 919613" d="M148.432,211.53a11.9,11.9,0,1,1,11.9-11.9A11.9,11.9,0,0,1,148.432,211.53Zm0-22.1a10.2,10.2,0,1,0,10.2,10.2A10.2,10.2,0,0,0,148.432,189.433Z" transform="translate(-38.417 -169.035)"/>
        <path id="SVGCleanerId_0" d="M148.432,42.632c-5.913,0-11.9-1.46-11.9-4.25s5.986-4.25,11.9-4.25,11.9,1.46,11.9,4.25S154.344,42.632,148.432,42.632Zm0-6.8c-6.327,0-10.2,1.651-10.2,2.55s3.872,2.55,10.2,2.55,10.2-1.651,10.2-2.55S154.759,35.833,148.432,35.833Z" transform="translate(-38.417 -30.733)"/>
        <ellipse id="Elipse_12380" data-name="Elipse 12380" cx="11.049" cy="3.4" rx="11.049" ry="3.4" transform="translate(98.966 4.25)" fill="#ffa800"/>
        <ellipse id="Elipse_12381" data-name="Elipse 12381" cx="9.774" cy="3.4" rx="9.774" ry="3.4" transform="translate(98.966 4.25)" fill="#ffe100"/>
        <g id="Grupo_1127809" data-name="Grupo 1127809" transform="translate(98.116 3.4)">
          <path id="SVGCleanerId_0_1_" d="M148.432,42.632c-5.913,0-11.9-1.46-11.9-4.25s5.986-4.25,11.9-4.25,11.9,1.46,11.9,4.25S154.344,42.632,148.432,42.632Zm0-6.8c-6.327,0-10.2,1.651-10.2,2.55s3.872,2.55,10.2,2.55,10.2-1.651,10.2-2.55S154.759,35.833,148.432,35.833Z" transform="translate(-136.533 -34.133)"/>
        </g>
        <path id="Trazado_919614" data-name="Trazado 919614" d="M220.982,69.967h-6.8a.85.85,0,1,1,0-1.7h6.8a.85.85,0,0,1,0,1.7Z" transform="translate(-107.568 -61.468)"/>
        <ellipse id="Elipse_12382" data-name="Elipse 12382" cx="5.949" cy="5.524" rx="5.949" ry="5.524" transform="translate(104.065 27.197)" fill="#dd3859"/>
        <ellipse id="Elipse_12383" data-name="Elipse 12383" cx="4.674" cy="5.524" rx="4.674" ry="5.524" transform="translate(104.065 27.197)" fill="#e4667f"/>
        <g id="Grupo_1127810" data-name="Grupo 1127810" transform="translate(103.215 22.097)">
          <path id="Trazado_919615" data-name="Trazado 919615" d="M194.532,277.254a6.388,6.388,0,1,1,6.8-6.374A6.6,6.6,0,0,1,194.532,277.254Zm0-11.049a4.692,4.692,0,1,0,5.1,4.674,4.906,4.906,0,0,0-5.1-4.674Z" transform="translate(-187.733 -260.256)"/>
          <path id="Trazado_919616" data-name="Trazado 919616" d="M225.267,323.828a3.212,3.212,0,0,1-3.4-2.974.85.85,0,1,1,1.7,0c0,.691.779,1.274,1.7,1.274a.85.85,0,0,1,0,1.7Z" transform="translate(-218.467 -310.23)"/>
          <path id="Trazado_919617" data-name="Trazado 919617" d="M248.316,227.816a.85.85,0,0,1-.85-.85v-4.249a.85.85,0,1,1,1.7,0v4.25a.85.85,0,0,1-.85.85Z" transform="translate(-241.517 -221.867)"/>
          <path id="Trazado_919618" data-name="Trazado 919618" d="M217.585,243.186a.842.842,0,0,1-.509-.17l-3.4-2.55a.85.85,0,1,1,1.019-1.36l3.4,2.55a.85.85,0,0,1-.511,1.53Z" transform="translate(-210.787 -237.236)"/>
          <path id="Trazado_919619" data-name="Trazado 919619" d="M248.319,243.186a.85.85,0,0,1-.51-1.53l3.4-2.55a.85.85,0,0,1,1.019,1.359l-3.4,2.55a.842.842,0,0,1-.509.17Z" transform="translate(-241.519 -237.237)"/>
        </g>
      </g>
    </g>
  </g>
</svg>
