<svg height="129" viewBox="0 0 129 129" width="129" xmlns="http://www.w3.org/2000/svg" xmlns:xlink="http://www.w3.org/1999/xlink"><radialGradient id="a" cx=".5" cy=".5" gradientUnits="objectBoundingBox" r=".5"><stop offset="0" stop-color="#fff"/><stop offset="1" stop-color="#fff7ea"/></radialGradient><g transform="translate(-425.572 -4163)"><g fill="url(#a)" stroke="#fff" stroke-width="2" transform="translate(440.571 4178)"><circle cx="49.5" cy="49.5" r="49.5" stroke="none"/><circle cx="49.5" cy="49.5" fill="none" r="48.5"/></g><g fill="none" opacity=".43" stroke="#59836b" stroke-width="10"><circle cx="490.071" cy="4227.5" r="64.5" stroke="none"/><circle cx="490.071" cy="4227.5" fill="none" r="59.5"/></g></g><g transform="translate(46 33.582)"><path d="m33 3v10h-28v-10a2.006 2.006 0 0 1 2-2h24a2.006 2.006 0 0 1 2 2z" fill="#fcd770"/><path d="m33 13a7.241 7.241 0 0 1 4 6.47v35.53a6 6 0 0 1 -6 6h-24a6 6 0 0 1 -6-6v-35.53a7.241 7.241 0 0 1 4-6.47z" fill="#ffeaa7"/><path d="m23 9h-8a4 4 0 1 1 8 0z" fill="#e6e9ed"/><path d="m19 19a14 14 0 1 1 -14 14 14 14 0 0 1 14-14z" fill="#ff826e"/><path d="m23 26v7h-3a1 1 0 0 0 -1 1v3h-7a1 1 0 0 1 -1-1v-10a1 1 0 0 1 1-1h10a1 1 0 0 1 1 1z" fill="#ccd1d9"/><path d="m27 34v6a1 1 0 0 1 -1 1h-6a1 1 0 0 1 -1-1v-6a1 1 0 0 1 1-1h6a1 1 0 0 1 1 1z" fill="#e6e9ed"/><g><path d="m19 18a15 15 0 1 0 15 15 15.017 15.017 0 0 0 -15-15zm0 2a12.932 12.932 0 0 1 8.447 3.138l-3.447 3.448v-.586a2 2 0 0 0 -2-2h-10a2 2 0 0 0 -2 2v10a2 2 0 0 0 2 2h.586l-3.447 3.447a12.982 12.982 0 0 1 9.861-21.447zm7 14v6h-6v-6zm-6-2a2 2 0 0 0 -2 2v2h-6v-10h10v6zm-1 14a12.932 12.932 0 0 1 -8.447-3.138l4.861-4.862h2.586v2a2 2 0 0 0 2 2h6a2 2 0 0 0 2-2v-6a2 2 0 0 0 -2-2h-2v-2.586l4.862-4.862a12.984 12.984 0 0 1 -9.862 21.448z"/><path d="m34 12.431v-9.431a3 3 0 0 0 -3-3h-24a3 3 0 0 0 -3 3v9.431a8.171 8.171 0 0 0 -4 7.041v35.528a7.008 7.008 0 0 0 7 7h24a7.008 7.008 0 0 0 7-7v-35.528a8.173 8.173 0 0 0 -4-7.041zm-28-2.431h2v2h-2zm4 0h2v2h-2zm6.184-2a2.982 2.982 0 0 1 5.632 0zm-2.184 2h2v2h-2zm4 0h2v2h-2zm4 0h2v2h-2zm4 0h2v2h-2zm4 0h2v2h-2zm-23-8h24a1 1 0 0 1 1 1v5h-8.1a5 5 0 0 0 -9.8 0h-8.1v-5a1 1 0 0 1 1-1zm29 53a5.006 5.006 0 0 1 -5 5h-24a5.006 5.006 0 0 1 -5-5v-35.528a6.192 6.192 0 0 1 3.268-5.472h27.463a6.191 6.191 0 0 1 3.269 5.472z"/><path d="m4 50h4v2h-4z"/><path d="m10 50h4v2h-4z"/><path d="m4 54h10v2h-10z"/></g></g></svg>