<svg height="82" viewBox="0 0 82 82" width="82" xmlns="http://www.w3.org/2000/svg"><g fill="#fff" stroke="#ffce79" stroke-linejoin="round" stroke-width="5"><circle cx="41" cy="41" r="36" stroke="none"/><circle cx="41" cy="41" fill="none" r="38.5"/></g><g transform="translate(27.605 20.496)"><path d="m0 0h28.47v7.964h-28.47z" fill="#c38340"/><path d="m100.778 38.426v.619a3.085 3.085 0 0 1 -6.171 0v-.619h-11.15v38.455h28.47v-38.455z" fill="#f7bd83" transform="translate(-83.457 -35.874)"/><path d="m85.266 75.072v-36.646h-1.809v38.455h28.47v-1.809z" fill="#f3a451" transform="translate(-83.457 -35.874)"/><path d="m265.86 219.068h-3.342a6.56 6.56 0 0 0 -6.56 6.56v3.343h3.342a6.56 6.56 0 0 0 6.56-6.56z" fill="#54e072" transform="translate(-241.722 -201.609)"/><path d="m261.118 239.413h-3.343v-3.343a6.529 6.529 0 0 1 1.1-3.64 6.553 6.553 0 0 0 -2.92 5.458v3.342h3.345a6.553 6.553 0 0 0 5.458-2.92 6.529 6.529 0 0 1 -3.64 1.103z" fill="#00ca0f" transform="translate(-241.723 -213.868)"/><path d="m145.86 228.971h-3.342a6.56 6.56 0 0 1 -6.56-6.56v-3.342h3.342a6.56 6.56 0 0 1 6.56 6.56z" fill="#54e072" transform="translate(-131.625 -201.609)"/><path d="m142.768 227.161a5 5 0 0 1 -5-5v-3.091h-1.809v3.343a6.56 6.56 0 0 0 6.56 6.56h3.342v-1.809z" fill="#00ca0f" transform="translate(-131.625 -201.608)"/></g><g fill="none" stroke="#000" stroke-miterlimit="10"><path d="m105.738 76.881h6.189v-38.455h-11.15v.619a3.085 3.085 0 0 1 -6.171 0v-.619h-11.149v38.455h21.043" transform="translate(-55.852 -15.378)"/><path d="m270.957 7.5h13v2.552" transform="translate(-227.879 12.996)"/><path d="m83.457 10.052v-2.552h14.235" transform="translate(-55.852 12.996)"/><path d="m31.291 28.618v1.238"/><path d="m35.005 28.618v1.238"/><path d="m33.175 26.143v1.238"/><path d="m265.86 219.068h-3.342a6.56 6.56 0 0 0 -6.56 6.56v3.343h3.342a6.56 6.56 0 0 0 6.56-6.56z" transform="translate(-214.117 -181.113)"/><path d="m145.86 228.971h-3.342a6.56 6.56 0 0 1 -6.56-6.56v-3.342h3.342a6.56 6.56 0 0 1 6.56 6.56z" transform="translate(-104.02 -181.113)"/><path d="m41.841 47.858-4.907-4.907"/><path d="m41.885 47.814 4.907-4.907"/></g></svg>