<svg xmlns="http://www.w3.org/2000/svg" width="57.279" height="66.343" viewBox="0 0 57.279 66.343">
  <g id="Grupo_1127791" data-name="Grupo 1127791" transform="translate(-34.974 0.004)">
    <path id="Trazado_919530" data-name="Trazado 919530" d="M251.409,9.323a2.977,2.977,0,0,0-2.986,2.718,2.945,2.945,0,0,0,.081.988c-.055-.007-.11-.015-.165-.018a3.539,3.539,0,0,0-3.43,5.186,2.648,2.648,0,0,0,.433,4.709c-.621,4.712,1.08,8.716,4.07,12.323,1.282,1.543,4.257,1.26,3.794-1.069-.977-4.881.136-8.679,5.039-8.859a2.649,2.649,0,0,0,2.762-3.4,4.428,4.428,0,0,0,1.524-8.444c0-.026,0-.052.007-.078a3.176,3.176,0,0,0-2.887-3.434l-.184-.011c.007-.052.015-.1.018-.154a2.329,2.329,0,0,0-3.735-2.049,2.565,2.565,0,0,0-4.341,1.6Z" transform="translate(-181.649 -6.096)" fill="#2eb851" fill-rule="evenodd"/>
    <path id="Trazado_919531" data-name="Trazado 919531" d="M120.022,365.713a3.43,3.43,0,1,0-2.328-6.453l-10.556,3.8a3.165,3.165,0,0,0-2.531-5.072H98.542a3.55,3.55,0,0,1-1.554-.342C88.166,353.6,86.37,354.6,76.978,354.6l.062,14.714c7.864,0,6.74-.136,13.546,3.265a12.388,12.388,0,0,0,10.468.492Z" transform="translate(-36.561 -308.563)" fill="#faba7b" fill-rule="evenodd"/>
    <path id="Trazado_919532" data-name="Trazado 919532" d="M41.97,328.549H49.5v21.99H41.97Z" transform="translate(-6.089 -285.981)" fill="#69a7ff"/>
    <g id="Grupo_1127790" data-name="Grupo 1127790" transform="translate(35.881 1.15)">
      <path id="Trazado_919533" data-name="Trazado 919533" d="M125.872,141.049c-1.183.194-1.918.786-2.81.433-6.38-2.52-10.406-16.488-3.386-19.823,2.141-1.017,3.963-.349,5.891.026a7.288,7.288,0,0,0,2.494,0c1.932-.375,3.754-1.043,5.9-.026,7.019,3.335,2.993,17.3-3.386,19.823-.893.353-1.627-.239-2.81-.433a6.256,6.256,0,0,0-1.888,0Z" transform="translate(-106.391 -106.58)" fill="#fb4455" fill-rule="evenodd"/>
      <path id="Trazado_919534" data-name="Trazado 919534" d="M151.983,67.588c.661,3.644,2.729,4.856,6.222,3.592C157.551,67.526,155.469,66.343,151.983,67.588Z" transform="translate(-137.728 -59.568)" fill="#2eb851" fill-rule="evenodd"/>
      <path id="Trazado_919535" data-name="Trazado 919535" d="M386.091,144.661c2.049.114,3.581,1.8,5.131,4.764-4.077-1.131-6.722-1.587-9.884-.184l-1.848-4.525c3.239-1.212,4.808-3.39,6.927-7.052C387.388,140.867,387.472,143.144,386.091,144.661Z" transform="translate(-335.757 -120.98)" fill="#2eb851" fill-rule="evenodd"/>
      <path id="Trazado_919536" data-name="Trazado 919536" d="M150.225,180.318l25.465-13.649a3.56,3.56,0,0,1,2.96-.253,3.5,3.5,0,0,1,2.156,2.049l1.888,4.624a3.506,3.506,0,0,1-.1,2.971,3.569,3.569,0,0,1-2.292,1.9l-27.738,8.084a3.091,3.091,0,0,1-2.336-5.723Z" transform="translate(-134.534 -145.823)" fill="#ffab02" fill-rule="evenodd"/>
      <path id="Trazado_919537" data-name="Trazado 919537" d="M285.519,240.07l9.274-1.19c2.042-.261,3.658,2.384,3.262,4.334l-.992,4.9c-.393,1.947-2.909,3.758-4.691,2.721l-8.08-4.7c-1.469-.852-2.751-1.976-2.417-3.644S283.833,240.283,285.519,240.07Z" transform="translate(-250.743 -209.065)" fill="#fb4455" fill-rule="evenodd"/>
      <path id="Trazado_919538" data-name="Trazado 919538" d="M47.138,348.244H41.97v2.3H49.5v-21.99H47.138v19.695Z" transform="translate(-41.97 -287.131)" fill="#4c8fed" fill-rule="evenodd"/>
      <path id="Trazado_919539" data-name="Trazado 919539" d="M110.733,418.258c-5.833-2.916-5.844-3.232-10.681-3.262v1.987c4.775.033,4.812.356,10.619,3.262a12.388,12.388,0,0,0,10.468.492l18.967-7.361a3.438,3.438,0,0,0,2.145-4.125,3.421,3.421,0,0,1-2.086,2.138L121.2,418.75a12.387,12.387,0,0,1-10.468-.492Z" transform="translate(-92.526 -357.377)" fill="#f5ad65" fill-rule="evenodd"/>
      <path id="Trazado_919540" data-name="Trazado 919540" d="M288.442,240.722l9.274-1.186a2.86,2.86,0,0,1,2.711,1.594,3.979,3.979,0,0,1,.551,2.74l-.209,1.032-.257,1.278-.524,2.582a3.715,3.715,0,0,1-.977,1.781,4.03,4.03,0,0,0,1.748-2.428l.242-1.194.511-2.509.239-1.194a3.938,3.938,0,0,0-.433-2.534,2.95,2.95,0,0,0-2.828-1.8l-9.274,1.19a4.7,4.7,0,0,0-3.148,1.341,6.378,6.378,0,0,1,2.377-.694Z" transform="translate(-254.438 -209.07)" fill="#e82e41" fill-rule="evenodd"/>
      <path id="Trazado_919541" data-name="Trazado 919541" d="M151.565,233.7,162.5,227.84l-.316-.771-11.541,6.185-.07.04a3.544,3.544,0,0,0-1.858,2.384,3.876,3.876,0,0,1,1.326-1.161Z" transform="translate(-134.886 -198.8)" fill="#ed9e00" fill-rule="evenodd"/>
      <path id="Trazado_919542" data-name="Trazado 919542" d="M265.012,192.326l.279.683.988-.529,1-.533,4.191-2.248,1.668-.893-.316-.771-1.388.746-4.646,2.49-.121.062-1.69.907a.627.627,0,0,1,.04.084Z" transform="translate(-236.077 -164.825)" fill="#ed9e00" fill-rule="evenodd"/>
      <path id="Trazado_919543" data-name="Trazado 919543" d="M337.89,168.265l.279.679,1.965-1.054a3.569,3.569,0,0,1,2.964-.25,3.5,3.5,0,0,1,1.682,1.205,3.834,3.834,0,0,1,.474.844l1.55,3.8.338.823a3.5,3.5,0,0,1,.187,2.164,3.637,3.637,0,0,0,.422-3.171,2.211,2.211,0,0,0-.081-.217l-1.888-4.624c-.029-.073-.059-.143-.092-.209a3.5,3.5,0,0,0-2.064-1.84,3.56,3.56,0,0,0-2.96.253l-2.817,1.51c.015.029.026.055.04.088Z" transform="translate(-299.512 -145.821)" fill="#ed9e00" fill-rule="evenodd"/>
      <path id="Trazado_919544" data-name="Trazado 919544" d="M423.275,144.661c1.381-1.517,1.3-3.794.327-7-.25.43-.488.841-.727,1.231.628,2.564.533,4.448-.665,5.766,1.972.11,3.464,1.672,4.955,4.43.4.1.812.217,1.241.334C426.856,146.461,425.325,144.775,423.275,144.661Z" transform="translate(-372.941 -120.98)" fill="#1ca63e" fill-rule="evenodd"/>
      <path id="Trazado_919545" data-name="Trazado 919545" d="M307.854,26.956c-4.165.154-5.594,2.92-5.33,6.74l1.565-.837c0-3.383,1.51-5.759,5.363-5.9a2.649,2.649,0,0,0,2.762-3.4,4.428,4.428,0,0,0,1.524-8.444c0-.026,0-.052.007-.078a3.176,3.176,0,0,0-2.887-3.434l-.184-.011c.007-.052.015-.1.018-.154a2.328,2.328,0,0,0-3.118-2.387A2.331,2.331,0,0,1,309.1,11.43c-.007.052-.011.1-.022.154l.184.011a3.173,3.173,0,0,1,2.887,3.435.54.54,0,0,1-.007.078,4.428,4.428,0,0,1-1.524,8.444,2.586,2.586,0,0,1,.1,1,2.642,2.642,0,0,1-2.865,2.406Z" transform="translate(-268.736 -8.902)" fill="#1ca63e" fill-rule="evenodd"/>
      <path id="Trazado_919546" data-name="Trazado 919546" d="M232.157,123.217c1.513,1.837,1.918,4.558,1.535,7.357a17.221,17.221,0,0,1-.955,3.728l.6-.324,1.689-.907c.015-.055.033-.11.048-.168,1.3-4.533.731-9.454-3.067-11.261a5.621,5.621,0,0,0-.944-.353,6.111,6.111,0,0,0-2.435-.118,5.422,5.422,0,0,1,1.5.47A5.834,5.834,0,0,1,232.157,123.217Z" transform="translate(-204.445 -106.562)" fill="#e82e41" fill-rule="evenodd"/>
    </g>
    <path id="Trazado_919547" data-name="Trazado 919547" d="M80.825,49.845,72.1,52.987q.019-.194.018-.391a4.08,4.08,0,0,0-4.075-4.075H61.981a2.647,2.647,0,0,1-1.177-.259c-7.391-3.387-10.06-3.326-15.909-3.193l-.584.013V42.568a.905.905,0,0,0-.905-.905H35.879a.905.905,0,0,0-.905.905V64.559a.905.905,0,0,0,.905.905h7.526a.905.905,0,0,0,.905-.905V61.674c3.188.058,3.778.356,7.54,2.263.523.265,1.1.559,1.757.887a12.393,12.393,0,0,0,5.94,1.515,15.711,15.711,0,0,0,5.247-.973l.026-.01L83.779,58a4.336,4.336,0,1,0-2.954-8.153ZM42.5,63.654H36.785V43.474H42.5ZM84.578,55a2.5,2.5,0,0,1-1.425,1.3l-.021.008L64.178,63.663a11.515,11.515,0,0,1-9.726-.441l-.022-.012c-.655-.328-1.237-.623-1.76-.888-3.87-1.962-4.7-2.383-8.359-2.457V46.893l.626-.014c5.73-.13,8.1-.185,15.111,3.028a4.466,4.466,0,0,0,1.932.425h6.064A2.268,2.268,0,0,1,70.309,52.6a2.231,2.231,0,0,1-.456,1.356c-.008.011-.014.022-.021.033L69.816,54a2.257,2.257,0,0,1-1.772.857H58.168a.905.905,0,1,0,0,1.811h9.877a4.056,4.056,0,0,0,3.076-1.407L81.44,51.549A2.521,2.521,0,0,1,84.578,55Zm7.57-25.822c-1.079-2.059-2.436-4.169-4.463-4.945.907-1.978.4-4.435-.277-6.658a.905.905,0,0,0-1.65-.191,20.078,20.078,0,0,1-3.518,4.877,4.555,4.555,0,0,0-5.661-1.04l-4.3,2.306c.428-2.186,1.845-3.307,4.3-3.412a3.561,3.561,0,0,0,3.784-3.237q.014-.164.013-.325A5.336,5.336,0,0,0,81.8,6.819a4.087,4.087,0,0,0-3.08-3.771A3.237,3.237,0,0,0,74.171.536a3.468,3.468,0,0,0-5.155,1.852,3.9,3.9,0,0,0-3.144,3.479q-.007.079-.01.158a4.449,4.449,0,0,0-3.7,5.8,3.542,3.542,0,0,0-1.02,2.967,12.648,12.648,0,0,0-2.9.4c-.283.062-.575.126-.861.181a4.8,4.8,0,0,1-.54.069c.01-2.032.348-3.319,2.978-5.151A.905.905,0,1,0,58.782,8.8a11.9,11.9,0,0,0-2.113,1.816,4.654,4.654,0,0,0-1.9-2.266c-1.274-.738-2.936-.748-4.939-.03a.905.905,0,0,0-.585,1.014c.38,2.095,1.22,3.53,2.5,4.264a4.36,4.36,0,0,0,2.213.554,6.567,6.567,0,0,0,1.158-.111,11.575,11.575,0,0,0-.081,1.286c-.222-.045-.445-.093-.663-.141a8.038,8.038,0,0,0-5.591.227c-2.563,1.218-4.055,3.8-4.2,7.26-.2,4.788,2.192,10.264,5.5,12.946A3.891,3.891,0,0,0,52.8,42.435a4.869,4.869,0,0,0,1.361-.2l13.687-3.99A9.705,9.705,0,0,0,68.974,39l8.08,4.7a3.147,3.147,0,0,0,1.6.429,3.934,3.934,0,0,0,1.609-.364,5.042,5.042,0,0,0,2.825-3.388l.062-.305.864,1.3a.905.905,0,1,0,1.509-1l-.861-1.3,1.529.309A.906.906,0,1,0,86.55,37.6l-1.531-.31,1.3-.861a.905.905,0,0,0-1-1.51l-1.3.862.062-.3a4.654,4.654,0,0,0-.229-2.469,4.53,4.53,0,0,0,.867-1.215,4.448,4.448,0,0,0,.461-2.346,20.069,20.069,0,0,1,5.926,1.018.905.905,0,0,0,1.044-1.293ZM62.927,14.193a1.727,1.727,0,0,1,.813-1.326.906.906,0,0,0,.318-1.194,2.633,2.633,0,0,1,2.554-3.858h.018c.035,0,.071.008.106.012a.905.905,0,0,0,1-1.122,2.047,2.047,0,0,1-.056-.685,2.077,2.077,0,0,1,2.056-1.892h.028a.906.906,0,0,0,.9-.82A1.659,1.659,0,0,1,73.47,2.276a.905.905,0,0,0,1.183.069A1.424,1.424,0,0,1,76.935,3.6v.013c0,.03-.007.06-.012.091a.905.905,0,0,0,.843,1.032l.17.01a2.27,2.27,0,0,1,2.054,2.433,1.313,1.313,0,0,0-.013.176.905.905,0,0,0,.529.824A3.523,3.523,0,0,1,79.294,14.9a.905.905,0,0,0-.8,1.168A1.743,1.743,0,0,1,76.673,18.3a.938.938,0,0,0-.111,0c-3.849.143-6.041,2.361-6.221,6.262l-2.533,1.358c.875-4.888-.59-8.9-3.973-10.508a6.578,6.578,0,0,0-.736-.3,1.721,1.721,0,0,1-.171-.92ZM52.644,12.025A3.517,3.517,0,0,1,51.2,9.785a3.515,3.515,0,0,1,2.66.13,3.5,3.5,0,0,1,1.432,2.233A3.5,3.5,0,0,1,52.644,12.025ZM46.385,22.747c.083-1.953.7-4.527,3.169-5.7,1.533-.728,2.873-.434,4.426-.094.294.065.6.131.906.191a8.367,8.367,0,0,0,2.838,0c.307-.059.61-.126.9-.19,1.555-.34,2.9-.635,4.43.093,3.513,1.671,3.631,6.351,2.64,10L63.548,28.2l-.021.011L51.688,34.56c-3.1-2.122-5.49-7.382-5.3-11.813ZM82.306,35.12l-.5,2.446-.5,2.448a3.249,3.249,0,0,1-1.791,2.094,1.7,1.7,0,0,1-1.557.023l-8.081-4.7c-1.991-1.159-2.12-2.007-1.985-2.681.13-.637.572-1.4,2.87-1.7h0l9.274-1.19a1.3,1.3,0,0,1,.166-.01,1.784,1.784,0,0,1,1.259.641,3.106,3.106,0,0,1,.38.51.9.9,0,0,0,.125.277.877.877,0,0,0,.066.085,2.976,2.976,0,0,1,.265,1.754Zm.492-3.858a3.441,3.441,0,0,0-2.982-1.195l-9.274,1.19c-.961.122-3.88.491-4.417,3.133a3.331,3.331,0,0,0,.377,2.362l-3.112.907-.584-1.43a.9.9,0,1,0-1.675.684l.512,1.256L53.65,40.5a2.356,2.356,0,0,1-2.936-1.165A2.329,2.329,0,0,1,52,36.448l11.512-6.171.7,1.709a.9.9,0,1,0,1.675-.685l-.77-1.884,7.832-4.2,1.121,2.741a.9.9,0,1,0,1.675-.685L74.546,24.36l2.888-1.548a2.653,2.653,0,0,1,2.235-.2,2.609,2.609,0,0,1,1.617,1.536l1.887,4.622A2.609,2.609,0,0,1,83.1,31a2.953,2.953,0,0,1-.212.363c-.029-.033-.056-.066-.085-.1Zm1.876-3.6-1.542-3.778a15.762,15.762,0,0,0,3.063-3.72c.355,1.925.141,3.186-.649,4.056a.905.905,0,0,0,.62,1.513c1.167.065,2.2.814,3.3,2.438a15.78,15.78,0,0,0-4.79-.509ZM77.607,33.6a.905.905,0,1,1,1.811-.007V33.6a.905.905,0,1,1-1.811,0Zm-1.073,5.3,0,.007a.905.905,0,1,1,0-.007Zm3-1.632v.007a.9.9,0,1,1,0-.007ZM79.411,40.2v.007a.905.905,0,1,1,0-.007Zm2.072-4.565,0,.008a.906.906,0,1,1,0-.008Zm-4.356-.022,0,.007a.912.912,0,1,1,0-.007Zm-6.233-.581v.007a.905.905,0,1,1,0-.007Zm2.154.428a.907.907,0,1,1,.905-.913v.007A.905.905,0,0,1,73.048,35.463Zm1.125,2.087,0,.007a.905.905,0,1,1,0-.007Z"/>
  </g>
</svg>
