<svg height="95" viewBox="0 0 95 95" width="95" xmlns="http://www.w3.org/2000/svg"><g fill="#fff" stroke="#ffce79" stroke-linejoin="round" stroke-width="5"><circle cx="47.5" cy="47.5" r="42.5" stroke="none"/><circle cx="47.5" cy="47.5" fill="none" r="45"/></g><g transform="translate(24.577 17.725)"><path d="m36 12a6 6 0 0 0 2.051 4.517l2.879 2.517a9.011 9.011 0 0 1 3.07 6.766v24.2a9 9 0 0 1 -9 9h-25a9 9 0 0 1 -9-9v-24.2a9.011 9.011 0 0 1 3.07-6.77l2.879-2.517a6 6 0 0 0 2.051-4.513v-4h27z" fill="#02a9f4"/><path d="m40.93 19.034-2.879-2.517a6 6 0 0 1 -2.051-4.517v-4h-3v4a6 6 0 0 0 2.051 4.517l2.879 2.517a9.011 9.011 0 0 1 3.07 6.766v24.2a9 9 0 0 1 -9 9h3a9 9 0 0 0 9-9v-24.2a9.011 9.011 0 0 0 -3.07-6.766z" fill="#0377bc"/><rect fill="#ffdc00" height="7" rx="2" width="33" x="6" y="1"/><path d="m37 1h-3a2 2 0 0 1 2 2v3a2 2 0 0 1 -2 2h3a2 2 0 0 0 2-2v-3a2 2 0 0 0 -2-2z" fill="#fec108"/><path d="m25.091 50.118a40.632 40.632 0 0 1 -11.865 4.782 5.232 5.232 0 0 1 -2.007-10.27c.246-.051 13.007-2.811 19.108-14.389a5.232 5.232 0 0 1 9.257 4.88 38.031 38.031 0 0 1 -14.493 15z" fill="#a4c400"/><path d="m33.457 27.677a5.227 5.227 0 0 1 3.127 7.448 38.031 38.031 0 0 1 -14.493 14.993 41.869 41.869 0 0 1 -11.291 4.659 5.166 5.166 0 0 0 2.423.127 40.632 40.632 0 0 0 11.865-4.786 38.031 38.031 0 0 0 14.5-14.993 5.233 5.233 0 0 0 -6.127-7.448z" fill="#90ac00"/><path d="m22.08 32.72a8.623 8.623 0 0 1 -10.839 3.641 1.79 1.79 0 0 0 -1.973.371 1.794 1.794 0 0 1 -2.536 0l-.464-.464a1.794 1.794 0 0 1 0-2.536l.026-.026a1.8 1.8 0 0 0 .373-1.972 8.606 8.606 0 1 1 15.413.986z" fill="#ffeb3a"/><path d="m20.65 22.3a8.592 8.592 0 0 0 -7.565-2.34 8.6 8.6 0 0 1 .015 16.94 8.6 8.6 0 0 0 7.55-14.6z" fill="#fdd834"/><path d="m40 49a1 1 0 0 0 -1 1 4 4 0 0 1 -4 4 1 1 0 0 0 0 2 6.006 6.006 0 0 0 6-6 1 1 0 0 0 -1-1z"/><path d="m40 6v-3a3 3 0 0 0 -3-3h-29a3 3 0 0 0 -3 3v3a3 3 0 0 0 3 3v3a5 5 0 0 1 -1.709 3.764l-2.88 2.518a10.006 10.006 0 0 0 -3.411 7.518v24.2a10.011 10.011 0 0 0 10 10h25a10.011 10.011 0 0 0 10-10v-24.2a10.008 10.008 0 0 0 -3.412-7.523l-2.879-2.517a5 5 0 0 1 -1.709-3.76v-3a3 3 0 0 0 3-3zm-33 0v-3a1 1 0 0 1 1-1h29a1 1 0 0 1 1 1v3a1 1 0 0 1 -1 1h-29a1 1 0 0 1 -1-1zm28 5h-16a1 1 0 0 0 0 2h16.081a6.987 6.987 0 0 0 2.312 4.27l2.878 2.516a8.007 8.007 0 0 1 2.729 6.014v24.2a8.009 8.009 0 0 1 -8 8h-25a8.009 8.009 0 0 1 -8-8v-24.2a8 8 0 0 1 2.729-6.017l2.878-2.517a6.987 6.987 0 0 0 2.312-4.266h4.081a1 1 0 0 0 0-2h-4v-2h25z"/><path d="m11.025 43.653a6.232 6.232 0 0 0 2.389 12.233 41.251 41.251 0 0 0 12.186-4.907 38.766 38.766 0 0 0 14.869-15.387 6.233 6.233 0 0 0 -11.027-5.813c-5.872 11.144-18.3 13.85-18.417 13.874zm20.187-12.941a4.232 4.232 0 1 1 7.488 3.947 36.785 36.785 0 0 1 -14.116 14.6 39.742 39.742 0 0 1 -11.547 4.665 4.232 4.232 0 0 1 -1.613-8.309c.546-.115 13.476-2.933 19.788-14.9z"/><circle cx="12" cy="49" r="1"/><circle cx="18" cy="50" r="1"/><circle cx="21" cy="45" r="1"/><circle cx="27" cy="44" r="1"/><circle cx="29" cy="39" r="1"/><circle cx="34" cy="37" r="1"/><circle cx="33" cy="32" r="1"/><path d="m13.967 18.844a9.592 9.592 0 0 0 -8.224 13.273.814.814 0 0 1 -.182.908 2.8 2.8 0 0 0 0 3.95l.464.464a2.8 2.8 0 0 0 3.95 0 .794.794 0 0 1 .875-.157 9.61 9.61 0 0 0 10.535-15.661 8.413 8.413 0 0 1 4.759-1.087 1 1 0 1 0 .144-2 12.216 12.216 0 0 0 -2.848.182l.651-.837a1 1 0 1 0 -1.578-1.228l-.652.837a12.341 12.341 0 0 0 -.522-2.805 1 1 0 1 0 -1.9.63 8.41 8.41 0 0 1 .11 4.893 9.664 9.664 0 0 0 -5.582-1.362zm7.249 13.373a7.654 7.654 0 0 1 -9.584 3.224 2.784 2.784 0 0 0 -3.071.584.8.8 0 0 1 -1.122 0l-.464-.464a.8.8 0 0 1 .025-1.148 2.8 2.8 0 0 0 .59-3.063 7.606 7.606 0 1 1 13.625.867z"/><path d="m14.616 22.82a5.614 5.614 0 0 0 -5.575 6.3 1 1 0 1 0 1.986-.239 3.61 3.61 0 0 1 3.589-4.056 1 1 0 0 0 0-2z"/></g></svg>