<svg height="49.226" viewBox="0 0 49.226 49.226" width="49.226" xmlns="http://www.w3.org/2000/svg"><g transform="translate(-303.526 -3276.302)"><g fill="#73964a" stroke="#ffce79" stroke-linejoin="round" stroke-width="3"><circle cx="328.139" cy="3300.915" r="21.613" stroke="none"/><circle cx="328.139" cy="3300.915" fill="none" r="23.113"/></g><path d="m3.454 11.477h1.354a1.907 1.907 0 0 0 1.433-.483 1.771 1.771 0 0 0 .465-1.284 1.566 1.566 0 0 0 -.461-1.2 1.788 1.788 0 0 0 -1.27-.431 1.874 1.874 0 0 0 -1.222.4 1.279 1.279 0 0 0 -.492 1.042h-2.54a3.124 3.124 0 0 1 .541-1.8 3.6 3.6 0 0 1 1.511-1.245 5.045 5.045 0 0 1 2.14-.448 4.785 4.785 0 0 1 3.182.972 3.314 3.314 0 0 1 1.151 2.675 2.693 2.693 0 0 1 -.536 1.617 3.483 3.483 0 0 1 -1.41 1.134 3.18 3.18 0 0 1 1.613 1.16 3.147 3.147 0 0 1 .532 1.828 3.369 3.369 0 0 1 -1.245 2.733 5 5 0 0 1 -3.292 1.028 4.741 4.741 0 0 1 -3.128-1.01 3.3 3.3 0 0 1 -1.217-2.672h2.537a1.472 1.472 0 0 0 .541 1.178 1.992 1.992 0 0 0 1.332.457 2 2 0 0 0 1.419-.479 1.654 1.654 0 0 0 .514-1.27q0-1.916-2.109-1.916h-1.343z" fill="#fff" transform="translate(322.196 3289.915)"/></g></svg>