<svg xmlns="http://www.w3.org/2000/svg" width="365" height="54.456" viewBox="0 0 365 54.456">
  <g id="Grupo_1127831" data-name="Grupo 1127831" transform="translate(-180.526 -2261.721)">
    <rect id="Rectángulo_409398" data-name="Rectángulo 409398" width="307.949" height="43" rx="21.5" transform="translate(237.577 2267.721)" fill="#ffebc9"/>
    <g id="Grupo_1116532" data-name="Grupo 1116532" transform="translate(0.526 -1816)">
      <path id="Trazado_877785" data-name="Trazado 877785" d="M49.4,27.228l-13.985,15.5L48.468,54.456,73.03,27.235l-.007-.007.007-.007L48.468,0,35.414,11.729Z" transform="translate(180 4077.721)" fill="#73964a"/>
      <path id="Trazado_877786" data-name="Trazado 877786" d="M24.919,47.229l17.946-20-.155-.139L24.907,7.256,15.393,15.85,25.585,27.207,15.363,38.6Z" transform="translate(180 4077.465)" fill="#73964a"/>
      <path id="Trazado_877787" data-name="Trazado 877787" d="M7.264,42.391,20.9,27.235l-.117-.106L7.255,12.094.023,18.608,7.77,27.215,0,35.848Z" transform="translate(180 4077.627)" fill="#73964a"/>
    </g>
  </g>
</svg>
