<svg xmlns="http://www.w3.org/2000/svg" width="95" height="95" viewBox="0 0 95 95">
  <g id="Grupo_1127352" data-name="Grupo 1127352" transform="translate(-392.05 -3514)">
    <g id="Grupo_1106486" data-name="Grupo 1106486" transform="translate(397.05 3519)">
      <g id="Elipse_157" data-name="Elipse 157" transform="translate(0 0)" fill="#fff" stroke="#ffce79" stroke-linejoin="round" stroke-width="5">
        <circle cx="42.5" cy="42.5" r="42.5" stroke="none"/>
        <circle cx="42.5" cy="42.5" r="45" fill="none"/>
      </g>
    </g>
    <g id="Page-1" transform="translate(416.627 3531.725)">
      <g id="_030---Pickling-Food" data-name="030---Pickling-Food">
        <path id="Shape" d="M36,12a6,6,0,0,0,2.051,4.517l2.879,2.517A9.011,9.011,0,0,1,44,25.8V50a9,9,0,0,1-9,9H10a9,9,0,0,1-9-9V25.8a9.011,9.011,0,0,1,3.07-6.77l2.879-2.517A6,6,0,0,0,9,12V8H36Z" fill="#02a9f4"/>
        <path id="Shape-2" data-name="Shape" d="M40.93,19.034l-2.879-2.517A6,6,0,0,1,36,12V8H33v4a6,6,0,0,0,2.051,4.517l2.879,2.517A9.011,9.011,0,0,1,41,25.8V50a9,9,0,0,1-9,9h3a9,9,0,0,0,9-9V25.8A9.011,9.011,0,0,0,40.93,19.034Z" fill="#0377bc"/>
        <rect id="Rectangle-path" width="33" height="7" rx="2" transform="translate(6 1)" fill="#ffdc00"/>
        <path id="Shape-3" data-name="Shape" d="M37,1H34a2,2,0,0,1,2,2V6a2,2,0,0,1-2,2h3a2,2,0,0,0,2-2V3A2,2,0,0,0,37,1Z" fill="#fec108"/>
        <path id="Shape-4" data-name="Shape" d="M25.091,50.118A40.632,40.632,0,0,1,13.226,54.9a5.232,5.232,0,0,1-2.007-10.27c.246-.051,13.007-2.811,19.108-14.389a5.232,5.232,0,0,1,9.257,4.88,38.031,38.031,0,0,1-14.493,15Z" fill="#a4c400"/>
        <path id="Shape-5" data-name="Shape" d="M33.457,27.677a5.227,5.227,0,0,1,3.127,7.448A38.031,38.031,0,0,1,22.091,50.118,41.869,41.869,0,0,1,10.8,54.777a5.166,5.166,0,0,0,2.423.127,40.632,40.632,0,0,0,11.865-4.786,38.031,38.031,0,0,0,14.5-14.993,5.233,5.233,0,0,0-6.127-7.448Z" fill="#90ac00"/>
        <path id="Shape-6" data-name="Shape" d="M22.08,32.72a8.623,8.623,0,0,1-10.839,3.641,1.79,1.79,0,0,0-1.973.371,1.794,1.794,0,0,1-2.536,0l-.464-.464a1.794,1.794,0,0,1,0-2.536l.026-.026a1.8,1.8,0,0,0,.373-1.972,8.606,8.606,0,1,1,15.413.986Z" fill="#ffeb3a"/>
        <path id="Shape-7" data-name="Shape" d="M20.65,22.3a8.592,8.592,0,0,0-7.565-2.34A8.6,8.6,0,0,1,13.1,36.9a8.6,8.6,0,0,0,7.55-14.6Z" fill="#fdd834"/>
        <g id="Grupo_1127736" data-name="Grupo 1127736">
          <path id="Shape-8" data-name="Shape" d="M40,49a1,1,0,0,0-1,1,4,4,0,0,1-4,4,1,1,0,0,0,0,2,6.006,6.006,0,0,0,6-6A1,1,0,0,0,40,49Z"/>
          <path id="Shape-9" data-name="Shape" d="M40,6V3a3,3,0,0,0-3-3H8A3,3,0,0,0,5,3V6A3,3,0,0,0,8,9v3a5,5,0,0,1-1.709,3.764l-2.88,2.518A10.006,10.006,0,0,0,0,25.8V50A10.011,10.011,0,0,0,10,60H35A10.011,10.011,0,0,0,45,50V25.8a10.008,10.008,0,0,0-3.412-7.523L38.709,15.76A5,5,0,0,1,37,12V9A3,3,0,0,0,40,6ZM7,6V3A1,1,0,0,1,8,2H37a1,1,0,0,1,1,1V6a1,1,0,0,1-1,1H8A1,1,0,0,1,7,6Zm28,5H19a1,1,0,0,0,0,2H35.081a6.987,6.987,0,0,0,2.312,4.27l2.878,2.516A8.007,8.007,0,0,1,43,25.8V50a8.009,8.009,0,0,1-8,8H10a8.009,8.009,0,0,1-8-8V25.8a8,8,0,0,1,2.729-6.017l2.878-2.517A6.987,6.987,0,0,0,9.919,13H14a1,1,0,0,0,0-2H10V9H35Z"/>
          <path id="Shape-10" data-name="Shape" d="M11.025,43.653a6.232,6.232,0,0,0,2.389,12.233A41.251,41.251,0,0,0,25.6,50.979,38.766,38.766,0,0,0,40.469,35.592a6.233,6.233,0,0,0-11.027-5.813c-5.872,11.144-18.3,13.85-18.417,13.874ZM31.212,30.712A4.232,4.232,0,1,1,38.7,34.659a36.785,36.785,0,0,1-14.116,14.6,39.742,39.742,0,0,1-11.547,4.665,4.232,4.232,0,0,1-1.613-8.309c.546-.115,13.476-2.933,19.788-14.9Z"/>
          <circle id="Oval" cx="1" cy="1" r="1" transform="translate(11 48)"/>
          <circle id="Oval-2" data-name="Oval" cx="1" cy="1" r="1" transform="translate(17 49)"/>
          <circle id="Oval-3" data-name="Oval" cx="1" cy="1" r="1" transform="translate(20 44)"/>
          <circle id="Oval-4" data-name="Oval" cx="1" cy="1" r="1" transform="translate(26 43)"/>
          <circle id="Oval-5" data-name="Oval" cx="1" cy="1" r="1" transform="translate(28 38)"/>
          <circle id="Oval-6" data-name="Oval" cx="1" cy="1" r="1" transform="translate(33 36)"/>
          <circle id="Oval-7" data-name="Oval" cx="1" cy="1" r="1" transform="translate(32 31)"/>
          <path id="Shape-11" data-name="Shape" d="M13.967,18.844A9.592,9.592,0,0,0,5.743,32.117a.814.814,0,0,1-.182.908,2.8,2.8,0,0,0,0,3.95l.464.464a2.8,2.8,0,0,0,3.95,0,.794.794,0,0,1,.875-.157A9.61,9.61,0,0,0,21.385,21.621a8.413,8.413,0,0,1,4.759-1.087,1,1,0,1,0,.144-2,12.216,12.216,0,0,0-2.848.182l.651-.837a1,1,0,1,0-1.578-1.228l-.652.837a12.341,12.341,0,0,0-.522-2.805,1,1,0,1,0-1.9.63,8.41,8.41,0,0,1,.11,4.893,9.664,9.664,0,0,0-5.582-1.362Zm7.249,13.373a7.654,7.654,0,0,1-9.584,3.224,2.784,2.784,0,0,0-3.071.584.8.8,0,0,1-1.122,0l-.464-.464A.8.8,0,0,1,7,34.413a2.8,2.8,0,0,0,.59-3.063,7.606,7.606,0,1,1,13.625.867Z"/>
          <path id="Shape-12" data-name="Shape" d="M14.616,22.82a5.614,5.614,0,0,0-5.575,6.3,1,1,0,1,0,1.986-.239,3.61,3.61,0,0,1,3.589-4.056,1,1,0,0,0,0-2Z"/>
        </g>
      </g>
    </g>
  </g>
</svg>
