<svg height="49.226" viewBox="0 0 49.226 49.226" width="49.226" xmlns="http://www.w3.org/2000/svg"><g transform="translate(-303.526 -3276.302)"><g fill="#73964a" stroke="#ffce79" stroke-linejoin="round" stroke-width="3"><circle cx="328.139" cy="3300.915" r="21.613" stroke="none"/><circle cx="328.139" cy="3300.915" fill="none" r="23.113"/></g><path d="m9.642 19h-8.772v-1.74l4.14-4.412a10.212 10.212 0 0 0 1.261-1.626 2.612 2.612 0 0 0 .409-1.322 1.955 1.955 0 0 0 -.431-1.34 1.555 1.555 0 0 0 -1.23-.488 1.677 1.677 0 0 0 -1.358.593 2.35 2.35 0 0 0 -.5 1.56h-2.546a4.2 4.2 0 0 1 .558-2.136 3.934 3.934 0 0 1 1.578-1.512 4.8 4.8 0 0 1 2.312-.549 4.54 4.54 0 0 1 3.072.949 3.358 3.358 0 0 1 1.094 2.68 4.3 4.3 0 0 1 -.492 1.934 10.745 10.745 0 0 1 -1.687 2.294l-2.91 3.067h5.5z" fill="#fff" transform="translate(322.196 3289.915)"/></g></svg>