<svg height="49.226" viewBox="0 0 49.226 49.226" width="49.226" xmlns="http://www.w3.org/2000/svg"><g transform="translate(-303.526 -3276.302)"><g fill="#73964a" stroke="#ffce79" stroke-linejoin="round" stroke-width="3"><circle cx="328.139" cy="3300.915" r="21.613" stroke="none"/><circle cx="328.139" cy="3300.915" fill="none" r="23.113"/></g><path d="m1.248 12.707.738-6.5h7.172v2.114h-5.089l-.316 2.751a4.027 4.027 0 0 1 1.925-.483 3.689 3.689 0 0 1 2.865 1.134 4.529 4.529 0 0 1 1.037 3.177 4.64 4.64 0 0 1 -.523 2.219 3.691 3.691 0 0 1 -1.5 1.521 4.678 4.678 0 0 1 -2.3.541 4.968 4.968 0 0 1 -2.153-.47 3.819 3.819 0 0 1 -1.569-1.323 3.605 3.605 0 0 1 -.612-1.948h2.514a1.878 1.878 0 0 0 .558 1.244 1.769 1.769 0 0 0 1.252.444 1.562 1.562 0 0 0 1.327-.62 2.87 2.87 0 0 0 .466-1.753 2.374 2.374 0 0 0 -.536-1.67 1.967 1.967 0 0 0 -1.521-.58 2.2 2.2 0 0 0 -1.468.475l-.246.229z" fill="#fff" transform="translate(322.196 3289.915)"/></g></svg>