<svg height="82.971" viewBox="0 0 82.961 82.971" width="82.961" xmlns="http://www.w3.org/2000/svg"><g transform="translate(0 .005)"><path d="m61.583 29.563a20.728 20.728 0 0 0 -27.436 30.81 9.744 9.744 0 0 0 -7.384.8 14.066 14.066 0 0 1 -6.748 1.756c-10.497.002-19.015-14.129-19.015-29.038s8.518-24.891 19.014-24.891a14.564 14.564 0 0 1 8.186 2.614 5.646 5.646 0 0 0 6.444 0 14.564 14.564 0 0 1 8.187-2.614 16.179 16.179 0 0 1 6.2 1.231c6.513 2.71 11.422 9.721 12.556 19.332z" fill="#f44335" transform="translate(.383 3.448)"/><path d="m33.858 10.231c5.931 2.469 10.522 8.511 12.153 16.828a20.534 20.534 0 0 1 4.551 2.5c-1.134-9.611-6.043-16.622-12.556-19.332a16.179 16.179 0 0 0 -6.195-1.227 13.676 13.676 0 0 0 -2.026.156 16.221 16.221 0 0 1 4.073 1.074z" fill="#c81e1e" transform="translate(11.403 3.448)"/><path d="m43.591 6.857a23.954 23.954 0 0 1 -2.987 5.67 16.179 16.179 0 0 0 -6.2-1.231 14.564 14.564 0 0 0 -8.187 2.614 5.652 5.652 0 0 1 -3.217 1.01v-2.227a9.847 9.847 0 0 1 5.753-8.352c4.978-2.544 10.883-.871 13.663.194a1.9 1.9 0 0 1 1.175 2.323z" fill="#a4c400" transform="translate(8.806 1.151)"/><path d="m39.73 4.523a20.714 20.714 0 0 0 -9.715-1.4 23.706 23.706 0 0 1 5.566 1.4 1.9 1.9 0 0 1 1.175 2.323 21.876 21.876 0 0 1 -2.337 4.681 16.307 16.307 0 0 1 3.5.989 23.953 23.953 0 0 0 2.987-5.67 1.9 1.9 0 0 0 -1.176-2.323z" fill="#90ac00" transform="translate(11.491 1.162)"/><path d="m63.506 63.506a2.738 2.738 0 0 1 -3.9 0l-14.506-14.506a20.828 20.828 0 0 0 3.9-3.9l14.506 14.506a2.73 2.73 0 0 1 0 3.9z" fill="#7f8e94" transform="translate(17.267 17.269)"/><path d="m62.5 41.743a20.772 20.772 0 1 1 -8.56-16.774 20.772 20.772 0 0 1 8.56 16.774z" fill="#9e9e9e" transform="translate(8.024 8.042)"/><path d="m48.772 24.969a20.544 20.544 0 0 0 -12.183-3.969 21.2 21.2 0 0 0 -2.127.108 20.733 20.733 0 0 1 .038 41.266 20.73 20.73 0 0 0 14.274-37.4z" fill="#707070" transform="translate(13.194 8.042)"/><circle cx="49.782" cy="49.784" fill="#02a9f4" r="15.211"/><path d="m36.574 25a15.32 15.32 0 0 0 -2.074.158 15.193 15.193 0 0 1 0 30.108 15.2 15.2 0 1 0 2.074-30.266z" fill="#0377bc" transform="translate(13.209 9.573)"/><circle cx="56.697" cy="52.551" fill="#60a917" r="2.766"/><path d="m68.071 62.218a22.05 22.05 0 0 0 -4.821-29.947c-1.2-8.9-5.685-15.856-11.844-19.132a22.8 22.8 0 0 0 2.315-4.734 3.269 3.269 0 0 0 -2.005-4.005c-9.278-3.564-16.247-.874-19.537 4a13.174 13.174 0 0 0 -6.779-8.3 1.383 1.383 0 0 0 -1.037 2.565c.239.1 5.721 2.528 6.025 11.764a4.332 4.332 0 0 1 -1.039-.516c-11.787-7.925-29.349.973-29.349 23.426 0 16.207 9.532 30.423 20.4 30.423a15.38 15.38 0 0 0 7.4-1.924 8.417 8.417 0 0 1 6.024-.765 22.047 22.047 0 0 0 28.389 3l13.68 13.681a4.141 4.141 0 0 0 5.855-5.854zm-29.883-55.497c4.425-2.264 9.757-.812 12.54.254a.524.524 0 0 1 .34.651 21.521 21.521 0 0 1 -2.213 4.378 16.055 16.055 0 0 0 -14.613 1.917 4.252 4.252 0 0 1 -1.054.521v-.6a8.556 8.556 0 0 1 5-7.123zm-11.7 56.687c-12.713 6.892-23.722-9.508-23.722-26.069 0-20.118 15.073-27.839 25.034-21.139a7.148 7.148 0 0 0 8 .01 13.137 13.137 0 0 1 7.418-2.379c8.1 0 14.734 6.609 16.871 16.388a22.1 22.1 0 0 0 -28.698 31.854 11.184 11.184 0 0 0 -4.9 1.336zm3.937-13.624a19.36 19.36 0 1 1 19.36 19.36 19.36 19.36 0 0 1 -19.36-19.36zm49.366 30.009a1.383 1.383 0 0 1 -1.944 0l-13.447-13.448a22.629 22.629 0 0 0 1.945-1.945l13.455 13.457a1.347 1.347 0 0 1 -.007 1.936z"/><path d="m40.594 24a16.594 16.594 0 1 0 16.595 16.594 16.594 16.594 0 0 0 -16.595-16.594zm0 30.423a13.829 13.829 0 1 1 13.829-13.829 13.829 13.829 0 0 1 -13.829 13.829z" transform="translate(9.189 9.191)"/><circle cx="49.783" cy="40.105" r="1.383"/><circle cx="49.783" cy="58.082" r="1.383"/><path d="m33.976 31.01a4.74 4.74 0 0 0 -3.945 3.872 1.383 1.383 0 1 0 2.71.542 1.993 1.993 0 0 1 1.605-1.668 1.383 1.383 0 0 0 -.371-2.741z" transform="translate(11.483 11.872)"/><path d="m30.559 37.011a1.383 1.383 0 0 0 -.351 2.744 2.015 2.015 0 0 1 1.586 1.659 1.383 1.383 0 1 0 2.71-.542 4.74 4.74 0 0 0 -3.945-3.861z" transform="translate(11.103 14.168)"/><path d="m42.149 35a4.149 4.149 0 1 0 4.151 4.149 4.149 4.149 0 0 0 -4.151-4.149zm0 5.531a1.383 1.383 0 1 1 1.383-1.383 1.383 1.383 0 0 1 -1.383 1.383z" transform="translate(14.549 13.402)"/><path d="m41.763 32.626a1.383 1.383 0 1 0 -1.236-2.475l-2.766 1.383a1.383 1.383 0 0 0 .618 2.614c.439-.001.377-.026 3.384-1.522z" transform="translate(14.169 11.489)"/></g></svg>