<svg height="79.641" viewBox="0 0 79.734 79.641" width="79.734" xmlns="http://www.w3.org/2000/svg"><path d="m86.22 224.148h-27.947a8.62 8.62 0 0 1 -8.62-8.62v-43.285h45.186v43.285a8.62 8.62 0 0 1 -8.619 8.62z" fill="#c8effe" transform="translate(-41.975 -145.507)"/><path d="m263.888 172.243v43.285a8.62 8.62 0 0 1 -8.62 8.62h4.446a8.62 8.62 0 0 0 8.62-8.62v-43.285z" fill="#99e6fc" transform="translate(-215.469 -145.507)"/><path d="m86.22 224.148h-27.947a8.62 8.62 0 0 1 -8.62-8.62v-43.285h45.186v43.285a8.62 8.62 0 0 1 -8.619 8.62z" style="fill:none;stroke:#000;stroke-linecap:round;stroke-linejoin:round;stroke-miterlimit:10;stroke-width:2" transform="translate(-41.975 -145.507)"/><path d="m76.568 353.925a1.81 1.81 0 0 1 2.595-1.634 6.489 6.489 0 0 0 3.534 1.05c3.065 0 3.065-1.617 6.129-1.617s3.065 1.617 6.129 1.617 3.065-1.617 6.129-1.617 3.065 1.617 6.13 1.617a6.492 6.492 0 0 0 3.536-1.05 1.81 1.81 0 0 1 2.594 1.634v13.046a4.415 4.415 0 0 1 -4.415 4.415h-27.946a4.415 4.415 0 0 1 -4.415-4.415z" fill="#fea95c" transform="translate(-64.685 -296.95)"/><path d="m266.589 354.366c-.416.2-.79.426-1.23.616a1.79 1.79 0 0 1 .315 1.018v13.046a4.415 4.415 0 0 1 -4.415 4.415h3.51a4.415 4.415 0 0 0 4.415-4.415v-13.046a1.81 1.81 0 0 0 -2.595-1.634z" fill="#fe9738" transform="translate(-220.523 -299.025)"/><path d="m71.579 132.148h-51.364a1.79 1.79 0 0 1 -1.789-1.789v-3.844a1.79 1.79 0 0 1 1.789-1.789h51.364a1.79 1.79 0 0 1 1.789 1.789v3.844a1.789 1.789 0 0 1 -1.789 1.789z" fill="#fe5694" transform="translate(-15.626 -105.412)"/><path d="m27.064 124.726h-6.849a1.79 1.79 0 0 0 -1.789 1.789v3.844a1.79 1.79 0 0 0 1.789 1.789h51.364a1.79 1.79 0 0 0 1.789-1.789v-3.844a1.789 1.789 0 0 0 -1.789-1.789h-39.985" style="fill:none;stroke:#000;stroke-linecap:round;stroke-linejoin:round;stroke-miterlimit:10;stroke-width:2" transform="translate(-15.626 -105.413)"/><path d="m65.357 155.334a3.834 3.834 0 0 1 -5.245 5.2 6.908 6.908 0 0 0 -3.539-1.061c-4.973 0-4.973 3.234-9.946 3.234s-4.973-3.234-9.946-3.234-4.973 3.234-9.947 3.234-4.974-3.234-9.947-3.234a6.91 6.91 0 0 0 -3.54 1.061 3.835 3.835 0 0 1 -5.247-5.199c2.088-3.767 4.812-2.9 4.037-7.238l25.77-4.471 23.513 4.474c-.775 4.337 1.949 3.468 4.037 7.234z" fill="#fe5694" transform="translate(-6.408 -121.361)"/><path d="m88.816 179.481c-2.088-3.766-4.812-2.9-4.037-7.238h-49.279a4.418 4.418 0 0 1 -.194 2.884h42.708a6.855 6.855 0 0 1 4.442 1.636 9.238 9.238 0 0 1 2.3 2.717 3.823 3.823 0 0 1 -1.314 5.125l.131.075a3.835 3.835 0 0 0 5.243-5.199z" fill="#fd3581" transform="translate(-29.867 -145.507)"/><path d="m65.357 179.481a3.834 3.834 0 0 1 -5.245 5.2 6.908 6.908 0 0 0 -3.539-1.061c-4.973 0-4.973 3.234-9.946 3.234s-4.973-3.234-9.946-3.234-4.973 3.234-9.947 3.234-4.974-3.234-9.947-3.234a6.91 6.91 0 0 0 -3.54 1.061 3.834 3.834 0 0 1 -5.247-5.2c2.088-3.767 4.812-2.9 4.037-7.238h49.283c-.775 4.341 1.949 3.472 4.037 7.238z" style="fill:none;stroke:#000;stroke-linecap:round;stroke-linejoin:round;stroke-miterlimit:10;stroke-width:2" transform="translate(-6.408 -145.507)"/><circle cx="61.663" cy="18.071" fill="#528fd8" r="17.071"/><path d="m385.97 7.5q-.868 0-1.713.085a17.072 17.072 0 0 1 0 33.971q.845.084 1.713.085a17.071 17.071 0 1 0 0-34.142z" fill="#0573ce" transform="translate(-324.307 -6.5)"/><circle cx="61.663" cy="18.071" r="17.071" style="fill:none;stroke:#000;stroke-linecap:round;stroke-linejoin:round;stroke-miterlimit:10;stroke-width:2"/><circle cx="61.663" cy="18.071" fill="#f9f7f8" r="12.999"/><path d="m385.649 33.564a13.089 13.089 0 0 0 -1.773.124 13 13 0 0 1 0 25.751 13 13 0 1 0 1.773-25.875z" fill="#efedef" transform="translate(-323.986 -28.492)"/><g style="fill:none;stroke:#000;stroke-linecap:round;stroke-linejoin:round;stroke-miterlimit:10;stroke-width:2"><path d="m61.663 8.87v1.007"/><path d="m70.864 18.071h-1.007"/><path d="m61.663 27.273v-1.008"/><path d="m52.462 18.071h1.008"/><path d="m370.131 88.431 3.92 4.428 2.847-2.535" transform="translate(-312.388 -74.788)"/><path d="m21.758 23.024h17.026"/><path d="m99.394 371.387h9.537a4.415 4.415 0 0 0 4.415-4.415v-13.046a1.81 1.81 0 0 0 -2.594-1.634 6.492 6.492 0 0 1 -3.536 1.05c-3.065 0-3.065-1.617-6.13-1.617s-3.065 1.617-6.129 1.617-3.065-1.617-6.129-1.617-3.065 1.617-6.129 1.617a6.488 6.488 0 0 1 -3.534-1.05 1.81 1.81 0 0 0 -2.595 1.634v13.046a4.415 4.415 0 0 0 4.415 4.415h13.88" transform="translate(-64.686 -296.951)"/><path d="m337.981 45.7a12.991 12.991 0 1 0 -.49 4.507" transform="translate(-263.35 -28.492)"/><path d="m18.501 60.597-.722.92"/><path d="m17.779 68.489h.722"/><path d="m23.248 63.392h1.135"/><path d="m26.653 67.261.826 1.228"/><path d="m31.813 62.141.63-.625"/><path d="m34.599 66.012.825.797"/><path d="m38.784 63.875 1.129-.483"/><path d="m42.029 67.453.722 1.036"/><path d="m42.029 60.027 1.135.404"/></g></svg>