<svg height="63.322" viewBox="0 0 51.763 63.322" width="51.763" xmlns="http://www.w3.org/2000/svg"><path d="m91.479 50.337a18.624 18.624 0 1 1 -37.249 0c0-10.285 18.624-42.842 18.624-42.842s7.387 12.913 12.857 25.044c3.216 7.13 5.768 13.99 5.768 17.798z" fill="#e3f4ff" transform="translate(-53.302 -6.568)"/><path d="m165.787 227.782a18.631 18.631 0 0 1 -26.787 16.745c21.223-2.307 23.157-20.029 21.022-34.543 3.213 7.131 5.765 13.991 5.765 17.798z" fill="#bddff4" transform="translate(-127.585 -184.014)"/><path d="m93.885 120.885a15.65 15.65 0 0 1 -15.656-15.656c0-1.312.437-4.021 2.519-9.475 1.336-3.5 3.183-7.684 5.489-12.449q.47-.971.978-2c1.621-3.283 3.425-6.778 5.363-10.389a1.484 1.484 0 0 1 2.615 0c1.94 3.614 3.744 7.109 5.362 10.388q.508 1.031.978 2c2.306 4.764 4.152 8.952 5.488 12.448 2.082 5.455 2.519 8.164 2.519 9.475a15.67 15.67 0 0 1 -15.656 15.656z" fill="#bddff4" transform="translate(-74.333 -61.46)"/><path d="m118.574 115.745a14.172 14.172 0 1 1 -28.344 0c0-.993.325-3.454 2.422-8.946 1.174-3.071 2.9-7.09 5.438-12.332q.468-.967.973-1.99c1.876-3.8 3.765-7.41 5.339-10.343 1.574 2.934 3.463 6.543 5.339 10.343q.5 1.024.973 1.99c2.537 5.241 4.264 9.261 5.438 12.332 2.096 5.491 2.422 7.953 2.422 8.946z" fill="#fd82ac" transform="translate(-84.849 -71.976)"/><path d="m121.065 381.284a14.206 14.206 0 0 1 -12.179 10.7 13.954 13.954 0 0 1 -1.584.089 14.2 14.2 0 0 1 -13.763-10.785z" fill="#f01054" transform="translate(-87.749 -334.128)"/><path d="m229.808 381.284a14.206 14.206 0 0 1 -12.179 10.7 19.78 19.78 0 0 0 9.824-10.7z" fill="#bc0a3d" transform="translate(-196.492 -334.128)"/><path d="m118.574 290.51a14.163 14.163 0 0 1 -.409 3.388h-27.527a14.162 14.162 0 0 1 -.409-3.388c0-.993.325-3.454 2.422-8.946h23.5c.693 1.813 1.191 3.3 1.55 4.506a16.794 16.794 0 0 1 .873 4.44z" fill="#fc3e81" transform="translate(-84.849 -246.741)"/><path d="m299.823 322.434a14.162 14.162 0 0 1 -.409 3.388h-2.355a29.8 29.8 0 0 0 1.892-7.828 16.8 16.8 0 0 1 .872 4.44z" fill="#f01054" transform="translate(-266.098 -278.665)"/><path d="m133.31 194.186h-23.5c1.174-3.071 2.9-7.09 5.438-12.332h12.625c2.536 5.246 4.264 9.261 5.437 12.332z" fill="#fd6096" transform="translate(-102.007 -159.363)"/><path d="m400.515 16.3h-7.151a.928.928 0 0 0 0 1.855h6.224v5.17h-3.363a.928.928 0 0 0 0 1.855h3.363v5.376h-3.363a.928.928 0 0 0 0 1.855h3.363v5.376h-3.363a.928.928 0 0 0 0 1.855h3.363v5.376h-6.224a.928.928 0 1 0 0 1.855h6.224v5.376h-3.363a.928.928 0 0 0 0 1.855h3.363v5.376h-3.363a.928.928 0 0 0 0 1.855h3.363v5.376h-3.363a.928.928 0 0 0 0 1.855h3.363v5.17h-6.224a.928.928 0 1 0 0 1.855h7.151a.927.927 0 0 0 .928-.928v-57.437a.927.927 0 0 0 -.928-.926z" transform="translate(-349.68 -14.282)"/><path d="m48.585 191.324c0-3.674 2.641-11.149 7.637-21.617a.928.928 0 1 0 -1.674-.8c-5.188 10.869-7.818 18.411-7.818 22.416a19.615 19.615 0 0 0 6.264 14.34.928.928 0 1 0 1.261-1.36 17.754 17.754 0 0 1 -5.67-12.979z" transform="translate(-46.73 -147.554)"/><path d="m132.985 0a.928.928 0 0 0 -.805.467c-.044.077-4.475 7.835-8.962 16.854a.928.928 0 1 0 1.661.826c3.331-6.693 6.629-12.687 8.106-15.33 3.56 6.373 17.7 32.233 17.7 40.952a17.7 17.7 0 0 1 -26.448 15.385.928.928 0 0 0 -.919 1.612 19.556 19.556 0 0 0 29.222-17c0-10.413-17.982-41.964-18.747-43.3a.928.928 0 0 0 -.808-.466z" transform="translate(-113.433)"/><path d="m106.02 121.856a.928.928 0 0 0 -1.009-1.557 13.237 13.237 0 0 1 -19.7-6.809h25.038a13.246 13.246 0 0 1 -2.367 4.186.928.928 0 0 0 1.421 1.193 15.1 15.1 0 0 0 3.531-9.693c0-2.091-1.16-7.948-8.929-23.679-1.616-3.272-3.417-6.761-5.353-10.37a.928.928 0 0 0 -1.635 0c-1.935 3.607-3.736 7.1-5.353 10.37-7.769 15.731-8.929 21.588-8.929 23.679a15.093 15.093 0 0 0 23.29 12.68zm-13.92-33.031h11.451c1.321 2.761 3.139 6.7 4.657 10.477h-20.76c1.517-3.781 3.335-7.716 4.652-10.477zm5.726-11.29c1.617 3.047 4.712 9.2 4.828 9.435h-9.654c.118-.238 3.213-6.391 4.83-9.435zm-11.102 23.622h22.212c1.24 3.278 2.139 6.261 2.139 8.019a13.172 13.172 0 0 1 -.234 2.459h-26.026a13.256 13.256 0 0 1 -.23-2.459c0-1.758.899-4.741 2.139-8.019z" transform="translate(-78.278 -65.406)"/></svg>