<svg xmlns="http://www.w3.org/2000/svg" width="79.734" height="79.641" viewBox="0 0 79.734 79.641">
  <g id="Grupo_1127744" data-name="Grupo 1127744" transform="translate(-6.408 -6.5)">
    <path id="Trazado_919398" data-name="Trazado 919398" d="M86.22,224.148H58.273a8.62,8.62,0,0,1-8.62-8.62V172.243H94.839v43.285A8.62,8.62,0,0,1,86.22,224.148Z" transform="translate(-35.567 -139.007)" fill="#c8effe"/>
    <path id="Trazado_919399" data-name="Trazado 919399" d="M263.888,172.243v43.285a8.62,8.62,0,0,1-8.62,8.62h4.446a8.62,8.62,0,0,0,8.62-8.62V172.243Z" transform="translate(-209.061 -139.007)" fill="#99e6fc"/>
    <path id="Trazado_919400" data-name="Trazado 919400" d="M86.22,224.148H58.273a8.62,8.62,0,0,1-8.62-8.62V172.243H94.839v43.285A8.62,8.62,0,0,1,86.22,224.148Z" transform="translate(-35.567 -139.007)" fill="none" stroke="#000" stroke-linecap="round" stroke-linejoin="round" stroke-miterlimit="10" stroke-width="2"/>
    <path id="Trazado_919401" data-name="Trazado 919401" d="M76.568,353.925a1.81,1.81,0,0,1,2.595-1.634,6.489,6.489,0,0,0,3.534,1.05c3.065,0,3.065-1.617,6.129-1.617s3.065,1.617,6.129,1.617,3.065-1.617,6.129-1.617,3.065,1.617,6.13,1.617a6.492,6.492,0,0,0,3.536-1.05,1.81,1.81,0,0,1,2.594,1.634v13.046a4.415,4.415,0,0,1-4.415,4.415H80.983a4.415,4.415,0,0,1-4.415-4.415Z" transform="translate(-58.277 -290.45)" fill="#fea95c"/>
    <g id="Grupo_1127740" data-name="Grupo 1127740" transform="translate(47.143 61.658)">
      <path id="Trazado_919402" data-name="Trazado 919402" d="M266.589,354.366c-.416.2-.79.426-1.23.616a1.79,1.79,0,0,1,.315,1.018v13.046a4.415,4.415,0,0,1-4.415,4.415h3.51a4.415,4.415,0,0,0,4.415-4.415V356A1.81,1.81,0,0,0,266.589,354.366Z" transform="translate(-261.258 -354.183)" fill="#fe9738"/>
    </g>
    <path id="Trazado_919403" data-name="Trazado 919403" d="M71.579,132.148H20.215a1.79,1.79,0,0,1-1.789-1.789v-3.844a1.79,1.79,0,0,1,1.789-1.789H71.579a1.79,1.79,0,0,1,1.789,1.789v3.844A1.789,1.789,0,0,1,71.579,132.148Z" transform="translate(-9.218 -98.912)" fill="#fe5694"/>
    <path id="Trazado_919404" data-name="Trazado 919404" d="M27.064,124.726H20.215a1.79,1.79,0,0,0-1.789,1.789v3.844a1.79,1.79,0,0,0,1.789,1.789H71.579a1.79,1.79,0,0,0,1.789-1.789v-3.844a1.789,1.789,0,0,0-1.789-1.789H31.594" transform="translate(-9.218 -98.913)" fill="none" stroke="#000" stroke-linecap="round" stroke-linejoin="round" stroke-miterlimit="10" stroke-width="2"/>
    <path id="Trazado_919405" data-name="Trazado 919405" d="M65.357,155.334a3.834,3.834,0,0,1-5.245,5.2,6.908,6.908,0,0,0-3.539-1.061c-4.973,0-4.973,3.234-9.946,3.234s-4.973-3.234-9.946-3.234-4.973,3.234-9.947,3.234-4.974-3.234-9.947-3.234a6.91,6.91,0,0,0-3.54,1.061A3.835,3.835,0,0,1,8,155.335c2.088-3.767,4.812-2.9,4.037-7.238l25.77-4.471L61.32,148.1C60.545,152.437,63.269,151.568,65.357,155.334Z" transform="translate(0 -114.861)" fill="#fe5694"/>
    <g id="Grupo_1127741" data-name="Grupo 1127741" transform="translate(11.844 33.236)">
      <path id="Trazado_919406" data-name="Trazado 919406" d="M88.816,179.481c-2.088-3.766-4.812-2.9-4.037-7.238H35.5a4.418,4.418,0,0,1-.194,2.884H78.014a6.855,6.855,0,0,1,4.442,1.636,9.238,9.238,0,0,1,2.3,2.717,3.823,3.823,0,0,1-1.314,5.125l.131.075A3.835,3.835,0,0,0,88.816,179.481Z" transform="translate(-35.303 -172.243)" fill="#fd3581"/>
    </g>
    <path id="Trazado_919407" data-name="Trazado 919407" d="M65.357,179.481a3.834,3.834,0,0,1-5.245,5.2,6.908,6.908,0,0,0-3.539-1.061c-4.973,0-4.973,3.234-9.946,3.234s-4.973-3.234-9.946-3.234-4.973,3.234-9.947,3.234-4.974-3.234-9.947-3.234a6.91,6.91,0,0,0-3.54,1.061A3.834,3.834,0,0,1,8,179.481c2.088-3.767,4.812-2.9,4.037-7.238H61.32C60.545,176.584,63.269,175.715,65.357,179.481Z" transform="translate(0 -139.007)" fill="none" stroke="#000" stroke-linecap="round" stroke-linejoin="round" stroke-miterlimit="10" stroke-width="2"/>
    <circle id="Elipse_12362" data-name="Elipse 12362" cx="17.071" cy="17.071" r="17.071" transform="translate(51 7.5)" fill="#528fd8"/>
    <path id="Trazado_919408" data-name="Trazado 919408" d="M385.97,7.5q-.868,0-1.713.085a17.072,17.072,0,0,1,0,33.971q.845.084,1.713.085a17.071,17.071,0,1,0,0-34.142Z" transform="translate(-317.899 0)" fill="#0573ce"/>
    <circle id="Elipse_12363" data-name="Elipse 12363" cx="17.071" cy="17.071" r="17.071" transform="translate(51 7.5)" fill="none" stroke="#000" stroke-linecap="round" stroke-linejoin="round" stroke-miterlimit="10" stroke-width="2"/>
    <circle id="Elipse_12364" data-name="Elipse 12364" cx="12.999" cy="12.999" r="12.999" transform="translate(55.072 11.572)" fill="#f9f7f8"/>
    <path id="Trazado_919409" data-name="Trazado 919409" d="M385.649,33.564a13.089,13.089,0,0,0-1.773.124,13,13,0,0,1,0,25.751,13,13,0,1,0,1.773-25.875Z" transform="translate(-317.578 -21.992)" fill="#efedef"/>
    <g id="Grupo_1127742" data-name="Grupo 1127742" transform="translate(58.87 15.37)">
      <line id="Línea_3816" data-name="Línea 3816" y2="1.007" transform="translate(9.201)" fill="none" stroke="#000" stroke-linecap="round" stroke-linejoin="round" stroke-miterlimit="10" stroke-width="2"/>
      <line id="Línea_3817" data-name="Línea 3817" x1="1.007" transform="translate(17.395 9.201)" fill="none" stroke="#000" stroke-linecap="round" stroke-linejoin="round" stroke-miterlimit="10" stroke-width="2"/>
      <line id="Línea_3818" data-name="Línea 3818" y1="1.008" transform="translate(9.201 17.395)" fill="none" stroke="#000" stroke-linecap="round" stroke-linejoin="round" stroke-miterlimit="10" stroke-width="2"/>
      <line id="Línea_3819" data-name="Línea 3819" x2="1.008" transform="translate(0 9.201)" fill="none" stroke="#000" stroke-linecap="round" stroke-linejoin="round" stroke-miterlimit="10" stroke-width="2"/>
    </g>
    <path id="Trazado_919410" data-name="Trazado 919410" d="M370.131,88.431l3.92,4.428,2.847-2.535" transform="translate(-305.98 -68.288)" fill="none" stroke="#000" stroke-linecap="round" stroke-linejoin="round" stroke-miterlimit="10" stroke-width="2"/>
    <line id="Línea_3820" data-name="Línea 3820" x2="17.026" transform="translate(28.166 29.524)" fill="none" stroke="#000" stroke-linecap="round" stroke-linejoin="round" stroke-miterlimit="10" stroke-width="2"/>
    <path id="Trazado_919411" data-name="Trazado 919411" d="M99.394,371.387h9.537a4.415,4.415,0,0,0,4.415-4.415V353.926a1.81,1.81,0,0,0-2.594-1.634,6.492,6.492,0,0,1-3.536,1.05c-3.065,0-3.065-1.617-6.13-1.617s-3.065,1.617-6.129,1.617-3.065-1.617-6.129-1.617-3.065,1.617-6.129,1.617a6.488,6.488,0,0,1-3.534-1.05,1.81,1.81,0,0,0-2.595,1.634v13.046a4.415,4.415,0,0,0,4.415,4.415h13.88" transform="translate(-58.278 -290.451)" fill="none" stroke="#000" stroke-linecap="round" stroke-linejoin="round" stroke-miterlimit="10" stroke-width="2"/>
    <path id="Trazado_919412" data-name="Trazado 919412" d="M337.981,45.7a12.991,12.991,0,1,0-.49,4.507" transform="translate(-256.942 -21.992)" fill="none" stroke="#000" stroke-linecap="round" stroke-linejoin="round" stroke-miterlimit="10" stroke-width="2"/>
    <g id="Grupo_1127743" data-name="Grupo 1127743" transform="translate(24.187 66.527)">
      <line id="Línea_3821" data-name="Línea 3821" x1="0.722" y2="0.92" transform="translate(0 0.57)" fill="none" stroke="#000" stroke-linecap="round" stroke-linejoin="round" stroke-miterlimit="10" stroke-width="2"/>
      <line id="Línea_3822" data-name="Línea 3822" x2="0.722" transform="translate(0 8.462)" fill="none" stroke="#000" stroke-linecap="round" stroke-linejoin="round" stroke-miterlimit="10" stroke-width="2"/>
      <line id="Línea_3823" data-name="Línea 3823" x2="1.135" transform="translate(5.469 3.365)" fill="none" stroke="#000" stroke-linecap="round" stroke-linejoin="round" stroke-miterlimit="10" stroke-width="2"/>
      <line id="Línea_3824" data-name="Línea 3824" x2="0.826" y2="1.228" transform="translate(8.874 7.234)" fill="none" stroke="#000" stroke-linecap="round" stroke-linejoin="round" stroke-miterlimit="10" stroke-width="2"/>
      <line id="Línea_3825" data-name="Línea 3825" y1="0.625" x2="0.63" transform="translate(14.034 1.489)" fill="none" stroke="#000" stroke-linecap="round" stroke-linejoin="round" stroke-miterlimit="10" stroke-width="2"/>
      <line id="Línea_3826" data-name="Línea 3826" x2="0.825" y2="0.797" transform="translate(16.82 5.985)" fill="none" stroke="#000" stroke-linecap="round" stroke-linejoin="round" stroke-miterlimit="10" stroke-width="2"/>
      <line id="Línea_3827" data-name="Línea 3827" y1="0.483" x2="1.129" transform="translate(21.005 3.365)" fill="none" stroke="#000" stroke-linecap="round" stroke-linejoin="round" stroke-miterlimit="10" stroke-width="2"/>
      <line id="Línea_3828" data-name="Línea 3828" x2="0.722" y2="1.036" transform="translate(24.25 7.426)" fill="none" stroke="#000" stroke-linecap="round" stroke-linejoin="round" stroke-miterlimit="10" stroke-width="2"/>
      <line id="Línea_3829" data-name="Línea 3829" x2="1.135" y2="0.404" transform="translate(24.25 0)" fill="none" stroke="#000" stroke-linecap="round" stroke-linejoin="round" stroke-miterlimit="10" stroke-width="2"/>
    </g>
  </g>
</svg>
