<svg height="70.298" viewBox="0 0 50.198 70.298" width="50.198" xmlns="http://www.w3.org/2000/svg"><path d="m120.134 84.758v-4.825h-32.075v4.825a1.883 1.883 0 0 1 -.605 1.381c-13.4 12.408-8.271 22.917 3.387 51.613a2.212 2.212 0 0 0 2.048 1.38h22.411a2.212 2.212 0 0 0 2.048-1.38c11.658-28.7 16.79-39.205 3.387-51.613a1.883 1.883 0 0 1 -.601-1.381z" fill="#fee97d" transform="translate(-79.01 -69.333)"/><path d="m316.861 86.139a1.883 1.883 0 0 1 -.605-1.381v-4.825h-4.044v4.825a1.883 1.883 0 0 0 .606 1.381c13.4 12.408 8.271 22.917-3.387 51.613a2.212 2.212 0 0 1 -2.048 1.38h4.044a2.212 2.212 0 0 0 2.048-1.38c11.656-28.696 16.789-39.205 3.386-51.613z" fill="#fed402" transform="translate(-275.131 -69.333)"/><path d="m229.4 379.753a3.486 3.486 0 0 1 .152-6.913c2.165-.233 4.74-1.1 5.453-5.8a3.486 3.486 0 0 1 6.893 1.045 14.413 14.413 0 0 1 -3.556 7.9 12.5 12.5 0 0 1 -8.045 3.788 3.488 3.488 0 0 1 -.897-.02z" fill="#97da7b" transform="translate(-205.474 -313.856)"/><path d="m164.711 271.711a3.486 3.486 0 0 1 -2.439-2.727c-.91-5.072-.143-14.21 4.413-18.645a3.486 3.486 0 0 1 4.863 5c-1.995 1.942-3.191 8.093-2.415 12.419a3.487 3.487 0 0 1 -4.422 3.958z" fill="#97da7b" transform="translate(-149.964 -215.129)"/><path d="m124 156.857a3.487 3.487 0 0 1 -3.432-2.9 20.476 20.476 0 0 1 .747-10.491 17.019 17.019 0 0 1 6.285-8.195 3.486 3.486 0 0 1 4.045 5.678c-4.584 3.266-4.816 8.24-4.2 11.838a3.489 3.489 0 0 1 -3.445 4.07z" fill="#97da7b" transform="translate(-114.066 -116.398)"/><path d="m327.925 194.567a3.486 3.486 0 0 1 -2.384-4.224 25.6 25.6 0 0 0 -1.054-14.828 3.486 3.486 0 1 1 6.381-2.808c2.8 6.355 2.7 14.51 1.418 19.4a3.486 3.486 0 0 1 -4.254 2.491z" fill="#97da7b" transform="translate(-289.596 -147.379)"/><path d="m81.05 235.1h46.119a31.71 31.71 0 0 0 1.43-11.9h-48.978a31.708 31.708 0 0 0 1.429 11.9z" fill="#b3dafe" transform="translate(-79.023 -192.621)"/><path d="m392.379 235.1h4.044a31.71 31.71 0 0 0 1.43-11.9h-4.044a31.711 31.711 0 0 1 -1.43 11.9z" fill="#8ac9fe" transform="translate(-348.276 -192.621)"/><ellipse cx="25.087" cy="36.527" fill="#fd8087" rx="9.09" ry="10.822"/><path d="m124.716 12.246v5.788h36.61v-5.788a4.746 4.746 0 0 0 -4.745-4.746h-27.119a4.746 4.746 0 0 0 -4.746 4.746z" fill="#8d9ca8" transform="translate(-117.934 -7)"/><path d="m329.152 7.5h-3.9a4.746 4.746 0 0 1 4.746 4.746v5.788h3.9v-5.788a4.746 4.746 0 0 0 -4.746-4.746z" fill="#7a8c98" transform="translate(-290.506 -7)"/><path d="m105.317 65.172v1.048a1.6 1.6 0 0 0 1.595 1.595h38.831a1.6 1.6 0 0 0 1.595-1.595v-1.048a1.6 1.6 0 0 0 -1.595-1.595h-38.831a1.6 1.6 0 0 0 -1.595 1.595z" fill="#b3dafe" transform="translate(-101.24 -55.258)"/><path d="m371.15 63.577h-3.9a1.6 1.6 0 0 1 1.594 1.595v1.048a1.6 1.6 0 0 1 -1.595 1.595h3.9a1.6 1.6 0 0 0 1.595-1.595v-1.049a1.594 1.594 0 0 0 -1.594-1.594z" fill="#8ac9fe" transform="translate(-326.648 -55.258)"/><g fill="none" stroke="#000" stroke-linecap="round" stroke-linejoin="round" stroke-miterlimit="10"><path d="m229.4 379.753a3.486 3.486 0 0 1 .152-6.913c2.165-.233 4.74-1.1 5.453-5.8a3.486 3.486 0 0 1 6.893 1.045 14.413 14.413 0 0 1 -3.556 7.9 12.5 12.5 0 0 1 -8.045 3.788 3.488 3.488 0 0 1 -.897-.02z" transform="translate(-205.474 -313.856)"/><path d="m259.088 445.98a12.083 12.083 0 0 1 -3.088 1.534" transform="translate(-230.914 -384.342)"/><path d="m304.992 392.032a14.871 14.871 0 0 1 -1.45 3.62" transform="translate(-271.826 -337.916)"/><path d="m162.835 308.57a28.284 28.284 0 0 0 -.563 11.376 3.486 3.486 0 0 0 6.861-1.231 20.531 20.531 0 0 1 .273-7.613" transform="translate(-149.964 -266.091)"/><path d="m121.769 146.971a18.152 18.152 0 0 1 .88-3.508 17.028 17.028 0 0 1 6.286-8.2 3.486 3.486 0 0 1 4.045 5.679 10.128 10.128 0 0 0 -4.109 6.025" transform="translate(-115.398 -116.395)"/><path d="m333.291 308.57c-.036.166-.077.328-.117.485a3.492 3.492 0 0 0 2.383 4.223l.107.031a3.475 3.475 0 0 0 4.254-2.492c.18-.689.336-1.443.466-2.248" transform="translate(-297.228 -266.091)"/><path d="m325.336 177.956a17.161 17.161 0 0 0 -.849-2.44 3.486 3.486 0 1 1 6.38-2.808 25.68 25.68 0 0 1 1.627 5.248" transform="translate(-289.596 -147.381)"/><path d="m88.059 93.97v2.868a1.881 1.881 0 0 1 -.605 1.38c-13.4 12.408-8.271 22.917 3.387 51.614a2.213 2.213 0 0 0 2.048 1.379h22.411a2.213 2.213 0 0 0 2.048-1.379q1.428-3.514 2.718-6.675" transform="translate(-79.009 -81.413)"/><path d="m371.019 93.97v2.868a1.881 1.881 0 0 0 .605 1.38c11.495 10.64 9.357 19.884 1.163 40.4" transform="translate(-329.895 -81.413)"/><path d="m48.146 42.479h-15.467"/><path d="m17.495 42.479h-15.467"/><path d="m17.494 30.576h-16.896"/><path d="m49.575 30.576h-16.896"/><ellipse cx="25.087" cy="36.527" rx="9.09" ry="10.822"/><path d="m217.079 7.5h18.986a4.745 4.745 0 0 1 4.745 4.745v3.074" transform="translate(-197.419 -7)"/><path d="m124.719 15.319v-3.074a4.745 4.745 0 0 1 4.745-4.745h3.253" transform="translate(-117.937 -7)"/><path d="m105.317 65.172v1.048a1.6 1.6 0 0 0 1.595 1.595h38.831a1.6 1.6 0 0 0 1.595-1.595v-1.048a1.6 1.6 0 0 0 -1.595-1.595h-38.831a1.6 1.6 0 0 0 -1.595 1.595z" transform="translate(-101.24 -55.258)"/><path d="m186.539 349.457a22.51 22.51 0 0 1 .124-5.653" transform="translate(-171.03 -296.412)"/><path d="m147.029 174.867c.371-2.883 2.474-5.852 4.452-7.831" transform="translate(-137.136 -144.292)"/></g></svg>