<svg xmlns="http://www.w3.org/2000/svg" width="82" height="82" viewBox="0 0 82 82">
  <g id="Grupo_1127831" data-name="Grupo 1127831" transform="translate(-392.05 -2280.95)">
    <g id="Grupo_1127478" data-name="Grupo 1127478" transform="translate(0 -102)">
      <g id="Grupo_1106486" data-name="Grupo 1106486" transform="translate(381.898 2372.891)">
        <g id="Elipse_157" data-name="Elipse 157" transform="translate(15.151 15.059)" fill="#fff" stroke="#ffce79" stroke-linejoin="round" stroke-width="5">
          <circle cx="36" cy="36" r="36" stroke="none"/>
          <circle cx="36" cy="36" r="38.5" fill="none"/>
        </g>
      </g>
      <g id="Grupo_1127477" data-name="Grupo 1127477" transform="translate(402.558 2393.229)">
        <path id="Trazado_917944" data-name="Trazado 917944" d="M20.735,123.022a6.83,6.83,0,0,1-4.647,8.607A6.83,6.83,0,0,1,7.76,126.5c-1.018-3.8,1.176-9.11,2.651-11.358.407-.621.759-1.008.974-1.066a1.979,1.979,0,0,1,1.012.263C14.666,115.349,19.663,119.021,20.735,123.022Z" transform="translate(0 -96.602)" fill="#80d261"/>
        <path id="Trazado_917945" data-name="Trazado 917945" d="M341.642,203.9h-.116a8,8,0,0,1-7.868-7.847,8.043,8.043,0,0,1,.167-1.776l2.548-12.211a4.674,4.674,0,0,1,4.576-3.719h1.386a4.674,4.674,0,0,1,4.576,3.719l2.548,12.211a8.036,8.036,0,0,1,.169,1.638,7.985,7.985,0,0,1-7.986,7.986Z" transform="translate(-295.667 -154.872)" fill="#4fc123"/>
        <path id="Trazado_917946" data-name="Trazado 917946" d="M134.925,92.017l-2.356,2.356a6.234,6.234,0,0,1-8.816,0L121.4,92.017A13.907,13.907,0,0,1,117.548,79.7L121.7,56.849a3.357,3.357,0,0,1,3.3-2.756h6.314a3.357,3.357,0,0,1,3.3,2.756L138.774,79.7A13.907,13.907,0,0,1,134.925,92.017Z" transform="translate(-99.557 -42.237)" fill="#fe9738"/>
        <path id="Trazado_917947" data-name="Trazado 917947" d="M189.079,79.7,184.925,56.85a3.357,3.357,0,0,0-3.3-2.756h-1.329l3.515,19.332A20.266,20.266,0,0,1,178.2,91.382h0a6.226,6.226,0,0,1-5.384,1.749l1.242,1.242a6.234,6.234,0,0,0,8.816,0l2.356-2.356A13.907,13.907,0,0,0,189.079,79.7Z" transform="translate(-149.861 -42.238)" fill="#fe860a"/>
        <path id="Trazado_917948" data-name="Trazado 917948" d="M296.86,340.261a5.789,5.789,0,0,0-3.142.051,3.561,3.561,0,0,1-2,0,5.789,5.789,0,0,0-3.142-.051c-3.575.958-5.541,5.212-4.392,9.5a8.906,8.906,0,0,0,3.3,4.934,4.178,4.178,0,0,0,4.554.134,1.365,1.365,0,0,1,1.363,0,4.178,4.178,0,0,0,4.554-.134,8.906,8.906,0,0,0,3.3-4.934C302.4,345.473,300.435,341.219,296.86,340.261Z" transform="translate(-250.523 -301.478)" fill="#e94444"/>
        <path id="Trazado_917949" data-name="Trazado 917949" d="M390.211,340.261a5.789,5.789,0,0,0-3.142.051q-.116.034-.234.06c3.343,1.14,5.138,5.249,4.028,9.391a8.907,8.907,0,0,1-3.3,4.934,3.9,3.9,0,0,1-.493.3,4.14,4.14,0,0,0,4.233-.3,8.906,8.906,0,0,0,3.3-4.934C395.752,345.473,393.786,341.219,390.211,340.261Z" transform="translate(-343.874 -301.478)" fill="#d83131"/>
        <path id="Trazado_917950" data-name="Trazado 917950" d="M90,246.92l.965,4.823H85.155l1.056-5.282a5.609,5.609,0,0,1,1.534-2.866L89.44,241.9a.7.7,0,0,1,.991,0l1.062,1.061a.7.7,0,0,1,0,.992l-.856.856A2.337,2.337,0,0,0,90,246.92Z" transform="translate(-70.396 -212.301)" fill="#47a920"/>
        <path id="Trazado_917951" data-name="Trazado 917951" d="M24.95,319.395l-3.444-.453h0a.486.486,0,0,1-.252-.106,3,3,0,0,0-1.945-.709H15.625a3,3,0,0,0-1.945.709.486.486,0,0,1-.252.106h0l-3.444.453a2.851,2.851,0,0,0-2.365,3.624l3.139,10.771a2.443,2.443,0,0,0,2.665,1.739l.86-.113a2.438,2.438,0,0,0,.864-.284.462.462,0,0,1,.472.013,2.581,2.581,0,0,0,1.391.405h.919a2.581,2.581,0,0,0,1.391-.405.462.462,0,0,1,.472-.013,2.436,2.436,0,0,0,.864.284l.86.113a2.443,2.443,0,0,0,2.665-1.739l3.139-10.771A2.851,2.851,0,0,0,24.95,319.395Z" transform="translate(-0.001 -281.587)" fill="#ffc344"/>
        <line id="Línea_3787" data-name="Línea 3787" x2="3.463" y2="12.922" transform="translate(12.37 21.153)" fill="none" stroke="#000" stroke-linecap="round" stroke-linejoin="round" stroke-miterlimit="10" stroke-width="1"/>
        <line id="Línea_3788" data-name="Línea 3788" x2="3.108" y2="2.439" transform="translate(11.026 25.297)" fill="none" stroke="#000" stroke-linecap="round" stroke-linejoin="round" stroke-miterlimit="10" stroke-width="1"/>
        <line id="Línea_3789" data-name="Línea 3789" x2="3.108" y2="2.439" transform="translate(12.414 30.476)" fill="none" stroke="#000" stroke-linecap="round" stroke-linejoin="round" stroke-miterlimit="10" stroke-width="1"/>
        <line id="Línea_3790" data-name="Línea 3790" x1="1.511" y2="3.765" transform="translate(14.753 26.282)" fill="none" stroke="#000" stroke-linecap="round" stroke-linejoin="round" stroke-miterlimit="10" stroke-width="1"/>
        <g id="Grupo_1127470" data-name="Grupo 1127470" transform="translate(45.25 29.279)">
          <g id="Grupo_1127469" data-name="Grupo 1127469">
            <line id="Línea_3791" data-name="Línea 3791" fill="none" stroke="#000" stroke-linecap="round" stroke-linejoin="round" stroke-miterlimit="10" stroke-width="1"/>
          </g>
        </g>
        <g id="Grupo_1127472" data-name="Grupo 1127472" transform="translate(48.153 32.183)">
          <g id="Grupo_1127471" data-name="Grupo 1127471">
            <line id="Línea_3792" data-name="Línea 3792" fill="none" stroke="#000" stroke-linecap="round" stroke-linejoin="round" stroke-miterlimit="10" stroke-width="1"/>
          </g>
        </g>
        <g id="Grupo_1127474" data-name="Grupo 1127474" transform="translate(43.798 33.635)">
          <g id="Grupo_1127473" data-name="Grupo 1127473">
            <line id="Línea_3793" data-name="Línea 3793" fill="none" stroke="#000" stroke-linecap="round" stroke-linejoin="round" stroke-miterlimit="10" stroke-width="1"/>
          </g>
        </g>
        <g id="Grupo_1127476" data-name="Grupo 1127476" transform="translate(49.605 36.502)">
          <g id="Grupo_1127475" data-name="Grupo 1127475">
            <line id="Línea_3794" data-name="Línea 3794" fill="none" stroke="#000" stroke-linecap="round" stroke-linejoin="round" stroke-miterlimit="10" stroke-width="1"/>
          </g>
        </g>
        <line id="Línea_3795" data-name="Línea 3795" y1="5.877" x2="1.069" transform="translate(22.718 21.813)" fill="none" stroke="#000" stroke-linecap="round" stroke-linejoin="round" stroke-miterlimit="10" stroke-width="1"/>
        <line id="Línea_3796" data-name="Línea 3796" x2="2.112" y2="11.615" transform="translate(32.667 17.663)" fill="none" stroke="#000" stroke-linecap="round" stroke-linejoin="round" stroke-miterlimit="10" stroke-width="1"/>
        <path id="Trazado_917952" data-name="Trazado 917952" d="M233.255,11.856V9.92a2.337,2.337,0,0,1,.684-1.653l.767-.767" transform="translate(-204.651 0)" fill="none" stroke="#000" stroke-linecap="round" stroke-linejoin="round" stroke-miterlimit="10" stroke-width="1"/>
        <path id="Trazado_917953" data-name="Trazado 917953" d="M296.86,340.261a5.789,5.789,0,0,0-3.142.051,3.561,3.561,0,0,1-2,0,5.789,5.789,0,0,0-3.142-.051c-3.575.958-5.541,5.212-4.392,9.5a8.906,8.906,0,0,0,3.3,4.934,4.178,4.178,0,0,0,4.554.134,1.365,1.365,0,0,1,1.363,0,4.178,4.178,0,0,0,4.554-.134,8.906,8.906,0,0,0,3.3-4.934C302.4,345.473,300.435,341.219,296.86,340.261Z" transform="translate(-250.523 -301.478)" fill="none" stroke="#000" stroke-linecap="round" stroke-linejoin="round" stroke-miterlimit="10" stroke-width="1"/>
        <line id="Línea_3797" data-name="Línea 3797" y2="4.021" transform="translate(42.196 36.538)" fill="none" stroke="#000" stroke-linecap="round" stroke-linejoin="round" stroke-miterlimit="10" stroke-width="1"/>
        <path id="Trazado_917954" data-name="Trazado 917954" d="M25.658,328.7l1.657-5.685a2.851,2.851,0,0,0-2.365-3.624l-3.444-.453h0a.486.486,0,0,1-.252-.106,3,3,0,0,0-1.945-.709H15.625a3,3,0,0,0-1.945.709.486.486,0,0,1-.252.106h0l-3.444.453a2.851,2.851,0,0,0-2.365,3.624l3.139,10.771a2.443,2.443,0,0,0,2.665,1.739l.86-.113a2.438,2.438,0,0,0,.864-.284.462.462,0,0,1,.472.013,2.581,2.581,0,0,0,1.391.405h.919a2.581,2.581,0,0,0,1.391-.405.462.462,0,0,1,.472-.013,2.436,2.436,0,0,0,.864.284l.86.113a2.443,2.443,0,0,0,2.665-1.739l.535-1.835" transform="translate(-0.001 -281.587)" fill="none" stroke="#000" stroke-linecap="round" stroke-linejoin="round" stroke-miterlimit="10" stroke-width="1"/>
        <path id="Trazado_917955" data-name="Trazado 917955" d="M78.188,457.5l.338,2.2a2.586,2.586,0,0,0,1.167,1.789" transform="translate(-64.08 -407.929)" fill="none" stroke="#000" stroke-linecap="round" stroke-linejoin="round" stroke-miterlimit="10" stroke-width="1"/>
        <path id="Trazado_917956" data-name="Trazado 917956" d="M63.166,325.709a3.014,3.014,0,0,0-1.04,2.771l.358,2.328" transform="translate(-49.487 -288.462)" fill="none" stroke="#000" stroke-linecap="round" stroke-linejoin="round" stroke-miterlimit="10" stroke-width="1"/>
        <path id="Trazado_917957" data-name="Trazado 917957" d="M135.4,457.5l-.338,2.2a2.586,2.586,0,0,1-1.167,1.789" transform="translate(-114.582 -407.929)" fill="none" stroke="#000" stroke-linecap="round" stroke-linejoin="round" stroke-miterlimit="10" stroke-width="1"/>
        <path id="Trazado_917958" data-name="Trazado 917958" d="M154.583,325.709a3.014,3.014,0,0,1,1.04,2.771l-.358,2.328" transform="translate(-133.334 -288.462)" fill="none" stroke="#000" stroke-linecap="round" stroke-linejoin="round" stroke-miterlimit="10" stroke-width="1"/>
        <line id="Línea_3798" data-name="Línea 3798" y1="1.452" transform="translate(43.072 13.308)" fill="none" stroke="#000" stroke-linecap="round" stroke-linejoin="round" stroke-miterlimit="10" stroke-width="1"/>
        <line id="Línea_3799" data-name="Línea 3799" y1="1.452" transform="translate(43.072 19.115)" fill="none" stroke="#000" stroke-linecap="round" stroke-linejoin="round" stroke-miterlimit="10" stroke-width="1"/>
        <line id="Línea_3800" data-name="Línea 3800" x2="1.452" transform="translate(45.25 16.937)" fill="none" stroke="#000" stroke-linecap="round" stroke-linejoin="round" stroke-miterlimit="10" stroke-width="1"/>
        <line id="Línea_3801" data-name="Línea 3801" x2="1.452" transform="translate(39.442 16.937)" fill="none" stroke="#000" stroke-linecap="round" stroke-linejoin="round" stroke-miterlimit="10" stroke-width="1"/>
        <line id="Línea_3802" data-name="Línea 3802" y1="1.452" transform="translate(15.485 7.5)" fill="none" stroke="#000" stroke-linecap="round" stroke-linejoin="round" stroke-miterlimit="10" stroke-width="1"/>
        <line id="Línea_3803" data-name="Línea 3803" y1="1.452" transform="translate(15.485 13.308)" fill="none" stroke="#000" stroke-linecap="round" stroke-linejoin="round" stroke-miterlimit="10" stroke-width="1"/>
        <line id="Línea_3804" data-name="Línea 3804" x2="1.452" transform="translate(17.663 11.13)" fill="none" stroke="#000" stroke-linecap="round" stroke-linejoin="round" stroke-miterlimit="10" stroke-width="1"/>
        <line id="Línea_3805" data-name="Línea 3805" x2="1.452" transform="translate(11.855 11.13)" fill="none" stroke="#000" stroke-linecap="round" stroke-linejoin="round" stroke-miterlimit="10" stroke-width="1"/>
        <path id="Trazado_917959" data-name="Trazado 917959" d="M20.239,121.7c-1.657-3.463-5.825-6.462-7.842-7.36a1.979,1.979,0,0,0-1.012-.263c-.215.057-.567.445-.974,1.066C8.937,117.39,6.743,122.7,7.761,126.5a6.831,6.831,0,0,0,7.861,5.234" transform="translate(-0.001 -96.603)" fill="none" stroke="#000" stroke-linecap="round" stroke-linejoin="round" stroke-miterlimit="10" stroke-width="1"/>
        <path id="Trazado_917960" data-name="Trazado 917960" d="M96,248.92l-.4-2a2.337,2.337,0,0,1,.639-2.111l.856-.856a.7.7,0,0,0,0-.992L96.037,241.9a.7.7,0,0,0-.991,0l-1.695,1.695a5.609,5.609,0,0,0-1.534,2.867l-.478,2.392" transform="translate(-76.001 -212.301)" fill="none" stroke="#000" stroke-linecap="round" stroke-linejoin="round" stroke-miterlimit="10" stroke-width="1"/>
        <path id="Trazado_917961" data-name="Trazado 917961" d="M186.1,469.629a6.234,6.234,0,0,0,8.816,0l1.582-1.582" transform="translate(-161.904 -417.493)" fill="none" stroke="#000" stroke-linecap="round" stroke-linejoin="round" stroke-miterlimit="10" stroke-width="1"/>
        <line id="Línea_3806" data-name="Línea 3806" x1="1.476" y2="8.119" transform="translate(19.456 21.28)" fill="none" stroke="#000" stroke-linecap="round" stroke-linejoin="round" stroke-miterlimit="10" stroke-width="1"/>
        <path id="Trazado_917962" data-name="Trazado 917962" d="M175.393,80.83q-.056-.567-.158-1.134L171.081,56.85a3.357,3.357,0,0,0-3.3-2.756h-6.314a3.357,3.357,0,0,0-3.3,2.756l-.618,3.4" transform="translate(-136.018 -42.238)" fill="none" stroke="#000" stroke-linecap="round" stroke-linejoin="round" stroke-miterlimit="10" stroke-width="1"/>
        <path id="Trazado_917963" data-name="Trazado 917963" d="M356.067,183.037l-.2-.974a4.674,4.674,0,0,0-4.576-3.719H349.9a4.674,4.674,0,0,0-4.576,3.719l-1.794,8.595" transform="translate(-304.62 -154.873)" fill="none" stroke="#000" stroke-linecap="round" stroke-linejoin="round" stroke-miterlimit="10" stroke-width="1"/>
        <path id="Trazado_917964" data-name="Trazado 917964" d="M472.181,279.315a8.141,8.141,0,0,0,.682-.61,7.933,7.933,0,0,0,2.339-5.647,8.036,8.036,0,0,0-.168-1.638l-1.664-7.974" transform="translate(-421.241 -232.019)" fill="none" stroke="#000" stroke-linecap="round" stroke-linejoin="round" stroke-miterlimit="10" stroke-width="1"/>
      </g>
    </g>
  </g>
</svg>
