<svg xmlns="http://www.w3.org/2000/svg" xmlns:xlink="http://www.w3.org/1999/xlink" width="82" height="82" viewBox="0 0 82 82">
  <defs>
    <clipPath id="clip-path">
      <path id="path6505" d="M0-682.665H39.333v39.333H0Z" transform="translate(0 682.665)"/>
    </clipPath>
  </defs>
  <g id="Grupo_1127835" data-name="Grupo 1127835" transform="translate(6765.075 9225)">
    <g id="Grupo_1116529" data-name="Grupo 1116529" transform="translate(-6775.227 -9235.059)">
      <g id="Elipse_157" data-name="Elipse 157" transform="translate(15.151 15.059)" fill="#fff" stroke="#ffce79" stroke-linejoin="round" stroke-width="5">
        <circle cx="36" cy="36" r="36" stroke="none"/>
        <circle cx="36" cy="36" r="38.5" fill="none"/>
      </g>
    </g>
    <g id="g6495" transform="translate(-6743.768 -8521.002)">
      <path id="path6497" d="M83.571-599.094H50v-33.571H83.571Z" transform="translate(-47.119 -47.119)" fill="#e9edf5"/>
      <path id="path6499" d="M50-599.094h9.219v-33.571H50Z" transform="translate(-47.119 -47.119)" fill="#dce1eb"/>
      <g id="g6501" transform="translate(0 -682.665)">
        <g id="g6503" clip-path="url(#clip-path)">
          <g id="g6509" transform="translate(21.203 25.044)">
            <path id="path6511" d="M-50.26,0h6.031a3.073,3.073,0,0,1,3.073,3.073v8.335H-53.333V3.073A3.073,3.073,0,0,1-50.26,0" transform="translate(53.333 0)" fill="#f2b88f"/>
          </g>
          <g id="g6513" transform="translate(21.203 25.044)">
            <path id="path6515" d="M-125.651,0h-4.609a3.073,3.073,0,0,0-3.073,3.073v8.335h4.609V3.073A3.073,3.073,0,0,1-125.651,0" transform="translate(133.333 0)" fill="#e3a57b"/>
          </g>
          <g id="g6517" transform="translate(6.53 26.581)">
            <path id="path6519" d="M-174.737-161.461a14.054,14.054,0,0,0,.341-2.958,17.765,17.765,0,0,0-1.675-6.914h-7.673a17.766,17.766,0,0,0-1.675,6.914,14.058,14.058,0,0,0,.341,2.958Z" transform="translate(185.421 171.333)" fill="#e0b8ff"/>
          </g>
          <g id="g6521" transform="translate(6.53 26.581)">
            <path id="path6523" d="M-80.962-161.461a14.054,14.054,0,0,1-.341-2.958,17.765,17.765,0,0,1,1.675-6.914h-4.609a17.765,17.765,0,0,0-1.675,6.914,14.053,14.053,0,0,0,.341,2.958Z" transform="translate(85.912 171.333)" fill="#d2a0f5"/>
          </g>
          <g id="g6525" transform="translate(5.954 25.044)">
            <path id="path6527" d="M-174.026-50.26h-9.1a1.536,1.536,0,0,1-1.536-1.536,1.536,1.536,0,0,1,1.536-1.536h9.1A1.536,1.536,0,0,1-172.49-51.8a1.536,1.536,0,0,1-1.536,1.536" transform="translate(184.666 53.333)" fill="#ebccff"/>
          </g>
          <g id="g6529" transform="translate(5.954 25.044)">
            <path id="path6531" d="M-75.39-25.13h0a1.536,1.536,0,0,1,1.536-1.536h-4.609A1.536,1.536,0,0,0-80-25.13a1.536,1.536,0,0,0,1.536,1.536h4.609A1.536,1.536,0,0,1-75.39-25.13" transform="translate(80 26.667)" fill="#e0b8ff"/>
          </g>
          <g id="g6533" transform="translate(21.203 13.444)">
            <path id="path6535" d="M-199.156-100.835v-3.212a5.183,5.183,0,0,0-.147-1.224L-205.245-107l-5.941,1.729a5.183,5.183,0,0,0-.147,1.224v3.212Z" transform="translate(211.333 107)" fill="#fff48f"/>
          </g>
          <g id="g6537" transform="translate(21.203 14.248)">
            <path id="path6539" d="M-57.8-35.141a5.183,5.183,0,0,1,.147-1.224v-.924l-3.534.924a5.183,5.183,0,0,0-.147,1.224v3.212H-57.8Z" transform="translate(61.333 37.289)" fill="#ffee6e"/>
          </g>
          <g id="g6541" transform="translate(22.932 8.258)">
            <path id="path6543" d="M-142.614-56.543l-4.36.864-4.36-.864V-58.7a1.3,1.3,0,0,1,1.3-1.3h6.127a1.3,1.3,0,0,1,1.3,1.3Z" transform="translate(151.333 60)" fill="#fff48f"/>
          </g>
          <g id="g6545" transform="translate(22.932 8.258)">
            <path id="path6547" d="M-57.8-21.2a1.3,1.3,0,0,1,1.3-1.3h-3.534a1.3,1.3,0,0,0-1.3,1.3v2.161l3.534.7Z" transform="translate(61.333 22.5)" fill="#ffee6e"/>
          </g>
          <g id="g6549" transform="translate(21.35 11.715)">
            <path id="path6551" d="M0-56.543H11.882a5.189,5.189,0,0,0-.4-1.095L10.3-60H1.582L.4-57.638A5.184,5.184,0,0,0,0-56.543" transform="translate(0 60)" fill="#ffee6e"/>
          </g>
          <g id="g6553" transform="translate(21.35 11.715)">
            <path id="path6555" d="M-83.667,0H-87.2l-1.181,2.362a5.185,5.185,0,0,0-.4,1.095h3.534a5.185,5.185,0,0,1,.4-1.095Z" transform="translate(88.782)" fill="#ffe45c"/>
          </g>
          <g id="g6557" transform="translate(8.799 8.258)">
            <path id="path6559" d="M-2.3-2.3C-2-2.6.234-2.5,1.652-1.086A1.936,1.936,0,0,1-1.086,1.652C-2.5.234-2.6-2-2.3-2.3" transform="translate(2.44 2.44)" fill="#94e8c8"/>
          </g>
          <g id="g6561" transform="translate(8.799 8.258)">
            <path id="path6563" d="M-56.056-66.934A4.514,4.514,0,0,1-57.322-70.8a2.856,2.856,0,0,0-2.02-.081c-.3.3-.2,2.534,1.213,3.952a1.937,1.937,0,0,0,2.406.266,1.947,1.947,0,0,1-.333-.266" transform="translate(59.483 71.026)" fill="#82d9b6"/>
          </g>
          <g id="g6565" transform="translate(5.954 10.8)">
            <path id="path6567" d="M-167.983-3.3a3.029,3.029,0,0,0-2.536.176,3.7,3.7,0,0,1-3.293,0,3.029,3.029,0,0,0-2.536-.176c-1.8.747-2.439,3.349-1.419,5.81s3.309,3.852,5.112,3.1l.005,0a1.262,1.262,0,0,1,.969,0l.005,0c1.8.747,4.092-.643,5.112-3.1s.384-5.063-1.419-5.81" transform="translate(178.253 3.504)" fill="#ff9696"/>
          </g>
          <g id="g6569" transform="translate(5.954 10.8)">
            <path id="path6571" d="M-58.529-98.337c-.932-2.251-.481-4.618.982-5.578l-.119-.056a3.029,3.029,0,0,0-2.536-.176c-1.8.747-2.439,3.349-1.42,5.81s3.309,3.852,5.112,3.1l.005,0a1.262,1.262,0,0,1,.828-.049,5.523,5.523,0,0,1-2.853-3.054" transform="translate(62.108 104.349)" fill="#ff7d81"/>
          </g>
          <g id="g6573" transform="translate(0.576 0.576)">
            <path id="path6575" d="M-586.789-75.39H-620.36a2.3,2.3,0,0,1-2.3-2.3,2.3,2.3,0,0,1,2.3-2.3h33.571a2.3,2.3,0,0,1,2.3,2.3,2.3,2.3,0,0,1-2.3,2.3" transform="translate(622.665 80)" fill="#f2f6fc"/>
          </g>
          <g id="g6577" transform="translate(0.576 0.576)">
            <path id="path6579" d="M-150.781-37.7h0a2.3,2.3,0,0,1,2.3-2.3h-9.219a2.3,2.3,0,0,0-2.3,2.3,2.3,2.3,0,0,0,2.3,2.3h9.219a2.3,2.3,0,0,1-2.3-2.3" transform="translate(160 40)" fill="#e9edf5"/>
          </g>
          <g id="g6581" transform="translate(0.576 34.148)">
            <path id="path6583" d="M-586.789-75.39H-620.36a2.3,2.3,0,0,1-2.3-2.3,2.3,2.3,0,0,1,2.3-2.3h33.571a2.3,2.3,0,0,1,2.3,2.3,2.3,2.3,0,0,1-2.3,2.3" transform="translate(622.665 80)" fill="#f2f6fc"/>
          </g>
          <g id="g6585" transform="translate(0.576 17.362)">
            <path id="path6587" d="M-586.789-75.39H-620.36a2.3,2.3,0,0,1-2.3-2.3,2.3,2.3,0,0,1,2.3-2.3h33.571a2.3,2.3,0,0,1,2.3,2.3,2.3,2.3,0,0,1-2.3,2.3" transform="translate(622.665 80)" fill="#f2f6fc"/>
          </g>
          <g id="g6589" transform="translate(0.576 17.362)">
            <path id="path6591" d="M-150.781-37.7h0a2.3,2.3,0,0,1,2.3-2.3h-9.219a2.3,2.3,0,0,0-2.3,2.3,2.3,2.3,0,0,0,2.3,2.3h9.219a2.3,2.3,0,0,1-2.3-2.3" transform="translate(160 40)" fill="#e9edf5"/>
          </g>
          <g id="g6593" transform="translate(0.576 34.148)">
            <path id="path6595" d="M-150.781-37.7h0a2.3,2.3,0,0,1,2.3-2.3h-9.219a2.3,2.3,0,0,0-2.3,2.3,2.3,2.3,0,0,0,2.3,2.3h9.219a2.3,2.3,0,0,1-2.3-2.3" transform="translate(160 40)" fill="#e9edf5"/>
          </g>
          <g id="g6597" transform="translate(21.203 25.044)">
            <path id="path6599" d="M0-147.866v-5.968a3.073,3.073,0,0,1,3.073-3.073H9.1a3.073,3.073,0,0,1,3.073,3.073v5.968" transform="translate(0 156.906)" fill="none" stroke="#000" stroke-linecap="round" stroke-linejoin="round" stroke-miterlimit="10" stroke-width="1"/>
          </g>
          <g id="g6601" transform="translate(6.53 28.174)">
            <path id="path6603" d="M-16.694,0a16.407,16.407,0,0,0-1.021,5.321q0,.3.015.59" transform="translate(17.715)" fill="none" stroke="#000" stroke-linecap="round" stroke-linejoin="round" stroke-miterlimit="10" stroke-width="1"/>
          </g>
          <g id="g6605" transform="translate(16.533 28.174)">
            <path id="path6607" d="M-16.46-96.457q.014-.287.014-.576a16.406,16.406,0,0,0-1.021-5.321" transform="translate(17.467 102.354)" fill="none" stroke="#000" stroke-linecap="round" stroke-linejoin="round" stroke-miterlimit="10" stroke-width="1"/>
          </g>
          <g id="g6609" transform="translate(5.954 25.044)">
            <path id="path6611" d="M-174.026-50.26h-9.1a1.536,1.536,0,0,1-1.536-1.536,1.536,1.536,0,0,1,1.536-1.536h9.1A1.536,1.536,0,0,1-172.49-51.8,1.536,1.536,0,0,1-174.026-50.26Z" transform="translate(184.666 53.333)" fill="none" stroke="#000" stroke-linecap="round" stroke-linejoin="round" stroke-miterlimit="10" stroke-width="1"/>
          </g>
          <g id="g6613" transform="translate(21.203 8.258)">
            <path id="path6615" d="M-199.156-148.014v-.911a5.182,5.182,0,0,0-.147-1.224,5.183,5.183,0,0,0-.4-1.095l-1.181-2.362v-2.161a1.3,1.3,0,0,0-1.3-1.3h-6.127a1.3,1.3,0,0,0-1.3,1.3v2.161l-1.181,2.362a5.185,5.185,0,0,0-.4,1.095,5.181,5.181,0,0,0-.147,1.224V-148" transform="translate(211.333 157.064)" fill="none" stroke="#000" stroke-linecap="round" stroke-linejoin="round" stroke-miterlimit="10" stroke-width="1"/>
          </g>
          <g id="g6617" transform="translate(8.799 8.258)">
            <path id="path6619" d="M-5.511-40.784a3.208,3.208,0,0,1-.2-2.353c.3-.3,2.534-.2,3.952,1.213A1.933,1.933,0,0,1-1.2-40.333" transform="translate(5.848 43.278)" fill="none" stroke="#000" stroke-linecap="round" stroke-linejoin="round" stroke-miterlimit="10" stroke-width="1"/>
          </g>
          <g id="g6621" transform="translate(5.954 10.8)">
            <path id="path6623" d="M-187.318-106.691q.128-.247.237-.511c1.02-2.462.384-5.063-1.42-5.81a3.028,3.028,0,0,0-2.536.176,3.7,3.7,0,0,1-3.293,0,3.028,3.028,0,0,0-2.536-.176c-1.8.747-2.439,3.349-1.419,5.81q.109.263.237.509" transform="translate(198.771 113.214)" fill="none" stroke="#000" stroke-linecap="round" stroke-linejoin="round" stroke-miterlimit="10" stroke-width="1"/>
          </g>
          <g id="g6625" transform="translate(0.576 0.576)">
            <path id="path6627" d="M-586.789-75.39H-620.36a2.3,2.3,0,0,1-2.3-2.3,2.3,2.3,0,0,1,2.3-2.3h33.571a2.3,2.3,0,0,1,2.3,2.3A2.3,2.3,0,0,1-586.789-75.39Z" transform="translate(622.665 80)" fill="none" stroke="#000" stroke-linecap="round" stroke-linejoin="round" stroke-miterlimit="10" stroke-width="1"/>
          </g>
          <g id="g6629" transform="translate(0.576 17.362)">
            <path id="path6631" d="M-586.789-75.39H-620.36a2.3,2.3,0,0,1-2.3-2.3,2.3,2.3,0,0,1,2.3-2.3h33.571a2.3,2.3,0,0,1,2.3,2.3A2.3,2.3,0,0,1-586.789-75.39Z" transform="translate(622.665 80)" fill="none" stroke="#000" stroke-linecap="round" stroke-linejoin="round" stroke-miterlimit="10" stroke-width="1"/>
          </g>
          <g id="g6633" transform="translate(0.576 34.148)">
            <path id="path6635" d="M-586.789-75.39H-620.36a2.3,2.3,0,0,1-2.3-2.3,2.3,2.3,0,0,1,2.3-2.3h33.571a2.3,2.3,0,0,1,2.3,2.3A2.3,2.3,0,0,1-586.789-75.39Z" transform="translate(622.665 80)" fill="none" stroke="#000" stroke-linecap="round" stroke-linejoin="round" stroke-miterlimit="10" stroke-width="1"/>
          </g>
          <g id="g6637" transform="translate(22.989 11.715)">
            <path id="path6639" d="M0,0H8.6" fill="none" stroke="#000" stroke-linecap="round" stroke-linejoin="round" stroke-miterlimit="10" stroke-width="1"/>
          </g>
          <g id="g6641" transform="translate(30.229 15.172)">
            <path id="path6643" d="M0,0H3" fill="none" stroke="#000" stroke-linecap="round" stroke-linejoin="round" stroke-miterlimit="10" stroke-width="1"/>
          </g>
          <g id="g6645" transform="translate(21.35 15.172)">
            <path id="path6647" d="M0,0H6.574" fill="none" stroke="#000" stroke-linecap="round" stroke-linejoin="round" stroke-miterlimit="10" stroke-width="1"/>
          </g>
          <g id="g6649" transform="translate(2.881 5.186)">
            <path id="path6651" d="M0,0V12.176" fill="none" stroke="#000" stroke-linecap="round" stroke-linejoin="round" stroke-miterlimit="10" stroke-width="1"/>
          </g>
          <g id="g6653" transform="translate(2.881 27.69)">
            <path id="path6655" d="M0,0V6.457" fill="none" stroke="#000" stroke-linecap="round" stroke-linejoin="round" stroke-miterlimit="10" stroke-width="1"/>
          </g>
          <g id="g6657" transform="translate(2.881 21.971)">
            <path id="path6659" d="M0,0V3.457" fill="none" stroke="#000" stroke-linecap="round" stroke-linejoin="round" stroke-miterlimit="10" stroke-width="1"/>
          </g>
          <g id="g6661" transform="translate(36.452 5.186)">
            <path id="path6663" d="M0,0V12.176" fill="none" stroke="#000" stroke-linecap="round" stroke-linejoin="round" stroke-miterlimit="10" stroke-width="1"/>
          </g>
          <g id="g6665" transform="translate(36.452 21.971)">
            <path id="path6667" d="M0,0V12.176" fill="none" stroke="#000" stroke-linecap="round" stroke-linejoin="round" stroke-miterlimit="10" stroke-width="1"/>
          </g>
          <g id="g6669" transform="translate(25.755 28.117)">
            <path id="path6671" d="M0,0H3.073" fill="none" stroke="#000" stroke-linecap="round" stroke-linejoin="round" stroke-miterlimit="10" stroke-width="1"/>
          </g>
        </g>
      </g>
    </g>
  </g>
</svg>
