<svg height="82" viewBox="0 0 82 82" width="82" xmlns="http://www.w3.org/2000/svg"><g fill="#fff" stroke="#ffce79" stroke-linejoin="round" stroke-width="5"><circle cx="40.999" cy="41" r="36" stroke="none"/><circle cx="40.999" cy="41" fill="none" r="38.5"/></g><path d="m119.666 132.283h-29.333v13.886l1.289 4.4-1.289 4.4v4.4a5.867 5.867 0 0 0 5.867 5.867h17.6a5.867 5.867 0 0 0 5.867-5.867v-4.4l-1.018-4.4 1.018-4.4z" fill="#b2e5fb" transform="translate(-64.026 -102.236)"/><path d="m340.3 146.169v-13.886h-2.036v27.086a5.867 5.867 0 0 1 -5.867 5.867h2.036a5.867 5.867 0 0 0 5.867-5.867v-4.4l-1.018-4.4z" fill="#9cd0fb" transform="translate(-284.663 -102.236)"/><path d="m145.251 226.833a2.933 2.933 0 0 1 -2.933 2.933h-15.918a2.933 2.933 0 0 1 -2.933-2.933v-19.8a.733.733 0 0 1 .733-.733h5.043a24.562 24.562 0 0 1 5.957.733 24.563 24.563 0 0 0 5.957.733h3.361a.733.733 0 0 1 .733.733z" fill="#f46370" transform="translate(-94.227 -169.7)"/><path d="m337.369 223.6a.733.733 0 0 0 -.733-.733h-1.687a.733.733 0 0 1 .384.645v18.421a2.933 2.933 0 0 1 -2.933 2.933h2.036a2.933 2.933 0 0 0 2.933-2.933z" fill="#e04f5b" transform="translate(-284.663 -184.801)"/><path d="m62.435 14.833a3.624 3.624 0 0 0 -2.456 3.038l-.244 2.2a1.467 1.467 0 0 0 1.813 1.585l2.4-.6a5.866 5.866 0 0 1 2.846 0l3.021.755a5.866 5.866 0 0 0 2.846 0l3.021-.755a5.866 5.866 0 0 1 2.846 0l3.021.755a5.866 5.866 0 0 0 2.846 0l3.021-.755a5.866 5.866 0 0 1 2.846 0l2.4.6a1.467 1.467 0 0 0 1.813-1.585l-.244-2.2a3.624 3.624 0 0 0 -2.456-3.038l-14.675-1.466 14.668-1.467.289-.144a2.131 2.131 0 0 0 1.178-1.906 2.131 2.131 0 0 0 -.624-1.507 2.877 2.877 0 0 0 -2.035-.843h-26.95a2.876 2.876 0 0 0 -2.034.842 2.131 2.131 0 0 0 -.624 1.507 2.131 2.131 0 0 0 1.178 1.906l.289.144 14.665 1.468z" fill="#e7e7ef" transform="translate(-36.128 11.5)"/><path d="m260.473 11.756a2.131 2.131 0 0 0 1.178-1.906 2.131 2.131 0 0 0 -.624-1.507 2.877 2.877 0 0 0 -2.034-.842h-2.036a2.876 2.876 0 0 1 2.034.842 2.131 2.131 0 0 1 .624 1.507 2.131 2.131 0 0 1 -1.178 1.906l-.289.144-13.648 1.365 1.018.1 14.666-1.465z" fill="#d5d7e6" transform="translate(-204.545 11.5)"/><path d="m262.885 80.47-.244-2.2a3.624 3.624 0 0 0 -2.456-3.038l-14.666-1.467-1.018.1 13.648 1.365a3.624 3.624 0 0 1 2.456 3.038l.244 2.2a1.46 1.46 0 0 1 -.629 1.372l.851.213a1.467 1.467 0 0 0 1.814-1.583z" fill="#d5d7e6" transform="translate(-204.545 -48.9)"/><path d="m117.63 60.133h-27.3v-2.933h27.3l1.018 1.467z" fill="#e3a76f" transform="translate(-64.026 -33.8)"/><path d="m53.603 23.4h2.036v2.933h-2.036z" fill="#d68e60"/><path d="m118.648 263.333-1.018-4.4h-6.058a1.475 1.475 0 0 1 -1.1-.484 7.332 7.332 0 0 0 -10.94 0 1.475 1.475 0 0 1 -1.1.484h-8.099v8.8h8.094a1.475 1.475 0 0 1 1.1.484 7.332 7.332 0 0 0 10.94 0 1.475 1.475 0 0 1 1.1-.484h6.058z" fill="#f9f5f3" transform="translate(-64.026 -215)"/><path d="m125.667 322.267h-1.467a.733.733 0 0 0 -.733.733v1.467a.733.733 0 0 0 .733.733h1.467a.733.733 0 0 0 .733-.733v-1.467a.733.733 0 0 0 -.733-.733z" fill="#b3e59f" transform="translate(-94.227 -275.401)"/><path d="m209.682 299.046 2.07-.288 2.7-3.992-3.479-4.28h-1.3a4.4 4.4 0 0 0 0 8.56z" fill="#f46370" transform="translate(-169.727 -246.434)"/><path d="m53.603 43.933h2.036v8.8h-2.036z" fill="#e7e7ef"/><path d="m245.518 289.133a4.407 4.407 0 0 0 -1.018.12 4.4 4.4 0 0 1 0 8.56 4.4 4.4 0 1 0 1.018-8.68z" fill="#e04f5b" transform="translate(-204.545 -245.2)"/><g fill="none" stroke="#000" stroke-linecap="round" stroke-linejoin="round" stroke-miterlimit="10"><path d="m93.184 60.133h-2.851v-2.933h29.333v2.933h-23.466" transform="translate(-64.026 -33.8)"/><path d="m104.566 11.9.289-.144a2.131 2.131 0 0 0 1.178-1.906 2.131 2.131 0 0 0 -.624-1.507 2.877 2.877 0 0 0 -2.034-.842h-26.95a2.876 2.876 0 0 0 -2.034.842 2.131 2.131 0 0 0 -.624 1.507 2.131 2.131 0 0 0 1.178 1.906l.289.144" transform="translate(-48.927 11.5)"/><path d="m98.317 194.949h-2.117a5.867 5.867 0 0 1 -5.867-5.867v-24.2" transform="translate(-64.026 -131.95)"/><path d="m233.767 164.883v24.2a5.867 5.867 0 0 1 -5.867 5.867h-12.383" transform="translate(-178.128 -131.95)"/><path d="m119.666 258.933h-8.094a1.475 1.475 0 0 1 -1.1-.484 7.332 7.332 0 0 0 -10.94 0 1.475 1.475 0 0 1 -1.1.484h-8.099v8.8h8.094a1.475 1.475 0 0 1 1.1.484 7.332 7.332 0 0 0 10.94 0 1.475 1.475 0 0 1 1.1-.484h8.094v-8.8z" transform="translate(-64.026 -215)"/><path d="m125.667 322.267h-1.467a.733.733 0 0 0 -.733.733v1.467a.733.733 0 0 0 .733.733h1.467a.733.733 0 0 0 .733-.733v-1.467a.733.733 0 0 0 -.733-.733z" transform="translate(-94.227 -275.4)"/><circle cx="40.973" cy="48.333" r="4.4"/><path d="m146.933 213.634v-5.134a.733.733 0 0 0 -.733-.733h-5.043a24.562 24.562 0 0 1 -5.957-.733 24.563 24.563 0 0 0 -5.957-.733h-5.043a.733.733 0 0 0 -.733.733v6.6" transform="translate(-94.227 -169.701)"/><path d="m123.467 388.533v4.4a2.933 2.933 0 0 0 2.933 2.933h17.6a2.933 2.933 0 0 0 2.933-2.933v-4.4" transform="translate(-94.227 -335.8)"/><path d="m91.769 90.333a3.624 3.624 0 0 1 2.456 3.038l.244 2.2a1.467 1.467 0 0 1 -1.813 1.585l-2.4-.6a5.866 5.866 0 0 0 -2.846 0l-3.021.755a5.866 5.866 0 0 1 -2.846 0l-3.021-.755a5.866 5.866 0 0 0 -2.846 0l-3.021.755a5.866 5.866 0 0 1 -2.846 0l-3.021-.755a5.866 5.866 0 0 0 -2.846 0l-2.4.6a1.467 1.467 0 0 1 -1.813-1.585l.244-2.2a3.624 3.624 0 0 1 2.456-3.038" transform="translate(-36.13 -64)"/></g></svg>