<svg xmlns="http://www.w3.org/2000/svg" width="82" height="82" viewBox="0 0 82 82">
  <g id="Grupo_1127832" data-name="Grupo 1127832" transform="translate(-707.051 -2281)">
    <g id="Grupo_1116526" data-name="Grupo 1116526" transform="translate(696.899 2270.941)">
      <g id="Elipse_157" data-name="Elipse 157" transform="translate(15.151 15.059)" fill="#fff" stroke="#ffce79" stroke-linejoin="round" stroke-width="5">
        <circle cx="36" cy="36" r="36" stroke="none"/>
        <circle cx="36" cy="36" r="38.5" fill="none"/>
      </g>
    </g>
    <g id="Grupo_1127485" data-name="Grupo 1127485" transform="translate(726.051 2293.52)">
      <g id="Grupo_1127484" data-name="Grupo 1127484" transform="translate(0.642 8.121)">
        <g id="Grupo_1127479" data-name="Grupo 1127479" transform="translate(4.384 32.265)">
          <path id="Trazado_917965" data-name="Trazado 917965" d="M58.695,391.724l.627,6.6a2.549,2.549,0,0,0,2.428,2.419H89.433a2.548,2.548,0,0,0,2.428-2.419l.627-6.6Z" transform="translate(-58.695 -391.724)" fill="#00c5fd"/>
          <path id="Trazado_917966" data-name="Trazado 917966" d="M70.63,397.369v-5.645H58.695l.627,6.6a2.548,2.548,0,0,0,2.428,2.419H72.244A4.323,4.323,0,0,1,70.63,397.369Z" transform="translate(-58.695 -391.724)" fill="#00b4fd"/>
        </g>
        <g id="Grupo_1127480" data-name="Grupo 1127480" transform="translate(8.296)">
          <path id="Trazado_917967" data-name="Trazado 917967" d="M109.851,15.985l-.223-.223a2.55,2.55,0,0,0-3.6,0l-.858.858a2.55,2.55,0,0,0,0,3.6l.223.223a9.28,9.28,0,0,0,1.668,10.791l2.5,2.5A9.28,9.28,0,0,0,120.358,35.4l.223.223a2.55,2.55,0,0,0,3.6,0l.858-.858a2.55,2.55,0,0,0,0-3.6l-.223-.223a9.28,9.28,0,0,0-1.668-10.791l-2.5-2.5A9.28,9.28,0,0,0,109.851,15.985Z" transform="translate(-104.369 -14.957)" fill="#fbf198"/>
          <path id="Trazado_917968" data-name="Trazado 917968" d="M108.663,25.71a12.7,12.7,0,0,1,5.887-10.723,9.293,9.293,0,0,0-4.7,1.016l-.223-.223a2.55,2.55,0,0,0-3.6,0l-.858.858a2.55,2.55,0,0,0,0,3.6l.223.223a9.28,9.28,0,0,0,1.668,10.791l2.5,2.5a9.172,9.172,0,0,0,4.731,2.519A12.694,12.694,0,0,1,108.663,25.71Z" transform="translate(-104.37 -14.975)" fill="#fad989"/>
        </g>
        <path id="Trazado_917969" data-name="Trazado 917969" d="M77.859,138.6a3.629,3.629,0,0,0-2.506-2.8,5.476,5.476,0,0,0-.592-.168,5.607,5.607,0,0,0-3.543.336.726.726,0,0,0-.428.835,5.607,5.607,0,0,0,1.8,3.073,5.477,5.477,0,0,0,.482.382,3.629,3.629,0,0,0,3.738.4h0a2.038,2.038,0,0,0,1.054-2.056Z" transform="translate(-65.354 -125.165)" fill="#55d47b"/>
        <path id="Trazado_917970" data-name="Trazado 917970" d="M136.082,107.5l-.027.01a1.431,1.431,0,0,1-1.919-1.107,8.563,8.563,0,0,1,2.413-7.426,1.431,1.431,0,0,1,2.2.233l.016.024a1.43,1.43,0,0,1-.184,1.8,5.669,5.669,0,0,0-1.594,4.905A1.43,1.43,0,0,1,136.082,107.5Z" transform="translate(-123.192 -91.4)" fill="#f77661"/>
        <g id="Grupo_1127481" data-name="Grupo 1127481" transform="translate(3.185 10.346)">
          <ellipse id="Elipse_12339" data-name="Elipse 12339" cx="9.951" cy="8.828" rx="9.951" ry="8.828" transform="translate(0 6.104) rotate(-17.861)" fill="#ffb25a"/>
          <path id="Trazado_917971" data-name="Trazado 917971" d="M75.33,200.366a11.6,11.6,0,0,1-.423-5.379,8.618,8.618,0,0,0-3.017,9.436c1.582,4.91,6.948,7.037,12.179,5.351a11.7,11.7,0,0,0,2.817-1.337A11.657,11.657,0,0,1,75.33,200.366Z" transform="translate(-69.183 -189.916)" fill="#ff9c20"/>
        </g>
        <path id="Trazado_917972" data-name="Trazado 917972" d="M321.634,131.458a4.732,4.732,0,0,0,4.48-1.99,7.159,7.159,0,0,0,.445-.667,7.311,7.311,0,0,0,1-4.531.947.947,0,0,0-.865-.865,7.311,7.311,0,0,0-4.531,1,7.135,7.135,0,0,0-.667.445,4.732,4.732,0,0,0-1.99,4.479h0a2.657,2.657,0,0,0,2.13,2.13Z" transform="translate(-292.724 -114.077)" fill="#00c755"/>
        <g id="Grupo_1127482" data-name="Grupo 1127482" transform="translate(18.63 15.559)">
          <path id="Trazado_917973" data-name="Trazado 917973" d="M238.5,196.727a5.368,5.368,0,0,0-2.139.057,9.232,9.232,0,0,1-4.118,0,5.368,5.368,0,0,0-2.139-.057c-3.449.608-5.651,4.471-4.918,8.628s4.123,7.034,7.572,6.426a5.321,5.321,0,0,0,1.012-.284,1.462,1.462,0,0,1,1.063,0,5.315,5.315,0,0,0,1.012.284c3.449.608,6.839-2.269,7.572-6.426S241.947,197.336,238.5,196.727Z" transform="translate(-225.043 -196.646)" fill="#ff5fb7"/>
          <path id="Trazado_917974" data-name="Trazado 917974" d="M229.719,203.773a8.93,8.93,0,0,1,3.2-6.86c-.228-.034-.456-.077-.681-.128a5.367,5.367,0,0,0-2.139-.057c-3.449.608-5.651,4.471-4.918,8.628s4.123,7.034,7.572,6.426a5.321,5.321,0,0,0,1.012-.284,1.462,1.462,0,0,1,.256-.073A8.944,8.944,0,0,1,229.719,203.773Z" transform="translate(-225.043 -196.646)" fill="#f633a2"/>
        </g>
        <g id="Grupo_1127483" data-name="Grupo 1127483" transform="translate(0 28.801)">
          <path id="Trazado_917975" data-name="Trazado 917975" d="M47.454,356.492H10.108A2.608,2.608,0,0,1,7.5,353.885h0a2.608,2.608,0,0,1,2.608-2.608H47.454a2.608,2.608,0,0,1,2.608,2.608h0A2.608,2.608,0,0,1,47.454,356.492Z" transform="translate(-7.5 -351.277)" fill="#83deff"/>
          <path id="Trazado_917976" data-name="Trazado 917976" d="M23.819,354.292a4.317,4.317,0,0,1,1.223-3.016H10.108A2.608,2.608,0,0,0,7.5,353.884h0a2.608,2.608,0,0,0,2.608,2.608H23.819v-2.2Z" transform="translate(-7.5 -351.276)" fill="#00c5fd"/>
        </g>
      </g>
      <path id="Trazado_917977" data-name="Trazado 917977" d="M40.6,36.28H36.733a9.562,9.562,0,0,0,1.543-3.78,9.254,9.254,0,0,0-.72-5.61,6.962,6.962,0,0,0-2.911-3.131c.135-.188.264-.385.383-.585a7.914,7.914,0,0,0,1.086-4.933,1.593,1.593,0,0,0-1.431-1.432,7.871,7.871,0,0,0-3.944.583,9.771,9.771,0,0,0-2.573-4.529l-2.5-2.5a9.783,9.783,0,0,0-5.542-2.779,10.037,10.037,0,0,0-5.575.79,3.192,3.192,0,0,0-4.4.1l-.859.858a3.191,3.191,0,0,0-.1,4.4A9.923,9.923,0,0,0,8.3,17.818a6.121,6.121,0,0,0-2.055.52,1.372,1.372,0,0,0-.793,1.547,6.213,6.213,0,0,0,2,3.426,6.1,6.1,0,0,0,.539.427q.114.081.233.154a9.96,9.96,0,0,0-1.935,2.814.642.642,0,1,0,1.17.531,9.146,9.146,0,0,1,3.324-3.806,10.442,10.442,0,0,1,1.01-.592,11.33,11.33,0,0,1,1.709-.708,9.463,9.463,0,0,1,9.136,1.513,7.443,7.443,0,0,0-3.9,5.761,9.707,9.707,0,0,0,1.591,6.874H9.468a7.541,7.541,0,0,1-2.323-3.5,7.692,7.692,0,0,1-.362-2.938A.642.642,0,0,0,5.5,29.745,9.134,9.134,0,0,0,7.655,36.28H3.25a3.25,3.25,0,1,0,0,6.5H4.608l.405,4.265a3.182,3.182,0,0,0,3.068,3h21.3a.642.642,0,1,0,0-1.285H8.082a1.907,1.907,0,0,1-1.789-1.838L5.9,42.779H37.948l-.394,4.144a1.907,1.907,0,0,1-1.789,1.838H32.572a.642.642,0,0,0,0,1.285h3.192a3.182,3.182,0,0,0,3.068-3l.405-4.265H40.6a3.25,3.25,0,0,0,0-6.5ZM34.541,18.086a.307.307,0,0,1,.3.3,6.782,6.782,0,0,1-1.32,4.741c-.034.045-.071.089-.107.134-.189-.053-.381-.1-.573-.132a6.012,6.012,0,0,0-2.394.064,8.545,8.545,0,0,1-2.355.2c-.014-.05-.027-.1-.037-.153a3.485,3.485,0,0,1,.458-2.369A4.768,4.768,0,0,1,29.8,19.405,6.529,6.529,0,0,1,30.412,19,6.621,6.621,0,0,1,34.541,18.086ZM10.066,22.361q-.441.292-.845.618a3.526,3.526,0,0,1-.5-.29,4.872,4.872,0,0,1-.43-.341,5,5,0,0,1-1.588-2.716.09.09,0,0,1,.063-.123,5,5,0,0,1,3.138-.295,4.847,4.847,0,0,1,.523.149,3.523,3.523,0,0,1,.649.3,9.158,9.158,0,0,0-.242,2.228C10.573,22.039,10.314,22.2,10.066,22.361ZM13.1,20.908q-.491.159-.964.354a7.917,7.917,0,0,1,2.315-5.113.781.781,0,0,1,.633-.223.79.79,0,0,1,.58.353l.007.011.008.013a.791.791,0,0,1-.1.99A6.318,6.318,0,0,0,13.819,20.7C13.58,20.763,13.34,20.831,13.1,20.908Zm2.093-.48A5.023,5.023,0,0,1,16.488,18.2a2.08,2.08,0,0,0,.267-2.605l-.006-.01-.009-.015a2.073,2.073,0,0,0-3.193-.336,9.211,9.211,0,0,0-2.078,3.173,4.79,4.79,0,0,0-.617-.263,6.088,6.088,0,0,0-.656-.187c-.2-.047-.408-.083-.614-.11a8.625,8.625,0,0,1,.956-3.955.642.642,0,0,0-.117-.75l-.222-.222a1.9,1.9,0,0,1,0-2.688l.859-.858a1.906,1.906,0,0,1,2.686,0l.223.224a.643.643,0,0,0,.749.117,8.584,8.584,0,0,1,10.042,1.551l2.5,2.5a8.5,8.5,0,0,1,2.309,4.235c-.187.117-.368.242-.54.371a6.065,6.065,0,0,0-1.638,1.867,4.86,4.86,0,0,0-.641,2.975l-.136-.029a6.013,6.013,0,0,0-2.394-.064c-.073.013-.145.029-.218.044A10.208,10.208,0,0,0,15.195,20.428Zm4.851,11.848A8.327,8.327,0,0,1,20,29.595a5.938,5.938,0,0,1,3.96-5.091,4.8,4.8,0,0,1,.479-.11,4.738,4.738,0,0,1,1.885.051,9.888,9.888,0,0,0,4.4,0A4.7,4.7,0,0,1,33.4,24.6c2.661.964,4.215,4.263,3.613,7.674a8.087,8.087,0,0,1-1.912,4H21.958A8.087,8.087,0,0,1,20.046,32.277ZM40.6,41.495H3.25a1.965,1.965,0,1,1,0-3.931H40.6a1.965,1.965,0,1,1,0,3.931Z"/>
    </g>
  </g>
</svg>
