<svg height="82" viewBox="0 0 82 82" width="82" xmlns="http://www.w3.org/2000/svg" xmlns:xlink="http://www.w3.org/1999/xlink"><clipPath id="a"><path d="m0-682.665h46v46h-46z" transform="translate(0 682.665)"/></clipPath><g fill="#fff" stroke="#ffce79" stroke-linejoin="round" stroke-width="5"><circle cx="41" cy="41" r="36" stroke="none"/><circle cx="41" cy="41" fill="none" r="38.5"/></g><g clip-path="url(#a)" transform="translate(17.999 17.999)"><path d="m-289.156-144.579a10.446 10.446 0 0 1 -10.444 10.446 10.446 10.446 0 0 1 -10.446-10.446 10.446 10.446 0 0 1 10.446-10.446 10.446 10.446 0 0 1 10.446 10.446" fill="#99e6fc" transform="translate(322.603 155.699)"/><path d="m-230.574-28.353a10.4 10.4 0 0 0 -6.213-2.049 10.446 10.446 0 0 0 -10.446 10.446 10.446 10.446 0 0 0 10.445 10.447 10.446 10.446 0 0 0 10.446-10.446 10.4 10.4 0 0 0 -2.069-6.241" fill="none" stroke="#000" stroke-linecap="round" stroke-linejoin="round" stroke-miterlimit="10" transform="translate(259.788 31.075)"/><path d="m-147.168-73.583a5.317 5.317 0 0 1 -5.317 5.317 5.317 5.317 0 0 1 -5.317-5.317 5.317 5.317 0 0 1 5.317-5.317 5.317 5.317 0 0 1 5.317 5.317" fill="#62dbfb" transform="translate(175.485 84.703)"/><path d="m-86.261-73.589a5.317 5.317 0 0 1 -5.317 5.316 5.4 5.4 0 0 1 -.915-.078 5.318 5.318 0 0 0 4.4-5.238 5.319 5.319 0 0 0 -4.4-5.239 5.394 5.394 0 0 1 .915-.078 5.318 5.318 0 0 1 5.317 5.317" fill="#01d1fa" transform="translate(114.578 84.709)"/><path d="m-147.168-73.583a5.317 5.317 0 0 1 -5.317 5.317 5.317 5.317 0 0 1 -5.317-5.317 5.317 5.317 0 0 1 5.317-5.317 5.317 5.317 0 0 1 5.317 5.317z" fill="none" stroke="#000" stroke-linecap="round" stroke-linejoin="round" stroke-miterlimit="10" transform="translate(175.485 84.703)"/><path d="m-32.08-154.9a7.914 7.914 0 0 1 0-11.192" fill="none" stroke="#000" stroke-linecap="round" stroke-linejoin="round" stroke-miterlimit="10" transform="translate(49.485 171.613)"/><path d="m0 0a7.914 7.914 0 0 1 0 11.192" fill="none" stroke="#000" stroke-linecap="round" stroke-linejoin="round" stroke-miterlimit="10" transform="translate(28.596 5.524)"/><path d="m217.26-383.652h-19.326v-24.81h19.326z" fill="#fd636f" transform="translate(-184.597 426.939)"/><path d="m460.918-383.648h-1.718v-24.809h1.72z" fill="#fe4855" transform="translate(-428.255 426.935)"/><path d="m217.26-238.637h-19.326v-14.332h19.326z" fill="#f8f3f1" transform="translate(-184.597 281.923)"/><path d="m460.918-238.637h-1.718v-14.332h1.72z" fill="#eee2dd" transform="translate(-428.255 281.923)"/><path d="m-267.47-343.373v-24.81h-19.33v13.6" fill="none" stroke="#000" stroke-linecap="round" stroke-linejoin="round" stroke-miterlimit="10" transform="translate(300.133 386.66)"/><path d="m0 0v8.157" fill="none" stroke="#000" stroke-linecap="round" stroke-linejoin="round" stroke-miterlimit="10" transform="translate(13.338 35.13)"/><path d="m0 0h19.325" fill="none" stroke="#000" stroke-linecap="round" stroke-linejoin="round" stroke-miterlimit="10" transform="translate(13.338 28.955)"/><path d="m-107.432-53.716a3.881 3.881 0 0 1 -3.881 3.881 3.881 3.881 0 0 1 -3.881-3.881 3.881 3.881 0 0 1 3.881-3.881 3.881 3.881 0 0 1 3.881 3.881" fill="#fdc266" transform="translate(134.313 82.671)"/><path d="m-107.432-53.716a3.881 3.881 0 0 1 -3.881 3.881 3.881 3.881 0 0 1 -3.881-3.881 3.881 3.881 0 0 1 3.881-3.881 3.881 3.881 0 0 1 3.881 3.881z" fill="none" stroke="#000" stroke-linecap="round" stroke-linejoin="round" stroke-miterlimit="10" transform="translate(134.313 82.671)"/><path d="m-50.694-25.347a1.831 1.831 0 0 1 -1.831 1.831 1.831 1.831 0 0 1 -1.831-1.831 1.831 1.831 0 0 1 1.831-1.831 1.831 1.831 0 0 1 1.831 1.831" fill="#bb7c63" transform="translate(75.526 54.302)"/><path d="m-50.694-25.347a1.831 1.831 0 0 1 -1.831 1.831 1.831 1.831 0 0 1 -1.831-1.831 1.831 1.831 0 0 1 1.831-1.831 1.831 1.831 0 0 1 1.831 1.831z" fill="none" stroke="#000" stroke-linecap="round" stroke-linejoin="round" stroke-miterlimit="10" transform="translate(75.526 54.302)"/><path d="m-129.611-33.083h-8.979a.386.386 0 0 1 -.386-.386v-1.619a.386.386 0 0 1 .386-.386h8.979a.386.386 0 0 1 .386.386v1.619a.386.386 0 0 1 -.386.386" fill="#fd636f" transform="translate(157.101 70.956)"/><g fill="none" stroke="#000" stroke-linecap="round" stroke-linejoin="round" stroke-miterlimit="10"><path d="m-129.611-33.083h-8.979a.386.386 0 0 1 -.386-.386v-1.619a.386.386 0 0 1 .386-.386h8.979a.386.386 0 0 1 .386.386v1.619a.386.386 0 0 1 -.386.386z" transform="translate(157.101 70.956)"/><path d="m0 0h5.86" transform="translate(13.478 40.419)"/><path d="m0 0h5.86" transform="translate(26.662 40.419)"/><path d="m0 0h.077" transform="translate(21.702 40.419)"/><path d="m0 0h.077" transform="translate(24.221 40.419)"/><path d="m0 0h5.86" transform="translate(13.478 21.344)"/><path d="m0 0h5.86" transform="translate(26.662 21.344)"/><path d="m0 0h.077" transform="translate(21.702 21.344)"/><path d="m0 0h.077" transform="translate(24.221 21.344)"/></g><path d="m-277.109-34.757h-19.151a.871.871 0 0 1 -.871-.871v-.77a.871.871 0 0 1 .871-.871h19.151a.87.87 0 0 1 .87.871v.77a.87.87 0 0 1 -.87.871" fill="#def6fe" transform="translate(309.685 53.705)"/><path d="m-34.805-12.049v.771a.87.87 0 0 1 -.871.87h-1.644a.869.869 0 0 0 .871-.87v-.771a.87.87 0 0 0 -.871-.871h1.644a.871.871 0 0 1 .871.871" fill="#c8f0fe" transform="translate(68.252 29.356)"/><path d="m-277.109-34.757h-19.151a.871.871 0 0 1 -.871-.871v-.77a.871.871 0 0 1 .871-.871h19.151a.87.87 0 0 1 .87.871v.77a.87.87 0 0 1 -.87.871" fill="#def6fe" transform="translate(309.685 80.084)"/><path d="m-34.805-12.049v.77a.871.871 0 0 1 -.871.871h-1.644a.87.87 0 0 0 .871-.871v-.77a.87.87 0 0 0 -.871-.871h1.644a.871.871 0 0 1 .871.871" fill="#c8f0fe" transform="translate(68.252 55.736)"/><path d="m-277.109-34.757h-19.151a.871.871 0 0 1 -.871-.871v-.77a.871.871 0 0 1 .871-.871h19.151a.87.87 0 0 1 .87.871v.77a.87.87 0 0 1 -.87.871z" fill="none" stroke="#000" stroke-linecap="round" stroke-linejoin="round" stroke-miterlimit="10" transform="translate(309.685 53.705)"/><path d="m-187.479 0h-12.675a.871.871 0 0 0 -.871.871v.77a.871.871 0 0 0 .871.871h19.154a.871.871 0 0 0 .871-.871v-.77a.871.871 0 0 0 -.871-.871h-3.421" fill="none" stroke="#000" stroke-linecap="round" stroke-linejoin="round" stroke-miterlimit="10" transform="translate(213.579 42.816)"/></g></svg>