<svg height="55.555" viewBox="0 0 55.555 55.555" width="55.555" xmlns="http://www.w3.org/2000/svg"><g transform="translate(-618.8 -3266)"><g fill="#fff" stroke="#ffce79" stroke-linejoin="round" stroke-width="5"><circle cx="646.577" cy="3293.777" r="22.777" stroke="none"/><circle cx="646.577" cy="3293.777" fill="none" r="25.277"/></g><path d="m14.711 19h-8.929v-1.934l4.118-4.324a4.909 4.909 0 0 0 1.521-2.751 1.913 1.913 0 0 0 -.36-1.257 1.287 1.287 0 0 0 -1.052-.434 1.3 1.3 0 0 0 -1.1.576 2.366 2.366 0 0 0 -.422 1.437h-2.969a4.2 4.2 0 0 1 .589-2.175 4.129 4.129 0 0 1 1.635-1.56 4.856 4.856 0 0 1 2.338-.562 4.777 4.777 0 0 1 3.195.958 3.42 3.42 0 0 1 1.125 2.754 4 4 0 0 1 -.281 1.472 6.456 6.456 0 0 1 -.875 1.5 22.029 22.029 0 0 1 -1.912 2.1l-1.657 1.915h5.036z" fill="#8c492a" transform="translate(636.8 3283)"/></g></svg>