<svg height="82" viewBox="0 0 82 82" width="82" xmlns="http://www.w3.org/2000/svg"><g fill="#fff" stroke="#ffce79" stroke-linejoin="round" stroke-width="5"><circle cx="41" cy="41" r="36" stroke="none"/><circle cx="41" cy="41" fill="none" r="38.5"/></g><g transform="translate(15.994 -6.374)"><g fill-rule="evenodd"><path d="m9.561 71.906h21.57a2.049 2.049 0 0 1 0 4.1h-21.57a2.049 2.049 0 0 1 0-4.1zm21.571-35.506v35.506h-21.571v-35.506a2.049 2.049 0 1 1 0-4.1h21.57a2.049 2.049 0 1 1 0 4.1z" fill="#d3effb" transform="translate(-6.778 -6.778)"/><path d="m28.463 71.906h21.57a2.049 2.049 0 0 1 0 4.1h-2.844a2.049 2.049 0 0 0 0-4.1h-18.729zm21.57-35.506v35.506h-2.844v-35.506a2.049 2.049 0 0 0 0-4.1h2.844a2.049 2.049 0 0 1 0 4.1z" fill="#b1e4f9" transform="translate(-25.68 -6.778)"/><path d="m33.18 76.307v31.4a2.057 2.057 0 0 1 -2.049 2.052h-21.57a2.057 2.057 0 0 1 -2.049-2.052v-31.4a2.057 2.057 0 0 1 2.049-2.052h21.57a2.057 2.057 0 0 1 2.049 2.052z" fill="#407093" transform="translate(-6.778 -44.634)"/><path d="m225.09 76.307v31.4a2.057 2.057 0 0 1 -2.049 2.052h-2.841a2.057 2.057 0 0 0 2.049-2.052v-31.4a2.057 2.057 0 0 0 -2.049-2.052h2.844a2.057 2.057 0 0 1 2.046 2.052z" fill="#365e7d" transform="translate(-198.687 -44.634)"/><path d="m7.512 164.936h25.669v17.791h-25.669z" fill="#ffe07d" transform="translate(-6.778 -126.457)"/><path d="m241.175 164.936h2.844v17.791h-2.844z" fill="#ffc269" transform="translate(-217.616 -126.457)"/><path d="m183.339 333.112h19.638a2.238 2.238 0 0 0 2.232-2.232v-13.637h-23.532a.572.572 0 0 0 -.57.57v13.067a2.238 2.238 0 0 0 2.232 2.232z" fill="#e4f6ff" transform="translate(-163.416 -263.886)"/><path d="m375.85 333.112h2.85a2.238 2.238 0 0 0 2.232-2.232v-13.637h-2.846v13.637a2.236 2.236 0 0 1 -2.236 2.232z" fill="#d3effb" transform="translate(-339.136 -263.886)"/><path d="m351.132 82.593c0-6.657 3.356-12.051 7.493-12.051s7.49 5.394 7.49 12.051-3.353 12.048-7.49 12.048-7.493-5.395-7.493-12.048z" fill="#e4f6ff" transform="translate(-316.832 -41.284)"/><path d="m414.289 70.727a4.836 4.836 0 0 1 1.323-.186c4.137 0 7.49 5.394 7.49 12.051s-3.353 12.048-7.49 12.048a4.836 4.836 0 0 1 -1.323-.186c3.508-1.005 6.169-5.934 6.169-11.862s-2.658-10.86-6.169-11.865z" fill="#d3effb" transform="translate(-373.82 -41.283)"/><path d="m394.219 121.451a12.666 12.666 0 0 0 1.376 5.987c.313.565 1.1 1.711 1.8 1.844a.523.523 0 0 0 .208 0c.706-.133 1.49-1.279 1.805-1.844a13.734 13.734 0 0 0 0-11.973c-.316-.565-1.1-1.714-1.805-1.847a.523.523 0 0 0 -.208 0c-.7.133-1.49 1.282-1.8 1.847a12.665 12.665 0 0 0 -1.376 5.986z" fill="#d3effb" transform="translate(-355.71 -80.142)"/><path d="m414.289 128.316a2.473 2.473 0 0 0 1.218.966.523.523 0 0 0 .208 0c.706-.133 1.49-1.279 1.805-1.844a13.734 13.734 0 0 0 0-11.973c-.316-.565-1.1-1.714-1.805-1.847a.523.523 0 0 0 -.208 0 2.473 2.473 0 0 0 -1.218.966 7.2 7.2 0 0 1 .587.881 13.709 13.709 0 0 1 0 11.973 7.42 7.42 0 0 1 -.587.878z" fill="#b1e4f9" transform="translate(-373.82 -80.142)"/><path d="m181.107 347.064h24.1v8.858h-24.1z" fill="#e28086" transform="translate(-163.416 -290.794)"/><path d="m46.146 215.389a4.93 4.93 0 1 0 -4.929-4.932 4.941 4.941 0 0 0 4.929 4.932z" fill="#e28086" transform="translate(-37.191 -163.085)"/><path d="m78.552 205.529a4.93 4.93 0 1 1 -1.42 9.653 4.933 4.933 0 0 0 0-9.445 4.909 4.909 0 0 1 1.42-.208z" fill="#dd636e" transform="translate(-69.597 -163.085)"/><path d="m398.7 347.064h2.846v8.858h-2.846z" fill="#dd636e" transform="translate(-359.752 -290.794)"/></g><path d="m20.18 26.254a.732.732 0 0 1 0-1.465h4.173a2.779 2.779 0 0 1 1.877 4.832 2.78 2.78 0 0 1 .906 2.052v20.953h10.8a9.752 9.752 0 0 1 -2.066-2.412 17.09 17.09 0 0 1 -2.306-8.905 17.1 17.1 0 0 1 2.311-8.909c1.487-2.4 3.578-3.877 5.917-3.877a5.881 5.881 0 0 1 3.389 1.119 9.525 9.525 0 0 1 2.7 3.049.733.733 0 0 1 -1.265.739 8.057 8.057 0 0 0 -2.273-2.586 4.456 4.456 0 0 0 -2.553-.856c-1.8 0-3.453 1.218-4.677 3.184a15.626 15.626 0 0 0 -2.082 8.135 15.616 15.616 0 0 0 2.082 8.132c1.224 1.969 2.877 3.184 4.677 3.184s3.453-1.216 4.674-3.184a15.615 15.615 0 0 0 2.082-8.132 18.7 18.7 0 0 0 -.174-2.57 16.771 16.771 0 0 0 -.523-2.42.731.731 0 1 1 1.4-.418 18.247 18.247 0 0 1 .57 2.636 20.235 20.235 0 0 1 .191 2.772 17.116 17.116 0 0 1 -2.3 8.905 7.529 7.529 0 0 1 -5.186 3.827v12.955a2.968 2.968 0 0 1 -2.963 2.966h-36.778a2.779 2.779 0 0 1 -1.878-4.832 2.78 2.78 0 0 1 -.905-2.052v-31.4a2.781 2.781 0 0 1 .905-2.052 2.782 2.782 0 0 1 1.877-4.832h14.08a.732.732 0 0 1 0 1.465h-14.079a1.318 1.318 0 0 0 0 2.636h21.57a1.318 1.318 0 0 0 0-2.636h-4.173zm1.426 36.6a.731.731 0 0 1 0-1.462h12.478a.731.731 0 0 1 0 1.462zm0-2.846a.73.73 0 1 1 0-1.459h16.271a.73.73 0 0 1 0 1.459zm-4.779-9.057a.73.73 0 1 1 0-1.459h6.637a.73.73 0 0 1 0 1.459zm0-2.844a.73.73 0 1 1 0-1.459h6.637a.73.73 0 0 1 0 1.459zm0-2.844a.73.73 0 1 1 0-1.459h6.637a.73.73 0 0 1 0 1.459zm-9.268 6.075a.73.73 0 1 1 -.479 1.379 5.656 5.656 0 1 1 3.752 0 .73.73 0 0 1 -.482-1.379 4.2 4.2 0 1 0 -2.791 0zm20.524 13.056a.732.732 0 0 1 0 1.465h-9.658v1.135a1.5 1.5 0 0 0 1.5 1.5h19.636a1.508 1.508 0 0 0 1.5-1.5v-1.136h-9.661a.732.732 0 0 1 0-1.465h9.658v-7.393h-22.633v7.39h9.658zm-9.658-8.855h22.634v-1.448h-22.634zm20.814-14.23a13.882 13.882 0 0 0 .341 3.091 9.678 9.678 0 0 0 .941 2.542 5.92 5.92 0 0 0 .825 1.133c.421.432.468.432.889 0a5.683 5.683 0 0 0 .825-1.133 9.679 9.679 0 0 0 .94-2.542 14.179 14.179 0 0 0 0-6.178 9.717 9.717 0 0 0 -.942-2.542 5.687 5.687 0 0 0 -.825-1.133c-.421-.429-.468-.429-.889 0a5.92 5.92 0 0 0 -.825 1.133 9.719 9.719 0 0 0 -.941 2.542 13.887 13.887 0 0 0 -.339 3.087zm-1.085 3.414a15.564 15.564 0 0 1 0-6.831 11.19 11.19 0 0 1 1.091-2.927 7.378 7.378 0 0 1 1.055-1.44 2.519 2.519 0 0 1 1.254-.77 1.242 1.242 0 0 1 .474 0 2.519 2.519 0 0 1 1.254.77 7.386 7.386 0 0 1 1.055 1.44 11.19 11.19 0 0 1 1.091 2.927 15.564 15.564 0 0 1 0 6.831 11.189 11.189 0 0 1 -1.091 2.927 7.22 7.22 0 0 1 -1.055 1.44 2.5 2.5 0 0 1 -1.254.77 1.238 1.238 0 0 1 -.474 0 2.5 2.5 0 0 1 -1.254-.77 7.22 7.22 0 0 1 -1.055-1.44 11.189 11.189 0 0 1 -1.091-2.927zm-12.483 7.9v-13.413h-24.206v16.329h15.492v-2.182a.733.733 0 0 1 .734-.731zm-8.714 4.377h-15.492v6.072a1.328 1.328 0 0 0 1.318 1.328h14.174zm0 8.852h-14.174a1.319 1.319 0 0 0 0 2.639h14.584a2.973 2.973 0 0 1 -.41-1.5zm8.714-28.111v-6.068a1.324 1.324 0 0 0 -1.318-1.318h-21.57a1.324 1.324 0 0 0 -1.318 1.318v6.072z"/></g></svg>