<svg xmlns="http://www.w3.org/2000/svg" width="82" height="82" viewBox="0 0 82 82">
  <g id="Grupo_1127709" data-name="Grupo 1127709" transform="translate(-391.57 -1481.706)">
    <g id="Grupo_1106486" data-name="Grupo 1106486" transform="translate(381.419 1471.646)">
      <g id="Elipse_157" data-name="Elipse 157" transform="translate(15.151 15.059)" fill="#fff" stroke="#ffce79" stroke-linejoin="round" stroke-width="5">
        <circle cx="36" cy="36" r="36" stroke="none"/>
        <circle cx="36" cy="36" r="38.5" fill="none"/>
      </g>
    </g>
    <g id="Grupo_1127708" data-name="Grupo 1127708" transform="translate(102.295 1336.763)">
      <g id="Grupo_1127690" data-name="Grupo 1127690" transform="translate(330.181 161.87)">
        <path id="Trazado_919236" data-name="Trazado 919236" d="M322.637,162.742a.521.521,0,0,0,.267-.081h0a.52.52,0,0,0,.19-.212.526.526,0,0,0-.054-.553,3,3,0,0,1-.454-2.589,3.272,3.272,0,0,1,.252-.652s.355-.234-.133-.648l-.178-.151a3.9,3.9,0,0,0-2.95-1.407.525.525,0,0,0-.451.26,4.123,4.123,0,0,0,3.484,6.041Z" transform="translate(-318.631 -156.448)" fill="#51b355" fill-rule="evenodd"/>
      </g>
      <g id="Grupo_1127691" data-name="Grupo 1127691" transform="matrix(0.966, 0.258, -0.259, 0.966, 333.943, 160.835)">
        <path id="Trazado_919237" data-name="Trazado 919237" d="M2.445.069a.528.528,0,0,0-.521,0A3.988,3.988,0,0,0,0,3.556,3.988,3.988,0,0,0,1.924,7.043a.528.528,0,0,0,.521,0A3.988,3.988,0,0,0,4.369,3.556,3.988,3.988,0,0,0,2.445.069Z" fill="#51b355" fill-rule="evenodd"/>
      </g>
      <g id="Grupo_1127692" data-name="Grupo 1127692" transform="translate(332.549 162.62)">
        <path id="Trazado_919238" data-name="Trazado 919238" d="M321.632,157.139a4.288,4.288,0,0,0-.673,1.413,3.992,3.992,0,0,0,.957,3.867.527.527,0,0,0,.5.135,3.521,3.521,0,0,0,.489-.168.527.527,0,0,0-.055-.551,3,3,0,0,1-.454-2.589,3.272,3.272,0,0,1,.252-.652s.355-.234-.133-.648l-.178-.151a4.189,4.189,0,0,0-.707-.656Z" transform="translate(-320.811 -157.139)" fill="#306e32" fill-rule="evenodd"/>
      </g>
      <g id="Grupo_1127693" data-name="Grupo 1127693" transform="matrix(0.966, 0.258, -0.259, 0.966, 333.943, 160.835)">
        <path id="Trazado_919239" data-name="Trazado 919239" d="M2.445.069a.528.528,0,0,0-.521,0A3.988,3.988,0,0,0,0,3.556,3.988,3.988,0,0,0,1.924,7.043a.528.528,0,0,0,.521,0A3.988,3.988,0,0,0,4.369,3.556,3.988,3.988,0,0,0,2.445.069Z" fill="#51b355" fill-rule="evenodd"/>
      </g>
      <g id="Grupo_1127694" data-name="Grupo 1127694" transform="translate(325.509 166.669)">
        <path id="Trazado_919240" data-name="Trazado 919240" d="M268.593,126.921a4.518,4.518,0,0,0-2.712-.942,4.869,4.869,0,0,0-3.592,1.743,11.33,11.33,0,0,0,0,13.838,4.869,4.869,0,0,0,3.592,1.743,4.336,4.336,0,0,0,.585-.041h0a15.092,15.092,0,0,1,4.247,0,4.23,4.23,0,0,0,.587.042,4.869,4.869,0,0,0,3.592-1.743,11.329,11.329,0,0,0,0-13.838,4.869,4.869,0,0,0-3.592-1.743A4.518,4.518,0,0,0,268.593,126.921Z" transform="translate(-259.931 -125.979)" fill="#f56c61" fill-rule="evenodd"/>
      </g>
      <g id="Grupo_1127695" data-name="Grupo 1127695" transform="translate(327.552 167.597)">
        <path id="Trazado_919241" data-name="Trazado 919241" d="M331.207,163.144a10.888,10.888,0,0,1,1.838,6.277,10.418,10.418,0,0,1-2.359,6.924,4.872,4.872,0,0,1-3.595,1.744,4.311,4.311,0,0,1-.587-.041h0a15.131,15.131,0,0,0-4.25,0h0a4.3,4.3,0,0,1-.586.04,4.477,4.477,0,0,1-2.553-.827,7.377,7.377,0,0,0,.521.646,4.872,4.872,0,0,0,3.595,1.744,4.28,4.28,0,0,0,.585-.04h0a15.131,15.131,0,0,1,4.25,0,4.162,4.162,0,0,0,.588.041,4.868,4.868,0,0,0,3.594-1.744,11.335,11.335,0,0,0,0-13.846,6.02,6.02,0,0,0-1.041-.917Z" transform="translate(-319.112 -163.144)" fill="#eb423f" fill-rule="evenodd"/>
      </g>
      <g id="Grupo_1127696" data-name="Grupo 1127696" transform="translate(336.689 168.682)">
        <path id="Trazado_919242" data-name="Trazado 919242" d="M282.469,134.681a2.3,2.3,0,0,1,1.74,1.277,8.2,8.2,0,0,1,1.2,4.5.55.55,0,1,0,1.1,0,9.315,9.315,0,0,0-1.388-5.107,3.367,3.367,0,0,0-2.656-1.768.55.55,0,1,0,0,1.1Z" transform="translate(-281.918 -133.58)" fill-rule="evenodd"/>
      </g>
      <g id="Grupo_1127700" data-name="Grupo 1127700" transform="translate(317.555 183.317)">
        <g id="Grupo_1127697" data-name="Grupo 1127697" transform="translate(14.274 0)">
          <path id="Trazado_919243" data-name="Trazado 919243" d="M98.084,36.017l-.261.011H94.5a.446.446,0,0,0,0,.893h3.409a2.177,2.177,0,0,0,.255-.014l4.232-.176a2.227,2.227,0,0,0,1.47-.636l3.072-3.01.087-.146,1.448-2.782a2.232,2.232,0,0,0-1.22-3.13l-.285-.1a2.233,2.233,0,0,0-2.683.964l-3.289,5.566a1.34,1.34,0,0,1-.783.605l-.633.182-.322.4-.012.152s-.01.128,0,0a1.339,1.339,0,0,1-1.159,1.222Z" transform="translate(-94.052 -26.791)" fill="#fedecf" fill-rule="evenodd"/>
        </g>
        <g id="Grupo_1127698" data-name="Grupo 1127698" transform="translate(0 3.487)">
          <path id="Trazado_919244" data-name="Trazado 919244" d="M100.887,35.671a2.231,2.231,0,0,0,.381-1.081l.1-1.216a2.231,2.231,0,0,0-2.108-2.407l-10.494-.551a2.228,2.228,0,0,0-1.7.655l-6.019,6.046a.446.446,0,0,0,0,.635l8.18,7.98a.447.447,0,0,0,.615.007l3.448-3.2a1.35,1.35,0,0,1,.714-.343l11.659-1.732a2.236,2.236,0,0,0,1.3-.686l5.468-5.861a2.232,2.232,0,0,0-.355-3.353l-.233-.163a2.233,2.233,0,0,0-2.841.237l-4.634,4.542a1.336,1.336,0,0,1-.882.381Z" transform="translate(-80.914 -30.001)" fill="#fedecf" fill-rule="evenodd"/>
        </g>
        <g id="Grupo_1127699" data-name="Grupo 1127699" transform="translate(7.921 3.839)">
          <path id="Trazado_919245" data-name="Trazado 919245" d="M111.144,30.324a2.232,2.232,0,0,1-.346,2.558l-5.468,5.861a2.236,2.236,0,0,1-1.3.686L92.367,41.16a1.344,1.344,0,0,0-.714.343L88.2,44.7l1.009,1.009,3.448-3.2a1.35,1.35,0,0,1,.714-.343l11.659-1.732a2.236,2.236,0,0,0,1.3-.686l5.468-5.861a2.232,2.232,0,0,0-.355-3.353l-.233-.163-.075-.05Z" transform="translate(-88.205 -30.324)" fill="#fdad87" fill-rule="evenodd"/>
        </g>
      </g>
      <g id="Grupo_1127701" data-name="Grupo 1127701" transform="translate(316.398 191.954) rotate(44.266)">
        <path id="Trazado_919246" data-name="Trazado 919246" d="M16.843,2.232A2.232,2.232,0,0,0,14.612,0H2.232A2.232,2.232,0,0,0,0,2.232V9.308a.447.447,0,0,0,.447.447H16.4a.447.447,0,0,0,.447-.447Z" fill="#5c9cee" fill-rule="evenodd"/>
      </g>
      <g id="Grupo_1127702" data-name="Grupo 1127702" transform="translate(319.655 200.763)">
        <path id="Trazado_919247" data-name="Trazado 919247" d="M89.908,44.2l-1.384-1.351a2.234,2.234,0,0,1-.2,2.888L83.385,50.8a.689.689,0,0,1-.539.137l1.528,1.491a.447.447,0,0,0,.307.127h.011a.444.444,0,0,0,.313-.135l4.942-5.066a2.232,2.232,0,0,0-.039-3.157Z" transform="translate(-82.846 -42.849)" fill="#267be8" fill-rule="evenodd"/>
      </g>
      <g id="Grupo_1127703" data-name="Grupo 1127703" transform="translate(316.718 195.592) rotate(45)">
        <circle id="Elipse_12352" data-name="Elipse 12352" cx="2.433" cy="2.433" r="2.433" transform="translate(0 0)" fill="#fff"/>
      </g>
      <g id="Grupo_1127704" data-name="Grupo 1127704" transform="translate(331.814 183.693)">
        <path id="Trazado_919248" data-name="Trazado 919248" d="M99.862,35.739a2.214,2.214,0,0,0,.271-.9l.1-1.216a2.232,2.232,0,0,0-.546-1.648.447.447,0,1,0-.672.588,1.334,1.334,0,0,1,.328.989l-.1,1.216a1.339,1.339,0,0,1-1.159,1.222L97.824,36H94.5a.446.446,0,0,0,0,.893h3.424c.086,0,4.486-.19,4.486-.19a2.229,2.229,0,0,0,1.47-.636l3.072-3.01.087-.146,1.448-2.782a2.232,2.232,0,0,0-.913-2.992c.019.039.036.08.052.121a2.23,2.23,0,0,1-.1,1.841l-1.448,2.782-.087.146-3.071,3.009a2.234,2.234,0,0,1-1.47.637Z" transform="translate(-94.052 -27.137)" fill="#fdad87" fill-rule="evenodd"/>
      </g>
      <g id="Grupo_1127705" data-name="Grupo 1127705" transform="translate(325.183 161.063)">
        <path id="Trazado_919249" data-name="Trazado 919249" d="M322.106,162.49a5.8,5.8,0,0,0-2.678,1.734,11.863,11.863,0,0,0,0,14.562,5.394,5.394,0,0,0,3.988,1.918,5,5,0,0,0,.657-.045h.005a14.594,14.594,0,0,1,4.1,0,4.725,4.725,0,0,0,.663.047,5.392,5.392,0,0,0,3.987-1.918,11.859,11.859,0,0,0,0-14.562,5.569,5.569,0,0,0-3.347-1.874,4.79,4.79,0,0,0,.176-.532,4.523,4.523,0,0,0-1.1-4.383,1.06,1.06,0,0,0-1.011-.271,4.268,4.268,0,0,0-1.983,1.182,4.322,4.322,0,0,0-2.64-.913,1.056,1.056,0,0,0-.906.523,4.524,4.524,0,0,0,.074,4.518Zm3.706,1.717a.533.533,0,0,0,.634,0,4,4,0,0,1,2.4-.837,4.346,4.346,0,0,1,3.2,1.57,10.811,10.811,0,0,1,0,13.131,4.346,4.346,0,0,1-3.2,1.57l-.514-.036a15.667,15.667,0,0,0-4.4,0l-.514.035a4.348,4.348,0,0,1-3.2-1.57,10.815,10.815,0,0,1,0-13.131,4.348,4.348,0,0,1,3.2-1.57,4,4,0,0,1,2.4.837Zm2.508-1.872a3.77,3.77,0,0,0,.311-.791,3.455,3.455,0,0,0-.815-3.349,3.453,3.453,0,0,0-2.379,2.493,3.651,3.651,0,0,0,.046,2.087,5.6,5.6,0,0,1,.647.358A5.053,5.053,0,0,1,328.32,162.335Zm-4.02.054a4.846,4.846,0,0,1,.623-3.2,3.254,3.254,0,0,0-1.986-.694,3.454,3.454,0,0,0,.081,3.446,3.73,3.73,0,0,0,.24.366l.157,0a4.713,4.713,0,0,1,.884.083Z" transform="translate(-316.931 -157.129)" fill-rule="evenodd"/>
      </g>
      <g id="Grupo_1127706" data-name="Grupo 1127706" transform="translate(309.169 182.832)">
        <path id="Trazado_919250" data-name="Trazado 919250" d="M311.071,187.255a2.764,2.764,0,0,0-3.661.264l-4.942,5.066a.979.979,0,0,0,.017,1.384l11.419,11.14a.979.979,0,0,0,1.384-.018s3.134-3.212,4.941-5.066a2.766,2.766,0,0,0,.4-3.346l2.762-2.562a.8.8,0,0,1,.431-.206l11.659-1.733a2.766,2.766,0,0,0,1.616-.849l5.468-5.86a2.765,2.765,0,0,0-.351-4.088c-.029-.022-.339-.239-.348-.245a2.757,2.757,0,0,0-1.811-.469,2.762,2.762,0,0,0-1.75-3.23l-.285-.1a2.766,2.766,0,0,0-3.321,1.193l-3.117,5.276a2.763,2.763,0,0,0-2.558-2.181l-10.5-.551a2.764,2.764,0,0,0-2.1.81Zm3.515,17.032-11.3-11.021,4.882-5.005a1.7,1.7,0,0,1,2.406-.03l8.862,8.646a1.7,1.7,0,0,1,.03,2.4Zm5.345-8.415,2.733-2.536a1.88,1.88,0,0,1,1-.48l11.659-1.731a1.694,1.694,0,0,0,.993-.522l5.468-5.86a1.7,1.7,0,0,0-.236-2.531c-.011-.008-.283-.2-.291-.2a1.7,1.7,0,0,0-2.139.2l-4.635,4.542a1.875,1.875,0,0,1-1.232.533l-2.606.108a.532.532,0,0,1-.461-.832,1.686,1.686,0,0,0,.289-.823l.1-1.217a1.7,1.7,0,0,0-1.607-1.832l-10.5-.552a1.7,1.7,0,0,0-1.294.5l-5.328,5.354Zm18.748-14.688.188-.364a1.7,1.7,0,0,0-.928-2.383l-.278-.1h0l-.009,0a1.7,1.7,0,0,0-2.044.734l-3.289,5.567a1.875,1.875,0,0,1-.751.709l-.038.474a2.736,2.736,0,0,1-.079.472l1.751-.072a.81.81,0,0,0,.532-.23l4.635-4.542a2.548,2.548,0,0,1,.308-.261Z" transform="translate(-302.19 -177.168)" fill-rule="evenodd"/>
      </g>
      <g id="Grupo_1127707" data-name="Grupo 1127707" transform="translate(316.718 194.84) rotate(45)">
        <path id="Trazado_919251" data-name="Trazado 919251" d="M2.965,0A2.964,2.964,0,1,0,5.929,2.964,2.966,2.966,0,0,0,2.965,0Zm0,1.062a1.9,1.9,0,1,1-1.9,1.9A1.9,1.9,0,0,1,2.965,1.062Z" fill-rule="evenodd"/>
      </g>
    </g>
  </g>
</svg>
