<svg height="82" viewBox="0 0 82 82" width="82" xmlns="http://www.w3.org/2000/svg"><g fill="#fff" stroke="#ffce79" stroke-linejoin="round" stroke-width="5"><circle cx="40.999" cy="41" r="36" stroke="none"/><circle cx="40.999" cy="41" fill="none" r="38.5"/></g><path d="m127.7 12.093v-1.859a2.63 2.63 0 0 1 2.63-2.63h19.217a2.63 2.63 0 0 1 2.63 2.63v5.35" fill="#55b5e0" transform="translate(-98.938 9.7)"/><path d="m133.356 12.093v-1.859a2.63 2.63 0 0 1 2.63-2.63h-5.657a2.63 2.63 0 0 0 -2.63 2.63v1.86l24.477 3.49v-.807z" fill="#188eb7" transform="translate(-98.938 9.7)"/><path d="m131.4 88.5v21.365a5.674 5.674 0 0 1 -5.674 5.674h-18.032a5.674 5.674 0 0 1 -5.674-5.674v-21.365a5.947 5.947 0 0 1 1.657-4.119 5.96 5.96 0 0 0 1.655-4.119v-5.724l22.753.788v4.938a5.949 5.949 0 0 0 .239 1.671c.055.186.118.368.19.548a5.906 5.906 0 0 0 1.225 1.9 5.952 5.952 0 0 1 1.661 4.117z" fill="#a7e6fc" transform="translate(-75.709 -50.849)"/><path d="m108.02 109.867v-21.367a9.653 9.653 0 0 1 .253-2.219 7.343 7.343 0 0 1 .726-1.9q.069-.121.133-.249a4.022 4.022 0 0 1 3.591-2.2h15.6a5.945 5.945 0 0 1 -.239-1.671v-4.935l-22.753-.788v3.975 1.751c0 .088 0 .175-.006.263v.065q-.006.1-.015.2c0 .023 0 .046-.006.069-.009.085-.019.17-.031.255v.027q-.017.111-.037.221c-.006.03-.012.06-.018.089-.011.054-.023.107-.035.161-.007.032-.015.064-.023.1-.016.064-.033.128-.052.192l-.009.034a5.946 5.946 0 0 1 -1.415 2.448 5.947 5.947 0 0 0 -1.657 4.119v21.365a5.674 5.674 0 0 0 5.674 5.674h3.683c-1.862-.005-3.364-2.546-3.364-5.679z" fill="#8acfe2" transform="translate(-75.708 -50.849)"/><path d="m126.367 56.757v1.3a2.091 2.091 0 0 1 -2.091 2.091h-26.376a2.091 2.091 0 0 1 -2.091-2.091v-1.3a2.063 2.063 0 0 1 .023-.31 2.091 2.091 0 0 1 2.068-1.78h26.38a2.091 2.091 0 0 1 2.068 1.78 2.049 2.049 0 0 1 .019.31z" fill="#188eb7" transform="translate(-70.087 -32.872)"/><path d="m178.622 56.447a2.092 2.092 0 0 1 -2.068 1.779h-21.488a1.471 1.471 0 0 1 -1.47-1.469 2.091 2.091 0 0 1 2.091-2.091h20.867a2.091 2.091 0 0 1 2.068 1.781z" fill="#55b5e0" transform="translate(-122.365 -32.873)"/><path d="m154.368 199.643v21.365a2.97 2.97 0 0 1 -2.966 2.966h-18.028a2.97 2.97 0 0 1 -2.966-2.966v-21.365a3.227 3.227 0 0 1 .232-1.206 3.261 3.261 0 0 1 .67-1.038h22.155a3.231 3.231 0 0 1 .903 2.244z" fill="#f0f0f0" transform="translate(-101.389 -161.989)"/><path d="m254.506 147.474a8.173 8.173 0 0 1 -9.482 4.829 8.169 8.169 0 0 1 9.865-9.864 8.2 8.2 0 0 1 -.383 5.035z" fill="#55c43d" transform="translate(-204.865 -112.065)"/><path d="m254.506 197.4a8.173 8.173 0 0 1 -9.482 4.829 8.205 8.205 0 0 1 .3-4.828z" fill="#45af2c" transform="translate(-204.865 -161.989)"/><path d="m134.2 223.983h-.821a2.97 2.97 0 0 1 -2.966-2.966v-21.365a3.233 3.233 0 0 1 .9-2.244h2.65l-.006.024a9.654 9.654 0 0 0 -.253 2.22v21.365a8.762 8.762 0 0 0 .496 2.966z" fill="#c4c4c4" transform="translate(-101.389 -161.999)"/><path d="m175.878 288.154c-5.911-3.591-8.449-7.288-8.449-10.26a4.891 4.891 0 0 1 1.5-3.531 4.837 4.837 0 0 1 6.775-.068l.07.068.105.1.175-.171c.036-.035.072-.068.109-.1a4.839 4.839 0 0 1 6.666.169 5.351 5.351 0 0 1 .86 1.112c1.841 3.203-.158 8.027-7.811 12.681z" fill="#f44d4d" transform="translate(-134.879 -230.33)"/><path d="m117.4 47.06h-5.532a.725.725 0 0 0 0 1.451h5.532a1.367 1.367 0 0 1 1.365 1.366v1.3a1.367 1.367 0 0 1 -1.365 1.366h-26.382a1.367 1.367 0 0 1 -1.365-1.366v-1.3a1.367 1.367 0 0 1 1.365-1.366h18.43a.725.725 0 0 0 0-1.451h-18.43a2.819 2.819 0 0 0 -2.818 2.816v1.3a2.819 2.819 0 0 0 2.816 2.816h26.384a2.819 2.819 0 0 0 2.816-2.816v-1.3a2.82 2.82 0 0 0 -2.816-2.816z" transform="translate(-63.209 -25.992)"/><path d="m120.821 4.081a.725.725 0 0 0 .725-.725 1.907 1.907 0 0 1 1.9-1.9h19.217a1.907 1.907 0 0 1 1.9 1.9.725.725 0 1 0 1.451 0 3.359 3.359 0 0 0 -3.346-3.356h-19.217a3.359 3.359 0 0 0 -3.351 3.355.725.725 0 0 0 .721.726z" transform="translate(-92.061 16.579)"/><path d="m123.906 190.015a3.984 3.984 0 0 0 -.819 1.269 3.944 3.944 0 0 0 -.285 1.476v5.692a.725.725 0 1 0 1.451 0v-5.692a2.5 2.5 0 0 1 .18-.935 2.543 2.543 0 0 1 .331-.584h21.488a2.5 2.5 0 0 1 .511 1.52v21.365a2.243 2.243 0 0 1 -2.241 2.241h-18.029a2.243 2.243 0 0 1 -2.241-2.241v-13.255a.725.725 0 1 0 -1.451 0v13.255a3.7 3.7 0 0 0 3.691 3.691h18.028a3.7 3.7 0 0 0 3.691-3.691v-21.366a3.953 3.953 0 0 0 -1.105-2.747.726.726 0 0 0 -.524-.223h-22.152a.726.726 0 0 0 -.524.225z" transform="translate(-94.509 -155.107)"/><path d="m122.308 129.642a5.2 5.2 0 0 1 -.377-1.949.725.725 0 0 0 -1.451 0 6.678 6.678 0 0 0 1.857 4.621 5.2 5.2 0 0 1 1.455 3.617v21.369a4.954 4.954 0 0 1 -4.949 4.949h-18.028a4.954 4.954 0 0 1 -4.949-4.949v-21.369a5.221 5.221 0 0 1 1.455-3.617 6.643 6.643 0 0 0 1.857-4.621.725.725 0 1 0 -1.451 0 5.2 5.2 0 0 1 -1.454 3.617 6.672 6.672 0 0 0 -1.858 4.62v21.37a6.407 6.407 0 0 0 6.4 6.4h18.028a6.407 6.407 0 0 0 6.4-6.4v-21.369a6.649 6.649 0 0 0 -1.859-4.621 5.177 5.177 0 0 1 -1.076-1.668z" transform="translate(-68.83 -98.278)"/><path d="m161.538 266.943a5.628 5.628 0 0 0 -1.713 4.044c0 2.068 1.143 6.23 8.8 10.88a.726.726 0 0 0 .753 0c3.739-2.272 6.337-4.677 7.722-7.148 1.3-2.321 1.42-4.634.338-6.513l-.007-.012a6.1 6.1 0 0 0 -.968-1.251 5.558 5.558 0 0 0 -7.461-.371q-.1-.085-.209-.163a5.566 5.566 0 0 0 -7.251.534zm6.78.963.174.17a.725.725 0 0 0 1.016 0l.175-.171.032-.033.053-.048a4.109 4.109 0 0 1 5.666.144 4.633 4.633 0 0 1 .744.962l.007.012c.822 1.436.7 3.189-.353 5.068-1.2 2.138-3.555 4.34-6.832 6.385-4.915-3.068-7.724-6.483-7.724-9.409a4.151 4.151 0 0 1 1.289-3.019 4.115 4.115 0 0 1 5.36-.4 4.2 4.2 0 0 1 .394.34z" transform="translate(-128 -223.424)"/><path d="m238.124 206.724a.725.725 0 0 0 -.831.6 8.871 8.871 0 0 0 .138 3.5.725.725 0 0 0 .535.535 9.026 9.026 0 0 0 2.122.254 8.83 8.83 0 0 0 6.264-2.609 9.12 9.12 0 0 0 .968-1.144.725.725 0 1 0 -1.181-.842 7.684 7.684 0 0 1 -.813.961 7.391 7.391 0 0 1 -6.577 2.063 7.428 7.428 0 0 1 -.023-2.489.726.726 0 0 0 -.602-.829z" transform="translate(-197.977 -170.417)"/><path d="m262.579 139.274a.725.725 0 0 0 .817-.62 8.89 8.89 0 0 0 -.167-3.307.726.726 0 0 0 -.535-.535 8.837 8.837 0 0 0 -8.385 2.355 9.04 9.04 0 0 0 -.936 1.1.725.725 0 1 0 1.176.849 7.568 7.568 0 0 1 .786-.923 7.391 7.391 0 0 1 6.577-2.064 7.437 7.437 0 0 1 .047 2.329.726.726 0 0 0 .62.816z" transform="translate(-212.5 -105.143)"/></svg>