<svg height="82" viewBox="0 0 82 82" width="82" xmlns="http://www.w3.org/2000/svg"><g fill="#fff" stroke="#ffce79" stroke-linejoin="round" stroke-width="5"><circle cx="41" cy="41" r="36" stroke="none"/><circle cx="41" cy="41" fill="none" r="38.5"/></g><path d="m75.953 201.756h-27.906a3.548 3.548 0 0 1 -3.548-3.548v-22.708h35v22.7a3.548 3.548 0 0 1 -3.546 3.556z" fill="#d4f2f6" transform="translate(-20.816 -141.956)"/><path d="m411.124 175.505v22.7a3.548 3.548 0 0 1 -3.548 3.548h1.406a3.548 3.548 0 0 0 3.548-3.548v-22.7z" fill="#a6e7f0" transform="translate(-353.845 -141.956)"/><path d="m103.7 211.12v19.755a1.15 1.15 0 0 1 -1.149 1.149h-27.903a1.149 1.149 0 0 1 -1.148-1.149v-19.755z" fill="#eaf9fa" transform="translate(-47.417 -174.624)"/><path d="m366.318 211.12v3.316a5.474 5.474 0 0 1 -6.508-3.316z" fill="#d4f2f6" transform="translate(-310.032 -174.624)"/><path d="m404.724 211.115v19.756a1.15 1.15 0 0 1 -1.148 1.148h1.737a1.15 1.15 0 0 0 1.148-1.148v-19.756z" fill="#d4f2f6" transform="translate(-350.176 -174.619)"/><path d="m48.626 176.983a1.474 1.474 0 0 1 -1.473 1.474h-38.18a1.474 1.474 0 1 1 0-2.947h38.18a1.473 1.473 0 0 1 1.473 1.473z" fill="#80d8e9" transform="translate(13.121 -141.961)"/><path d="m366.333 176.489a5.452 5.452 0 0 1 -.365 1.968h-10.2a5.494 5.494 0 0 1 -.277-2.947h10.758a5.454 5.454 0 0 1 .084.979z" fill="#70c5de" transform="translate(-305.987 -141.961)"/><path d="m201.515 211.115h9.013v2.519a1.029 1.029 0 0 1 -1.029 1.029h-6.955a1.029 1.029 0 0 1 -1.029-1.029z" fill="#80d8e9" transform="translate(-164.838 -174.619)"/><path d="m278.026 211.115v2.519a1.029 1.029 0 0 1 -1.026 1.029h1.737a1.029 1.029 0 0 0 1.029-1.029v-2.519z" fill="#70c5de" transform="translate(-234.073 -174.619)"/><circle cx="56.285" cy="34.528" fill="#eaf9fa" r="5.466"/><path d="m430.653 121.29a5.521 5.521 0 0 0 -.7.047 5.465 5.465 0 0 1 0 10.84 5.466 5.466 0 1 0 .7-10.886z" fill="#d4f2f6" transform="translate(-374.368 -92.228)"/><path d="m406.228 30.7v-9.636a1.771 1.771 0 1 0 -3.541 0v9.636a3.067 3.067 0 1 0 3.541 0z" fill="#80d8e9" transform="translate(-348.172 1.328)"/><path d="m430.589 30.7v-9.594a1.8 1.8 0 0 0 -1.679-1.806 1.761 1.761 0 0 0 -.96.226 1.769 1.769 0 0 1 .9 1.542v8.926a1.6 1.6 0 0 0 .452 1.1 3.064 3.064 0 0 1 -1.354 5.05 3.065 3.065 0 0 0 2.639-5.442z" fill="#70c5de" transform="translate(-372.533 1.328)"/><path d="m173.042 408.163v2.071a1.318 1.318 0 0 1 -1.317 1.317h-13.815a1.318 1.318 0 0 1 -1.317-1.317v-1.054a1.318 1.318 0 0 1 1.317-1.317h4.622a3.8 3.8 0 0 0 1.231-.205l1.767-.607a3.8 3.8 0 0 1 1.231-.205h4.962a1.318 1.318 0 0 1 1.319 1.317z" fill="#fe646f" transform="translate(-123.633 -354.152)"/><path d="m320.174 406.846h-1.737a1.318 1.318 0 0 1 1.317 1.317v2.071a1.318 1.318 0 0 1 -1.317 1.317h1.737a1.318 1.318 0 0 0 1.317-1.317v-2.071a1.318 1.318 0 0 0 -1.317-1.317z" fill="#fd4755" transform="translate(-272.083 -354.152)"/><path d="m173.042 307.644v2.072a1.317 1.317 0 0 1 -1.317 1.317h-13.815a1.317 1.317 0 0 1 -1.317-1.317v-1.055a1.317 1.317 0 0 1 1.317-1.316h4.622a3.776 3.776 0 0 0 1.231-.206l1.767-.606a3.78 3.78 0 0 1 1.231-.205h4.962a1.317 1.317 0 0 1 1.319 1.316z" fill="#fe646f" transform="translate(-123.633 -261.951)"/><path d="m320.174 306.328h-1.737a1.317 1.317 0 0 1 1.317 1.317v2.072a1.317 1.317 0 0 1 -1.317 1.317h1.737a1.317 1.317 0 0 0 1.317-1.317v-2.072a1.317 1.317 0 0 0 -1.317-1.317z" fill="#fd4755" transform="translate(-272.083 -261.952)"/><path d="m173.042 364.5v.98a1.317 1.317 0 0 1 -1.317 1.317h-4.962a3.8 3.8 0 0 0 -1.231.205l-1.767.607a3.8 3.8 0 0 1 -1.231.205h-4.624a1.317 1.317 0 0 1 -1.317-1.317v-2a1.318 1.318 0 0 1 1.317-1.317h13.814a1.318 1.318 0 0 1 1.318 1.32z" fill="#fe646f" transform="translate(-123.633 -314.101)"/><path d="m210.369 407.051-1.767.607a3.8 3.8 0 0 1 -1.231.205h1.737a3.8 3.8 0 0 0 1.231-.205l1.767-.607a3.8 3.8 0 0 1 1.231-.205h-1.737a3.8 3.8 0 0 0 -1.231.205z" fill="#fd4755" transform="translate(-170.209 -354.151)"/><path d="m320.174 363.181h-1.737a1.318 1.318 0 0 1 1.317 1.317v.98a1.317 1.317 0 0 1 -1.317 1.317h1.737a1.317 1.317 0 0 0 1.317-1.317v-.98a1.318 1.318 0 0 0 -1.317-1.317z" fill="#fd4755" transform="translate(-272.083 -314.1)"/><path d="m113.948 245.013h-.719v-.719a.621.621 0 1 0 -1.241 0v.719h-.719a.621.621 0 1 0 0 1.241h.719v.719a.621.621 0 1 0 1.241 0v-.719h.719a.621.621 0 1 0 0-1.241z" transform="translate(-81.491 -204.483)"/><path d="m232.628 104.572h.719v.719a.621.621 0 1 0 1.241 0v-.719h.719a.621.621 0 1 0 0-1.241h-.719v-.719a.621.621 0 1 0 -1.241 0v.719h-.719a.621.621 0 1 0 0 1.241z" transform="translate(-192.806 -74.526)"/><path d="m387.746 326.989a.589.589 0 1 0 .589.589.589.589 0 0 0 -.589-.589z" transform="translate(-335.116 -280.904)"/><circle cx=".589" cy=".589" r=".589" transform="matrix(.987 -.16 .16 .987 28.506 51.2)"/><path d="m42.372 26.318a6.088 6.088 0 0 0 -3.7-5.6v-6.536a2.391 2.391 0 1 0 -4.783 0v6.538a6.081 6.081 0 0 0 -3.544 6.945h-26.045v-1.705h23.672a.621.621 0 1 0 0-1.241h-25.878a2.094 2.094 0 0 0 0 4.188h.968v19.135a4.174 4.174 0 0 0 4.169 4.169h4.492a.621.621 0 0 0 0-1.241h-4.492a2.931 2.931 0 0 1 -2.931-2.928v-19.135h1.162v19.134a1.771 1.771 0 0 0 1.769 1.769h27.906a1.771 1.771 0 0 0 1.769-1.769v-15.666a6.042 6.042 0 0 0 1.158-.234v15.9a2.931 2.931 0 0 1 -2.927 2.928h-20.494a.621.621 0 1 0 0 1.241h20.494a4.174 4.174 0 0 0 4.169-4.169v-16.441a6.09 6.09 0 0 0 3.067-5.282zm-40.278 1.348a.853.853 0 1 1 0-1.706h.968v1.706zm33.041-13.484a1.15 1.15 0 1 1 2.3 0v1.438h-.54a.621.621 0 1 0 0 1.241h.54v1.244h-.54a.621.621 0 1 0 0 1.241h.54v4.469a.627.627 0 0 0 .261.506 2.446 2.446 0 1 1 -2.823 0 .627.627 0 0 0 .261-.506v-9.633zm-17.835 14.725h7.77v1.9a.409.409 0 0 1 -.408.409h-6.956a.409.409 0 0 1 -.406-.416zm-3.72 10.647v-1.054a.7.7 0 0 1 .7-.7h4.62a4.391 4.391 0 0 0 1.433-.24l1.767-.606a3.153 3.153 0 0 1 1.029-.171h2.051a10.924 10.924 0 0 0 -2.925 3.464h-7.978a.7.7 0 0 1 -.7-.7zm14.511-2.768a.7.7 0 0 1 .7.7v2.072a.7.7 0 0 1 -.7.7h-4.413a11.6 11.6 0 0 1 3.665-3.464h.748zm-4.962 7.077a4.413 4.413 0 0 0 -1.429.237l-1.766.606a3.174 3.174 0 0 1 -1.03.172h-.884a9.608 9.608 0 0 0 1.946-3.389h8.129a.7.7 0 0 1 .7.7v.98a.7.7 0 0 1 -.7.7zm-8.852 1.017a.7.7 0 0 1 -.7-.7v-2a.7.7 0 0 1 .7-.7h4.361a6.355 6.355 0 0 1 -2.651 3.389zm-.7 2.992v-1.053a.7.7 0 0 1 .7-.7h4.623a4.416 4.416 0 0 0 1.433-.239c.6-.2 1.429-.5 1.969-.668a5.036 5.036 0 0 1 -2.9 3.354h-5.125a.7.7 0 0 1 -.697-.693zm8.129.7a6.543 6.543 0 0 0 1.307-1.816 8.56 8.56 0 0 0 .612-1.648h4.463a.7.7 0 0 1 .7.7v2.071a.7.7 0 0 1 -.7.7zm13.428 0h-5.234a1.927 1.927 0 0 0 .13-.7v-2.072a1.931 1.931 0 0 0 -.518-1.317 1.929 1.929 0 0 0 .518-1.317v-.98a1.931 1.931 0 0 0 -.518-1.317 1.929 1.929 0 0 0 .518-1.317v-2.07a1.94 1.94 0 0 0 -1.938-1.937h-4.964a4.392 4.392 0 0 0 -1.433.239l-1.767.606a3.155 3.155 0 0 1 -1.029.172h-4.622a1.94 1.94 0 0 0 -1.938 1.938v1.055a1.93 1.93 0 0 0 .518 1.317 1.93 1.93 0 0 0 -.518 1.317v2a1.93 1.93 0 0 0 .518 1.317 1.931 1.931 0 0 0 -.518 1.317v1.054a1.927 1.927 0 0 0 .13.7h-5.238a.528.528 0 0 1 -.527-.528v-19.142h9.353v1.9a1.652 1.652 0 0 0 1.65 1.65h6.955a1.652 1.652 0 0 0 1.65-1.65v-1.9h4.466a6.1 6.1 0 0 0 4.888 3.468v15.666a.529.529 0 0 1 -.528.528zm1.149-17.4a4.846 4.846 0 0 1 -2.389-9.072v1.412a3.687 3.687 0 1 0 4.783 0v-1.412a4.847 4.847 0 0 1 -2.391 9.062z" transform="translate(20 8.21)"/></svg>