<svg xmlns="http://www.w3.org/2000/svg" width="82" height="82" viewBox="0 0 82 82">
  <g id="Grupo_1127831" data-name="Grupo 1127831" transform="translate(-591 10126)">
    <g id="Grupo_1116526" data-name="Grupo 1116526" transform="translate(580.849 -10136.059)">
      <g id="Elipse_157" data-name="Elipse 157" transform="translate(15.151 15.059)" fill="#fff" stroke="#ffce79" stroke-linejoin="round" stroke-width="5">
        <circle cx="36" cy="36" r="36" stroke="none"/>
        <circle cx="36" cy="36" r="38.5" fill="none"/>
      </g>
    </g>
    <g id="Grupo_1127726" data-name="Grupo 1127726" transform="translate(593.011 -10115.5)">
      <path id="Trazado_919318" data-name="Trazado 919318" d="M39.947,114.237l4.572-3.085V93.009H16.989v18.143l2.172,3.085-2.172,3.085v6.229a4.738,4.738,0,0,0,2.852,4.346,26.328,26.328,0,0,0,21.825,0,4.738,4.738,0,0,0,2.852-4.346v-6.229Z" transform="translate(0 -77.767)" fill="#e8dbd4"/>
      <g id="Grupo_1127723" data-name="Grupo 1127723" transform="translate(29.63 15.242)">
        <path id="Trazado_919319" data-name="Trazado 919319" d="M298.475,111.153V93.01h-2.247v19.66Z" transform="translate(-283.587 -93.01)" fill="#d1b6aa"/>
        <path id="Trazado_919320" data-name="Trazado 919320" d="M169.25,344.8v7.746a4.738,4.738,0,0,1-2.852,4.346,27.549,27.549,0,0,1-9.789,2.341,26.925,26.925,0,0,0,12.036-2.341,4.738,4.738,0,0,0,2.852-4.346v-6.229Z" transform="translate(-156.609 -321.999)" fill="#d1b6aa"/>
      </g>
      <path id="Trazado_919321" data-name="Trazado 919321" d="M38.388,129.106a30.444,30.444,0,0,0,3.279-1.208,4.738,4.738,0,0,0,2.852-4.346V93.009H16.989v30.543a4.738,4.738,0,0,0,2.852,4.346,26.282,26.282,0,0,0,15.92,1.867" transform="translate(0 -77.767)" fill="none" stroke="#000" stroke-linecap="round" stroke-linejoin="round" stroke-miterlimit="10" stroke-width="1"/>
      <ellipse id="Elipse_12355" data-name="Elipse 12355" cx="13.765" cy="5.673" rx="13.765" ry="5.673" transform="translate(16.989 9.57)" fill="#d1b6aa"/>
      <path id="Trazado_919322" data-name="Trazado 919322" d="M47.124,56.444a24.74,24.74,0,0,1-9.112-1.539c-2.231-.919-3.023-1.924-3.023-2.5s.792-1.585,3.023-2.5a24.74,24.74,0,0,1,9.112-1.539A24.741,24.741,0,0,1,56.237,49.9c2.231.919,3.023,1.924,3.023,2.5s-.792,1.585-3.023,2.5A24.742,24.742,0,0,1,47.124,56.444Z" transform="translate(-16.37 -37.159)" fill="#e8dbd4"/>
      <path id="Trazado_919323" data-name="Trazado 919323" d="M44.519,229.412h-3.8a3.529,3.529,0,0,1-3.2-2.051,7.453,7.453,0,0,0-6.763-4.319h0a7.453,7.453,0,0,0-6.763,4.319,3.529,3.529,0,0,1-3.2,2.051h-3.8v6.17h3.8a3.529,3.529,0,0,1,3.2,2.051,7.453,7.453,0,0,0,6.763,4.319h0a7.453,7.453,0,0,0,6.763-4.319,3.529,3.529,0,0,1,3.2-2.051h3.8v-6.17Z" transform="translate(0 -196.027)" fill="#ffe177"/>
      <rect id="Rectángulo_413383" data-name="Rectángulo 413383" width="2.247" height="6.17" transform="translate(42.272 33.385)" fill="#ffd15b"/>
      <path id="Trazado_919324" data-name="Trazado 919324" d="M44.519,229.412h-3.8a3.529,3.529,0,0,1-3.2-2.051,7.453,7.453,0,0,0-6.763-4.319h0a7.453,7.453,0,0,0-6.763,4.319,3.529,3.529,0,0,1-3.2,2.051h-3.8v6.17h3.8a3.529,3.529,0,0,1,3.2,2.051,7.453,7.453,0,0,0,6.763,4.319h0a7.453,7.453,0,0,0,6.763-4.319,3.529,3.529,0,0,1,3.2-2.051h3.8v-6.17Z" transform="translate(0 -196.027)" fill="none" stroke="#000" stroke-linecap="round" stroke-linejoin="round" stroke-miterlimit="10" stroke-width="1"/>
      <g id="Grupo_1127724" data-name="Grupo 1127724" transform="translate(27.196 32.857)">
        <line id="Línea_3807" data-name="Línea 3807" x2="7.116" transform="translate(0 0)" fill="none" stroke="#000" stroke-linecap="round" stroke-linejoin="round" stroke-miterlimit="10" stroke-width="1"/>
        <line id="Línea_3808" data-name="Línea 3808" x2="7.116" transform="translate(0 3.614)" fill="none" stroke="#000" stroke-linecap="round" stroke-linejoin="round" stroke-miterlimit="10" stroke-width="1"/>
        <line id="Línea_3809" data-name="Línea 3809" x2="7.116" transform="translate(0 7.227)" fill="none" stroke="#000" stroke-linecap="round" stroke-linejoin="round" stroke-miterlimit="10" stroke-width="1"/>
      </g>
      <line id="Línea_3810" data-name="Línea 3810" x2="1.398" transform="translate(37.075 14.655)" fill="none" stroke="#000" stroke-linecap="round" stroke-linejoin="round" stroke-miterlimit="10" stroke-width="1"/>
      <path id="Trazado_919325" data-name="Trazado 919325" d="M400.8,7.5h0a2.492,2.492,0,0,0-2.492,2.492v3.677l2.232,2.572,2.751-2.572V9.992A2.492,2.492,0,0,0,400.8,7.5Z" transform="translate(-346.793)" fill="#c8effe"/>
      <path id="Trazado_919326" data-name="Trazado 919326" d="M414.846,7.5h0a2.483,2.483,0,0,0-.931.18,2.492,2.492,0,0,1,1.561,2.311v3.677l-1.724,1.611.834.96,2.751-2.572V9.992A2.492,2.492,0,0,0,414.846,7.5Z" transform="translate(-360.841)" fill="#99e6fc"/>
      <path id="Trazado_919327" data-name="Trazado 919327" d="M400.8,7.5h0a2.492,2.492,0,0,0-2.492,2.492v3.677h4.983V9.992A2.492,2.492,0,0,0,400.8,7.5Z" transform="translate(-346.793)" fill="none" stroke="#000" stroke-linecap="round" stroke-linejoin="round" stroke-miterlimit="10" stroke-width="1"/>
      <path id="Trazado_919328" data-name="Trazado 919328" d="M371.548,88.061V75.635h-4.983V88.109a3.308,3.308,0,0,1-1.179,2.509A5.652,5.652,0,1,0,372.7,90.6,3.311,3.311,0,0,1,371.548,88.061Z" transform="translate(-315.051 -61.966)" fill="#fe5694"/>
      <path id="Trazado_919329" data-name="Trazado 919329" d="M420.115,90.6a3.311,3.311,0,0,1-1.154-2.535V75.635H417.1V88.061a3.312,3.312,0,0,0,1.154,2.535,5.65,5.65,0,0,1-2.716,9.892,5.583,5.583,0,0,0,.85.077,5.651,5.651,0,0,0,3.726-9.969Z" transform="translate(-362.464 -61.966)" fill="#fd3581"/>
      <line id="Línea_3811" data-name="Línea 3811" x2="0.931" transform="translate(53.54 33.217)" fill="none" stroke="#000" stroke-linecap="round" stroke-linejoin="round" stroke-miterlimit="10" stroke-width="1"/>
      <g id="Grupo_1127725" data-name="Grupo 1127725" transform="translate(59.046 13.669)">
        <line id="Línea_3812" data-name="Línea 3812" x2="1.221" transform="translate(0 0)" fill="none" stroke="#000" stroke-linecap="round" stroke-linejoin="round" stroke-miterlimit="10" stroke-width="1"/>
        <line id="Línea_3813" data-name="Línea 3813" x2="1.221" transform="translate(0 3.805)" fill="none" stroke="#000" stroke-linecap="round" stroke-linejoin="round" stroke-miterlimit="10" stroke-width="1"/>
        <line id="Línea_3814" data-name="Línea 3814" x2="1.221" transform="translate(0 7.61)" fill="none" stroke="#000" stroke-linecap="round" stroke-linejoin="round" stroke-miterlimit="10" stroke-width="1"/>
        <line id="Línea_3815" data-name="Línea 3815" x2="1.221" transform="translate(0 11.414)" fill="none" stroke="#000" stroke-linecap="round" stroke-linejoin="round" stroke-miterlimit="10" stroke-width="1"/>
      </g>
      <path id="Trazado_919330" data-name="Trazado 919330" d="M20.849,32.092c-2.389,1.02-3.86,2.409-3.86,3.939,0,3.133,6.163,5.673,13.765,5.673s13.765-2.54,13.765-5.673-6.163-5.673-13.765-5.673a29.484,29.484,0,0,0-7.412.892" transform="translate(0 -20.788)" fill="none" stroke="#000" stroke-linecap="round" stroke-linejoin="round" stroke-miterlimit="10" stroke-width="1"/>
      <path id="Trazado_919331" data-name="Trazado 919331" d="M374.655,94.159A5.641,5.641,0,0,0,372.7,90.6a3.311,3.311,0,0,1-1.154-2.535V75.635h-4.983V88.109a3.308,3.308,0,0,1-1.179,2.509,5.652,5.652,0,1,0,9,6.189" transform="translate(-315.05 -61.966)" fill="none" stroke="#000" stroke-linecap="round" stroke-linejoin="round" stroke-miterlimit="10" stroke-width="1"/>
    </g>
  </g>
</svg>
