<svg height="82" viewBox="0 0 82 82" width="82" xmlns="http://www.w3.org/2000/svg"><g fill="#fff" stroke="#ffce79" stroke-linejoin="round" stroke-width="5"><circle cx="41" cy="41" r="36" stroke="none"/><circle cx="41" cy="41" fill="none" r="38.5"/></g><path d="m39.947 114.237 4.572-3.085v-18.143h-27.53v18.143l2.172 3.085-2.172 3.085v6.229a4.738 4.738 0 0 0 2.852 4.346 26.328 26.328 0 0 0 21.825 0 4.738 4.738 0 0 0 2.852-4.346v-6.229z" fill="#e8dbd4" transform="translate(2.011 -67.267)"/><path d="m298.475 111.153v-18.143h-2.247v19.66z" fill="#d1b6aa" transform="translate(-251.946 -67.268)"/><path d="m169.25 344.8v7.746a4.738 4.738 0 0 1 -2.852 4.346 27.549 27.549 0 0 1 -9.789 2.341 26.925 26.925 0 0 0 12.036-2.341 4.738 4.738 0 0 0 2.852-4.346v-6.229z" fill="#d1b6aa" transform="translate(-124.968 -296.257)"/><path d="m38.388 129.106a30.444 30.444 0 0 0 3.279-1.208 4.738 4.738 0 0 0 2.852-4.346v-30.543h-27.53v30.543a4.738 4.738 0 0 0 2.852 4.346 26.282 26.282 0 0 0 15.92 1.867" fill="none" stroke="#000" stroke-linecap="round" stroke-linejoin="round" stroke-miterlimit="10" transform="translate(2.011 -67.267)"/><ellipse cx="32.765" cy="25.743" fill="#d1b6aa" rx="13.765" ry="5.673"/><path d="m47.124 56.444a24.74 24.74 0 0 1 -9.112-1.539c-2.231-.919-3.023-1.924-3.023-2.5s.792-1.585 3.023-2.5a24.74 24.74 0 0 1 9.112-1.539 24.741 24.741 0 0 1 9.113 1.534c2.231.919 3.023 1.924 3.023 2.5s-.792 1.585-3.023 2.5a24.742 24.742 0 0 1 -9.113 1.544z" fill="#e8dbd4" transform="translate(-14.359 -26.659)"/><path d="m44.519 229.412h-3.8a3.529 3.529 0 0 1 -3.2-2.051 7.453 7.453 0 0 0 -6.763-4.319 7.453 7.453 0 0 0 -6.763 4.319 3.529 3.529 0 0 1 -3.2 2.051h-3.8v6.17h3.8a3.529 3.529 0 0 1 3.2 2.051 7.453 7.453 0 0 0 6.763 4.319 7.453 7.453 0 0 0 6.763-4.319 3.529 3.529 0 0 1 3.2-2.051h3.8z" fill="#ffe177" transform="translate(2.011 -185.527)"/><path d="m44.283 43.885h2.247v6.17h-2.247z" fill="#ffd15b"/><path d="m44.519 229.412h-3.8a3.529 3.529 0 0 1 -3.2-2.051 7.453 7.453 0 0 0 -6.763-4.319 7.453 7.453 0 0 0 -6.763 4.319 3.529 3.529 0 0 1 -3.2 2.051h-3.8v6.17h3.8a3.529 3.529 0 0 1 3.2 2.051 7.453 7.453 0 0 0 6.763 4.319 7.453 7.453 0 0 0 6.763-4.319 3.529 3.529 0 0 1 3.2-2.051h3.8z" fill="none" stroke="#000" stroke-linecap="round" stroke-linejoin="round" stroke-miterlimit="10" transform="translate(2.011 -185.527)"/><path d="m29.207 43.357h7.116" fill="none" stroke="#000" stroke-linecap="round" stroke-linejoin="round" stroke-miterlimit="10"/><path d="m29.207 46.971h7.116" fill="none" stroke="#000" stroke-linecap="round" stroke-linejoin="round" stroke-miterlimit="10"/><path d="m29.207 50.584h7.116" fill="none" stroke="#000" stroke-linecap="round" stroke-linejoin="round" stroke-miterlimit="10"/><path d="m39.086 25.155h1.398" fill="none" stroke="#000" stroke-linecap="round" stroke-linejoin="round" stroke-miterlimit="10"/><path d="m400.8 7.5a2.492 2.492 0 0 0 -2.492 2.492v3.677l2.232 2.572 2.751-2.572v-3.677a2.492 2.492 0 0 0 -2.491-2.492z" fill="#c8effe" transform="translate(-344.782 10.5)"/><path d="m414.846 7.5a2.483 2.483 0 0 0 -.931.18 2.492 2.492 0 0 1 1.561 2.311v3.677l-1.724 1.611.834.96 2.751-2.572v-3.675a2.492 2.492 0 0 0 -2.491-2.492z" fill="#99e6fc" transform="translate(-358.83 10.5)"/><path d="m400.8 7.5a2.492 2.492 0 0 0 -2.492 2.492v3.677h4.983v-3.677a2.492 2.492 0 0 0 -2.491-2.492z" fill="none" stroke="#000" stroke-linecap="round" stroke-linejoin="round" stroke-miterlimit="10" transform="translate(-344.782 10.5)"/><path d="m371.548 88.061v-12.426h-4.983v12.474a3.308 3.308 0 0 1 -1.179 2.509 5.652 5.652 0 1 0 7.314-.018 3.311 3.311 0 0 1 -1.152-2.539z" fill="#fe5694" transform="translate(-313.04 -51.466)"/><path d="m420.115 90.6a3.311 3.311 0 0 1 -1.154-2.535v-12.43h-1.861v12.426a3.312 3.312 0 0 0 1.154 2.535 5.65 5.65 0 0 1 -2.716 9.892 5.583 5.583 0 0 0 .85.077 5.651 5.651 0 0 0 3.726-9.969z" fill="#fd3581" transform="translate(-360.453 -51.466)"/><g fill="none" stroke="#000" stroke-linecap="round" stroke-linejoin="round" stroke-miterlimit="10"><path d="m55.551 43.717h.931"/><path d="m61.057 24.169h1.221"/><path d="m61.057 27.974h1.221"/><path d="m61.057 31.779h1.221"/><path d="m61.057 35.583h1.221"/><path d="m20.849 32.092c-2.389 1.02-3.86 2.409-3.86 3.939 0 3.133 6.163 5.673 13.765 5.673s13.765-2.54 13.765-5.673-6.163-5.673-13.765-5.673a29.484 29.484 0 0 0 -7.412.892" transform="translate(2.011 -10.288)"/><path d="m374.655 94.159a5.641 5.641 0 0 0 -1.955-3.559 3.311 3.311 0 0 1 -1.154-2.535v-12.43h-4.983v12.474a3.308 3.308 0 0 1 -1.179 2.509 5.652 5.652 0 1 0 9 6.189" transform="translate(-313.039 -51.466)"/></g></svg>