<svg xmlns="http://www.w3.org/2000/svg" width="74" height="74" viewBox="0 0 74 74">
  <g id="Grupo_1127777" data-name="Grupo 1127777" transform="translate(-190.577 -4470)">
    <rect id="Rectángulo_413392" data-name="Rectángulo 413392" width="74" height="74" transform="translate(190.577 4470)" fill="none"/>
    <g id="Grupo_1127776" data-name="Grupo 1127776" transform="translate(163.822 4470)">
      <path id="Trazado_919477" data-name="Trazado 919477" d="M83.794,436.243h2.98l-2.98-2.982Z" transform="translate(-39.819 -375.974)" fill="#eceff1"/>
      <path id="Trazado_919478" data-name="Trazado 919478" d="M114.042,126.175H114a.811.811,0,0,1-.7-.484l-1.16-2.638-2.864.316a.811.811,0,0,1-.791-1.212l2.639-4.574-.4-.228a2.592,2.592,0,0,1-1.323-2.29V114a.915.915,0,0,0-.134-.5l-.534-.928a2.6,2.6,0,0,1,0-2.646l.527-.916a.925.925,0,0,0,.138-.512v-1.061a2.59,2.59,0,0,1,1.32-2.288l.924-.531a.96.96,0,0,0,.371-.374l.534-.92A2.609,2.609,0,0,1,114.84,102H115.9a1.125,1.125,0,0,0,.141-.009V89.859h-6.328v.424a.811.811,0,0,1-.811.811H90.933a.811.811,0,0,1-.811-.811v-.424H83.794v37.029h4.938a.811.811,0,0,1,.811.811v4.941h26.5v-9.121l-1.3,2.25a.811.811,0,0,1-.7.406Z" transform="translate(-39.819 -72.372)" fill="#eceff1"/>
      <path id="Trazado_919479" data-name="Trazado 919479" d="M348.21,233.321a4.764,4.764,0,1,0,4.767,4.764A4.769,4.769,0,0,0,348.21,233.321Z" transform="translate(-269.378 -199.207)" fill="#ffc338"/>
      <path id="Trazado_919480" data-name="Trazado 919480" d="M56.522,25.241a.811.811,0,0,1,.811-.811H70.875a.811.811,0,0,1,0,1.623H57.333A.811.811,0,0,1,56.522,25.241Zm.811,4.175H70.875a.811.811,0,0,0,0-1.623H57.333a.811.811,0,0,0,0,1.623Zm-8.009-5.384h4.159a.811.811,0,0,1,.811.811V29a.811.811,0,0,1-.811.811H49.324A.811.811,0,0,1,48.512,29V24.843A.811.811,0,0,1,49.324,24.032Zm.811,4.159h2.537V25.655H50.135Zm7.2,5.831h10.93a.811.811,0,0,0,0-1.623H57.333a.811.811,0,0,0,0,1.623Zm0,3.364h9.876a.811.811,0,0,0,0-1.623H57.333a.811.811,0,0,0,0,1.623Zm-3.039-4.573v4.159a.811.811,0,0,1-.811.811H49.324a.811.811,0,0,1-.811-.811V32.814A.811.811,0,0,1,49.324,32h4.159A.811.811,0,0,1,54.294,32.814Zm-1.623.811H50.135v2.537h2.537Zm4.662,8.368h9.876a.811.811,0,0,0,0-1.623H57.333a.811.811,0,0,0,0,1.623Zm0,3.364h10.93a.811.811,0,0,0,0-1.623H57.333a.811.811,0,1,0,0,1.623Zm-3.039-4.573v4.159a.811.811,0,0,1-.811.811H49.324a.811.811,0,0,1-.811-.811V40.784a.811.811,0,0,1,.811-.811h4.159A.811.811,0,0,1,54.294,40.784Zm-1.623.811H50.135v2.537h2.537Zm4.662,8.368h9.534a.811.811,0,0,0,0-1.623H57.333a.811.811,0,1,0,0,1.623Zm0,3.364h12.9a.811.811,0,0,0,0-1.623h-12.9a.811.811,0,1,0,0,1.623Zm-3.039-4.573v4.159a.811.811,0,0,1-.811.811H49.324a.811.811,0,0,1-.811-.811V48.754a.811.811,0,0,1,.811-.811h4.159a.811.811,0,0,1,.811.811Zm-1.623.811H50.135V52.1h2.537ZM88.98,50.633a.81.81,0,0,1-.768.363l-2.867-.316-1.157,2.638a.811.811,0,0,1-.7.484h-.045a.811.811,0,0,1-.7-.406l-1.3-2.248V63.035a2.455,2.455,0,0,1-2.454,2.451H41.209a2.455,2.455,0,0,1-2.454-2.451V14.722a2.455,2.455,0,0,1,2.454-2.451H50.3v-.424a.811.811,0,0,1,.811-.811h5.228a3.843,3.843,0,0,1,7.515,0h5.228a.811.811,0,0,1,.811.811v.424H78.99a2.455,2.455,0,0,1,2.454,2.451v14.9a1.126,1.126,0,0,0,.142.009h1.061a2.611,2.611,0,0,1,2.291,1.324l.53.913a.959.959,0,0,0,.378.38l.915.526a2.592,2.592,0,0,1,1.323,2.29v1.061a.94.94,0,0,0,.134.51l.533.92a2.622,2.622,0,0,1,0,2.644l-.533.921a.941.941,0,0,0-.134.51v1.061a2.59,2.59,0,0,1-1.32,2.288l-.4.231L89,49.783A.812.812,0,0,1,88.98,50.633Zm-7.395-19.38a2.589,2.589,0,0,1-1.32-.354l-.922-.534a.981.981,0,0,0-1.024,0l-.913.53a2.592,2.592,0,0,1-1.324.356H75.021a.968.968,0,0,0-.883.509l-.534.921a2.6,2.6,0,0,1-.959.965l-.928.534a.977.977,0,0,0-.51.883v1.061a2.544,2.544,0,0,1-.359,1.329l-.524.912a.977.977,0,0,0,0,1.021l.531.923a2.534,2.534,0,0,1,.354,1.321v1.061a.979.979,0,0,0,.513.886l.916.527a2.611,2.611,0,0,1,.97.973l.53.913a.97.97,0,0,0,.885.513h1.061a2.59,2.59,0,0,1,1.32.354l.919.53a.968.968,0,0,0,1.02,0l.923-.531a2.59,2.59,0,0,1,1.321-.354h1.061a.968.968,0,0,0,.883-.509l.534-.921a2.581,2.581,0,0,1,.963-.967l.925-.532a.977.977,0,0,0,.51-.883V41.631a2.571,2.571,0,0,1,.352-1.323l.532-.919a.989.989,0,0,0,0-1.022l-.532-.919a2.57,2.57,0,0,1-.352-1.323V35.064a.979.979,0,0,0-.513-.886l-.916-.527a2.591,2.591,0,0,1-.97-.974l-.53-.912a.971.971,0,0,0-.885-.513H81.585ZM70.87,49.207,72.734,49a.812.812,0,0,1,.832.48l.755,1.717,1.773-3.072H75.021A2.611,2.611,0,0,1,72.73,46.8l-.237-.407L70.87,49.207ZM69.9,13.893v1.972h7.139a.811.811,0,0,1,.811.811V28.8a2.561,2.561,0,0,1,1.975,0V14.721a.831.831,0,0,0-.831-.828H69.9ZM51.925,17.1H68.273V12.658H63.132a.811.811,0,0,1-.811-.811,2.221,2.221,0,1,0-4.442,0,.811.811,0,0,1-.811.811H51.926V17.1Zm-.811,1.623a.811.811,0,0,1-.811-.811v-.424H43.975V54.516h4.938a.811.811,0,0,1,.811.811v4.941h26.5V51.147l-1.3,2.25a.811.811,0,0,1-.7.406h-.044a.811.811,0,0,1-.7-.484L72.32,50.68,69.456,51a.811.811,0,0,1-.791-1.212L71.3,45.21l-.4-.228a2.592,2.592,0,0,1-1.323-2.29V41.631a.915.915,0,0,0-.134-.5l-.534-.928a2.6,2.6,0,0,1,0-2.646l.527-.916a.925.925,0,0,0,.138-.512V35.064a2.59,2.59,0,0,1,1.32-2.288l.924-.531a.96.96,0,0,0,.371-.374l.534-.92a2.609,2.609,0,0,1,2.288-1.321h1.061a1.125,1.125,0,0,0,.141-.009V17.487H69.9v.424a.811.811,0,0,1-.811.811H51.114ZM43.975,60.269h2.98l-2.98-2.982ZM48.1,59.121V56.139h-2.98Zm31.719,3.914V48.957a2.586,2.586,0,0,1-1.975,0V61.08a.811.811,0,0,1-.811.811H43.164a.811.811,0,0,1-.811-.811v-44.4a.811.811,0,0,1,.811-.811H50.3V13.893H41.209a.831.831,0,0,0-.831.828V63.035a.831.831,0,0,0,.831.828H78.99a.831.831,0,0,0,.831-.828ZM86.8,49.207,85.172,46.4l-.237.409a2.609,2.609,0,0,1-2.288,1.321H81.571L83.346,51.2l.753-1.716A.812.812,0,0,1,84.93,49l1.866.206ZM78.832,32.492a6.386,6.386,0,1,1-6.386,6.386A6.4,6.4,0,0,1,78.832,32.492Zm0,1.623A4.764,4.764,0,1,0,83.6,38.878,4.769,4.769,0,0,0,78.832,34.114Zm-1.977,4.311a.811.811,0,0,0-1.125,1.169l1.758,1.692a.812.812,0,0,0,.563.227h.027a.811.811,0,0,0,.573-.264L81.974,37.6a.811.811,0,0,0-1.2-1.093l-2.763,3.031Z"/>
      <path id="Trazado_919481" data-name="Trazado 919481" d="M96.667,423.355h-2.98l2.98,2.982Z" transform="translate(-48.565 -367.216)" fill="#d2d9db"/>
      <path id="Trazado_919482" data-name="Trazado 919482" d="M136.944,160.33h2.537v2.537h-2.537Z" transform="translate(-86.809 -134.675)" fill="#6cf5c2"/>
      <path id="Trazado_919483" data-name="Trazado 919483" d="M53.586,108.82H91.367a.831.831,0,0,0,.831-.828V93.913a2.586,2.586,0,0,1-1.975,0v12.123a.811.811,0,0,1-.811.811H55.541a.811.811,0,0,1-.811-.811v-44.4a.811.811,0,0,1,.811-.811H62.68V58.85H53.586a.831.831,0,0,0-.831.828v48.313a.831.831,0,0,0,.831.828Z" transform="translate(-12.377 -44.957)" fill="#e3a76f"/>
      <g id="Grupo_1127775" data-name="Grupo 1127775" transform="translate(50.135 33.625)">
        <path id="Trazado_919484" data-name="Trazado 919484" d="M136.944,297.866h2.537V300.4h-2.537Z" transform="translate(-136.944 -289.896)" fill="#6cf5c2"/>
        <path id="Trazado_919485" data-name="Trazado 919485" d="M136.944,229.1h2.537v2.537h-2.537Z" transform="translate(-136.944 -229.098)" fill="#6cf5c2"/>
        <path id="Trazado_919486" data-name="Trazado 919486" d="M136.944,366.634h2.537v2.537h-2.537Z" transform="translate(-136.944 -350.694)" fill="#6cf5c2"/>
      </g>
      <path id="Trazado_919487" data-name="Trazado 919487" d="M315.4,61.632v12.12a2.561,2.561,0,0,1,1.975,0V59.677a.831.831,0,0,0-.831-.828h-9.094v1.972h7.139a.811.811,0,0,1,.811.811Z" transform="translate(-237.55 -44.956)" fill="#e3a76f"/>
      <path id="Trazado_919488" data-name="Trazado 919488" d="M411.549,339.7a2.609,2.609,0,0,1-2.288,1.321h-1.075l1.774,3.071.753-1.716a.812.812,0,0,1,.832-.48l1.866.206-1.624-2.811-.237.409Z" transform="translate(-326.615 -292.898)" fill="#fe646f"/>
      <path id="Trazado_919489" data-name="Trazado 919489" d="M168.742,25.036H163.6a.811.811,0,0,1-.811-.811,2.221,2.221,0,1,0-4.442,0,.811.811,0,0,1-.811.811h-5.142v4.442h16.348V25.036Z" transform="translate(-100.468 -12.377)" fill="#a79ba7"/>
      <path id="Trazado_919490" data-name="Trazado 919490" d="M318.027,199.88l-.913.53a2.592,2.592,0,0,1-1.324.356h-1.061a.968.968,0,0,0-.883.509l-.534.921a2.6,2.6,0,0,1-.959.965l-.928.534a.977.977,0,0,0-.51.883v1.061a2.544,2.544,0,0,1-.359,1.329l-.524.912a.977.977,0,0,0,0,1.021l.531.923a2.534,2.534,0,0,1,.354,1.321v1.061a.979.979,0,0,0,.513.886l.916.527a2.611,2.611,0,0,1,.97.973l.53.913a.97.97,0,0,0,.885.513h1.061a2.591,2.591,0,0,1,1.32.354l.919.53a.968.968,0,0,0,1.02,0l.923-.531a2.59,2.59,0,0,1,1.321-.354h1.061a.968.968,0,0,0,.883-.509l.534-.921a2.581,2.581,0,0,1,.963-.967l.925-.532a.977.977,0,0,0,.51-.883v-1.061a2.571,2.571,0,0,1,.352-1.323l.532-.919a.989.989,0,0,0,0-1.022l-.531-.919a2.57,2.57,0,0,1-.352-1.323v-1.061a.979.979,0,0,0-.513-.886l-.916-.527a2.591,2.591,0,0,1-.97-.974l-.53-.912a.971.971,0,0,0-.885-.513h-1.061a2.589,2.589,0,0,1-1.32-.354l-.922-.534a.981.981,0,0,0-1.024,0Zm6.9,8.511A6.388,6.388,0,1,1,318.54,202,6.4,6.4,0,0,1,324.93,208.391Z" transform="translate(-239.708 -169.513)" fill="#ffe177"/>
      <path id="Trazado_919491" data-name="Trazado 919491" d="M320,341.006a2.611,2.611,0,0,1-2.291-1.324l-.237-.408-1.623,2.813,1.864-.205a.812.812,0,0,1,.832.48l.755,1.717,1.773-3.072H320Z" transform="translate(-244.984 -292.88)" fill="#fe646f"/>
    </g>
  </g>
</svg>
