<svg xmlns="http://www.w3.org/2000/svg" width="82" height="82" viewBox="0 0 82 82">
  <g id="Grupo_1127732" data-name="Grupo 1127732" transform="translate(-928 10126)">
    <g id="Grupo_1106486" data-name="Grupo 1106486" transform="translate(917.849 -10136.059)">
      <g id="Elipse_157" data-name="Elipse 157" transform="translate(15.151 15.059)" fill="#fff" stroke="#ffce79" stroke-linejoin="round" stroke-width="5">
        <circle cx="36" cy="36" r="36" stroke="none"/>
        <circle cx="36" cy="36" r="38.5" fill="none"/>
      </g>
    </g>
    <g id="Grupo_1127731" data-name="Grupo 1127731" transform="translate(948 -10117.79)">
      <g id="Grupo_1127729" data-name="Grupo 1127729" transform="translate(0.621 12.411)">
        <path id="Trazado_919332" data-name="Trazado 919332" d="M75.953,201.756H48.047a3.548,3.548,0,0,1-3.548-3.548V175.5h35v22.7A3.548,3.548,0,0,1,75.953,201.756Z" transform="translate(-41.437 -162.577)" fill="#d4f2f6"/>
        <path id="Trazado_919333" data-name="Trazado 919333" d="M411.124,175.505v22.7a3.548,3.548,0,0,1-3.548,3.548h1.406a3.548,3.548,0,0,0,3.548-3.548v-22.7Z" transform="translate(-374.466 -162.577)" fill="#a6e7f0"/>
        <path id="Trazado_919334" data-name="Trazado 919334" d="M103.7,211.12v19.755a1.15,1.15,0,0,1-1.149,1.149H74.648a1.149,1.149,0,0,1-1.148-1.149V211.12Z" transform="translate(-68.038 -195.245)" fill="#eaf9fa"/>
        <path id="Trazado_919335" data-name="Trazado 919335" d="M366.318,211.12v3.316a5.474,5.474,0,0,1-6.508-3.316Z" transform="translate(-330.653 -195.245)" fill="#d4f2f6"/>
        <path id="Trazado_919336" data-name="Trazado 919336" d="M404.724,211.115v19.756a1.15,1.15,0,0,1-1.148,1.148h1.737a1.15,1.15,0,0,0,1.148-1.148V211.115Z" transform="translate(-370.797 -195.24)" fill="#d4f2f6"/>
        <path id="Trazado_919337" data-name="Trazado 919337" d="M48.626,176.983a1.474,1.474,0,0,1-1.473,1.474H8.973a1.474,1.474,0,1,1,0-2.947h38.18A1.473,1.473,0,0,1,48.626,176.983Z" transform="translate(-7.5 -162.582)" fill="#80d8e9"/>
        <path id="Trazado_919338" data-name="Trazado 919338" d="M366.333,176.489a5.452,5.452,0,0,1-.365,1.968h-10.2a5.494,5.494,0,0,1-.277-2.947h10.758A5.454,5.454,0,0,1,366.333,176.489Z" transform="translate(-326.608 -162.582)" fill="#70c5de"/>
        <path id="Trazado_919339" data-name="Trazado 919339" d="M201.515,211.115h9.013v2.519a1.029,1.029,0,0,1-1.029,1.029h-6.955a1.029,1.029,0,0,1-1.029-1.029Z" transform="translate(-185.459 -195.24)" fill="#80d8e9"/>
        <path id="Trazado_919340" data-name="Trazado 919340" d="M278.026,211.115v2.519A1.029,1.029,0,0,1,277,214.663h1.737a1.029,1.029,0,0,0,1.029-1.029v-2.519Z" transform="translate(-254.694 -195.24)" fill="#70c5de"/>
        <g id="Grupo_1127727" data-name="Grupo 1127727" transform="translate(30.198 0)">
          <circle id="Elipse_12356" data-name="Elipse 12356" cx="5.466" cy="5.466" r="5.466" transform="translate(0 8.441)" fill="#eaf9fa"/>
          <path id="Trazado_919341" data-name="Trazado 919341" d="M430.653,121.29a5.521,5.521,0,0,0-.7.047,5.465,5.465,0,0,1,0,10.84,5.466,5.466,0,1,0,.7-10.886Z" transform="translate(-425.187 -112.849)" fill="#d4f2f6"/>
          <path id="Trazado_919342" data-name="Trazado 919342" d="M406.228,30.7V21.064a1.771,1.771,0,1,0-3.541,0V30.7a3.067,3.067,0,1,0,3.541,0Z" transform="translate(-398.991 -19.293)" fill="#80d8e9"/>
          <path id="Trazado_919343" data-name="Trazado 919343" d="M430.589,30.7V21.106A1.8,1.8,0,0,0,428.91,19.3a1.761,1.761,0,0,0-.96.226,1.769,1.769,0,0,1,.9,1.542v8.926a1.6,1.6,0,0,0,.452,1.1,3.064,3.064,0,0,1-1.354,5.05,3.065,3.065,0,0,0,2.639-5.442Z" transform="translate(-423.352 -19.293)" fill="#70c5de"/>
        </g>
        <path id="Trazado_919344" data-name="Trazado 919344" d="M173.042,408.163v2.071a1.318,1.318,0,0,1-1.317,1.317H157.91a1.318,1.318,0,0,1-1.317-1.317V409.18a1.318,1.318,0,0,1,1.317-1.317h4.622a3.8,3.8,0,0,0,1.231-.205l1.767-.607a3.8,3.8,0,0,1,1.231-.205h4.962A1.318,1.318,0,0,1,173.042,408.163Z" transform="translate(-144.254 -374.773)" fill="#fe646f"/>
        <path id="Trazado_919345" data-name="Trazado 919345" d="M320.174,406.846h-1.737a1.318,1.318,0,0,1,1.317,1.317v2.071a1.318,1.318,0,0,1-1.317,1.317h1.737a1.318,1.318,0,0,0,1.317-1.317v-2.071A1.318,1.318,0,0,0,320.174,406.846Z" transform="translate(-292.704 -374.773)" fill="#fd4755"/>
        <path id="Trazado_919346" data-name="Trazado 919346" d="M173.042,307.644v2.072a1.317,1.317,0,0,1-1.317,1.317H157.91a1.317,1.317,0,0,1-1.317-1.317v-1.055a1.317,1.317,0,0,1,1.317-1.316h4.622a3.776,3.776,0,0,0,1.231-.206l1.767-.606a3.78,3.78,0,0,1,1.231-.205h4.962A1.317,1.317,0,0,1,173.042,307.644Z" transform="translate(-144.254 -282.572)" fill="#fe646f"/>
        <path id="Trazado_919347" data-name="Trazado 919347" d="M320.174,306.328h-1.737a1.317,1.317,0,0,1,1.317,1.317v2.072a1.317,1.317,0,0,1-1.317,1.317h1.737a1.317,1.317,0,0,0,1.317-1.317v-2.072A1.317,1.317,0,0,0,320.174,306.328Z" transform="translate(-292.704 -282.573)" fill="#fd4755"/>
        <path id="Trazado_919348" data-name="Trazado 919348" d="M173.042,364.5v.98a1.317,1.317,0,0,1-1.317,1.317h-4.962a3.8,3.8,0,0,0-1.231.205l-1.767.607a3.8,3.8,0,0,1-1.231.205H157.91a1.317,1.317,0,0,1-1.317-1.317v-2a1.318,1.318,0,0,1,1.317-1.317h13.814A1.318,1.318,0,0,1,173.042,364.5Z" transform="translate(-144.254 -334.722)" fill="#fe646f"/>
        <g id="Grupo_1127728" data-name="Grupo 1127728" transform="translate(16.541 28.46)">
          <path id="Trazado_919349" data-name="Trazado 919349" d="M210.369,407.051l-1.767.607a3.8,3.8,0,0,1-1.231.205h1.737a3.8,3.8,0,0,0,1.231-.205l1.767-.607a3.8,3.8,0,0,1,1.231-.205H211.6A3.8,3.8,0,0,0,210.369,407.051Z" transform="translate(-207.371 -403.232)" fill="#fd4755"/>
          <path id="Trazado_919350" data-name="Trazado 919350" d="M320.174,363.181h-1.737a1.318,1.318,0,0,1,1.317,1.317v.98a1.317,1.317,0,0,1-1.317,1.317h1.737a1.317,1.317,0,0,0,1.317-1.317v-.98A1.318,1.318,0,0,0,320.174,363.181Z" transform="translate(-309.245 -363.181)" fill="#fd4755"/>
        </g>
      </g>
      <g id="Grupo_1127730" data-name="Grupo 1127730" transform="translate(0 11.79)">
        <path id="Trazado_919351" data-name="Trazado 919351" d="M113.948,245.013h-.719v-.719a.621.621,0,1,0-1.241,0v.719h-.719a.621.621,0,1,0,0,1.241h.719v.719a.621.621,0,1,0,1.241,0v-.719h.719a.621.621,0,1,0,0-1.241Z" transform="translate(-101.491 -224.483)"/>
        <path id="Trazado_919352" data-name="Trazado 919352" d="M232.628,104.572h.719v.719a.621.621,0,1,0,1.241,0v-.719h.719a.621.621,0,1,0,0-1.241h-.719v-.719a.621.621,0,1,0-1.241,0v.719h-.719a.621.621,0,1,0,0,1.241Z" transform="translate(-212.806 -94.526)"/>
        <path id="Trazado_919353" data-name="Trazado 919353" d="M387.746,326.989a.589.589,0,1,0,.589.589A.589.589,0,0,0,387.746,326.989Z" transform="translate(-355.116 -300.904)"/>
        <circle id="Elipse_12357" data-name="Elipse 12357" cx="0.589" cy="0.589" r="0.589" transform="matrix(0.987, -0.16, 0.16, 0.987, 8.506, 31.2)"/>
        <path id="Trazado_919354" data-name="Trazado 919354" d="M42.372,26.318a6.088,6.088,0,0,0-3.7-5.6V14.182a2.391,2.391,0,1,0-4.783,0V20.72a6.081,6.081,0,0,0-3.544,6.945H4.3V25.96H27.972a.621.621,0,1,0,0-1.241H2.094a2.094,2.094,0,0,0,0,4.188h.968V48.042a4.174,4.174,0,0,0,4.169,4.169h4.492a.621.621,0,0,0,0-1.241H7.231A2.931,2.931,0,0,1,4.3,48.042V28.907H5.462V48.041a1.771,1.771,0,0,0,1.769,1.769H35.137a1.771,1.771,0,0,0,1.769-1.769V32.375a6.042,6.042,0,0,0,1.158-.234v15.9a2.931,2.931,0,0,1-2.927,2.928H14.643a.621.621,0,1,0,0,1.241H35.137a4.174,4.174,0,0,0,4.169-4.169V31.6a6.09,6.09,0,0,0,3.067-5.282ZM2.094,27.666a.853.853,0,1,1,0-1.706h.968v1.706H2.094ZM35.135,14.182a1.15,1.15,0,1,1,2.3,0V15.62h-.54a.621.621,0,1,0,0,1.241h.54v1.244h-.54a.621.621,0,1,0,0,1.241h.54v4.469a.627.627,0,0,0,.261.506,2.446,2.446,0,1,1-2.823,0,.627.627,0,0,0,.261-.506V14.182ZM17.3,28.907H25.07v1.9a.409.409,0,0,1-.408.409H17.706A.409.409,0,0,1,17.3,30.8ZM13.58,39.554V38.5a.7.7,0,0,1,.7-.7H18.9a4.391,4.391,0,0,0,1.433-.24l1.767-.606a3.153,3.153,0,0,1,1.029-.171H25.18a10.924,10.924,0,0,0-2.925,3.464H14.277a.7.7,0,0,1-.7-.7Zm14.511-2.768a.7.7,0,0,1,.7.7v2.072a.7.7,0,0,1-.7.7H23.678a11.6,11.6,0,0,1,3.665-3.464h.748Zm-4.962,7.077A4.413,4.413,0,0,0,21.7,44.1l-1.766.606a3.174,3.174,0,0,1-1.03.172h-.884a9.608,9.608,0,0,0,1.946-3.389h8.129a.7.7,0,0,1,.7.7v.98a.7.7,0,0,1-.7.7Zm-8.852,1.017a.7.7,0,0,1-.7-.7v-2a.7.7,0,0,1,.7-.7h4.361a6.355,6.355,0,0,1-2.651,3.389Zm-.7,2.992V46.819a.7.7,0,0,1,.7-.7H18.9a4.416,4.416,0,0,0,1.433-.239c.6-.2,1.429-.5,1.969-.668a5.036,5.036,0,0,1-2.9,3.354H14.277A.7.7,0,0,1,13.58,47.873Zm8.129.7a6.543,6.543,0,0,0,1.307-1.816,8.56,8.56,0,0,0,.612-1.648h4.463a.7.7,0,0,1,.7.7v2.071a.7.7,0,0,1-.7.7Zm13.428,0H29.9a1.927,1.927,0,0,0,.13-.7V45.8a1.931,1.931,0,0,0-.518-1.317,1.929,1.929,0,0,0,.518-1.317v-.98a1.931,1.931,0,0,0-.518-1.317,1.929,1.929,0,0,0,.518-1.317V37.482a1.94,1.94,0,0,0-1.938-1.937H23.128a4.392,4.392,0,0,0-1.433.239l-1.767.606a3.155,3.155,0,0,1-1.029.172H14.277A1.94,1.94,0,0,0,12.339,38.5v1.055a1.93,1.93,0,0,0,.518,1.317,1.93,1.93,0,0,0-.518,1.317v2a1.93,1.93,0,0,0,.518,1.317,1.931,1.931,0,0,0-.518,1.317v1.054a1.927,1.927,0,0,0,.13.7H7.231a.528.528,0,0,1-.527-.528V28.907h9.353v1.9a1.652,1.652,0,0,0,1.65,1.65h6.955a1.652,1.652,0,0,0,1.65-1.65v-1.9h4.466a6.1,6.1,0,0,0,4.888,3.468V48.041a.529.529,0,0,1-.528.528Zm1.149-17.4A4.846,4.846,0,0,1,33.894,22.1v1.412a3.687,3.687,0,1,0,4.783,0V22.1a4.847,4.847,0,0,1-2.391,9.062Z" transform="translate(0 -11.79)"/>
      </g>
    </g>
  </g>
</svg>
