<svg xmlns="http://www.w3.org/2000/svg" width="55.555" height="55.555" viewBox="0 0 55.555 55.555">
  <g id="Grupo_1127833" data-name="Grupo 1127833" transform="translate(-926.01 -3266)">
    <g id="Grupo_1127346" data-name="Grupo 1127346" transform="translate(931.01 3271)">
      <g id="Elipse_157" data-name="Elipse 157" fill="#fff" stroke="#ffce79" stroke-linejoin="round" stroke-width="5">
        <circle cx="22.777" cy="22.777" r="22.777" stroke="none"/>
        <circle cx="22.777" cy="22.777" r="25.277" fill="none"/>
      </g>
    </g>
    <path id="Trazado_919701" data-name="Trazado 919701" d="M8.489,11.362h1.4a1.453,1.453,0,0,0,1.661-1.626,1.406,1.406,0,0,0-.4-1.033,1.5,1.5,0,0,0-1.116-.4,1.606,1.606,0,0,0-1.024.343,1.046,1.046,0,0,0-.435.853H5.615a3.032,3.032,0,0,1,.563-1.8,3.715,3.715,0,0,1,1.56-1.235A5.334,5.334,0,0,1,9.93,6.019a5.241,5.241,0,0,1,3.357.976,3.243,3.243,0,0,1,1.222,2.681A2.7,2.7,0,0,1,14,11.235a3.6,3.6,0,0,1-1.472,1.191,3.441,3.441,0,0,1,1.6,1.121,2.951,2.951,0,0,1,.58,1.859,3.3,3.3,0,0,1-1.318,2.742A5.472,5.472,0,0,1,9.93,19.176,5.675,5.675,0,0,1,7.6,18.7a3.656,3.656,0,0,1-1.63-1.327,3.45,3.45,0,0,1-.554-1.929H8.392a1.334,1.334,0,0,0,.475,1.02,1.676,1.676,0,0,0,1.169.431,1.755,1.755,0,0,0,1.248-.435,1.454,1.454,0,0,0,.466-1.112,1.7,1.7,0,0,0-.483-1.371,2.021,2.021,0,0,0-1.336-.4H8.489Z" transform="translate(944.01 3283)" fill="#8c492a"/>
  </g>
</svg>
