<svg xmlns="http://www.w3.org/2000/svg" xmlns:xlink="http://www.w3.org/1999/xlink" width="838" height="251" viewBox="0 0 838 251">
  <defs>
    <filter id="Rectángulo_413315" x="0" y="0" width="838" height="251" filterUnits="userSpaceOnUse">
      <feOffset dy="3" input="SourceAlpha"/>
      <feGaussianBlur stdDeviation="3" result="blur"/>
      <feFlood flood-opacity="0.161"/>
      <feComposite operator="in" in2="blur"/>
      <feComposite in="SourceGraphic"/>
    </filter>
    <radialGradient id="radial-gradient" cx="0.5" cy="0.5" r="0.5" gradientUnits="objectBoundingBox">
      <stop offset="0" stop-color="#fff"/>
      <stop offset="1" stop-color="#fff7ea"/>
    </radialGradient>
    <clipPath id="clip-path">
      <path id="path5712" d="M0-682.665H67.818v67.818H0Z" transform="translate(0 682.665)"/>
    </clipPath>
  </defs>
  <g id="Grupo_1127831" data-name="Grupo 1127831" transform="translate(-380.577 -3279.242)">
    <g transform="matrix(1, 0, 0, 1, 380.58, 3279.24)" filter="url(#Rectángulo_413315)">
      <path id="Rectángulo_413315-2" data-name="Rectángulo 413315" d="M17,0H803a17,17,0,0,1,17,17V233a0,0,0,0,1,0,0H17A17,17,0,0,1,0,216V17A17,17,0,0,1,17,0Z" transform="translate(9 6)" fill="#ebede7"/>
    </g>
    <line id="Línea_3848" data-name="Línea 3848" x2="610" transform="translate(494.577 3374)" fill="none" stroke="#73964a" stroke-linecap="round" stroke-width="5" stroke-dasharray="15"/>
    <g id="Grupo_1127785" data-name="Grupo 1127785" transform="translate(3)">
      <g id="Grupo_1106785" data-name="Grupo 1106785" transform="translate(-305.994 -853)">
        <g id="Grupo_1106776" data-name="Grupo 1106776" transform="translate(311)">
          <g id="Elipse_12307" data-name="Elipse 12307" transform="translate(440.571 4178)" stroke="#fff" stroke-width="2" fill="url(#radial-gradient)">
            <circle cx="49.5" cy="49.5" r="49.5" stroke="none"/>
            <circle cx="49.5" cy="49.5" r="48.5" fill="none"/>
          </g>
          <g id="Elipse_12308" data-name="Elipse 12308" transform="translate(425.571 4163)" fill="none" stroke="#59836b" stroke-width="10" opacity="0.43">
            <circle cx="64.5" cy="64.5" r="64.5" stroke="none"/>
            <circle cx="64.5" cy="64.5" r="59.5" fill="none"/>
          </g>
        </g>
      </g>
      <g id="Layer_32" data-name="Layer 32" transform="translate(463.577 3343)">
        <path id="Trazado_919492" data-name="Trazado 919492" d="M31.645,43.355h0a4.1,4.1,0,0,1,1.833.433h0a5.062,5.062,0,0,0,2.266.535h0a4.117,4.117,0,0,0,3.762-2.444h0A32.309,32.309,0,0,0,42.29,28.756v-.075A4.682,4.682,0,0,0,37.608,24h0a12.887,12.887,0,0,0-4.077.662h0a5.969,5.969,0,0,1-3.774,0h0A12.887,12.887,0,0,0,25.682,24h0A4.682,4.682,0,0,0,21,28.682v.075a32.31,32.31,0,0,0,2.784,13.122h0a4.117,4.117,0,0,0,3.762,2.445h0a5.063,5.063,0,0,0,2.267-.536h0A4.1,4.1,0,0,1,31.645,43.355Z" transform="translate(-0.645 -0.742)" fill="#e73844"/>
        <path id="Trazado_919493" data-name="Trazado 919493" d="M42.355,28.682A4.682,4.682,0,0,0,37.673,24a12.887,12.887,0,0,0-4.077.662,5.969,5.969,0,0,1-3.774,0A12.887,12.887,0,0,0,25.746,24a4.636,4.636,0,0,0-2.183.563A4.636,4.636,0,0,0,23,26.746v.075a32.31,32.31,0,0,0,2.784,13.122h0a4.117,4.117,0,0,0,3.762,2.445,5.063,5.063,0,0,0,2.267-.536,4.1,4.1,0,0,1,3.665,0,5.062,5.062,0,0,0,2.266.535,4.111,4.111,0,0,0,1.769-.4c.017-.037.041-.069.057-.106h0a32.309,32.309,0,0,0,2.784-13.122Z" transform="translate(-0.71 -0.742)" fill="#ff4d55"/>
        <rect id="Rectángulo_413393" data-name="Rectángulo 413393" width="6.739" height="17.408" transform="translate(54.024 1.799)" fill="#a5badb"/>
        <path id="Trazado_919494" data-name="Trazado 919494" d="M58,10.71a6.774,6.774,0,0,0,4.839,6.49V2H58Z" transform="translate(-1.839 -0.032)" fill="#d7e0ef"/>
        <path id="Trazado_919495" data-name="Trazado 919495" d="M8,14.59a1.935,1.935,0,0,1,.794-1.558l9.852-7.161,11.1-3.416a10.325,10.325,0,0,1,5.69-.106L46.777,5.368a14.4,14.4,0,0,0,3.8.5h3.871v9.677l-3.387,2.265a9.62,9.62,0,0,1-10.645,0l-3.387-2.265L26.658,12.955a1.636,1.636,0,0,1-1.239-1.587,1.589,1.589,0,0,1,.019-.223l-1.955-.435-9.871,4.935a8.264,8.264,0,0,1-3.687.871A1.916,1.916,0,0,1,8,14.59Z" transform="translate(-0.226 -0.032)" fill="#d08d78"/>
        <path id="Trazado_919496" data-name="Trazado 919496" d="M46.81,5.368,35.469,2.348a10.325,10.325,0,0,0-5.69.106l-11.1,3.416L9.024,12.889a1.9,1.9,0,0,0,1.9,1.692,8.264,8.264,0,0,0,3.687-.871l9.871-4.935,1.955.435a1.588,1.588,0,0,0-.019.223,1.636,1.636,0,0,0,1.238,1.587l10.374,2.594,3.387,2.265a9.62,9.62,0,0,0,10.645,0l2.419-1.617V5.871H50.614a14.4,14.4,0,0,1-3.8-.5Z" transform="translate(-0.259 -0.032)" fill="#f2b9a1"/>
        <path id="Trazado_919497" data-name="Trazado 919497" d="M37.806,19H35.871A3.871,3.871,0,0,0,32,22.871h0v1.935h1.935a3.871,3.871,0,0,0,3.871-3.871Z" transform="translate(-1 -0.581)" fill="#8dbf00"/>
        <path id="Trazado_919498" data-name="Trazado 919498" d="M33.935,24.806a3.871,3.871,0,0,0,3.871-3.871V19L32,24.806Z" transform="translate(-1 -0.581)" fill="#82ab00"/>
        <path id="Trazado_919499" data-name="Trazado 919499" d="M54.452,48.829a1.935,1.935,0,0,1-.794,1.558l-9.852,7.161-11.1,3.416a10.325,10.325,0,0,1-5.69.106L15.674,58.052a14.4,14.4,0,0,0-3.8-.5H8V47.871l3.387-2.265a9.62,9.62,0,0,1,10.645,0l3.387,2.265,10.374,2.594a1.636,1.636,0,0,1,1.239,1.587,1.587,1.587,0,0,1-.019.223l1.955.435,9.871-4.935a8.264,8.264,0,0,1,3.687-.871,1.916,1.916,0,0,1,1.926,1.926Z" transform="translate(-0.226 -1.387)" fill="#d08d78"/>
        <path id="Trazado_919500" data-name="Trazado 919500" d="M17.674,55.148l11.342,3.019a10.325,10.325,0,0,0,5.69-.106l11.1-3.416,8.647-6.285A1.9,1.9,0,0,0,52.59,46.9a8.264,8.264,0,0,0-3.687.871L39.032,52.71l-1.955-.435a1.587,1.587,0,0,0,.019-.223,1.636,1.636,0,0,0-1.238-1.587L25.484,47.871,22.1,45.606a9.62,9.62,0,0,0-10.645,0L10,46.574v4.2a3.871,3.871,0,0,0,3.871,3.871,14.4,14.4,0,0,1,3.8.5Z" transform="translate(-0.29 -1.387)" fill="#f2b9a1"/>
        <rect id="Rectángulo_413394" data-name="Rectángulo 413394" width="6.739" height="17.408" transform="translate(1.237 42.793)" fill="#a5badb"/>
        <path id="Trazado_919501" data-name="Trazado 919501" d="M35.916,54.872a2.6,2.6,0,0,0,2.548-2.161l-.942-.21h0l-.959-.13a.655.655,0,0,1-.647.565,21.933,21.933,0,0,1-4.251-.417l-7.478-1.5-.387,1.9,7.483,1.5a23.779,23.779,0,0,0,4.634.455Z" transform="translate(-0.735 -1.614)" fill="#d08d78"/>
        <path id="Trazado_919502" data-name="Trazado 919502" d="M3,52.71A6.774,6.774,0,0,0,7.839,59.2V44H3Z" transform="translate(-0.065 -1.387)" fill="#d7e0ef"/>
        <path id="Trazado_919503" data-name="Trazado 919503" d="M27.6,9a2.6,2.6,0,0,0-2.548,2.161l.942.21h0l.959.13a.655.655,0,0,1,.647-.565,21.933,21.933,0,0,1,4.251.417l7.478,1.5.379-1.9-7.479-1.5A23.779,23.779,0,0,0,27.6,9Z" transform="translate(-0.776 -0.258)" fill="#d08d78"/>
        <path id="Trazado_919504" data-name="Trazado 919504" d="M32.848,28.655H30.913v-2.67a8.88,8.88,0,0,0-2.62-6.323l1.368-1.368a10.8,10.8,0,0,1,3.187,7.692Z" transform="translate(-0.88 -0.558)" fill="#785349"/>
        <path id="Trazado_919505" data-name="Trazado 919505" d="M31.821,29.876a7.333,7.333,0,0,1-4.083-1.236l-1.293-.862,1.074-1.61,1.293.862a5.508,5.508,0,0,0,6.017,0l1.293-.862,1.074,1.61-1.293.862A7.333,7.333,0,0,1,31.821,29.876Z" transform="translate(-0.821 -0.812)" fill="#e73844"/>
        <path id="Trazado_919506" data-name="Trazado 919506" d="M52.3,45.9a9.271,9.271,0,0,0-4.123.973l-9.564,4.782-.91-.2a2.59,2.59,0,0,0-1.9-1.961L25.59,46.941,22.34,44.773a10.728,10.728,0,0,0-11.71,0L8.742,46.031V43.968A.968.968,0,0,0,7.774,43H1v1.935H6.806V60.419H1v1.935H7.774a.968.968,0,0,0,.968-.968v-2.9h2.9a13.82,13.82,0,0,1,3.556.465l11.34,3.023a11.262,11.262,0,0,0,6.225-.117l11.1-3.414a.957.957,0,0,0,.285-.142L54,51.138A2.892,2.892,0,0,0,52.3,45.9Zm.562,3.665-9.723,7.07L32.2,60.005a9.387,9.387,0,0,1-5.158.1L15.7,57.081a15.693,15.693,0,0,0-4.055-.532h-2.9V48.356l2.96-1.969a8.759,8.759,0,0,1,9.563,0l3.387,2.261a.968.968,0,0,0,.3.134l10.377,2.594a.663.663,0,0,1-.157,1.3,21.667,21.667,0,0,1-4.244-.42l-7.481-1.5-.387,1.9,7.48,1.5a23.606,23.606,0,0,0,4.632.459,2.592,2.592,0,0,0,2.211-1.245l1.148.255a1,1,0,0,0,.643-.079l9.871-4.935a7.317,7.317,0,0,1,3.255-.769.956.956,0,0,1,.562,1.729Z" transform="translate(0 -1.355)"/>
        <path id="Trazado_919507" data-name="Trazado 919507" d="M53.452,1.968v2.9h-2.9a13.819,13.819,0,0,1-3.556-.465L35.652,1.387a11.323,11.323,0,0,0-6.225.117l-11.1,3.409a.957.957,0,0,0-.285.142l-9.855,7.17a2.892,2.892,0,0,0,1.7,5.226,9.27,9.27,0,0,0,4.121-.967L23.578,11.7l.91.2a2.59,2.59,0,0,0,1.9,1.961L36.6,16.414l3.251,2.168a10.557,10.557,0,0,0,11.71,0l1.888-1.258v2.063a.968.968,0,0,0,.968.968h6.774V18.419H55.387V2.935h5.806V1H54.419A.968.968,0,0,0,53.452,1.968Zm-2.96,15a8.759,8.759,0,0,1-9.563,0l-3.387-2.261a.968.968,0,0,0-.3-.134l-10.381-2.59a.663.663,0,0,1,.161-1.306,21.668,21.668,0,0,1,4.244.42l7.481,1.5.379-1.9L31.646,9.2a23.606,23.606,0,0,0-4.628-.459,2.592,2.592,0,0,0-2.211,1.245l-1.148-.255a.981.981,0,0,0-.643.079l-9.871,4.935a7.317,7.317,0,0,1-3.255.769.956.956,0,0,1-.562-1.729l9.723-7.07L30,3.35a9.366,9.366,0,0,1,5.158-.1l11.34,3.021a15.693,15.693,0,0,0,4.055.532h2.9V15Z" transform="translate(-0.194)"/>
        <path id="Trazado_919508" data-name="Trazado 919508" d="M25.65,22.839A5.673,5.673,0,0,0,20,28.563a33.063,33.063,0,0,0,2.868,13.515A5.089,5.089,0,0,0,27.514,45.1a6.077,6.077,0,0,0,2.7-.637,3.184,3.184,0,0,1,2.8,0,6.077,6.077,0,0,0,2.7.637,5.089,5.089,0,0,0,4.645-3.018,33.152,33.152,0,0,0,2.868-13.59,5.654,5.654,0,0,0-5.259-5.63,4.79,4.79,0,0,0,.42-1.955V18.968A.968.968,0,0,0,37.419,18H35.484a4.825,4.825,0,0,0-4.295,2.658,10.921,10.921,0,0,0-1.794-2.375l-1.368,1.368a8.885,8.885,0,0,1,2.3,3.968c-.1-.025-.194-.04-.29-.072a13.828,13.828,0,0,0-4.386-.709Zm6.931,0a2.9,2.9,0,0,1,2.9-2.9h.968V20.9a2.9,2.9,0,0,1-2.9,2.9h-.968Zm-1.935,3.137v1.591a5.323,5.323,0,0,1-2.041-.8l-1.293-.862-1.074,1.61,1.293.862a7.363,7.363,0,0,0,8.166,0l1.293-.862-1.074-1.61-1.293.862a5.323,5.323,0,0,1-2.041.8V25.975c0-.078-.01-.155-.012-.233h.979a4.8,4.8,0,0,0,2.782-.892,11.88,11.88,0,0,1,1.245-.075,3.735,3.735,0,0,1,3.714,3.789,31.129,31.129,0,0,1-2.7,12.729,3.149,3.149,0,0,1-2.876,1.87,4.113,4.113,0,0,1-1.833-.433,5.157,5.157,0,0,0-4.533,0,4.113,4.113,0,0,1-1.833.433,3.149,3.149,0,0,1-2.876-1.87,31.218,31.218,0,0,1-2.7-12.8,3.719,3.719,0,0,1,3.714-3.714,11.9,11.9,0,0,1,3.774.612,6.951,6.951,0,0,0,1.21.277c0,.1.012.208.012.313Z" transform="translate(-0.613 -0.548)"/>
      </g>
    </g>
    <g id="Grupo_1127787" data-name="Grupo 1127787" transform="translate(5)">
      <g id="Grupo_1127783" data-name="Grupo 1127783" transform="translate(106.006 -853)">
        <g id="Grupo_1106776-2" data-name="Grupo 1106776" transform="translate(311)">
          <g id="Elipse_12307-2" data-name="Elipse 12307" transform="translate(440.571 4178)" stroke="#fff" stroke-width="2" fill="url(#radial-gradient)">
            <circle cx="49.5" cy="49.5" r="49.5" stroke="none"/>
            <circle cx="49.5" cy="49.5" r="48.5" fill="none"/>
          </g>
          <g id="Elipse_12308-2" data-name="Elipse 12308" transform="translate(425.571 4163)" fill="none" stroke="#59836b" stroke-width="10" opacity="0.43">
            <circle cx="64.5" cy="64.5" r="64.5" stroke="none"/>
            <circle cx="64.5" cy="64.5" r="59.5" fill="none"/>
          </g>
        </g>
      </g>
      <g id="g5706" transform="translate(873.578 4023.665)">
        <g id="g5708" transform="translate(0 -682.665)">
          <g id="g5710" clip-path="url(#clip-path)">
            <g id="g5716" transform="translate(0.993 17.452)">
              <path id="path5718" d="M0-149.206a32.813,32.813,0,0,0,9.641,23.275l6.688-6.688a23.385,23.385,0,0,1-6.871-16.587A23.349,23.349,0,0,1,12.6-160.935L4.4-165.664A32.762,32.762,0,0,0,0-149.206" transform="translate(0 165.664)" fill="#57a4ff"/>
            </g>
            <g id="g5720" transform="translate(5.398 0.993)">
              <path id="path5722" d="M-258.482-85.742V-95.2a32.9,32.9,0,0,0-28.511,16.458l8.192,4.729a23.448,23.448,0,0,1,20.319-11.729" transform="translate(286.993 95.2)" fill="#ffb655"/>
            </g>
            <g id="g5724" transform="translate(33.909 0.993)">
              <path id="path5726" d="M0,0H0V9.457H0A23.458,23.458,0,0,1,23.455,32.916h9.458A32.916,32.916,0,0,0,0,0" transform="translate(0.004)" fill="#95d6a6"/>
            </g>
            <g id="g5728" transform="translate(10.634 33.909)">
              <path id="path5730" d="M-211.015-212.674a23.384,23.384,0,0,1-16.588-6.871l-6.688,6.688a32.813,32.813,0,0,0,23.275,9.641A32.916,32.916,0,0,0-178.1-236.133h-9.458a23.458,23.458,0,0,1-23.458,23.458" transform="translate(234.29 236.133)" fill="#ffe477"/>
            </g>
            <g id="g5732" transform="translate(19.341 24.099)">
              <path id="path5734" d="M-140.7-18.953l-.922.923-.954-.954a6.991,6.991,0,0,0-10.336.467,14.507,14.507,0,0,0-3.307,9.26A14.621,14.621,0,0,0-141.5,5.292,14.568,14.568,0,0,0-127.079-9.276a14.507,14.507,0,0,0-3.223-9.14,7,7,0,0,0-10.394-.537" transform="translate(156.216 21.043)" fill="#ff3f62"/>
            </g>
            <g id="g5736" transform="translate(34.439 17.876)">
              <path id="path5738" d="M0-40.844l1.069.287a4.638,4.638,0,0,0,5.682-3.277L7.038-44.9,5.969-45.19A4.638,4.638,0,0,0,.287-41.913Z" transform="translate(0 45.349)" fill="#95d6a6"/>
            </g>
            <g id="g5740" transform="translate(0.993 17.452)">
              <path id="path5742" d="M-36.026-149.206a32.773,32.773,0,0,1,3.462-14.708l-3.032-1.75A32.762,32.762,0,0,0-40-149.206a32.813,32.813,0,0,0,9.641,23.275L-28.286-128a32.781,32.781,0,0,1-7.74-21.2" transform="translate(40 165.664)" fill="#006df0"/>
            </g>
            <g id="g5744" transform="translate(5.398 0.993)">
              <path id="path5746" d="M-36.026-149.211a32.928,32.928,0,0,1,24.537-16.22v-.238A32.9,32.9,0,0,0-40-149.211l8.192,4.729c.333-.575.691-1.133,1.07-1.676Z" transform="translate(40 165.669)" fill="#ff7956"/>
            </g>
            <g id="g5748" transform="translate(33.909 0.993)">
              <path id="path5750" d="M-36.03-85.742h0V-94.96A33.257,33.257,0,0,0-40-95.2h0v9.457h0A23.458,23.458,0,0,1-16.545-62.284h3.974A23.458,23.458,0,0,0-36.03-85.742" transform="translate(40.004 95.2)" fill="#64c37d"/>
            </g>
            <g id="g5752" transform="translate(35.896 33.909)">
              <path id="path5754" d="M-18.013-212.674A23.458,23.458,0,0,0,5.445-236.133H1.471A23.459,23.459,0,0,1-20-212.759c.655.055,1.318.085,1.987.085" transform="translate(20 236.133)" fill="#ffb655"/>
            </g>
            <g id="g5756" transform="translate(10.634 50.496)">
              <path id="path5758" d="M-36.026-60.63l4.819-4.819a23.612,23.612,0,0,1-2.106-1.868L-40-60.63a32.813,32.813,0,0,0,23.275,9.641c.667,0,1.329-.022,1.987-.061A32.807,32.807,0,0,1-36.026-60.63" transform="translate(40 67.317)" fill="#ffb655"/>
            </g>
            <g id="g5760" transform="translate(19.341 24.101)">
              <path id="path5762" d="M-36.026-106.834a14.507,14.507,0,0,1,3.306-9.26,6.87,6.87,0,0,1,3.379-2.238,6.956,6.956,0,0,0-7.352,2.238A14.507,14.507,0,0,0-40-106.834,14.621,14.621,0,0,0-25.282-92.285a14.684,14.684,0,0,0,1.848-.135,14.633,14.633,0,0,1-12.593-14.414" transform="translate(40 118.618)" fill="#c70024"/>
            </g>
            <g id="g5764" transform="translate(34.439 17.876)">
              <path id="path5766" d="M-24.017-40.844l.287-1.069a4.635,4.635,0,0,1,3.158-3.243l-.125-.034a4.638,4.638,0,0,0-5.682,3.277l-.287,1.069,1.069.287a4.615,4.615,0,0,0,2.524-.034Z" transform="translate(26.667 45.349)" fill="#64c37d"/>
            </g>
            <g id="g5768" transform="translate(19.341 24.099)">
              <path id="path5770" d="M-140.7-18.953l-.922.923-.954-.954a6.991,6.991,0,0,0-10.336.467,14.507,14.507,0,0,0-3.307,9.26A14.621,14.621,0,0,0-141.5,5.292,14.568,14.568,0,0,0-127.079-9.276a14.507,14.507,0,0,0-3.223-9.14A7,7,0,0,0-140.7-18.953Z" transform="translate(156.216 21.043)" fill="none" stroke="#000" stroke-miterlimit="10" stroke-width="2"/>
            </g>
            <g id="g5772" transform="translate(33.937 17.383)">
              <path id="path5774" d="M0,0V9.729" transform="translate(0 0)" fill="none" stroke="#000" stroke-miterlimit="10" stroke-width="2"/>
            </g>
            <g id="g5776" transform="translate(34.439 17.876)">
              <path id="path5778" d="M0-40.844l1.069.287a4.638,4.638,0,0,0,5.682-3.277L7.038-44.9,5.969-45.19A4.638,4.638,0,0,0,.287-41.913Z" transform="translate(0 45.349)" fill="none" stroke="#000" stroke-miterlimit="10" stroke-width="2"/>
            </g>
            <g id="g5780" transform="translate(34.026 35.867)">
              <path id="path5782" d="M-101,0a11.188,11.188,0,0,1-3.259,7.922,11.186,11.186,0,0,1-7.881,3.334" transform="translate(112.137)" fill="none" stroke="#fff" stroke-miterlimit="10" stroke-width="2" stroke-dasharray="15 10 15 10 300"/>
            </g>
            <g id="g5784" transform="translate(37.202 4.466)">
              <path id="path5786" d="M0,0A29.4,29.4,0,0,1,17.654,8.5a29.4,29.4,0,0,1,8.5,17.654" fill="none" stroke="#fff" stroke-miterlimit="10" stroke-width="2" stroke-dasharray="15 10 15 10 300"/>
            </g>
            <g id="g5788" transform="translate(33.909 37.202)">
              <path id="path5790" d="M-266.935,0a29.4,29.4,0,0,1-8.5,17.654,29.429,29.429,0,0,1-20.947,8.676" transform="translate(296.378)" fill="none" stroke="#fff" stroke-miterlimit="10" stroke-width="2" stroke-dasharray="15 10 15 10 300"/>
            </g>
            <g id="g5792" transform="translate(6.817 0.993)">
              <path id="path5794" d="M-74.608-171.972a23.423,23.423,0,0,1,18.862-9.511v-9.457a32.878,32.878,0,0,0-27.092,14.218" transform="translate(82.837 190.941)" fill="none" stroke="#000" stroke-miterlimit="10" stroke-width="2"/>
            </g>
            <g id="g5796" transform="translate(36.558 1.098)">
              <path id="path5798" d="M0-86.133a23.462,23.462,0,0,1,20.81,23.31h9.458A32.919,32.919,0,0,0,0-95.633" transform="translate(0 95.633)" fill="none" stroke="#000" stroke-miterlimit="10" stroke-width="2"/>
            </g>
            <g id="g5800" transform="translate(10.634 36.558)">
              <path id="path5802" d="M-422.346,0a23.462,23.462,0,0,1-23.31,20.809,23.386,23.386,0,0,1-16.588-6.871l-6.688,6.688a32.812,32.812,0,0,0,23.275,9.641A32.919,32.919,0,0,0-412.845,0" transform="translate(468.931)" fill="none" stroke="#000" stroke-miterlimit="10" stroke-width="2"/>
            </g>
            <g id="g5804" transform="translate(0.993 17.452)">
              <path id="path5806" d="M-132.006-281.648a23.359,23.359,0,0,1-5.1-14.608,23.349,23.349,0,0,1,3.139-11.729l-8.192-4.729a32.762,32.762,0,0,0-4.4,16.458,32.785,32.785,0,0,0,7.842,21.327" transform="translate(146.566 312.714)" fill="none" stroke="#000" stroke-miterlimit="10" stroke-width="2"/>
            </g>
          </g>
        </g>
      </g>
    </g>
    <g id="Grupo_1127786" data-name="Grupo 1127786" transform="translate(10)">
      <g id="Grupo_1127782" data-name="Grupo 1127782" transform="translate(-100.994 -853)">
        <g id="Grupo_1106776-3" data-name="Grupo 1106776" transform="translate(311)">
          <g id="Elipse_12307-3" data-name="Elipse 12307" transform="translate(440.571 4178)" stroke="#fff" stroke-width="2" fill="url(#radial-gradient)">
            <circle cx="49.5" cy="49.5" r="49.5" stroke="none"/>
            <circle cx="49.5" cy="49.5" r="48.5" fill="none"/>
          </g>
          <g id="Elipse_12308-3" data-name="Elipse 12308" transform="translate(425.571 4163)" fill="none" stroke="#59836b" stroke-width="10" opacity="0.43">
            <circle cx="64.5" cy="64.5" r="64.5" stroke="none"/>
            <circle cx="64.5" cy="64.5" r="59.5" fill="none"/>
          </g>
        </g>
      </g>
      <g id="Grupo_1127780" data-name="Grupo 1127780" transform="translate(621.737 3303.661)">
        <path id="Trazado_919509" data-name="Trazado 919509" d="M89.36,113.857l25.113-12.487,25.113,12.487V137.2a2.578,2.578,0,0,1-1.46,2.357l-23.653,11.761L90.82,139.555a2.578,2.578,0,0,1-1.46-2.357Z" transform="translate(-36.027 -54.085)" fill="#fcd4a9" fill-rule="evenodd"/>
        <path id="Trazado_919510" data-name="Trazado 919510" d="M114.473,219.213,90.82,207.452a2.578,2.578,0,0,1-1.46-2.357V181.753l25.113,12.487Z" transform="translate(-36.027 -121.981)" fill="#f0b16e" fill-rule="evenodd"/>
        <path id="Trazado_919511" data-name="Trazado 919511" d="M251.031,219.214l23.653-11.761a2.578,2.578,0,0,0,1.46-2.357V181.754l-25.113,12.487Z" transform="translate(-172.584 -121.982)" fill="#cf8c48" fill-rule="evenodd"/>
        <ellipse id="Elipse_12369" data-name="Elipse 12369" cx="12.036" cy="12.8" rx="12.036" ry="12.8" transform="translate(66.251 37.823)" fill="#ffbf31"/>
        <path id="Trazado_919512" data-name="Trazado 919512" d="M70.294,51.335a1.03,1.03,0,1,1,1.541-1.367l3.541,4,9.45-8.316A1.031,1.031,0,0,1,86.191,47.2L75.966,56.193a1.032,1.032,0,0,1-1.453-.09Zm31.187,32.784L79.313,95.14V72.468L102.37,61V82.685a1.557,1.557,0,0,1-.889,1.434ZM54.2,82.685V61L77.252,72.468V95.14L55.093,84.119A1.557,1.557,0,0,1,54.2,82.685ZM78.282,64.509a13.6,13.6,0,0,1-13.1-9.989l-9.7,4.823L78.282,70.677l22.8-11.335-9.7-4.823a13.613,13.613,0,0,1-13.105,9.989Zm0-25.11A11.525,11.525,0,1,0,89.811,50.924,11.536,11.536,0,0,0,78.282,39.4Zm30.553,13.012a1.028,1.028,0,0,0,1.031-1.03V41.28a1.029,1.029,0,0,0-1.031-1.031h-10.1a1.03,1.03,0,1,0,0,2.06h7.618L94.761,53.9,91.784,52.42a12.023,12.023,0,0,0,.088-1.5,13.587,13.587,0,1,0-27.091,1.5L61.812,53.9,50.222,42.31h7.618a1.03,1.03,0,1,0,0-2.06h-10.1a1.029,1.029,0,0,0-1.031,1.031v10.1a1.031,1.031,0,0,0,2.061,0V43.767l11.1,11.1-7.152,3.555a1.028,1.028,0,0,0-.572.923V82.685a3.588,3.588,0,0,0,2.034,3.278l5.69,2.829-11.1,11.1V92.276a1.031,1.031,0,1,0-2.061,0v10.1a1.028,1.028,0,0,0,1.031,1.03h10.1a1.03,1.03,0,1,0,0-2.06H50.222L61.813,89.76l16.012,7.964a1.039,1.039,0,0,0,.916,0l16.02-7.964,11.59,11.587H98.733a1.03,1.03,0,1,0,0,2.06h10.1a1.028,1.028,0,0,0,1.031-1.03v-10.1a1.031,1.031,0,1,0-2.061,0V99.89l-11.1-11.1,5.689-2.829a3.588,3.588,0,0,0,2.034-3.278V59.342a1.028,1.028,0,0,0-.572-.923l-7.152-3.555,11.1-11.1v7.614a1.028,1.028,0,0,0,1.031,1.03Z" fill="#1e2f3f" fill-rule="evenodd"/>
      </g>
    </g>
    <g id="Grupo_1127788" data-name="Grupo 1127788" transform="translate(5)">
      <g id="Grupo_1127784" data-name="Grupo 1127784" transform="translate(304.006 -853)">
        <g id="Grupo_1106776-4" data-name="Grupo 1106776" transform="translate(311)">
          <g id="Elipse_12307-4" data-name="Elipse 12307" transform="translate(440.571 4178)" stroke="#fff" stroke-width="2" fill="url(#radial-gradient)">
            <circle cx="49.5" cy="49.5" r="49.5" stroke="none"/>
            <circle cx="49.5" cy="49.5" r="48.5" fill="none"/>
          </g>
          <g id="Elipse_12308-4" data-name="Elipse 12308" transform="translate(425.571 4163)" fill="none" stroke="#59836b" stroke-width="10" opacity="0.43">
            <circle cx="64.5" cy="64.5" r="64.5" stroke="none"/>
            <circle cx="64.5" cy="64.5" r="59.5" fill="none"/>
          </g>
        </g>
      </g>
      <g id="Grupo_1127781" data-name="Grupo 1127781" transform="translate(1063.231 3328.903)">
        <circle id="Elipse_12370" data-name="Elipse 12370" cx="3.361" cy="3.361" r="3.361" transform="translate(37.317 16.654)" fill="#02c7dd"/>
        <path id="Trazado_919513" data-name="Trazado 919513" d="M79.8,57.171q0-.171-.007-.339a.685.685,0,0,1,.47-.682l18.026-5.857a.682.682,0,0,0,.438-.86L97.835,46.7a.682.682,0,0,0-.86-.438L78.949,52.117a.686.686,0,0,1-.781-.274A9.556,9.556,0,0,0,72.877,48a.686.686,0,0,1-.5-.658V28.387a.683.683,0,0,0-.683-.683H68.817a.683.683,0,0,0-.683.683V47.34a.686.686,0,0,1-.5.658,9.556,9.556,0,0,0-5.292,3.845.686.686,0,0,1-.781.274L43.534,46.26a.683.683,0,0,0-.86.438l-.889,2.735a.683.683,0,0,0,.438.86L60.25,56.15a.685.685,0,0,1,.47.682q-.007.169-.007.339a9.5,9.5,0,0,0,2.028,5.878.686.686,0,0,1,.02.828L51.62,79.212a.683.683,0,0,0,.151.953l2.326,1.69a.683.683,0,0,0,.953-.151L66.19,66.372a.687.687,0,0,1,.794-.237,19.281,19.281,0,0,0,6.541,0,.686.686,0,0,1,.794.237L85.458,81.7a.683.683,0,0,0,.953.151l2.326-1.69a.683.683,0,0,0,.151-.953L77.747,63.876a.686.686,0,0,1,.02-.828A9.493,9.493,0,0,0,79.8,57.171Z" transform="translate(-29.576 -13.412)" fill="#80d261"/>
        <path id="Trazado_919514" data-name="Trazado 919514" d="M160.263,20.016a4.948,4.948,0,0,0,1.2,2.12c1.914,2.374,5.97,5.723,11.122,5.723,5.362,0,9.537-3.628,11.346-6.008a4.289,4.289,0,0,0,.979-1.835,4.289,4.289,0,0,0-.979-1.835c-1.809-2.38-5.984-6.008-11.346-6.008-5.152,0-9.208,3.349-11.122,5.723A4.948,4.948,0,0,0,160.263,20.016Z" transform="translate(-131.909 -0.001)" fill="#dcf5f8"/>
        <path id="Trazado_919515" data-name="Trazado 919515" d="M224.281,19.093a15.684,15.684,0,0,0-9.5-5.864,16.627,16.627,0,0,1,5.4,4.5,4.289,4.289,0,0,1,.979,1.835,4.288,4.288,0,0,1-.979,1.835c-1.809,2.38-5.984,6.008-11.346,6.008a12,12,0,0,1-1.851-.144,12.914,12.914,0,0,0,5.946,1.509c5.362,0,9.537-3.628,11.346-6.008a4.289,4.289,0,0,0,.979-1.835A4.29,4.29,0,0,0,224.281,19.093Z" transform="translate(-172.257 -0.913)" fill="#a6e7f0"/>
        <circle id="Elipse_12371" data-name="Elipse 12371" cx="3.361" cy="3.361" r="3.361" transform="translate(37.317 16.654)" fill="#017297"/>
        <path id="Trazado_919516" data-name="Trazado 919516" d="M387.144,147.352a5.765,5.765,0,0,0-2.375-3.043,5.115,5.115,0,0,1-2.366-3.665l-.638-5.107a3.808,3.808,0,0,0-3.778-3.335h0a3.807,3.807,0,0,0-3.778,3.335l-.638,5.107a5.115,5.115,0,0,1-2.366,3.665,5.765,5.765,0,0,0-2.375,3.043h0a2.109,2.109,0,0,0,2,2.776h2.041a3.509,3.509,0,0,1,2.807,1.4h0a2.886,2.886,0,0,0,4.617,0h0a3.509,3.509,0,0,1,2.807-1.4h2.041a2.109,2.109,0,0,0,2-2.776Z" transform="translate(-311.908 -103.645)" fill="#ffe5c2"/>
        <path id="Trazado_919517" data-name="Trazado 919517" d="M311.592,372.261h0a6.473,6.473,0,0,1-6.347-5.2l-2.109-10.547a3.692,3.692,0,0,1,1.01-3.335h0a3.692,3.692,0,0,1,4.659-.461h0a5.026,5.026,0,0,0,5.576,0h0a3.692,3.692,0,0,1,4.659.461h0a3.692,3.692,0,0,1,1.01,3.335l-2.109,10.547A6.473,6.473,0,0,1,311.592,372.261Z" transform="translate(-255.216 -293.519)" fill="#f79595"/>
        <path id="Trazado_919518" data-name="Trazado 919518" d="M338.113,353.2h0a3.687,3.687,0,0,0-2.458-1.078,3.689,3.689,0,0,1,.055,1.683L333.6,364.347a6.473,6.473,0,0,1-6.347,5.2h0a6.462,6.462,0,0,1-2.1-.349,6.474,6.474,0,0,0,5.513,3.08h0a6.473,6.473,0,0,0,6.347-5.2l2.109-10.547A3.692,3.692,0,0,0,338.113,353.2Z" transform="translate(-274.29 -293.539)" fill="#f37c7c"/>
        <path id="Trazado_919519" data-name="Trazado 919519" d="M7.5,136.578a5.556,5.556,0,0,0,11.1.341c0-.058.006-.117.008-.175a9.71,9.71,0,0,1,2.5-6.126A7.779,7.779,0,1,0,7.5,125.466Z" transform="translate(0 -91.111)" fill="#ffdfcf"/>
        <path id="Trazado_919520" data-name="Trazado 919520" d="M85.843,343.886H79.806a2.4,2.4,0,0,0-2.4,2.4v4.337a2.4,2.4,0,0,0-3.391.009l-.971.971a1.2,1.2,0,0,0,0,1.7l6.192,6.192h0l.032.032a2.127,2.127,0,0,1,.627,1.508v2.786a.721.721,0,0,0,.721.721H86.64a.721.721,0,0,0,.721-.721v-2.772a2.176,2.176,0,0,1,.649-1.544,6.2,6.2,0,0,0,1.841-4.419v-7.2A4.007,4.007,0,0,0,85.843,343.886Z" transform="translate(-56.289 -286.431)" fill="#eb9c8d"/>
        <path id="Trazado_919521" data-name="Trazado 919521" d="M188.445,168.428a.682.682,0,0,0-.377-.61l-1.6-.8a.693.693,0,0,1-.343-.4,9.79,9.79,0,0,0-.487-1.176.693.693,0,0,1-.04-.526l.565-1.695a.683.683,0,0,0-.165-.7l-1.941-1.941a.683.683,0,0,0-.7-.165l-1.695.565a.692.692,0,0,1-.526-.04,9.835,9.835,0,0,0-1.176-.488.693.693,0,0,1-.4-.343l-.8-1.6a.683.683,0,0,0-.61-.377h-2.744a.682.682,0,0,0-.61.377l-.8,1.6a.693.693,0,0,1-.4.343,9.771,9.771,0,0,0-1.176.488.693.693,0,0,1-.526.04l-1.695-.565a.683.683,0,0,0-.7.165l-1.94,1.941a.683.683,0,0,0-.165.7l.565,1.695a.692.692,0,0,1-.04.526,9.8,9.8,0,0,0-.487,1.176.693.693,0,0,1-.343.4l-1.6.8a.683.683,0,0,0-.377.61v2.744a.683.683,0,0,0,.377.61l1.6.8a.693.693,0,0,1,.343.4,9.789,9.789,0,0,0,.487,1.176.693.693,0,0,1,.04.526l-.565,1.695a.683.683,0,0,0,.165.7l1.94,1.941a.683.683,0,0,0,.7.165l1.695-.565a.692.692,0,0,1,.526.04,9.811,9.811,0,0,0,1.176.487.693.693,0,0,1,.4.343l.8,1.6a.683.683,0,0,0,.61.377h2.744a.682.682,0,0,0,.61-.377l.8-1.6a.693.693,0,0,1,.4-.343,9.79,9.79,0,0,0,1.176-.487.693.693,0,0,1,.526-.04l1.695.565a.683.683,0,0,0,.7-.165L186,177.075a.683.683,0,0,0,.165-.7l-.565-1.695a.692.692,0,0,1,.04-.526,9.812,9.812,0,0,0,.487-1.176.693.693,0,0,1,.343-.4l1.6-.8a.682.682,0,0,0,.377-.61Zm-11.661,5.613a4.24,4.24,0,1,1,4.24-4.24A4.24,4.24,0,0,1,176.784,174.04Z" transform="translate(-136.106 -126.041)" fill="#d4f2f6"/>
        <path id="Trazado_919522" data-name="Trazado 919522" d="M164.372,15.112a16.585,16.585,0,0,0-2.907,2.783,4.949,4.949,0,0,0-1.2,2.12,4.948,4.948,0,0,0,1.2,2.12c1.914,2.374,5.97,5.723,11.122,5.723,5.362,0,9.537-3.628,11.346-6.008a4.289,4.289,0,0,0,.979-1.835,4.289,4.289,0,0,0-.979-1.835c-1.809-2.38-5.984-6.008-11.346-6.008a12.346,12.346,0,0,0-3.914.648" transform="translate(-131.909)" fill="none" stroke="#000" stroke-linecap="round" stroke-linejoin="round" stroke-miterlimit="10" stroke-width="2"/>
        <circle id="Elipse_12372" data-name="Elipse 12372" cx="3.361" cy="3.361" r="3.361" transform="translate(37.317 16.654)" fill="none" stroke="#000" stroke-linecap="round" stroke-linejoin="round" stroke-miterlimit="10" stroke-width="2"/>
        <path id="Trazado_919523" data-name="Trazado 919523" d="M387.144,147.352a5.765,5.765,0,0,0-2.375-3.043,5.115,5.115,0,0,1-2.366-3.665l-.638-5.107a3.808,3.808,0,0,0-3.778-3.335h0a3.807,3.807,0,0,0-3.778,3.335l-.638,5.107a5.115,5.115,0,0,1-2.366,3.665,5.765,5.765,0,0,0-2.375,3.043h0a2.109,2.109,0,0,0,2,2.776h2.041a3.509,3.509,0,0,1,2.807,1.4h0a2.886,2.886,0,0,0,4.617,0h0a3.509,3.509,0,0,1,2.807-1.4h2.041a2.109,2.109,0,0,0,2-2.776Z" transform="translate(-311.908 -103.645)" fill="none" stroke="#000" stroke-linecap="round" stroke-linejoin="round" stroke-miterlimit="10" stroke-width="2"/>
        <path id="Trazado_919524" data-name="Trazado 919524" d="M311.592,372.261h0a6.473,6.473,0,0,1-6.347-5.2l-2.109-10.547a3.692,3.692,0,0,1,1.01-3.335h0a3.692,3.692,0,0,1,4.659-.461h0a5.026,5.026,0,0,0,5.576,0h0a3.692,3.692,0,0,1,4.659.461h0a3.692,3.692,0,0,1,1.01,3.335l-2.109,10.547A6.473,6.473,0,0,1,311.592,372.261Z" transform="translate(-255.216 -293.519)" fill="none" stroke="#000" stroke-linecap="round" stroke-linejoin="round" stroke-miterlimit="10" stroke-width="2"/>
        <line id="Línea_3834" data-name="Línea 3834" y2="11.628" transform="translate(56.376 60.039)" fill="none" stroke="#000" stroke-linecap="round" stroke-linejoin="round" stroke-miterlimit="10" stroke-width="2"/>
        <path id="Trazado_919525" data-name="Trazado 919525" d="M7.5,136.578a5.556,5.556,0,0,0,11.1.341c0-.058.006-.117.008-.175a9.71,9.71,0,0,1,2.5-6.126A7.779,7.779,0,1,0,7.5,125.466Z" transform="translate(0 -91.111)" fill="none" stroke="#000" stroke-linecap="round" stroke-linejoin="round" stroke-miterlimit="10" stroke-width="2"/>
        <path id="Trazado_919526" data-name="Trazado 919526" d="M46.1,155.993a3.3,3.3,0,0,0-2.33-5.477l-.141,0a3.3,3.3,0,0,0-3.3,3.3v3.121a1.78,1.78,0,0,0,.522,1.259l.025.025a1.781,1.781,0,0,1,0,2.52l-.025.025a1.78,1.78,0,0,0-.522,1.259v2.9A1.074,1.074,0,0,0,41.4,166" transform="translate(-28.347 -119.456)" fill="none" stroke="#000" stroke-linecap="round" stroke-linejoin="round" stroke-miterlimit="10" stroke-width="2"/>
        <path id="Trazado_919527" data-name="Trazado 919527" d="M89.852,348.336v-.444a4.008,4.008,0,0,0-4.008-4.008H79.807a2.4,2.4,0,0,0-2.4,2.4v4.337a2.4,2.4,0,0,0-3.391.009l-.971.971a1.2,1.2,0,0,0,0,1.7l6.192,6.192h0l.032.032a2.127,2.127,0,0,1,.627,1.508v2.786a.721.721,0,0,0,.721.721h6.027a.721.721,0,0,0,.721-.721v-2.772a2.176,2.176,0,0,1,.649-1.544,6.2,6.2,0,0,0,1.841-4.419v-1.975" transform="translate(-56.29 -286.431)" fill="none" stroke="#000" stroke-linecap="round" stroke-linejoin="round" stroke-miterlimit="10" stroke-width="2"/>
        <path id="Trazado_919528" data-name="Trazado 919528" d="M107.221,393.27l2.806,2.806a1.779,1.779,0,0,0,1.642.469,2.494,2.494,0,0,1,2.912,1.7" transform="translate(-86.108 -329.074)" fill="none" stroke="#000" stroke-linecap="round" stroke-linejoin="round" stroke-miterlimit="10" stroke-width="2"/>
        <line id="Línea_3835" data-name="Línea 3835" y2="4.482" transform="translate(24.993 57.947)" fill="none" stroke="#000" stroke-linecap="round" stroke-linejoin="round" stroke-miterlimit="10" stroke-width="2"/>
        <line id="Línea_3836" data-name="Línea 3836" y2="4.482" transform="translate(28.704 57.947)" fill="none" stroke="#000" stroke-linecap="round" stroke-linejoin="round" stroke-miterlimit="10" stroke-width="2"/>
        <path id="Trazado_919529" data-name="Trazado 919529" d="M188.445,168.428a.682.682,0,0,0-.377-.61l-1.6-.8a.693.693,0,0,1-.343-.4,9.79,9.79,0,0,0-.487-1.176.693.693,0,0,1-.04-.526l.565-1.695a.683.683,0,0,0-.165-.7l-1.941-1.941a.683.683,0,0,0-.7-.165l-1.695.565a.692.692,0,0,1-.526-.04,9.835,9.835,0,0,0-1.176-.488.693.693,0,0,1-.4-.343l-.8-1.6a.683.683,0,0,0-.61-.377h-2.744a.682.682,0,0,0-.61.377l-.8,1.6a.693.693,0,0,1-.4.343,9.771,9.771,0,0,0-1.176.488.693.693,0,0,1-.526.04l-1.695-.565a.683.683,0,0,0-.7.165l-1.94,1.941a.683.683,0,0,0-.165.7l.565,1.695a.692.692,0,0,1-.04.526,9.8,9.8,0,0,0-.487,1.176.693.693,0,0,1-.343.4l-1.6.8a.683.683,0,0,0-.377.61v2.744a.683.683,0,0,0,.377.61l1.6.8a.693.693,0,0,1,.343.4,9.789,9.789,0,0,0,.487,1.176.693.693,0,0,1,.04.526l-.565,1.695a.683.683,0,0,0,.165.7l1.94,1.941a.683.683,0,0,0,.7.165l1.695-.565a.692.692,0,0,1,.526.04,9.811,9.811,0,0,0,1.176.487.693.693,0,0,1,.4.343l.8,1.6a.683.683,0,0,0,.61.377h2.744a.682.682,0,0,0,.61-.377l.8-1.6a.693.693,0,0,1,.4-.343,9.79,9.79,0,0,0,1.176-.487.693.693,0,0,1,.526-.04l1.695.565a.683.683,0,0,0,.7-.165L186,177.075a.683.683,0,0,0,.165-.7l-.565-1.695a.692.692,0,0,1,.04-.526,9.812,9.812,0,0,0,.487-1.176.693.693,0,0,1,.343-.4l1.6-.8a.682.682,0,0,0,.377-.61Zm-11.661,5.613a4.24,4.24,0,1,1,4.24-4.24A4.24,4.24,0,0,1,176.784,174.04Z" transform="translate(-136.106 -126.041)" fill="none" stroke="#000" stroke-linecap="round" stroke-linejoin="round" stroke-miterlimit="10" stroke-width="2"/>
        <line id="Línea_3837" data-name="Línea 3837" x2="8.018" y2="2.605" transform="translate(21.023 39.602)" fill="none" stroke="#000" stroke-linecap="round" stroke-linejoin="round" stroke-miterlimit="10" stroke-width="2"/>
        <line id="Línea_3838" data-name="Línea 3838" x1="8.853" y1="2.877" transform="translate(22.93 35.763)" fill="none" stroke="#000" stroke-linecap="round" stroke-linejoin="round" stroke-miterlimit="10" stroke-width="2"/>
        <line id="Línea_3839" data-name="Línea 3839" x2="4.604" y2="6.336" transform="translate(44.743 52.961)" fill="none" stroke="#000" stroke-linecap="round" stroke-linejoin="round" stroke-miterlimit="10" stroke-width="2"/>
        <line id="Línea_3840" data-name="Línea 3840" x1="5.849" y1="8.05" transform="translate(49.136 51.793)" fill="none" stroke="#000" stroke-linecap="round" stroke-linejoin="round" stroke-miterlimit="10" stroke-width="2"/>
        <line id="Línea_3841" data-name="Línea 3841" y1="2.685" x2="8.263" transform="translate(52.315 39.523)" fill="none" stroke="#000" stroke-linecap="round" stroke-linejoin="round" stroke-miterlimit="10" stroke-width="2"/>
        <line id="Línea_3842" data-name="Línea 3842" x1="4.289" y2="1.394" transform="translate(49.573 37.246)" fill="none" stroke="#000" stroke-linecap="round" stroke-linejoin="round" stroke-miterlimit="10" stroke-width="2"/>
        <line id="Línea_3843" data-name="Línea 3843" x1="3.533" y2="1.148" transform="translate(58.426 34.615)" fill="none" stroke="#000" stroke-linecap="round" stroke-linejoin="round" stroke-miterlimit="10" stroke-width="2"/>
        <line id="Línea_3844" data-name="Línea 3844" y1="5.731" x2="4.164" transform="translate(32.45 52.961)" fill="none" stroke="#000" stroke-linecap="round" stroke-linejoin="round" stroke-miterlimit="10" stroke-width="2"/>
        <line id="Línea_3845" data-name="Línea 3845" x1="4.113" y2="5.662" transform="translate(28.107 51.793)" fill="none" stroke="#000" stroke-linecap="round" stroke-linejoin="round" stroke-miterlimit="10" stroke-width="2"/>
        <line id="Línea_3846" data-name="Línea 3846" y1="5.082" transform="translate(42.798 27.668)" fill="none" stroke="#000" stroke-linecap="round" stroke-linejoin="round" stroke-miterlimit="10" stroke-width="2"/>
        <line id="Línea_3847" data-name="Línea 3847" y2="5.082" transform="translate(38.558 27.668)" fill="none" stroke="#000" stroke-linecap="round" stroke-linejoin="round" stroke-miterlimit="10" stroke-width="2"/>
      </g>
    </g>
    <g id="Grupo_1127830" data-name="Grupo 1127830">
      <rect id="Rectángulo_413397" data-name="Rectángulo 413397" width="179" height="29" rx="14.5" transform="translate(408.577 3459)" fill="#ffce79"/>
      <path id="Trazado_919699" data-name="Trazado 919699" d="M5.886,12.354a.986.986,0,0,0-.373-.82A4.631,4.631,0,0,0,4.2,10.926a12.559,12.559,0,0,1-1.531-.608A2.9,2.9,0,0,1,.738,7.706,2.342,2.342,0,0,1,1.22,6.247a3.117,3.117,0,0,1,1.364-.984A5.307,5.307,0,0,1,4.566,4.91a4.642,4.642,0,0,1,1.924.383,3.047,3.047,0,0,1,1.323,1.09A2.847,2.847,0,0,1,8.285,8H5.893a1.2,1.2,0,0,0-.373-.943,1.452,1.452,0,0,0-1.008-.335A1.638,1.638,0,0,0,3.5,7.005.835.835,0,0,0,3.534,8.42a5.172,5.172,0,0,0,1.442.643,8.836,8.836,0,0,1,1.7.714,2.849,2.849,0,0,1,1.613,2.563A2.43,2.43,0,0,1,7.3,14.392a4.378,4.378,0,0,1-2.7.745A5.357,5.357,0,0,1,2.41,14.7,3.3,3.3,0,0,1,.933,13.513a3.1,3.1,0,0,1-.5-1.74H2.844a1.526,1.526,0,0,0,.414,1.179,1.955,1.955,0,0,0,1.343.379,1.544,1.544,0,0,0,.94-.256A.846.846,0,0,0,5.886,12.354Zm7.1,2.782a3.8,3.8,0,0,1-2.755-1.015,3.506,3.506,0,0,1-1.053-2.642v-.191a4.542,4.542,0,0,1,.42-2,3.076,3.076,0,0,1,1.227-1.343,3.7,3.7,0,0,1,1.914-.475,3.2,3.2,0,0,1,2.461.967,3.8,3.8,0,0,1,.9,2.7v.9h-4.58a1.66,1.66,0,0,0,.54.978,1.607,1.607,0,0,0,1.08.355,2.07,2.07,0,0,0,1.709-.766l1.053,1.244a2.943,2.943,0,0,1-1.22.947A4.123,4.123,0,0,1,12.988,15.137Zm-.26-5.893q-1.012,0-1.2,1.34H13.85v-.178a1.141,1.141,0,0,0-.28-.858A1.115,1.115,0,0,0,12.729,9.244Zm4.033,2a4.994,4.994,0,0,1,.369-1.982,2.972,2.972,0,0,1,1.06-1.33A2.793,2.793,0,0,1,19.8,7.467a2.221,2.221,0,0,1,1.8.779l.082-.643h2.092V14.72a3.118,3.118,0,0,1-.455,1.7A2.917,2.917,0,0,1,22,17.526a4.837,4.837,0,0,1-2,.386,4.173,4.173,0,0,1-1.576-.308,2.844,2.844,0,0,1-1.166-.8l.964-1.354a2.112,2.112,0,0,0,1.7.759,1.372,1.372,0,0,0,1.531-1.572v-.232a2.163,2.163,0,0,1-1.675.731A2.673,2.673,0,0,1,17.6,14.1a4.291,4.291,0,0,1-.834-2.772Zm2.311.144a2.631,2.631,0,0,0,.342,1.439,1.078,1.078,0,0,0,.957.53,1.224,1.224,0,0,0,1.087-.5V9.75a1.193,1.193,0,0,0-1.073-.506,1.086,1.086,0,0,0-.964.55A3,3,0,0,0,19.072,11.391ZM29.49,14.2a2.375,2.375,0,0,1-1.976.937,2.329,2.329,0,0,1-1.842-.708,2.976,2.976,0,0,1-.625-2.034V7.6h2.3v4.806a.828.828,0,0,0,.923.95,1.2,1.2,0,0,0,1.128-.567V7.6h2.317V15h-2.16Zm7.964-4.512L36.7,9.634a1.363,1.363,0,0,0-1.395.684V15H33V7.6h2.16l.075.95a1.784,1.784,0,0,1,1.62-1.087,2.247,2.247,0,0,1,.643.082ZM40.715,15H38.4V7.6h2.311ZM38.268,5.7a1.028,1.028,0,0,1,.355-.807,1.511,1.511,0,0,1,1.846,0,1.028,1.028,0,0,1,.355.807,1.028,1.028,0,0,1-.355.807,1.511,1.511,0,0,1-1.846,0A1.028,1.028,0,0,1,38.268,5.7Zm3.575,5.551A4.518,4.518,0,0,1,42.6,8.479a2.5,2.5,0,0,1,2.119-1.012,2.124,2.124,0,0,1,1.668.779V4.5H48.7V15H46.628l-.116-.793a2.181,2.181,0,0,1-1.8.93,2.493,2.493,0,0,1-2.092-1.012A4.662,4.662,0,0,1,41.843,11.247Zm2.3.144q0,1.969,1.148,1.969a1.134,1.134,0,0,0,1.094-.643V9.9a1.1,1.1,0,0,0-1.08-.656q-1.066,0-1.155,1.723ZM54.175,15a2.6,2.6,0,0,1-.219-.663,2.142,2.142,0,0,1-1.777.8A2.624,2.624,0,0,1,50.4,14.5a2.013,2.013,0,0,1-.731-1.589,2.069,2.069,0,0,1,.889-1.818,4.527,4.527,0,0,1,2.584-.615h.711v-.39q0-1.019-.882-1.019a.719.719,0,0,0-.82.807h-2.3a2.068,2.068,0,0,1,.913-1.743,3.832,3.832,0,0,1,2.328-.67,3.363,3.363,0,0,1,2.235.69,2.4,2.4,0,0,1,.841,1.894v3.274a3.353,3.353,0,0,0,.314,1.559V15Zm-1.442-1.5a1.285,1.285,0,0,0,.714-.185,1.157,1.157,0,0,0,.407-.417V11.712h-.67q-1.2,0-1.2,1.08a.659.659,0,0,0,.212.509A.767.767,0,0,0,52.732,13.5Zm4.416-2.249a4.518,4.518,0,0,1,.759-2.769,2.5,2.5,0,0,1,2.119-1.012,2.124,2.124,0,0,1,1.668.779V4.5H64V15H61.934l-.116-.793a2.181,2.181,0,0,1-1.8.93,2.493,2.493,0,0,1-2.092-1.012A4.662,4.662,0,0,1,57.148,11.247Zm2.3.144q0,1.969,1.148,1.969a1.134,1.134,0,0,0,1.094-.643V9.9a1.1,1.1,0,0,0-1.08-.656q-1.066,0-1.155,1.723ZM72.967,15a2.6,2.6,0,0,1-.219-.663,2.142,2.142,0,0,1-1.777.8,2.624,2.624,0,0,1-1.777-.632,2.013,2.013,0,0,1-.731-1.589,2.069,2.069,0,0,1,.889-1.818,4.527,4.527,0,0,1,2.584-.615h.711v-.39q0-1.019-.882-1.019a.719.719,0,0,0-.82.807h-2.3a2.068,2.068,0,0,1,.913-1.743,3.832,3.832,0,0,1,2.328-.67,3.363,3.363,0,0,1,2.235.69,2.4,2.4,0,0,1,.841,1.894v3.274a3.353,3.353,0,0,0,.314,1.559V15Zm-1.442-1.5a1.285,1.285,0,0,0,.714-.185,1.157,1.157,0,0,0,.407-.417V11.712h-.67q-1.2,0-1.2,1.08a.659.659,0,0,0,.212.509A.767.767,0,0,0,71.524,13.5ZM78.661,15H76.351V4.5h2.311Zm3.849,0H80.2V7.6H82.51ZM80.063,5.7a1.028,1.028,0,0,1,.355-.807,1.511,1.511,0,0,1,1.846,0,1.028,1.028,0,0,1,.355.807,1.028,1.028,0,0,1-.355.807,1.511,1.511,0,0,1-1.846,0A1.028,1.028,0,0,1,80.063,5.7ZM86.105,7.6l.075.868a2.543,2.543,0,0,1,2.112-1,1.872,1.872,0,0,1,1.894,1.114A2.462,2.462,0,0,1,92.36,7.467q2.249,0,2.311,2.721V15H92.36V10.331a1.41,1.41,0,0,0-.191-.827.815.815,0,0,0-.7-.26,1.091,1.091,0,0,0-1.019.608l.007.1V15H88.149V10.345a1.482,1.482,0,0,0-.185-.841.812.812,0,0,0-.7-.26,1.1,1.1,0,0,0-1.012.608V15h-2.3V7.6Zm13.46,7.533a3.8,3.8,0,0,1-2.755-1.015,3.506,3.506,0,0,1-1.053-2.642v-.191a4.542,4.542,0,0,1,.42-2,3.076,3.076,0,0,1,1.227-1.343,3.7,3.7,0,0,1,1.914-.475,3.2,3.2,0,0,1,2.461.967,3.8,3.8,0,0,1,.9,2.7v.9H98.1a1.66,1.66,0,0,0,.54.978,1.607,1.607,0,0,0,1.08.355,2.07,2.07,0,0,0,1.709-.766l1.053,1.244a2.943,2.943,0,0,1-1.22.947A4.124,4.124,0,0,1,99.565,15.137Zm-.26-5.893q-1.012,0-1.2,1.34h2.324v-.178a1.141,1.141,0,0,0-.28-.858A1.115,1.115,0,0,0,99.306,9.244ZM105.725,7.6l.075.868a2.508,2.508,0,0,1,2.112-1,2.11,2.11,0,0,1,1.726.69,3.287,3.287,0,0,1,.591,2.078V15h-2.311V10.331a1.248,1.248,0,0,0-.226-.824,1.044,1.044,0,0,0-.82-.263,1.1,1.1,0,0,0-1,.533V15h-2.3V7.6Zm8.463-1.839V7.6H115.4V9.2h-1.217v3.384a.864.864,0,0,0,.15.581.807.807,0,0,0,.595.164,3.379,3.379,0,0,0,.574-.041v1.647a4.252,4.252,0,0,1-1.3.2,2.413,2.413,0,0,1-1.757-.561,2.3,2.3,0,0,1-.567-1.7V9.2h-.943V7.6h.943V5.765ZM120.477,15a2.6,2.6,0,0,1-.219-.663,2.142,2.142,0,0,1-1.777.8A2.624,2.624,0,0,1,116.7,14.5a2.013,2.013,0,0,1-.731-1.589,2.069,2.069,0,0,1,.889-1.818,4.527,4.527,0,0,1,2.584-.615h.711v-.39q0-1.019-.882-1.019a.719.719,0,0,0-.82.807h-2.3a2.068,2.068,0,0,1,.913-1.743,3.832,3.832,0,0,1,2.328-.67,3.363,3.363,0,0,1,2.235.69,2.4,2.4,0,0,1,.841,1.894v3.274a3.353,3.353,0,0,0,.314,1.559V15Zm-1.442-1.5a1.285,1.285,0,0,0,.714-.185,1.157,1.157,0,0,0,.407-.417V11.712h-.67q-1.2,0-1.2,1.08a.659.659,0,0,0,.212.509A.767.767,0,0,0,119.034,13.5Zm9.181-3.808-.759-.055a1.363,1.363,0,0,0-1.395.684V15h-2.3V7.6h2.16l.075.95a1.784,1.784,0,0,1,1.62-1.087,2.247,2.247,0,0,1,.643.082ZM131.476,15h-2.311V7.6h2.311Zm-2.447-9.3a1.028,1.028,0,0,1,.355-.807,1.511,1.511,0,0,1,1.846,0,1.028,1.028,0,0,1,.355.807,1.028,1.028,0,0,1-.355.807,1.511,1.511,0,0,1-1.846,0A1.028,1.028,0,0,1,129.028,5.7Zm8.032,9.3a2.6,2.6,0,0,1-.219-.663,2.142,2.142,0,0,1-1.777.8,2.624,2.624,0,0,1-1.777-.632,2.013,2.013,0,0,1-.731-1.589,2.069,2.069,0,0,1,.889-1.818,4.527,4.527,0,0,1,2.584-.615h.711v-.39q0-1.019-.882-1.019a.719.719,0,0,0-.82.807h-2.3a2.068,2.068,0,0,1,.913-1.743,3.832,3.832,0,0,1,2.328-.67,3.363,3.363,0,0,1,2.235.69,2.4,2.4,0,0,1,.841,1.894v3.274a3.353,3.353,0,0,0,.314,1.559V15Zm-1.442-1.5a1.285,1.285,0,0,0,.714-.185,1.157,1.157,0,0,0,.407-.417V11.712h-.67q-1.2,0-1.2,1.08a.659.659,0,0,0,.212.509A.767.767,0,0,0,135.618,13.5Z" transform="translate(428.577 3465)" fill="#12263f"/>
    </g>
    <g id="Grupo_1127829" data-name="Grupo 1127829">
      <rect id="Rectángulo_413398" data-name="Rectángulo 413398" width="199" height="29" rx="14.5" transform="translate(610.577 3459)" fill="#ffce79"/>
      <path id="Trazado_919700" data-name="Trazado 919700" d="M6.925,10.782H3.151v2.372H7.608V15H.752V5.047h6.87V6.9H3.151V9H6.925Zm5.428,2.14a.532.532,0,0,0-.308-.472,4.679,4.679,0,0,0-1.169-.369,5.33,5.33,0,0,1-1.422-.5,2.382,2.382,0,0,1-.854-.755A1.8,1.8,0,0,1,8.306,9.8a2.044,2.044,0,0,1,.841-1.678,3.464,3.464,0,0,1,2.2-.66A3.837,3.837,0,0,1,13.7,8.13a2.074,2.074,0,0,1,.889,1.743H12.277q0-.889-.937-.889a.928.928,0,0,0-.608.2.624.624,0,0,0-.246.5.573.573,0,0,0,.3.5,2.842,2.842,0,0,0,.96.314,8.3,8.3,0,0,1,1.159.294,2.105,2.105,0,0,1,1.668,2.058,1.937,1.937,0,0,1-.9,1.647,3.942,3.942,0,0,1-2.328.636,4.023,4.023,0,0,1-1.7-.342,2.835,2.835,0,0,1-1.162-.93,2.105,2.105,0,0,1-.417-1.237h2.153a.89.89,0,0,0,.342.749,1.406,1.406,0,0,0,.841.236,1.106,1.106,0,0,0,.708-.191A.612.612,0,0,0,12.353,12.922Zm5.981-7.157V7.6h1.217V9.2H18.334v3.384a.864.864,0,0,0,.15.581.807.807,0,0,0,.595.164,3.38,3.38,0,0,0,.574-.041v1.647a4.252,4.252,0,0,1-1.3.2,2.413,2.413,0,0,1-1.757-.561,2.3,2.3,0,0,1-.567-1.7V9.2h-.943V7.6h.943V5.765ZM24.623,15a2.6,2.6,0,0,1-.219-.663,2.142,2.142,0,0,1-1.777.8A2.624,2.624,0,0,1,20.85,14.5a2.013,2.013,0,0,1-.731-1.589,2.069,2.069,0,0,1,.889-1.818,4.527,4.527,0,0,1,2.584-.615H24.3v-.39q0-1.019-.882-1.019a.719.719,0,0,0-.82.807H20.3a2.068,2.068,0,0,1,.913-1.743,3.832,3.832,0,0,1,2.328-.67,3.363,3.363,0,0,1,2.235.69,2.4,2.4,0,0,1,.841,1.894v3.274a3.353,3.353,0,0,0,.314,1.559V15Zm-1.442-1.5a1.285,1.285,0,0,0,.714-.185,1.157,1.157,0,0,0,.407-.417V11.712h-.67q-1.2,0-1.2,1.08a.659.659,0,0,0,.212.509A.767.767,0,0,0,23.181,13.5Zm11.573-2.133a4.508,4.508,0,0,1-.752,2.8,2.519,2.519,0,0,1-2.119.978,2.186,2.186,0,0,1-1.818-.9l-.1.759H27.9V4.5h2.3V8.2a2.109,2.109,0,0,1,1.661-.731A2.519,2.519,0,0,1,34,8.458a4.531,4.531,0,0,1,.752,2.789Zm-2.311-.144A3.016,3.016,0,0,0,32.16,9.7a.956.956,0,0,0-.872-.455,1.1,1.1,0,0,0-1.08.595v2.939a1.109,1.109,0,0,0,1.094.588.979.979,0,0,0,1.032-.793A5.7,5.7,0,0,0,32.443,11.22ZM38.2,15H35.889V7.6H38.2ZM35.752,5.7a1.028,1.028,0,0,1,.355-.807,1.511,1.511,0,0,1,1.846,0,1.028,1.028,0,0,1,.355.807,1.028,1.028,0,0,1-.355.807,1.511,1.511,0,0,1-1.846,0A1.028,1.028,0,0,1,35.752,5.7Zm6.3,9.3H39.737V4.5h2.311ZM45.9,15H43.586V7.6H45.9ZM43.449,5.7A1.028,1.028,0,0,1,43.8,4.89a1.511,1.511,0,0,1,1.846,0,1.028,1.028,0,0,1,.355.807,1.028,1.028,0,0,1-.355.807,1.511,1.511,0,0,1-1.846,0A1.028,1.028,0,0,1,43.449,5.7Zm3.575,5.551a4.518,4.518,0,0,1,.759-2.769A2.5,2.5,0,0,1,49.9,7.467a2.124,2.124,0,0,1,1.668.779V4.5h2.311V15H51.81l-.116-.793a2.181,2.181,0,0,1-1.8.93A2.493,2.493,0,0,1,47.8,14.125,4.662,4.662,0,0,1,47.024,11.247Zm2.3.144q0,1.969,1.148,1.969a1.134,1.134,0,0,0,1.094-.643V9.9a1.1,1.1,0,0,0-1.08-.656q-1.066,0-1.155,1.723ZM59.356,15a2.6,2.6,0,0,1-.219-.663,2.142,2.142,0,0,1-1.777.8,2.624,2.624,0,0,1-1.777-.632,2.013,2.013,0,0,1-.731-1.589A2.069,2.069,0,0,1,55.74,11.1a4.527,4.527,0,0,1,2.584-.615h.711v-.39q0-1.019-.882-1.019a.719.719,0,0,0-.82.807h-2.3a2.068,2.068,0,0,1,.913-1.743,3.832,3.832,0,0,1,2.328-.67,3.363,3.363,0,0,1,2.235.69,2.4,2.4,0,0,1,.841,1.894v3.274a3.353,3.353,0,0,0,.314,1.559V15Zm-1.442-1.5a1.285,1.285,0,0,0,.714-.185,1.157,1.157,0,0,0,.407-.417V11.712h-.67q-1.2,0-1.2,1.08a.659.659,0,0,0,.212.509A.767.767,0,0,0,57.914,13.5Zm4.416-2.249a4.518,4.518,0,0,1,.759-2.769,2.5,2.5,0,0,1,2.119-1.012,2.124,2.124,0,0,1,1.668.779V4.5h2.311V15H67.115L67,14.207a2.181,2.181,0,0,1-1.8.93A2.493,2.493,0,0,1,63.1,14.125,4.662,4.662,0,0,1,62.33,11.247Zm2.3.144q0,1.969,1.148,1.969a1.134,1.134,0,0,0,1.094-.643V9.9a1.1,1.1,0,0,0-1.08-.656q-1.066,0-1.155,1.723Zm9.058-.144a4.518,4.518,0,0,1,.759-2.769,2.5,2.5,0,0,1,2.119-1.012,2.124,2.124,0,0,1,1.668.779V4.5h2.311V15H78.477l-.116-.793a2.181,2.181,0,0,1-1.8.93,2.493,2.493,0,0,1-2.092-1.012A4.661,4.661,0,0,1,73.691,11.247Zm2.3.144q0,1.969,1.148,1.969a1.134,1.134,0,0,0,1.094-.643V9.9a1.1,1.1,0,0,0-1.08-.656q-1.066,0-1.155,1.723Zm9.44,3.746a3.8,3.8,0,0,1-2.755-1.015,3.506,3.506,0,0,1-1.053-2.642v-.191a4.542,4.542,0,0,1,.42-2,3.076,3.076,0,0,1,1.227-1.343,3.7,3.7,0,0,1,1.914-.475,3.2,3.2,0,0,1,2.461.967,3.8,3.8,0,0,1,.9,2.7v.9h-4.58a1.66,1.66,0,0,0,.54.978,1.607,1.607,0,0,0,1.08.355,2.07,2.07,0,0,0,1.709-.766l1.053,1.244a2.943,2.943,0,0,1-1.22.947A4.124,4.124,0,0,1,85.436,15.137Zm-.26-5.893q-1.012,0-1.2,1.34H86.3v-.178a1.141,1.141,0,0,0-.28-.858A1.115,1.115,0,0,0,85.176,9.244ZM91.909,15H89.6V4.5h2.311Zm11.771-3.644a4.46,4.46,0,0,1-.776,2.751,2.488,2.488,0,0,1-2.1,1.029,2.132,2.132,0,0,1-1.675-.745v3.452h-2.3V7.6h2.153l.068.684a2.132,2.132,0,0,1,1.743-.82,2.508,2.508,0,0,1,2.126,1.008,4.515,4.515,0,0,1,.759,2.772Zm-2.3-.144q0-1.969-1.148-1.969a1.084,1.084,0,0,0-1.094.588v2.912a1.119,1.119,0,0,0,1.107.615q1.1,0,1.135-1.9Zm7.793-1.524-.759-.055a1.363,1.363,0,0,0-1.395.684V15h-2.3V7.6h2.16l.075.95a1.784,1.784,0,0,1,1.62-1.087,2.246,2.246,0,0,1,.643.082Zm.294,1.545a4.366,4.366,0,0,1,.431-1.972,3.08,3.08,0,0,1,1.237-1.33,3.726,3.726,0,0,1,1.894-.465A3.4,3.4,0,0,1,115.644,8.5a3.948,3.948,0,0,1,.957,2.8v.082a3.83,3.83,0,0,1-.96,2.745,3.41,3.41,0,0,1-2.6,1.015,3.449,3.449,0,0,1-2.536-.947,3.7,3.7,0,0,1-1.032-2.567Zm2.3.144a2.752,2.752,0,0,0,.321,1.5,1.07,1.07,0,0,0,.95.479q1.23,0,1.258-1.894v-.232q0-1.989-1.271-1.989-1.155,0-1.251,1.716Zm5.558-.13a4.518,4.518,0,0,1,.759-2.769A2.5,2.5,0,0,1,120.2,7.467a2.124,2.124,0,0,1,1.668.779V4.5h2.311V15H122.11l-.116-.793a2.181,2.181,0,0,1-1.8.93,2.493,2.493,0,0,1-2.092-1.012A4.661,4.661,0,0,1,117.325,11.247Zm2.3.144q0,1.969,1.148,1.969a1.134,1.134,0,0,0,1.094-.643V9.9a1.1,1.1,0,0,0-1.08-.656q-1.066,0-1.155,1.723ZM129.9,14.2a2.375,2.375,0,0,1-1.976.937,2.329,2.329,0,0,1-1.842-.708,2.976,2.976,0,0,1-.625-2.034V7.6h2.3v4.806a.828.828,0,0,0,.923.95,1.2,1.2,0,0,0,1.128-.567V7.6h2.317V15h-2.16Zm6.617-.841a1.025,1.025,0,0,0,.752-.263.965.965,0,0,0,.26-.735h2.16a2.557,2.557,0,0,1-.872,2,3.242,3.242,0,0,1-2.246.779,3.283,3.283,0,0,1-2.543-1.012,3.986,3.986,0,0,1-.93-2.8v-.1a4.505,4.505,0,0,1,.414-1.979A3.011,3.011,0,0,1,134.7,7.928a3.557,3.557,0,0,1,1.846-.461,3.2,3.2,0,0,1,2.29.8,2.837,2.837,0,0,1,.848,2.167h-2.16a1.265,1.265,0,0,0-.28-.882.967.967,0,0,0-.752-.308q-.9,0-1.046,1.142a8.054,8.054,0,0,0-.048,1,3.164,3.164,0,0,0,.267,1.545A.923.923,0,0,0,136.514,13.359Zm6.829-7.595V7.6h1.217V9.2h-1.217v3.384a.864.864,0,0,0,.15.581.807.807,0,0,0,.595.164,3.38,3.38,0,0,0,.574-.041v1.647a4.252,4.252,0,0,1-1.3.2,2.413,2.413,0,0,1-1.757-.561,2.3,2.3,0,0,1-.567-1.7V9.2H140.1V7.6h.943V5.765Zm1.627,5.469a4.366,4.366,0,0,1,.431-1.972,3.08,3.08,0,0,1,1.237-1.33,3.726,3.726,0,0,1,1.894-.465A3.4,3.4,0,0,1,151.149,8.5a3.948,3.948,0,0,1,.957,2.8v.082a3.83,3.83,0,0,1-.96,2.745,3.41,3.41,0,0,1-2.6,1.015,3.449,3.449,0,0,1-2.536-.947,3.7,3.7,0,0,1-1.032-2.567Zm2.3.144a2.752,2.752,0,0,0,.321,1.5,1.07,1.07,0,0,0,.95.479q1.23,0,1.258-1.894v-.232q0-1.989-1.271-1.989-1.155,0-1.251,1.716Z" transform="translate(632.577 3465)" fill="#12263f"/>
    </g>
    <g id="Grupo_1127828" data-name="Grupo 1127828" transform="translate(11)">
      <rect id="Rectángulo_413399" data-name="Rectángulo 413399" width="145" height="29" rx="14.5" transform="translate(828.577 3459)" fill="#ffce79"/>
      <path id="Trazado_919701" data-name="Trazado 919701" d="M4.614,12.293,6.6,5.047h2.68L5.927,15H3.3L-.021,5.047H2.639ZM13.747,15a2.6,2.6,0,0,1-.219-.663,2.142,2.142,0,0,1-1.777.8A2.624,2.624,0,0,1,9.974,14.5a2.013,2.013,0,0,1-.731-1.589,2.069,2.069,0,0,1,.889-1.818,4.527,4.527,0,0,1,2.584-.615h.711v-.39q0-1.019-.882-1.019a.719.719,0,0,0-.82.807H9.42a2.068,2.068,0,0,1,.913-1.743,3.832,3.832,0,0,1,2.328-.67,3.363,3.363,0,0,1,2.235.69,2.4,2.4,0,0,1,.841,1.894v3.274a3.353,3.353,0,0,0,.314,1.559V15ZM12.3,13.5a1.285,1.285,0,0,0,.714-.185,1.157,1.157,0,0,0,.407-.417V11.712h-.67q-1.2,0-1.2,1.08a.659.659,0,0,0,.212.509A.767.767,0,0,0,12.3,13.5ZM19.441,15H17.131V4.5h2.311Zm1.128-3.767A4.366,4.366,0,0,1,21,9.261a3.08,3.08,0,0,1,1.237-1.33,3.726,3.726,0,0,1,1.894-.465A3.4,3.4,0,0,1,26.749,8.5a3.948,3.948,0,0,1,.957,2.8v.082a3.83,3.83,0,0,1-.96,2.745,3.41,3.41,0,0,1-2.6,1.015,3.449,3.449,0,0,1-2.536-.947,3.7,3.7,0,0,1-1.032-2.567Zm2.3.144a2.752,2.752,0,0,0,.321,1.5,1.07,1.07,0,0,0,.95.479q1.23,0,1.258-1.894v-.232q0-1.989-1.271-1.989-1.155,0-1.251,1.716ZM33.2,9.688l-.759-.055a1.363,1.363,0,0,0-1.395.684V15h-2.3V7.6H30.9l.075.95a1.784,1.784,0,0,1,1.62-1.087,2.247,2.247,0,0,1,.643.082ZM39.628,7.6l.075.868a2.508,2.508,0,0,1,2.112-1,2.11,2.11,0,0,1,1.726.69,3.287,3.287,0,0,1,.591,2.078V15H41.822V10.331a1.248,1.248,0,0,0-.226-.824,1.044,1.044,0,0,0-.82-.263,1.1,1.1,0,0,0-1,.533V15h-2.3V7.6Zm10.186,6.6a2.375,2.375,0,0,1-1.976.937A2.329,2.329,0,0,1,46,14.429,2.976,2.976,0,0,1,45.37,12.4V7.6h2.3v4.806a.828.828,0,0,0,.923.95,1.2,1.2,0,0,0,1.128-.567V7.6h2.317V15h-2.16Zm6.173-8.436V7.6H57.2V9.2H55.986v3.384a.864.864,0,0,0,.15.581.807.807,0,0,0,.595.164,3.38,3.38,0,0,0,.574-.041v1.647a4.252,4.252,0,0,1-1.3.2,2.413,2.413,0,0,1-1.757-.561,2.3,2.3,0,0,1-.567-1.7V9.2h-.943V7.6h.943V5.765Zm6.6,3.924-.759-.055a1.363,1.363,0,0,0-1.395.684V15h-2.3V7.6h2.16l.075.95a1.784,1.784,0,0,1,1.62-1.087,2.247,2.247,0,0,1,.643.082ZM65.844,15H63.533V7.6h2.311ZM63.4,5.7a1.028,1.028,0,0,1,.355-.807,1.511,1.511,0,0,1,1.846,0,1.028,1.028,0,0,1,.355.807A1.028,1.028,0,0,1,65.6,6.5a1.511,1.511,0,0,1-1.846,0A1.028,1.028,0,0,1,63.4,5.7Zm6.993,7.663a1.025,1.025,0,0,0,.752-.263.965.965,0,0,0,.26-.735h2.16a2.557,2.557,0,0,1-.872,2,3.242,3.242,0,0,1-2.246.779A3.282,3.282,0,0,1,67.9,14.125a3.986,3.986,0,0,1-.93-2.8v-.1a4.505,4.505,0,0,1,.414-1.979,3.011,3.011,0,0,1,1.193-1.319,3.557,3.557,0,0,1,1.846-.461,3.2,3.2,0,0,1,2.29.8,2.837,2.837,0,0,1,.848,2.167H71.4a1.265,1.265,0,0,0-.28-.882.967.967,0,0,0-.752-.308q-.9,0-1.046,1.142a8.056,8.056,0,0,0-.048,1,3.164,3.164,0,0,0,.267,1.545A.923.923,0,0,0,70.39,13.359ZM76.966,15H74.655V7.6h2.311ZM74.519,5.7a1.028,1.028,0,0,1,.355-.807,1.511,1.511,0,0,1,1.846,0,1.028,1.028,0,0,1,.355.807,1.028,1.028,0,0,1-.355.807,1.511,1.511,0,0,1-1.846,0A1.028,1.028,0,0,1,74.519,5.7Zm3.575,5.537a4.366,4.366,0,0,1,.431-1.972,3.08,3.08,0,0,1,1.237-1.33,3.726,3.726,0,0,1,1.894-.465A3.4,3.4,0,0,1,84.273,8.5a3.948,3.948,0,0,1,.957,2.8v.082a3.83,3.83,0,0,1-.96,2.745,3.41,3.41,0,0,1-2.6,1.015,3.449,3.449,0,0,1-2.536-.947A3.7,3.7,0,0,1,78.1,11.623Zm2.3.144a2.752,2.752,0,0,0,.321,1.5,1.07,1.07,0,0,0,.95.479q1.23,0,1.258-1.894v-.232q0-1.989-1.271-1.989-1.155,0-1.251,1.716ZM88.361,7.6l.075.868a2.508,2.508,0,0,1,2.112-1,2.11,2.11,0,0,1,1.726.69,3.287,3.287,0,0,1,.591,2.078V15H90.556V10.331a1.248,1.248,0,0,0-.226-.824,1.044,1.044,0,0,0-.82-.263,1.1,1.1,0,0,0-1,.533V15H86.2V7.6ZM98.308,15a2.6,2.6,0,0,1-.219-.663,2.142,2.142,0,0,1-1.777.8,2.624,2.624,0,0,1-1.777-.632,2.013,2.013,0,0,1-.731-1.589,2.069,2.069,0,0,1,.889-1.818,4.527,4.527,0,0,1,2.584-.615h.711v-.39q0-1.019-.882-1.019a.719.719,0,0,0-.82.807h-2.3a2.068,2.068,0,0,1,.913-1.743,3.832,3.832,0,0,1,2.328-.67,3.363,3.363,0,0,1,2.235.69,2.4,2.4,0,0,1,.841,1.894v3.274a3.353,3.353,0,0,0,.314,1.559V15Zm-1.442-1.5a1.285,1.285,0,0,0,.714-.185,1.157,1.157,0,0,0,.407-.417V11.712h-.67q-1.2,0-1.2,1.08a.659.659,0,0,0,.212.509A.767.767,0,0,0,96.865,13.5ZM104,15h-2.311V4.5H104Z" transform="translate(847.577 3465)" fill="#12263f"/>
    </g>
    <g id="Grupo_1127827" data-name="Grupo 1127827">
      <rect id="Rectángulo_413400" data-name="Rectángulo 413400" width="180" height="29" rx="14.5" transform="translate(1019.577 3459)" fill="#ffce79"/>
      <path id="Trazado_919702" data-name="Trazado 919702" d="M6.405,13.141H3.117L2.543,15H-.021L3.63,5.047H5.886L9.563,15H6.986ZM3.691,11.288h2.14L4.758,7.836Zm9.618,2.071a1.025,1.025,0,0,0,.752-.263.965.965,0,0,0,.26-.735h2.16a2.557,2.557,0,0,1-.872,2,3.242,3.242,0,0,1-2.246.779,3.282,3.282,0,0,1-2.543-1.012,3.986,3.986,0,0,1-.93-2.8v-.1a4.505,4.505,0,0,1,.414-1.979A3.011,3.011,0,0,1,11.5,7.928a3.557,3.557,0,0,1,1.846-.461,3.2,3.2,0,0,1,2.29.8,2.837,2.837,0,0,1,.848,2.167h-2.16a1.265,1.265,0,0,0-.28-.882.967.967,0,0,0-.752-.308q-.9,0-1.046,1.142a8.055,8.055,0,0,0-.048,1,3.164,3.164,0,0,0,.267,1.545A.923.923,0,0,0,13.31,13.359Zm7.725,1.777a3.8,3.8,0,0,1-2.755-1.015,3.506,3.506,0,0,1-1.053-2.642v-.191a4.542,4.542,0,0,1,.42-2,3.076,3.076,0,0,1,1.227-1.343,3.7,3.7,0,0,1,1.914-.475,3.2,3.2,0,0,1,2.461.967,3.8,3.8,0,0,1,.9,2.7v.9h-4.58a1.66,1.66,0,0,0,.54.978,1.607,1.607,0,0,0,1.08.355,2.07,2.07,0,0,0,1.709-.766l1.053,1.244a2.943,2.943,0,0,1-1.22.947A4.124,4.124,0,0,1,21.034,15.137Zm-.26-5.893q-1.012,0-1.2,1.34H21.9v-.178a1.141,1.141,0,0,0-.28-.858A1.115,1.115,0,0,0,20.774,9.244Zm11.17,2.112a4.46,4.46,0,0,1-.776,2.751,2.488,2.488,0,0,1-2.1,1.029,2.132,2.132,0,0,1-1.675-.745v3.452h-2.3V7.6h2.153l.068.684a2.132,2.132,0,0,1,1.743-.82,2.508,2.508,0,0,1,2.126,1.008,4.515,4.515,0,0,1,.759,2.772Zm-2.3-.144q0-1.969-1.148-1.969a1.084,1.084,0,0,0-1.094.588v2.912a1.119,1.119,0,0,0,1.107.615q1.1,0,1.135-1.9Zm6-5.448V7.6h1.217V9.2H35.643v3.384a.864.864,0,0,0,.15.581.807.807,0,0,0,.595.164,3.38,3.38,0,0,0,.574-.041v1.647a4.252,4.252,0,0,1-1.3.2,2.413,2.413,0,0,1-1.757-.561,2.3,2.3,0,0,1-.567-1.7V9.2H32.4V7.6h.943V5.765ZM41.932,15a2.6,2.6,0,0,1-.219-.663,2.142,2.142,0,0,1-1.777.8,2.624,2.624,0,0,1-1.777-.632,2.013,2.013,0,0,1-.731-1.589,2.069,2.069,0,0,1,.889-1.818,4.527,4.527,0,0,1,2.584-.615h.711v-.39q0-1.019-.882-1.019a.719.719,0,0,0-.82.807H37.6a2.068,2.068,0,0,1,.913-1.743,3.832,3.832,0,0,1,2.328-.67,3.363,3.363,0,0,1,2.235.69,2.4,2.4,0,0,1,.841,1.894v3.274a3.353,3.353,0,0,0,.314,1.559V15Zm-1.442-1.5a1.285,1.285,0,0,0,.714-.185,1.157,1.157,0,0,0,.407-.417V11.712h-.67q-1.2,0-1.2,1.08a.659.659,0,0,0,.212.509A.767.767,0,0,0,40.489,13.5Zm7.834-.137a1.025,1.025,0,0,0,.752-.263.965.965,0,0,0,.26-.735H51.5a2.557,2.557,0,0,1-.872,2,3.242,3.242,0,0,1-2.246.779,3.282,3.282,0,0,1-2.543-1.012,3.986,3.986,0,0,1-.93-2.8v-.1a4.505,4.505,0,0,1,.414-1.979,3.011,3.011,0,0,1,1.193-1.319,3.557,3.557,0,0,1,1.846-.461,3.2,3.2,0,0,1,2.29.8,2.837,2.837,0,0,1,.848,2.167h-2.16a1.265,1.265,0,0,0-.28-.882.967.967,0,0,0-.752-.308q-.9,0-1.046,1.142a8.055,8.055,0,0,0-.048,1,3.164,3.164,0,0,0,.267,1.545A.923.923,0,0,0,48.323,13.359ZM54.9,15H52.589V7.6H54.9ZM52.452,5.7a1.028,1.028,0,0,1,.355-.807,1.511,1.511,0,0,1,1.846,0,1.028,1.028,0,0,1,.355.807,1.028,1.028,0,0,1-.355.807,1.511,1.511,0,0,1-1.846,0A1.028,1.028,0,0,1,52.452,5.7Zm3.575,5.537a4.366,4.366,0,0,1,.431-1.972A3.08,3.08,0,0,1,57.7,7.932a3.726,3.726,0,0,1,1.894-.465A3.4,3.4,0,0,1,62.207,8.5a3.948,3.948,0,0,1,.957,2.8v.082a3.83,3.83,0,0,1-.96,2.745,3.41,3.41,0,0,1-2.6,1.015,3.449,3.449,0,0,1-2.536-.947,3.7,3.7,0,0,1-1.032-2.567Zm2.3.144a2.752,2.752,0,0,0,.321,1.5,1.07,1.07,0,0,0,.95.479q1.23,0,1.258-1.894v-.232q0-1.989-1.271-1.989-1.155,0-1.251,1.716ZM59.9,4.5h2.434l-1.9,2.146h-1.88Zm6.392,3.1.075.868a2.508,2.508,0,0,1,2.112-1,2.11,2.11,0,0,1,1.726.69,3.287,3.287,0,0,1,.591,2.078V15H68.489V10.331a1.248,1.248,0,0,0-.226-.824,1.044,1.044,0,0,0-.82-.263,1.1,1.1,0,0,0-1,.533V15h-2.3V7.6Zm13.139,5.318a.532.532,0,0,0-.308-.472,4.679,4.679,0,0,0-1.169-.369,5.33,5.33,0,0,1-1.422-.5,2.382,2.382,0,0,1-.854-.755A1.8,1.8,0,0,1,75.387,9.8a2.044,2.044,0,0,1,.841-1.678,3.464,3.464,0,0,1,2.2-.66,3.837,3.837,0,0,1,2.352.663,2.074,2.074,0,0,1,.889,1.743H79.358q0-.889-.937-.889a.928.928,0,0,0-.608.2.624.624,0,0,0-.246.5.573.573,0,0,0,.3.5,2.842,2.842,0,0,0,.96.314,8.3,8.3,0,0,1,1.159.294,2.105,2.105,0,0,1,1.668,2.058,1.937,1.937,0,0,1-.9,1.647,3.942,3.942,0,0,1-2.328.636,4.023,4.023,0,0,1-1.7-.342,2.835,2.835,0,0,1-1.162-.93,2.105,2.105,0,0,1-.417-1.237h2.153a.89.89,0,0,0,.342.749,1.406,1.406,0,0,0,.841.236,1.106,1.106,0,0,0,.708-.191A.612.612,0,0,0,79.434,12.922Zm6.877,2.215a3.8,3.8,0,0,1-2.755-1.015A3.506,3.506,0,0,1,82.5,11.479v-.191a4.542,4.542,0,0,1,.42-2A3.076,3.076,0,0,1,84.15,7.942a3.7,3.7,0,0,1,1.914-.475,3.2,3.2,0,0,1,2.461.967,3.8,3.8,0,0,1,.9,2.7v.9h-4.58a1.66,1.66,0,0,0,.54.978,1.607,1.607,0,0,0,1.08.355,2.07,2.07,0,0,0,1.709-.766l1.053,1.244a2.943,2.943,0,0,1-1.22.947A4.124,4.124,0,0,1,86.311,15.137Zm-.26-5.893q-1.012,0-1.2,1.34h2.324v-.178a1.141,1.141,0,0,0-.28-.858A1.115,1.115,0,0,0,86.051,9.244ZM92.47,7.6l.075.868a2.508,2.508,0,0,1,2.112-1,2.11,2.11,0,0,1,1.726.69,3.287,3.287,0,0,1,.591,2.078V15H94.664V10.331a1.248,1.248,0,0,0-.226-.824,1.044,1.044,0,0,0-.82-.263,1.1,1.1,0,0,0-1,.533V15h-2.3V7.6Zm9.652,5.318a.532.532,0,0,0-.308-.472,4.679,4.679,0,0,0-1.169-.369,5.33,5.33,0,0,1-1.422-.5,2.382,2.382,0,0,1-.854-.755A1.8,1.8,0,0,1,98.075,9.8a2.044,2.044,0,0,1,.841-1.678,3.464,3.464,0,0,1,2.2-.66,3.837,3.837,0,0,1,2.352.663,2.074,2.074,0,0,1,.889,1.743h-2.311q0-.889-.937-.889a.928.928,0,0,0-.608.2.624.624,0,0,0-.246.5.573.573,0,0,0,.3.5,2.842,2.842,0,0,0,.96.314,8.3,8.3,0,0,1,1.159.294,2.105,2.105,0,0,1,1.668,2.058,1.937,1.937,0,0,1-.9,1.647,3.942,3.942,0,0,1-2.328.636,4.023,4.023,0,0,1-1.7-.342,2.835,2.835,0,0,1-1.162-.93,2.105,2.105,0,0,1-.417-1.237H100a.89.89,0,0,0,.342.749,1.406,1.406,0,0,0,.841.236,1.106,1.106,0,0,0,.708-.191A.612.612,0,0,0,102.122,12.922Zm3.008-1.688a4.366,4.366,0,0,1,.431-1.972,3.08,3.08,0,0,1,1.237-1.33,3.726,3.726,0,0,1,1.894-.465A3.4,3.4,0,0,1,111.31,8.5a3.948,3.948,0,0,1,.957,2.8v.082a3.83,3.83,0,0,1-.96,2.745,3.41,3.41,0,0,1-2.6,1.015,3.449,3.449,0,0,1-2.536-.947,3.7,3.7,0,0,1-1.032-2.567Zm2.3.144a2.752,2.752,0,0,0,.321,1.5,1.07,1.07,0,0,0,.95.479q1.23,0,1.258-1.894v-.232q0-1.989-1.271-1.989-1.155,0-1.251,1.716Zm10.322-1.688L117,9.634a1.363,1.363,0,0,0-1.395.684V15h-2.3V7.6h2.16l.075.95a1.784,1.784,0,0,1,1.62-1.087,2.246,2.246,0,0,1,.643.082ZM121.017,15h-2.311V7.6h2.311Zm-2.447-9.3a1.028,1.028,0,0,1,.355-.807,1.511,1.511,0,0,1,1.846,0,1.028,1.028,0,0,1,.355.807,1.028,1.028,0,0,1-.355.807,1.511,1.511,0,0,1-1.846,0A1.028,1.028,0,0,1,118.569,5.7ZM126.6,15a2.6,2.6,0,0,1-.219-.663,2.142,2.142,0,0,1-1.777.8,2.624,2.624,0,0,1-1.777-.632,2.013,2.013,0,0,1-.731-1.589,2.069,2.069,0,0,1,.889-1.818,4.527,4.527,0,0,1,2.584-.615h.711v-.39q0-1.019-.882-1.019a.719.719,0,0,0-.82.807h-2.3a2.068,2.068,0,0,1,.913-1.743,3.832,3.832,0,0,1,2.328-.67,3.363,3.363,0,0,1,2.235.69,2.4,2.4,0,0,1,.841,1.894v3.274a3.353,3.353,0,0,0,.314,1.559V15Zm-1.442-1.5a1.285,1.285,0,0,0,.714-.185,1.157,1.157,0,0,0,.407-.417V11.712h-.67q-1.2,0-1.2,1.08a.659.659,0,0,0,.212.509A.767.767,0,0,0,125.159,13.5ZM132.3,15h-2.311V4.5H132.3Z" transform="translate(1041.577 3465)" fill="#12263f"/>
    </g>
  </g>
</svg>
