<svg height="82" viewBox="0 0 82 82" width="82" xmlns="http://www.w3.org/2000/svg"><g fill="#fff" stroke="#ffce79" stroke-linejoin="round" stroke-width="5"><circle cx="41" cy="40.999" r="36" stroke="none"/><circle cx="41" cy="40.999" fill="none" r="38.5"/></g><path d="m11.982 331.252-.944-.226a4.612 4.612 0 0 1 -3.409-5.56l.519-2.161a.192.192 0 0 1 .231-.142l.752.18a4.617 4.617 0 0 1 3.412 5.566z" fill="#80d261" transform="translate(10.508 -276.576)"/><path d="m282.487 331.252.944-.226a4.612 4.612 0 0 0 3.409-5.56l-.519-2.161a.192.192 0 0 0 -.231-.142l-.752.18a4.617 4.617 0 0 0 -3.412 5.566z" fill="#80d261" transform="translate(-237.481 -276.576)"/><path d="m152.738 23.053h-4.478v-11.17a2.3 2.3 0 0 1 .748-1.7l2.766-2.531a.575.575 0 0 1 .964.425z" fill="#80d261" transform="translate(-116.751 8.807)"/><path d="m151.406 10.184 1.333-1.219v-.887a.575.575 0 0 0 -.964-.425l-2.766 2.531a2.3 2.3 0 0 0 -.748 1.7v11.17h2.4v-11.172a2.3 2.3 0 0 1 .745-1.698z" fill="#68ca44" transform="translate(-116.751 8.808)"/><path d="m45.682 195.838-.957-.16a4.612 4.612 0 0 1 -3.786-5.31l.367-2.192a.192.192 0 0 1 .221-.157l.763.128a4.617 4.617 0 0 1 3.791 5.316z" fill="#80d261" transform="translate(-19.664 -154.394)"/><path d="m250.451 197.581.957-.16a4.612 4.612 0 0 0 3.786-5.31l-.367-2.192a.192.192 0 0 0 -.221-.157l-.763.128a4.617 4.617 0 0 0 -3.791 5.316z" fill="#80d261" transform="translate(-208.724 -155.97)"/><path d="m51.759 103.9v-4.257a.575.575 0 0 0 -.945-.441l-2.575 2.159a.575.575 0 0 1 -.595.089l-2.44-1.037a.575.575 0 0 0 -.8.53v2.678a2.788 2.788 0 0 1 -1.061 2.2c-5 3.912-8.558 13.368-8.558 19.01a13.122 13.122 0 0 0 26.244 0c0-5.537-3.43-14.748-8.281-18.787a2.778 2.778 0 0 1 -.989-2.144z" fill="#ee6161" transform="translate(-14.158 -73.976)"/><path d="m107.826 252.317a6.762 6.762 0 0 1 1.787-5.033.193.193 0 0 1 .308.008l3.286 4.667a.192.192 0 0 1 -.21.295 6.914 6.914 0 0 0 -4.891.205.191.191 0 0 1 -.28-.142z" fill="#80d261" transform="translate(-80.164 -207.913)"/><path d="m83.479 357.283c-.1-.755-.137-2.873 1.944-5.476a.209.209 0 0 1 .335.009l3.575 5.078a.209.209 0 0 1 -.229.32 7.523 7.523 0 0 0 -5.321.223.208.208 0 0 1 -.304-.154z" fill="#80d261" transform="translate(-58.15 -302.407)"/><path d="m200.712 288.637a6.716 6.716 0 0 0 -1.775-5 .191.191 0 0 0 -.306.008l-3.264 4.635a.19.19 0 0 0 .209.293 6.866 6.866 0 0 1 4.857.2.19.19 0 0 0 .279-.136z" fill="#80d261" transform="translate(-159.309 -240.782)"/><path d="m180.857 394.224c.1-.755.137-2.873-1.944-5.476a.21.21 0 0 0 -.335.009l-3.578 5.078a.209.209 0 0 0 .229.321 7.523 7.523 0 0 1 5.321.223.208.208 0 0 0 .307-.155z" fill="#80d261" transform="translate(-140.894 -335.805)"/><path d="m176.75 198.821a4.931 4.931 0 0 1 1.3-3.67.14.14 0 0 1 .224.006l2.4 3.4a.14.14 0 0 1 -.153.215 5.042 5.042 0 0 0 -3.567.15.139.139 0 0 1 -.204-.101z" fill="#80d261" transform="translate(-142.487 -160.797)"/><path d="m271.942 382.079h10.946a.77.77 0 0 1 .765.828 11.741 11.741 0 0 1 -23.422 0 .77.77 0 0 1 .765-.828z" fill="#e94444" transform="translate(-217.982 -329.847)"/><path d="m303.66 382.079h8.349a8.349 8.349 0 1 1 -16.7 0z" fill="#ffefd2" transform="translate(-249.699 -329.847)"/><path d="m37.181 137.07c0-5.642 3.561-15.1 8.558-19.01a2.787 2.787 0 0 0 1.061-2.2v-2.529l-1.6-.679a.575.575 0 0 0 -.8.529v2.678a2.788 2.788 0 0 1 -1.061 2.2c-5 3.912-8.558 13.368-8.558 19.01a13.122 13.122 0 0 0 13.119 13.123c.4 0 .8-.019 1.2-.055a13.123 13.123 0 0 1 -11.919-13.067z" fill="#e94444" transform="translate(-14.157 -86.219)"/><path d="m262.627 382.908a.77.77 0 0 1 .765-.828h-2.4a.77.77 0 0 0 -.765.828 11.8 11.8 0 0 0 11.711 10.912 11.664 11.664 0 0 0 1.2-.062 11.815 11.815 0 0 1 -10.511-10.85z" fill="#d83131" transform="translate(-217.98 -329.848)"/><path d="m297.708 382.079h-2.4a8.389 8.389 0 0 0 8.349 8.349 8.28 8.28 0 0 0 1.2-.088 8.4 8.4 0 0 1 -7.149-8.261z" fill="#fee8c7" transform="translate(-249.698 -329.847)"/><g fill="none" stroke="#000" stroke-linecap="round" stroke-linejoin="round" stroke-miterlimit="10"><path d="m10.58 330.891a4.61 4.61 0 0 1 -2.95-5.424l.518-2.162a.193.193 0 0 1 .232-.142l.752.18a4.64 4.64 0 0 1 1.349.56" transform="translate(10.509 -276.577)"/><path d="m304.642 323.9a4.64 4.64 0 0 1 1.349-.56l.753-.18a.192.192 0 0 1 .231.142l.519 2.162a4.594 4.594 0 0 1 -.469 3.342" transform="translate(-258.135 -276.577)"/><path d="m148.262 17.824v-5.943a2.3 2.3 0 0 1 .748-1.7l2.766-2.531a.575.575 0 0 1 .964.425v8.9" transform="translate(-116.753 8.809)"/><path d="m42.788 194.873a4.609 4.609 0 0 1 -1.852-4.5l.367-2.192a.191.191 0 0 1 .221-.157l.763.128a4.606 4.606 0 0 1 3.07 1.98" transform="translate(-19.662 -154.396)"/><path d="m257.462 191.974a4.6 4.6 0 0 1 3.138-2.086l.763-.129a.192.192 0 0 1 .221.158l.367 2.191a4.612 4.612 0 0 1 -1.988 4.6" transform="translate(-215.48 -155.969)"/><path d="m75.982 451.583a13.12 13.12 0 0 0 19.645-1.483" transform="translate(-51.405 -391.348)"/><path d="m36.65 131.579a13.054 13.054 0 0 1 -1.868-6.752c0-5.642 3.561-15.1 8.558-19.01a2.789 2.789 0 0 0 1.061-2.2v-2.679a.576.576 0 0 1 .8-.529l2.441 1.038a.576.576 0 0 0 .595-.088l2.575-2.159a.575.575 0 0 1 .945.441v4.259a2.777 2.777 0 0 0 .989 2.138c4.851 4.038 8.28 13.25 8.28 18.786a13.148 13.148 0 0 1 -.072 1.382" transform="translate(-14.156 -73.977)"/><path d="m107.826 252.319a6.762 6.762 0 0 1 1.787-5.033.193.193 0 0 1 .308.008l3.286 4.667a.192.192 0 0 1 -.21.295 6.913 6.913 0 0 0 -4.891.205.191.191 0 0 1 -.28-.142z" transform="translate(-80.164 -207.915)"/><path d="m83.479 357.285c-.1-.755-.137-2.873 1.944-5.476a.209.209 0 0 1 .335.009l3.575 5.078a.209.209 0 0 1 -.229.32 7.522 7.522 0 0 0 -5.321.223.208.208 0 0 1 -.304-.154z" transform="translate(-58.15 -302.409)"/><path d="m200.712 288.639a6.716 6.716 0 0 0 -1.775-5 .191.191 0 0 0 -.306.008l-3.264 4.635a.19.19 0 0 0 .209.293 6.866 6.866 0 0 1 4.857.2.19.19 0 0 0 .279-.136z" transform="translate(-159.309 -240.784)"/><path d="m180.857 394.226c.1-.755.137-2.873-1.944-5.476a.21.21 0 0 0 -.335.009l-3.578 5.078a.209.209 0 0 0 .229.32 7.523 7.523 0 0 1 5.321.223.208.208 0 0 0 .307-.154z" transform="translate(-140.894 -335.807)"/><path d="m176.75 198.823a4.931 4.931 0 0 1 1.3-3.67.14.14 0 0 1 .224.006l2.4 3.4a.14.14 0 0 1 -.153.215 5.042 5.042 0 0 0 -3.567.15.139.139 0 0 1 -.204-.101z" transform="translate(-142.487 -160.799)"/><path d="m277.978 382.084h4.912a.77.77 0 0 1 .765.829 11.74 11.74 0 0 1 -23.422 0 .769.769 0 0 1 .764-.829h13.624" transform="translate(-217.984 -329.851)"/><path d="m295.312 382.084a8.349 8.349 0 0 0 16.7 0" transform="translate(-249.7 -329.851)"/><path d="m50.364 54.726h.48"/><path d="m53.721 54.726h.48"/><path d="m57.077 54.726h.48"/><path d="m52.042 57.439h.48"/><path d="m55.399 57.439h.48"/></g></svg>