<svg height="75.948" viewBox="0 0 75.948 75.948" width="75.948" xmlns="http://www.w3.org/2000/svg"><path d="m0 0h75.948v75.948h-75.948z" fill="none"/><g transform="translate(4.666 3.5)"><path d="m17 36h32.5v17.333h-32.5z" fill="#ffde55" transform="translate(.083 2.834)"/><path d="m49.5 35.982v2.1h-32.5v-2.1a6.5 6.5 0 0 1 4.084-6.034l6.749-2.7v-16.248h10.834v16.25l6.749 2.7a6.5 6.5 0 0 1 4.084 6.032z" fill="#44ffe8" transform="translate(.083 .75)"/><path d="m38.083 11.667h-13a1.083 1.083 0 0 1 -1.083-1.084v-6.5a1.083 1.083 0 0 1 1.083-1.083h15.167a1.083 1.083 0 0 1 1.083 1.083v6.5a1.083 1.083 0 0 1 -1.083 1.083z" fill="#acabb1" transform="translate(.667 .083)"/><circle cx="33.334" cy="47.5" fill="#ff5023" r="4"/><path d="m49.5 52v5.417a4.333 4.333 0 0 1 -4.333 4.333h-23.834a4.333 4.333 0 0 1 -4.333-4.333v-5.417z" fill="#44ffe8" transform="translate(.083 4.167)"/><path d="m27 11h10.833v2.167h-10.833z" fill="#00eed1" transform="translate(.917 .75)"/><path d="m45.9 29.692-6.067-2.426v-14.433h1.083a2.167 2.167 0 0 0 2.167-2.167v-6.5a2.167 2.167 0 0 0 -2.166-2.166h-15.167a2.167 2.167 0 0 0 -2.167 2.167v6.5a2.167 2.167 0 0 0 2.167 2.167h1.083v14.433l-6.067 2.426a7.549 7.549 0 0 0 -4.766 7.041v24.85a5.423 5.423 0 0 0 5.417 5.416h23.833a5.423 5.423 0 0 0 5.417-5.417v-24.849a7.55 7.55 0 0 0 -4.767-7.042zm-20.15-25.525h15.167v6.5h-15.167zm-4.178 27.538 6.748-2.7a1.083 1.083 0 0 0 .68-1.005v-15.167h8.667v15.167a1.083 1.083 0 0 0 .681 1.006l6.752 2.694a5.393 5.393 0 0 1 3.4 5.03v1.02h-30.333v-1.016a5.391 5.391 0 0 1 3.4-5.029zm26.928 8.212v15.167h-30.333v-15.167zm-3.25 24.917h-23.833a3.25 3.25 0 0 1 -3.25-3.25v-4.334h30.333v4.333a3.25 3.25 0 0 1 -3.25 3.251z"/><path d="m31 6h2.167v2.167h-2.167z" transform="translate(1.25 .333)"/><path d="m35 6h2.167v2.167h-2.167z" transform="translate(1.583 .333)"/><path d="m27 6h2.167v2.167h-2.167z" transform="translate(.917 .333)"/><path d="m32.417 49.833a5.417 5.417 0 1 0 -5.417-5.416 5.417 5.417 0 0 0 5.417 5.417zm0-8.667a3.25 3.25 0 1 1 -3.25 3.25 3.25 3.25 0 0 1 3.25-3.249z" transform="translate(.917 3.084)"/></g></svg>