<svg height="251" viewBox="0 0 838 251" width="838" xmlns="http://www.w3.org/2000/svg" xmlns:xlink="http://www.w3.org/1999/xlink"><filter id="a" filterUnits="userSpaceOnUse" height="251" width="838" x="0" y="0"><feOffset dy="3"/><feGaussianBlur result="blur" stdDeviation="3"/><feFlood flood-opacity=".161"/><feComposite in2="blur" operator="in"/><feComposite in="SourceGraphic"/></filter><radialGradient id="b" cx=".5" cy=".5" gradientUnits="objectBoundingBox" r=".5"><stop offset="0" stop-color="#fff"/><stop offset="1" stop-color="#fff7ea"/></radialGradient><clipPath id="c"><path d="m0-682.665h67.818v67.818h-67.818z" transform="translate(0 682.665)"/></clipPath><g filter="url(#a)" transform="translate(.003 -.002)"><path d="m17 0h786a17 17 0 0 1 17 17v216a0 0 0 0 1 0 0h-803a17 17 0 0 1 -17-17v-199a17 17 0 0 1 17-17z" fill="#ebede7" transform="translate(9 6)"/></g><path d="m114 94.758h610" fill="none" stroke="#73964a" stroke-dasharray="15" stroke-linecap="round" stroke-width="5"/><g transform="translate(-372.571 -4132.242)"><g fill="url(#b)" stroke="#fff" stroke-width="2" transform="translate(440.571 4178)"><circle cx="49.5" cy="49.5" r="49.5" stroke="none"/><circle cx="49.5" cy="49.5" fill="none" r="48.5"/></g><g fill="none" opacity=".43" stroke="#59836b" stroke-width="10"><circle cx="490.071" cy="4227.5" r="64.5" stroke="none"/><circle cx="490.071" cy="4227.5" fill="none" r="59.5"/></g></g><path d="m31.645 43.355a4.1 4.1 0 0 1 1.833.433 5.062 5.062 0 0 0 2.266.535 4.117 4.117 0 0 0 3.762-2.444 32.309 32.309 0 0 0 2.784-13.123v-.075a4.682 4.682 0 0 0 -4.682-4.681 12.887 12.887 0 0 0 -4.077.662 5.969 5.969 0 0 1 -3.774 0 12.887 12.887 0 0 0 -4.075-.662 4.682 4.682 0 0 0 -4.682 4.682v.075a32.31 32.31 0 0 0 2.784 13.122 4.117 4.117 0 0 0 3.762 2.445 5.063 5.063 0 0 0 2.267-.536 4.1 4.1 0 0 1 1.832-.433z" fill="#e73844" transform="translate(85.355 63.016)"/><path d="m42.355 28.682a4.682 4.682 0 0 0 -4.682-4.682 12.887 12.887 0 0 0 -4.077.662 5.969 5.969 0 0 1 -3.774 0 12.887 12.887 0 0 0 -4.076-.662 4.636 4.636 0 0 0 -2.183.563 4.636 4.636 0 0 0 -.563 2.183v.075a32.31 32.31 0 0 0 2.784 13.122 4.117 4.117 0 0 0 3.762 2.445 5.063 5.063 0 0 0 2.267-.536 4.1 4.1 0 0 1 3.665 0 5.062 5.062 0 0 0 2.266.535 4.111 4.111 0 0 0 1.769-.4c.017-.037.041-.069.057-.106a32.309 32.309 0 0 0 2.784-13.122z" fill="#ff4d55" transform="translate(85.29 63.016)"/><path d="m140.024 65.557h6.739v17.408h-6.739z" fill="#a5badb"/><path d="m58 10.71a6.774 6.774 0 0 0 4.839 6.49v-15.2h-4.839z" fill="#d7e0ef" transform="translate(84.161 63.726)"/><path d="m8 14.59a1.935 1.935 0 0 1 .794-1.558l9.852-7.161 11.1-3.416a10.325 10.325 0 0 1 5.69-.106l11.341 3.019a14.4 14.4 0 0 0 3.8.5h3.871v9.677l-3.387 2.265a9.62 9.62 0 0 1 -10.645 0l-3.387-2.265-10.371-2.59a1.636 1.636 0 0 1 -1.239-1.587 1.589 1.589 0 0 1 .019-.223l-1.955-.435-9.871 4.935a8.264 8.264 0 0 1 -3.687.871 1.916 1.916 0 0 1 -1.925-1.926z" fill="#d08d78" transform="translate(85.774 63.726)"/><path d="m46.81 5.368-11.341-3.02a10.325 10.325 0 0 0 -5.69.106l-11.1 3.416-9.655 7.019a1.9 1.9 0 0 0 1.9 1.692 8.264 8.264 0 0 0 3.687-.871l9.871-4.935 1.955.435a1.588 1.588 0 0 0 -.019.223 1.636 1.636 0 0 0 1.238 1.587l10.374 2.594 3.387 2.265a9.62 9.62 0 0 0 10.645 0l2.419-1.617v-8.391h-3.867a14.4 14.4 0 0 1 -3.8-.5z" fill="#f2b9a1" transform="translate(85.741 63.726)"/><path d="m37.806 19h-1.935a3.871 3.871 0 0 0 -3.871 3.871v1.935h1.935a3.871 3.871 0 0 0 3.871-3.871z" fill="#8dbf00" transform="translate(85 63.177)"/><path d="m33.935 24.806a3.871 3.871 0 0 0 3.871-3.871v-1.935l-5.806 5.806z" fill="#82ab00" transform="translate(85 63.177)"/><path d="m54.452 48.829a1.935 1.935 0 0 1 -.794 1.558l-9.852 7.161-11.1 3.416a10.325 10.325 0 0 1 -5.69.106l-11.342-3.018a14.4 14.4 0 0 0 -3.8-.5h-3.874v-9.681l3.387-2.265a9.62 9.62 0 0 1 10.645 0l3.387 2.265 10.374 2.594a1.636 1.636 0 0 1 1.239 1.587 1.587 1.587 0 0 1 -.019.223l1.955.435 9.871-4.935a8.264 8.264 0 0 1 3.687-.871 1.916 1.916 0 0 1 1.926 1.926z" fill="#d08d78" transform="translate(85.774 62.371)"/><path d="m17.674 55.148 11.342 3.019a10.325 10.325 0 0 0 5.69-.106l11.1-3.416 8.647-6.285a1.9 1.9 0 0 0 -1.863-1.46 8.264 8.264 0 0 0 -3.687.871l-9.871 4.939-1.955-.435a1.587 1.587 0 0 0 .019-.223 1.636 1.636 0 0 0 -1.238-1.587l-10.374-2.594-3.384-2.265a9.62 9.62 0 0 0 -10.645 0l-1.455.968v4.2a3.871 3.871 0 0 0 3.871 3.871 14.4 14.4 0 0 1 3.8.5z" fill="#f2b9a1" transform="translate(85.71 62.371)"/><path d="m87.237 106.551h6.739v17.408h-6.739z" fill="#a5badb"/><path d="m35.916 54.872a2.6 2.6 0 0 0 2.548-2.161l-.942-.21-.959-.13a.655.655 0 0 1 -.647.565 21.933 21.933 0 0 1 -4.251-.417l-7.478-1.5-.387 1.9 7.483 1.5a23.779 23.779 0 0 0 4.634.455z" fill="#d08d78" transform="translate(85.265 62.144)"/><path d="m3 52.71a6.774 6.774 0 0 0 4.839 6.49v-15.2h-4.839z" fill="#d7e0ef" transform="translate(85.935 62.371)"/><path d="m27.6 9a2.6 2.6 0 0 0 -2.548 2.161l.942.21.959.13a.655.655 0 0 1 .647-.565 21.933 21.933 0 0 1 4.251.417l7.478 1.5.379-1.9-7.479-1.5a23.779 23.779 0 0 0 -4.629-.453z" fill="#d08d78" transform="translate(85.224 63.5)"/><path d="m32.848 28.655h-1.935v-2.67a8.88 8.88 0 0 0 -2.62-6.323l1.368-1.368a10.8 10.8 0 0 1 3.187 7.692z" fill="#785349" transform="translate(85.12 63.2)"/><path d="m31.821 29.876a7.333 7.333 0 0 1 -4.083-1.236l-1.293-.862 1.074-1.61 1.293.862a5.508 5.508 0 0 0 6.017 0l1.293-.862 1.074 1.61-1.293.862a7.333 7.333 0 0 1 -4.082 1.236z" fill="#e73844" transform="translate(85.179 62.946)"/><path d="m52.3 45.9a9.271 9.271 0 0 0 -4.123.973l-9.564 4.782-.91-.2a2.59 2.59 0 0 0 -1.9-1.961l-10.213-2.553-3.25-2.168a10.728 10.728 0 0 0 -11.71 0l-1.888 1.258v-2.063a.968.968 0 0 0 -.968-.968h-6.774v1.935h5.806v15.484h-5.806v1.935h6.774a.968.968 0 0 0 .968-.968v-2.9h2.9a13.82 13.82 0 0 1 3.556.465l11.34 3.023a11.262 11.262 0 0 0 6.225-.117l11.1-3.414a.957.957 0 0 0 .285-.142l9.852-7.163a2.892 2.892 0 0 0 -1.7-5.238zm.562 3.665-9.723 7.07-10.939 3.37a9.387 9.387 0 0 1 -5.158.1l-11.342-3.024a15.693 15.693 0 0 0 -4.055-.532h-2.9v-8.193l2.96-1.969a8.759 8.759 0 0 1 9.563 0l3.387 2.261a.968.968 0 0 0 .3.134l10.377 2.594a.663.663 0 0 1 -.157 1.3 21.667 21.667 0 0 1 -4.244-.42l-7.481-1.5-.387 1.9 7.48 1.5a23.606 23.606 0 0 0 4.632.459 2.592 2.592 0 0 0 2.211-1.245l1.148.255a1 1 0 0 0 .643-.079l9.871-4.935a7.317 7.317 0 0 1 3.255-.769.956.956 0 0 1 .562 1.729z" transform="translate(86 62.403)"/><path d="m53.452 1.968v2.9h-2.9a13.819 13.819 0 0 1 -3.556-.465l-11.344-3.016a11.323 11.323 0 0 0 -6.225.117l-11.1 3.409a.957.957 0 0 0 -.285.142l-9.855 7.17a2.892 2.892 0 0 0 1.7 5.226 9.27 9.27 0 0 0 4.121-.967l9.57-4.784.91.2a2.59 2.59 0 0 0 1.9 1.961l10.212 2.553 3.251 2.168a10.557 10.557 0 0 0 11.71 0l1.888-1.258v2.063a.968.968 0 0 0 .968.968h6.774v-1.936h-5.804v-15.484h5.806v-1.935h-6.774a.968.968 0 0 0 -.967.968zm-2.96 15a8.759 8.759 0 0 1 -9.563 0l-3.387-2.261a.968.968 0 0 0 -.3-.134l-10.381-2.59a.663.663 0 0 1 .161-1.306 21.668 21.668 0 0 1 4.244.42l7.481 1.5.379-1.9-7.48-1.497a23.606 23.606 0 0 0 -4.628-.459 2.592 2.592 0 0 0 -2.211 1.245l-1.148-.255a.981.981 0 0 0 -.643.079l-9.871 4.935a7.317 7.317 0 0 1 -3.255.769.956.956 0 0 1 -.562-1.729l9.723-7.07 10.949-3.365a9.366 9.366 0 0 1 5.158-.1l11.34 3.021a15.693 15.693 0 0 0 4.055.532h2.9v8.197z" transform="translate(85.806 63.758)"/><path d="m25.65 22.839a5.673 5.673 0 0 0 -5.65 5.724 33.063 33.063 0 0 0 2.868 13.515 5.089 5.089 0 0 0 4.646 3.022 6.077 6.077 0 0 0 2.7-.637 3.184 3.184 0 0 1 2.8 0 6.077 6.077 0 0 0 2.7.637 5.089 5.089 0 0 0 4.645-3.018 33.152 33.152 0 0 0 2.868-13.59 5.654 5.654 0 0 0 -5.259-5.63 4.79 4.79 0 0 0 .42-1.955v-1.939a.968.968 0 0 0 -.969-.968h-1.935a4.825 4.825 0 0 0 -4.295 2.658 10.921 10.921 0 0 0 -1.794-2.375l-1.368 1.368a8.885 8.885 0 0 1 2.3 3.968c-.1-.025-.194-.04-.29-.072a13.828 13.828 0 0 0 -4.386-.709zm6.931 0a2.9 2.9 0 0 1 2.9-2.9h.968v.961a2.9 2.9 0 0 1 -2.9 2.9h-.968zm-1.935 3.137v1.591a5.323 5.323 0 0 1 -2.041-.8l-1.293-.862-1.074 1.61 1.293.862a7.363 7.363 0 0 0 8.166 0l1.293-.862-1.074-1.61-1.293.862a5.323 5.323 0 0 1 -2.041.8v-1.592c0-.078-.01-.155-.012-.233h.979a4.8 4.8 0 0 0 2.782-.892 11.88 11.88 0 0 1 1.245-.075 3.735 3.735 0 0 1 3.714 3.789 31.129 31.129 0 0 1 -2.7 12.729 3.149 3.149 0 0 1 -2.876 1.87 4.113 4.113 0 0 1 -1.833-.433 5.157 5.157 0 0 0 -4.533 0 4.113 4.113 0 0 1 -1.833.433 3.149 3.149 0 0 1 -2.876-1.87 31.218 31.218 0 0 1 -2.7-12.8 3.719 3.719 0 0 1 3.714-3.714 11.9 11.9 0 0 1 3.774.612 6.951 6.951 0 0 0 1.21.277c0 .1.012.208.012.313z" transform="translate(85.387 63.21)"/><g transform="translate(41.429 -4132.242)"><g fill="url(#b)" stroke="#fff" stroke-width="2" transform="translate(440.571 4178)"><circle cx="49.5" cy="49.5" r="49.5" stroke="none"/><circle cx="49.5" cy="49.5" fill="none" r="48.5"/></g><g fill="none" opacity=".43" stroke="#59836b" stroke-width="10"><circle cx="490.071" cy="4227.5" r="64.5" stroke="none"/><circle cx="490.071" cy="4227.5" fill="none" r="59.5"/></g></g><g clip-path="url(#c)" transform="translate(498.001 61.758)"><path d="m0-149.206a32.813 32.813 0 0 0 9.641 23.275l6.688-6.688a23.385 23.385 0 0 1 -6.871-16.587 23.349 23.349 0 0 1 3.142-11.729l-8.2-4.729a32.762 32.762 0 0 0 -4.4 16.458" fill="#57a4ff" transform="translate(.993 183.116)"/><path d="m-258.482-85.742v-9.458a32.9 32.9 0 0 0 -28.511 16.458l8.192 4.729a23.448 23.448 0 0 1 20.319-11.729" fill="#ffb655" transform="translate(292.391 96.193)"/><path d="m0 0v9.457a23.458 23.458 0 0 1 23.455 23.459h9.458a32.916 32.916 0 0 0 -32.913-32.916" fill="#95d6a6" transform="translate(33.913 .993)"/><path d="m-211.015-212.674a23.384 23.384 0 0 1 -16.588-6.871l-6.688 6.688a32.813 32.813 0 0 0 23.275 9.641 32.916 32.916 0 0 0 32.916-32.917h-9.458a23.458 23.458 0 0 1 -23.458 23.458" fill="#ffe477" transform="translate(244.924 270.042)"/><path d="m-140.7-18.953-.922.923-.954-.954a6.991 6.991 0 0 0 -10.336.467 14.507 14.507 0 0 0 -3.307 9.26 14.621 14.621 0 0 0 14.719 14.549 14.568 14.568 0 0 0 14.421-14.568 14.507 14.507 0 0 0 -3.223-9.14 7 7 0 0 0 -10.394-.537" fill="#ff3f62" transform="translate(175.557 45.142)"/><path d="m0-40.844 1.069.287a4.638 4.638 0 0 0 5.682-3.277l.287-1.066-1.069-.29a4.638 4.638 0 0 0 -5.682 3.277z" fill="#95d6a6" transform="translate(34.439 63.225)"/><path d="m-36.026-149.206a32.773 32.773 0 0 1 3.462-14.708l-3.032-1.75a32.762 32.762 0 0 0 -4.404 16.458 32.813 32.813 0 0 0 9.641 23.275l2.073-2.069a32.781 32.781 0 0 1 -7.74-21.2" fill="#006df0" transform="translate(40.993 183.116)"/><path d="m-36.026-149.211a32.928 32.928 0 0 1 24.537-16.22v-.238a32.9 32.9 0 0 0 -28.511 16.458l8.192 4.729c.333-.575.691-1.133 1.07-1.676z" fill="#ff7956" transform="translate(45.398 166.662)"/><path d="m-36.03-85.742v-9.218a33.257 33.257 0 0 0 -3.97-.24v9.457a23.458 23.458 0 0 1 23.455 23.459h3.974a23.458 23.458 0 0 0 -23.459-23.458" fill="#64c37d" transform="translate(73.913 96.193)"/><path d="m-18.013-212.674a23.458 23.458 0 0 0 23.458-23.459h-3.974a23.459 23.459 0 0 1 -21.471 23.374c.655.055 1.318.085 1.987.085" fill="#ffb655" transform="translate(55.896 270.042)"/><path d="m-36.026-60.63 4.819-4.819a23.612 23.612 0 0 1 -2.106-1.868l-6.687 6.687a32.813 32.813 0 0 0 23.275 9.641c.667 0 1.329-.022 1.987-.061a32.807 32.807 0 0 1 -21.288-9.58" fill="#ffb655" transform="translate(50.634 117.813)"/><path d="m-36.026-106.834a14.507 14.507 0 0 1 3.306-9.26 6.87 6.87 0 0 1 3.379-2.238 6.956 6.956 0 0 0 -7.352 2.238 14.507 14.507 0 0 0 -3.307 9.26 14.621 14.621 0 0 0 14.718 14.549 14.684 14.684 0 0 0 1.848-.135 14.633 14.633 0 0 1 -12.593-14.414" fill="#c70024" transform="translate(59.341 142.719)"/><path d="m-24.017-40.844.287-1.069a4.635 4.635 0 0 1 3.158-3.243l-.125-.034a4.638 4.638 0 0 0 -5.682 3.277l-.287 1.069 1.069.287a4.615 4.615 0 0 0 2.524-.034z" fill="#64c37d" transform="translate(61.106 63.225)"/><g fill="none" stroke-miterlimit="10" stroke-width="2"><path d="m-140.7-18.953-.922.923-.954-.954a6.991 6.991 0 0 0 -10.336.467 14.507 14.507 0 0 0 -3.307 9.26 14.621 14.621 0 0 0 14.719 14.549 14.568 14.568 0 0 0 14.421-14.568 14.507 14.507 0 0 0 -3.223-9.14 7 7 0 0 0 -10.398-.537z" stroke="#000" transform="translate(175.557 45.142)"/><path d="m0 0v9.729" stroke="#000" transform="translate(33.937 17.383)"/><path d="m0-40.844 1.069.287a4.638 4.638 0 0 0 5.682-3.277l.287-1.066-1.069-.29a4.638 4.638 0 0 0 -5.682 3.277z" stroke="#000" transform="translate(34.439 63.225)"/><path d="m-101 0a11.188 11.188 0 0 1 -3.259 7.922 11.186 11.186 0 0 1 -7.881 3.334" stroke="#fff" stroke-dasharray="15 10 15 10 300" transform="translate(146.163 35.867)"/><path d="m0 0a29.4 29.4 0 0 1 17.654 8.5 29.4 29.4 0 0 1 8.5 17.654" stroke="#fff" stroke-dasharray="15 10 15 10 300" transform="translate(37.202 4.466)"/><path d="m-266.935 0a29.4 29.4 0 0 1 -8.5 17.654 29.429 29.429 0 0 1 -20.947 8.676" stroke="#fff" stroke-dasharray="15 10 15 10 300" transform="translate(330.287 37.202)"/><path d="m-74.608-171.972a23.423 23.423 0 0 1 18.862-9.511v-9.457a32.878 32.878 0 0 0 -27.092 14.218" stroke="#000" transform="translate(89.654 191.934)"/><path d="m0-86.133a23.462 23.462 0 0 1 20.81 23.31h9.458a32.919 32.919 0 0 0 -30.268-32.81" stroke="#000" transform="translate(36.558 96.731)"/><path d="m-422.346 0a23.462 23.462 0 0 1 -23.31 20.809 23.386 23.386 0 0 1 -16.588-6.871l-6.688 6.688a32.812 32.812 0 0 0 23.275 9.641 32.919 32.919 0 0 0 32.812-30.267" stroke="#000" transform="translate(479.565 36.558)"/><path d="m-132.006-281.648a23.359 23.359 0 0 1 -5.1-14.608 23.349 23.349 0 0 1 3.139-11.729l-8.192-4.729a32.762 32.762 0 0 0 -4.4 16.458 32.785 32.785 0 0 0 7.842 21.327" stroke="#000" transform="translate(147.559 330.166)"/></g></g><g transform="translate(-160.571 -4132.242)"><g fill="url(#b)" stroke="#fff" stroke-width="2" transform="translate(440.571 4178)"><circle cx="49.5" cy="49.5" r="49.5" stroke="none"/><circle cx="49.5" cy="49.5" fill="none" r="48.5"/></g><g fill="none" opacity=".43" stroke="#59836b" stroke-width="10"><circle cx="490.071" cy="4227.5" r="64.5" stroke="none"/><circle cx="490.071" cy="4227.5" fill="none" r="59.5"/></g></g><g transform="translate(251.16 24.419)"><g fill-rule="evenodd"><path d="m89.36 113.857 25.113-12.487 25.113 12.487v23.343a2.578 2.578 0 0 1 -1.46 2.357l-23.653 11.761-23.653-11.763a2.578 2.578 0 0 1 -1.46-2.357z" fill="#fcd4a9" transform="translate(-36.027 -54.085)"/><path d="m114.473 219.213-23.653-11.761a2.578 2.578 0 0 1 -1.46-2.357v-23.342l25.113 12.487z" fill="#f0b16e" transform="translate(-36.027 -121.981)"/><path d="m251.031 219.214 23.653-11.761a2.578 2.578 0 0 0 1.46-2.357v-23.342l-25.113 12.487z" fill="#cf8c48" transform="translate(-172.584 -121.982)"/></g><ellipse cx="78.287" cy="50.623" fill="#ffbf31" rx="12.036" ry="12.8"/><path d="m70.294 51.335a1.03 1.03 0 1 1 1.541-1.367l3.541 4 9.45-8.316a1.031 1.031 0 0 1 1.365 1.548l-10.225 8.993a1.032 1.032 0 0 1 -1.453-.09zm31.187 32.784-22.168 11.021v-22.672l23.057-11.468v21.685a1.557 1.557 0 0 1 -.889 1.434zm-47.281-1.434v-21.685l23.052 11.468v22.672l-22.159-11.021a1.557 1.557 0 0 1 -.893-1.434zm24.082-18.176a13.6 13.6 0 0 1 -13.1-9.989l-9.7 4.823 22.8 11.334 22.8-11.335-9.7-4.823a13.613 13.613 0 0 1 -13.105 9.989zm0-25.11a11.525 11.525 0 1 0 11.529 11.525 11.536 11.536 0 0 0 -11.529-11.524zm30.553 13.012a1.028 1.028 0 0 0 1.031-1.03v-10.101a1.029 1.029 0 0 0 -1.031-1.031h-10.1a1.03 1.03 0 1 0 0 2.06h7.618l-11.592 11.591-2.977-1.48a12.023 12.023 0 0 0 .088-1.5 13.587 13.587 0 1 0 -27.091 1.5l-2.969 1.48-11.59-11.59h7.618a1.03 1.03 0 1 0 0-2.06h-10.1a1.029 1.029 0 0 0 -1.031 1.031v10.1a1.031 1.031 0 0 0 2.061 0v-7.614l11.1 11.1-7.152 3.555a1.028 1.028 0 0 0 -.572.923v23.34a3.588 3.588 0 0 0 2.034 3.278l5.69 2.829-11.1 11.1v-7.616a1.031 1.031 0 1 0 -2.061 0v10.1a1.028 1.028 0 0 0 1.031 1.03h10.1a1.03 1.03 0 1 0 0-2.06h-7.618l11.591-11.586 16.012 7.964a1.039 1.039 0 0 0 .916 0l16.02-7.964 11.59 11.587h-7.618a1.03 1.03 0 1 0 0 2.06h10.1a1.028 1.028 0 0 0 1.031-1.03v-10.1a1.031 1.031 0 1 0 -2.061 0v7.613l-11.1-11.1 5.689-2.829a3.588 3.588 0 0 0 2.034-3.278v-23.341a1.028 1.028 0 0 0 -.572-.923l-7.152-3.555 11.1-11.1v7.614a1.028 1.028 0 0 0 1.031 1.03z" fill="#1e2f3f" fill-rule="evenodd"/></g><g transform="translate(239.429 -4132.242)"><g fill="url(#b)" stroke="#fff" stroke-width="2" transform="translate(440.571 4178)"><circle cx="49.5" cy="49.5" r="49.5" stroke="none"/><circle cx="49.5" cy="49.5" fill="none" r="48.5"/></g><g fill="none" opacity=".43" stroke="#59836b" stroke-width="10"><circle cx="490.071" cy="4227.5" r="64.5" stroke="none"/><circle cx="490.071" cy="4227.5" fill="none" r="59.5"/></g></g><circle cx="728.332" cy="69.676" fill="#02c7dd" r="3.361"/><path d="m79.8 57.171q0-.171-.007-.339a.685.685 0 0 1 .47-.682l18.026-5.857a.682.682 0 0 0 .438-.86l-.892-2.733a.682.682 0 0 0 -.86-.438l-18.026 5.855a.686.686 0 0 1 -.781-.274 9.556 9.556 0 0 0 -5.291-3.843.686.686 0 0 1 -.5-.658v-18.955a.683.683 0 0 0 -.683-.683h-2.877a.683.683 0 0 0 -.683.683v18.953a.686.686 0 0 1 -.5.658 9.556 9.556 0 0 0 -5.292 3.845.686.686 0 0 1 -.781.274l-18.027-5.857a.683.683 0 0 0 -.86.438l-.889 2.735a.683.683 0 0 0 .438.86l18.027 5.857a.685.685 0 0 1 .47.682q-.007.169-.007.339a9.5 9.5 0 0 0 2.028 5.878.686.686 0 0 1 .02.828l-11.141 15.335a.683.683 0 0 0 .151.953l2.326 1.69a.683.683 0 0 0 .953-.151l11.14-15.332a.687.687 0 0 1 .794-.237 19.281 19.281 0 0 0 6.541 0 .686.686 0 0 1 .794.237l11.139 15.328a.683.683 0 0 0 .953.151l2.326-1.69a.683.683 0 0 0 .151-.953l-11.141-15.332a.686.686 0 0 1 .02-.828 9.493 9.493 0 0 0 2.033-5.877z" fill="#80d261" transform="translate(658.078 36.249)"/><path d="m160.263 20.016a4.948 4.948 0 0 0 1.2 2.12c1.914 2.374 5.97 5.723 11.122 5.723 5.362 0 9.537-3.628 11.346-6.008a4.289 4.289 0 0 0 .979-1.835 4.289 4.289 0 0 0 -.979-1.835c-1.809-2.38-5.984-6.008-11.346-6.008-5.152 0-9.208 3.349-11.122 5.723a4.948 4.948 0 0 0 -1.2 2.12z" fill="#dcf5f8" transform="translate(555.745 49.66)"/><path d="m224.281 19.093a15.684 15.684 0 0 0 -9.5-5.864 16.627 16.627 0 0 1 5.4 4.5 4.289 4.289 0 0 1 .979 1.835 4.288 4.288 0 0 1 -.979 1.835c-1.809 2.38-5.984 6.008-11.346 6.008a12 12 0 0 1 -1.851-.144 12.914 12.914 0 0 0 5.946 1.509c5.362 0 9.537-3.628 11.346-6.008a4.289 4.289 0 0 0 .979-1.835 4.29 4.29 0 0 0 -.974-1.836z" fill="#a6e7f0" transform="translate(515.397 48.748)"/><circle cx="728.332" cy="69.676" fill="#017297" r="3.361"/><path d="m387.144 147.352a5.765 5.765 0 0 0 -2.375-3.043 5.115 5.115 0 0 1 -2.366-3.665l-.638-5.107a3.808 3.808 0 0 0 -3.778-3.335 3.807 3.807 0 0 0 -3.778 3.335l-.638 5.107a5.115 5.115 0 0 1 -2.366 3.665 5.765 5.765 0 0 0 -2.375 3.043 2.109 2.109 0 0 0 2 2.776h2.041a3.509 3.509 0 0 1 2.807 1.4 2.886 2.886 0 0 0 4.617 0 3.509 3.509 0 0 1 2.807-1.4h2.041a2.109 2.109 0 0 0 2-2.776z" fill="#ffe5c2" transform="translate(375.746 -53.984)"/><path d="m311.592 372.261a6.473 6.473 0 0 1 -6.347-5.2l-2.109-10.547a3.692 3.692 0 0 1 1.01-3.335 3.692 3.692 0 0 1 4.659-.461 5.026 5.026 0 0 0 5.576 0 3.692 3.692 0 0 1 4.659.461 3.692 3.692 0 0 1 1.01 3.335l-2.109 10.547a6.473 6.473 0 0 1 -6.349 5.2z" fill="#f79595" transform="translate(432.438 -243.858)"/><path d="m338.113 353.2a3.687 3.687 0 0 0 -2.458-1.078 3.689 3.689 0 0 1 .055 1.683l-2.11 10.542a6.473 6.473 0 0 1 -6.347 5.2 6.462 6.462 0 0 1 -2.1-.349 6.474 6.474 0 0 0 5.513 3.08 6.473 6.473 0 0 0 6.347-5.2l2.109-10.547a3.692 3.692 0 0 0 -1.009-3.331z" fill="#f37c7c" transform="translate(413.364 -243.878)"/><path d="m7.5 136.578a5.556 5.556 0 0 0 11.1.341c0-.058.006-.117.008-.175a9.71 9.71 0 0 1 2.5-6.126 7.779 7.779 0 1 0 -13.608-5.152z" fill="#ffdfcf" transform="translate(687.654 -41.45)"/><path d="m85.843 343.886h-6.037a2.4 2.4 0 0 0 -2.4 2.4v4.337a2.4 2.4 0 0 0 -3.391.009l-.971.971a1.2 1.2 0 0 0 0 1.7l6.192 6.192.032.032a2.127 2.127 0 0 1 .627 1.508v2.786a.721.721 0 0 0 .721.721h6.024a.721.721 0 0 0 .721-.721v-2.772a2.176 2.176 0 0 1 .649-1.544 6.2 6.2 0 0 0 1.841-4.419v-7.2a4.007 4.007 0 0 0 -4.008-4z" fill="#eb9c8d" transform="translate(631.365 -236.77)"/><path d="m188.445 168.428a.682.682 0 0 0 -.377-.61l-1.6-.8a.693.693 0 0 1 -.343-.4 9.79 9.79 0 0 0 -.487-1.176.693.693 0 0 1 -.04-.526l.565-1.695a.683.683 0 0 0 -.165-.7l-1.941-1.941a.683.683 0 0 0 -.7-.165l-1.695.565a.692.692 0 0 1 -.526-.04 9.835 9.835 0 0 0 -1.176-.488.693.693 0 0 1 -.4-.343l-.8-1.6a.683.683 0 0 0 -.61-.377h-2.744a.682.682 0 0 0 -.61.377l-.8 1.6a.693.693 0 0 1 -.4.343 9.771 9.771 0 0 0 -1.176.488.693.693 0 0 1 -.526.04l-1.695-.565a.683.683 0 0 0 -.7.165l-1.94 1.941a.683.683 0 0 0 -.165.7l.565 1.695a.692.692 0 0 1 -.04.526 9.8 9.8 0 0 0 -.487 1.176.693.693 0 0 1 -.343.4l-1.6.8a.683.683 0 0 0 -.377.61v2.744a.683.683 0 0 0 .377.61l1.6.8a.693.693 0 0 1 .343.4 9.789 9.789 0 0 0 .487 1.176.693.693 0 0 1 .04.526l-.565 1.695a.683.683 0 0 0 .165.7l1.94 1.941a.683.683 0 0 0 .7.165l1.695-.565a.692.692 0 0 1 .526.04 9.811 9.811 0 0 0 1.176.487.693.693 0 0 1 .4.343l.8 1.6a.683.683 0 0 0 .61.377h2.744a.682.682 0 0 0 .61-.377l.8-1.6a.693.693 0 0 1 .4-.343 9.79 9.79 0 0 0 1.176-.487.693.693 0 0 1 .526-.04l1.695.565a.683.683 0 0 0 .7-.165l1.943-1.945a.683.683 0 0 0 .165-.7l-.565-1.695a.692.692 0 0 1 .04-.526 9.812 9.812 0 0 0 .487-1.176.693.693 0 0 1 .343-.4l1.6-.8a.682.682 0 0 0 .377-.61zm-11.661 5.613a4.24 4.24 0 1 1 4.24-4.24 4.24 4.24 0 0 1 -4.24 4.239z" fill="#d4f2f6" transform="translate(551.548 -76.38)"/><g style="fill:none;stroke-linecap:round;stroke:#000;stroke-linejoin:round;stroke-miterlimit:10;stroke-width:2"><path d="m164.372 15.112a16.585 16.585 0 0 0 -2.907 2.783 4.949 4.949 0 0 0 -1.2 2.12 4.948 4.948 0 0 0 1.2 2.12c1.914 2.374 5.97 5.723 11.122 5.723 5.362 0 9.537-3.628 11.346-6.008a4.289 4.289 0 0 0 .979-1.835 4.289 4.289 0 0 0 -.979-1.835c-1.809-2.38-5.984-6.008-11.346-6.008a12.346 12.346 0 0 0 -3.914.648" transform="translate(555.745 49.661)"/><circle cx="728.332" cy="69.676" r="3.361"/><path d="m387.144 147.352a5.765 5.765 0 0 0 -2.375-3.043 5.115 5.115 0 0 1 -2.366-3.665l-.638-5.107a3.808 3.808 0 0 0 -3.778-3.335 3.807 3.807 0 0 0 -3.778 3.335l-.638 5.107a5.115 5.115 0 0 1 -2.366 3.665 5.765 5.765 0 0 0 -2.375 3.043 2.109 2.109 0 0 0 2 2.776h2.041a3.509 3.509 0 0 1 2.807 1.4 2.886 2.886 0 0 0 4.617 0 3.509 3.509 0 0 1 2.807-1.4h2.041a2.109 2.109 0 0 0 2-2.776z" transform="translate(375.746 -53.984)"/><path d="m311.592 372.261a6.473 6.473 0 0 1 -6.347-5.2l-2.109-10.547a3.692 3.692 0 0 1 1.01-3.335 3.692 3.692 0 0 1 4.659-.461 5.026 5.026 0 0 0 5.576 0 3.692 3.692 0 0 1 4.659.461 3.692 3.692 0 0 1 1.01 3.335l-2.109 10.547a6.473 6.473 0 0 1 -6.349 5.2z" transform="translate(432.438 -243.858)"/><path d="m744.03 109.7v11.628"/><path d="m7.5 136.578a5.556 5.556 0 0 0 11.1.341c0-.058.006-.117.008-.175a9.71 9.71 0 0 1 2.5-6.126 7.779 7.779 0 1 0 -13.608-5.152z" transform="translate(687.654 -41.45)"/><path d="m46.1 155.993a3.3 3.3 0 0 0 -2.33-5.477h-.141a3.3 3.3 0 0 0 -3.3 3.3v3.121a1.78 1.78 0 0 0 .522 1.259l.025.025a1.781 1.781 0 0 1 0 2.52l-.025.025a1.78 1.78 0 0 0 -.522 1.259v2.9a1.074 1.074 0 0 0 1.071 1.075" transform="translate(659.307 -69.795)"/><path d="m89.852 348.336v-.444a4.008 4.008 0 0 0 -4.008-4.008h-6.037a2.4 2.4 0 0 0 -2.4 2.4v4.337a2.4 2.4 0 0 0 -3.391.009l-.971.971a1.2 1.2 0 0 0 0 1.7l6.192 6.192.032.032a2.127 2.127 0 0 1 .627 1.508v2.786a.721.721 0 0 0 .721.721h6.027a.721.721 0 0 0 .721-.721v-2.772a2.176 2.176 0 0 1 .649-1.544 6.2 6.2 0 0 0 1.841-4.419v-1.975" transform="translate(631.364 -236.77)"/><path d="m107.221 393.27 2.806 2.806a1.779 1.779 0 0 0 1.642.469 2.494 2.494 0 0 1 2.912 1.7" transform="translate(601.546 -279.413)"/><path d="m712.647 107.608v4.482"/><path d="m716.358 107.608v4.482"/><path d="m188.445 168.428a.682.682 0 0 0 -.377-.61l-1.6-.8a.693.693 0 0 1 -.343-.4 9.79 9.79 0 0 0 -.487-1.176.693.693 0 0 1 -.04-.526l.565-1.695a.683.683 0 0 0 -.165-.7l-1.941-1.941a.683.683 0 0 0 -.7-.165l-1.695.565a.692.692 0 0 1 -.526-.04 9.835 9.835 0 0 0 -1.176-.488.693.693 0 0 1 -.4-.343l-.8-1.6a.683.683 0 0 0 -.61-.377h-2.744a.682.682 0 0 0 -.61.377l-.8 1.6a.693.693 0 0 1 -.4.343 9.771 9.771 0 0 0 -1.176.488.693.693 0 0 1 -.526.04l-1.695-.565a.683.683 0 0 0 -.7.165l-1.94 1.941a.683.683 0 0 0 -.165.7l.565 1.695a.692.692 0 0 1 -.04.526 9.8 9.8 0 0 0 -.487 1.176.693.693 0 0 1 -.343.4l-1.6.8a.683.683 0 0 0 -.377.61v2.744a.683.683 0 0 0 .377.61l1.6.8a.693.693 0 0 1 .343.4 9.789 9.789 0 0 0 .487 1.176.693.693 0 0 1 .04.526l-.565 1.695a.683.683 0 0 0 .165.7l1.94 1.941a.683.683 0 0 0 .7.165l1.695-.565a.692.692 0 0 1 .526.04 9.811 9.811 0 0 0 1.176.487.693.693 0 0 1 .4.343l.8 1.6a.683.683 0 0 0 .61.377h2.744a.682.682 0 0 0 .61-.377l.8-1.6a.693.693 0 0 1 .4-.343 9.79 9.79 0 0 0 1.176-.487.693.693 0 0 1 .526-.04l1.695.565a.683.683 0 0 0 .7-.165l1.943-1.945a.683.683 0 0 0 .165-.7l-.565-1.695a.692.692 0 0 1 .04-.526 9.812 9.812 0 0 0 .487-1.176.693.693 0 0 1 .343-.4l1.6-.8a.682.682 0 0 0 .377-.61zm-11.661 5.613a4.24 4.24 0 1 1 4.24-4.24 4.24 4.24 0 0 1 -4.24 4.239z" transform="translate(551.548 -76.38)"/><path d="m708.677 89.263 8.018 2.605"/><path d="m719.437 88.301-8.853-2.877"/><path d="m732.397 102.622 4.604 6.336"/><path d="m742.639 109.504-5.849-8.05"/><path d="m739.969 91.869 8.263-2.685"/><path d="m741.516 86.907-4.289 1.394"/><path d="m749.613 84.276-3.533 1.148"/><path d="m720.104 108.353 4.164-5.731"/><path d="m719.874 101.454-4.113 5.662"/><path d="m730.452 82.411v-5.082"/><path d="m726.212 77.329v5.082"/></g><rect fill="#ffce79" height="29" rx="14.5" width="179" x="28" y="179.758"/><path d="m5.886 12.354a.986.986 0 0 0 -.373-.82 4.631 4.631 0 0 0 -1.313-.608 12.559 12.559 0 0 1 -1.531-.608 2.9 2.9 0 0 1 -1.931-2.612 2.342 2.342 0 0 1 .482-1.459 3.117 3.117 0 0 1 1.364-.984 5.307 5.307 0 0 1 1.982-.353 4.642 4.642 0 0 1 1.924.383 3.047 3.047 0 0 1 1.323 1.09 2.847 2.847 0 0 1 .472 1.617h-2.392a1.2 1.2 0 0 0 -.373-.943 1.452 1.452 0 0 0 -1.008-.335 1.638 1.638 0 0 0 -1.012.283.835.835 0 0 0 .034 1.415 5.172 5.172 0 0 0 1.442.643 8.836 8.836 0 0 1 1.7.714 2.849 2.849 0 0 1 1.613 2.563 2.43 2.43 0 0 1 -.989 2.052 4.378 4.378 0 0 1 -2.7.745 5.357 5.357 0 0 1 -2.19-.437 3.3 3.3 0 0 1 -1.477-1.187 3.1 3.1 0 0 1 -.5-1.74h2.411a1.526 1.526 0 0 0 .414 1.179 1.955 1.955 0 0 0 1.343.379 1.544 1.544 0 0 0 .94-.256.846.846 0 0 0 .345-.721zm7.1 2.782a3.8 3.8 0 0 1 -2.755-1.015 3.506 3.506 0 0 1 -1.053-2.642v-.191a4.542 4.542 0 0 1 .42-2 3.076 3.076 0 0 1 1.227-1.343 3.7 3.7 0 0 1 1.914-.475 3.2 3.2 0 0 1 2.461.967 3.8 3.8 0 0 1 .9 2.7v.9h-4.58a1.66 1.66 0 0 0 .54.978 1.607 1.607 0 0 0 1.08.355 2.07 2.07 0 0 0 1.709-.766l1.053 1.244a2.943 2.943 0 0 1 -1.22.947 4.123 4.123 0 0 1 -1.694.342zm-.26-5.893q-1.012 0-1.2 1.34h2.324v-.178a1.141 1.141 0 0 0 -.28-.858 1.115 1.115 0 0 0 -.841-.303zm4.033 2a4.994 4.994 0 0 1 .369-1.982 2.972 2.972 0 0 1 1.06-1.33 2.793 2.793 0 0 1 1.612-.464 2.221 2.221 0 0 1 1.8.779l.082-.643h2.092v7.117a3.118 3.118 0 0 1 -.455 1.7 2.917 2.917 0 0 1 -1.319 1.106 4.837 4.837 0 0 1 -2 .386 4.173 4.173 0 0 1 -1.576-.308 2.844 2.844 0 0 1 -1.166-.8l.964-1.354a2.112 2.112 0 0 0 1.7.759 1.372 1.372 0 0 0 1.531-1.572v-.232a2.163 2.163 0 0 1 -1.675.731 2.673 2.673 0 0 1 -2.178-1.036 4.291 4.291 0 0 1 -.834-2.772zm2.311.144a2.631 2.631 0 0 0 .342 1.439 1.078 1.078 0 0 0 .957.53 1.224 1.224 0 0 0 1.087-.5v-3.106a1.193 1.193 0 0 0 -1.073-.506 1.086 1.086 0 0 0 -.964.55 3 3 0 0 0 -.347 1.597zm10.42 2.813a2.375 2.375 0 0 1 -1.976.937 2.329 2.329 0 0 1 -1.842-.708 2.976 2.976 0 0 1 -.625-2.034v-4.795h2.3v4.806a.828.828 0 0 0 .923.95 1.2 1.2 0 0 0 1.128-.567v-5.189h2.317v7.4h-2.16zm7.964-4.512-.754-.054a1.363 1.363 0 0 0 -1.395.684v4.682h-2.305v-7.4h2.16l.075.95a1.784 1.784 0 0 1 1.62-1.087 2.247 2.247 0 0 1 .643.082zm3.261 5.312h-2.315v-7.4h2.311zm-2.447-9.3a1.028 1.028 0 0 1 .355-.807 1.511 1.511 0 0 1 1.846 0 1.028 1.028 0 0 1 .355.807 1.028 1.028 0 0 1 -.355.807 1.511 1.511 0 0 1 -1.846 0 1.028 1.028 0 0 1 -.355-.807zm3.575 5.551a4.518 4.518 0 0 1 .757-2.772 2.5 2.5 0 0 1 2.119-1.012 2.124 2.124 0 0 1 1.668.779v-3.746h2.313v10.5h-2.072l-.116-.793a2.181 2.181 0 0 1 -1.8.93 2.493 2.493 0 0 1 -2.092-1.012 4.662 4.662 0 0 1 -.777-2.878zm2.3.144q0 1.969 1.148 1.969a1.134 1.134 0 0 0 1.094-.643v-2.821a1.1 1.1 0 0 0 -1.08-.656q-1.066 0-1.155 1.723zm10.032 3.605a2.6 2.6 0 0 1 -.219-.663 2.142 2.142 0 0 1 -1.777.8 2.624 2.624 0 0 1 -1.779-.637 2.013 2.013 0 0 1 -.731-1.589 2.069 2.069 0 0 1 .889-1.818 4.527 4.527 0 0 1 2.584-.615h.711v-.39q0-1.019-.882-1.019a.719.719 0 0 0 -.82.807h-2.3a2.068 2.068 0 0 1 .913-1.743 3.832 3.832 0 0 1 2.328-.67 3.363 3.363 0 0 1 2.235.69 2.4 2.4 0 0 1 .841 1.894v3.274a3.353 3.353 0 0 0 .314 1.559v.12zm-1.442-1.5a1.285 1.285 0 0 0 .714-.185 1.157 1.157 0 0 0 .407-.417v-1.186h-.67q-1.2 0-1.2 1.08a.659.659 0 0 0 .212.509.767.767 0 0 0 .536.199zm4.416-2.249a4.518 4.518 0 0 1 .759-2.769 2.5 2.5 0 0 1 2.119-1.012 2.124 2.124 0 0 1 1.668.779v-3.749h2.305v10.5h-2.066l-.116-.793a2.181 2.181 0 0 1 -1.8.93 2.493 2.493 0 0 1 -2.092-1.012 4.662 4.662 0 0 1 -.778-2.878zm2.3.144q0 1.969 1.148 1.969a1.134 1.134 0 0 0 1.094-.643v-2.821a1.1 1.1 0 0 0 -1.08-.656q-1.066 0-1.155 1.723zm13.518 3.605a2.6 2.6 0 0 1 -.219-.663 2.142 2.142 0 0 1 -1.777.8 2.624 2.624 0 0 1 -1.777-.632 2.013 2.013 0 0 1 -.731-1.589 2.069 2.069 0 0 1 .889-1.818 4.527 4.527 0 0 1 2.584-.615h.711v-.39q0-1.019-.882-1.019a.719.719 0 0 0 -.82.807h-2.3a2.068 2.068 0 0 1 .913-1.743 3.832 3.832 0 0 1 2.328-.67 3.363 3.363 0 0 1 2.235.69 2.4 2.4 0 0 1 .841 1.894v3.274a3.353 3.353 0 0 0 .314 1.559v.115zm-1.442-1.5a1.285 1.285 0 0 0 .714-.185 1.157 1.157 0 0 0 .407-.417v-1.186h-.67q-1.2 0-1.2 1.08a.659.659 0 0 0 .212.509.767.767 0 0 0 .536.199zm7.136 1.5h-2.31v-10.5h2.311zm3.849 0h-2.31v-7.4h2.31zm-2.447-9.3a1.028 1.028 0 0 1 .355-.807 1.511 1.511 0 0 1 1.846 0 1.028 1.028 0 0 1 .355.807 1.028 1.028 0 0 1 -.355.807 1.511 1.511 0 0 1 -1.846 0 1.028 1.028 0 0 1 -.355-.807zm6.042 1.9.075.868a2.543 2.543 0 0 1 2.112-1 1.872 1.872 0 0 1 1.894 1.114 2.462 2.462 0 0 1 2.174-1.115q2.249 0 2.311 2.721v4.812h-2.311v-4.669a1.41 1.41 0 0 0 -.191-.827.815.815 0 0 0 -.7-.26 1.091 1.091 0 0 0 -1.019.608l.007.1v5.048h-2.308v-4.655a1.482 1.482 0 0 0 -.185-.841.812.812 0 0 0 -.7-.26 1.1 1.1 0 0 0 -1.012.608v5.148h-2.3v-7.4zm13.46 7.533a3.8 3.8 0 0 1 -2.755-1.015 3.506 3.506 0 0 1 -1.053-2.642v-.191a4.542 4.542 0 0 1 .42-2 3.076 3.076 0 0 1 1.227-1.343 3.7 3.7 0 0 1 1.914-.475 3.2 3.2 0 0 1 2.461.967 3.8 3.8 0 0 1 .9 2.7v.9h-4.579a1.66 1.66 0 0 0 .54.978 1.607 1.607 0 0 0 1.08.355 2.07 2.07 0 0 0 1.709-.766l1.053 1.244a2.943 2.943 0 0 1 -1.22.947 4.124 4.124 0 0 1 -1.697.345zm-.26-5.893q-1.012 0-1.2 1.34h2.324v-.178a1.141 1.141 0 0 0 -.28-.858 1.115 1.115 0 0 0 -.843-.3zm6.42-1.64.075.868a2.508 2.508 0 0 1 2.112-1 2.11 2.11 0 0 1 1.726.69 3.287 3.287 0 0 1 .591 2.078v4.764h-2.311v-4.669a1.248 1.248 0 0 0 -.226-.824 1.044 1.044 0 0 0 -.82-.263 1.1 1.1 0 0 0 -1 .533v5.223h-2.3v-7.4zm8.463-1.839v1.839h1.212v1.6h-1.217v3.384a.864.864 0 0 0 .15.581.807.807 0 0 0 .595.164 3.379 3.379 0 0 0 .574-.041v1.647a4.252 4.252 0 0 1 -1.3.2 2.413 2.413 0 0 1 -1.757-.561 2.3 2.3 0 0 1 -.567-1.7v-3.674h-.943v-1.6h.943v-1.835zm6.289 9.239a2.6 2.6 0 0 1 -.219-.663 2.142 2.142 0 0 1 -1.777.8 2.624 2.624 0 0 1 -1.781-.637 2.013 2.013 0 0 1 -.731-1.589 2.069 2.069 0 0 1 .889-1.818 4.527 4.527 0 0 1 2.584-.615h.711v-.39q0-1.019-.882-1.019a.719.719 0 0 0 -.82.807h-2.3a2.068 2.068 0 0 1 .913-1.743 3.832 3.832 0 0 1 2.328-.67 3.363 3.363 0 0 1 2.235.69 2.4 2.4 0 0 1 .841 1.894v3.274a3.353 3.353 0 0 0 .314 1.559v.12zm-1.442-1.5a1.285 1.285 0 0 0 .714-.185 1.157 1.157 0 0 0 .407-.417v-1.186h-.67q-1.2 0-1.2 1.08a.659.659 0 0 0 .212.509.767.767 0 0 0 .536.199zm9.181-3.808-.759-.055a1.363 1.363 0 0 0 -1.395.684v4.679h-2.3v-7.4h2.16l.075.95a1.784 1.784 0 0 1 1.62-1.087 2.247 2.247 0 0 1 .643.082zm3.26 5.308h-2.311v-7.4h2.311zm-2.447-9.3a1.028 1.028 0 0 1 .355-.807 1.511 1.511 0 0 1 1.846 0 1.028 1.028 0 0 1 .355.807 1.028 1.028 0 0 1 -.355.807 1.511 1.511 0 0 1 -1.846 0 1.028 1.028 0 0 1 -.356-.807zm8.032 9.3a2.6 2.6 0 0 1 -.219-.663 2.142 2.142 0 0 1 -1.777.8 2.624 2.624 0 0 1 -1.777-.632 2.013 2.013 0 0 1 -.731-1.589 2.069 2.069 0 0 1 .889-1.818 4.527 4.527 0 0 1 2.584-.615h.711v-.39q0-1.019-.882-1.019a.719.719 0 0 0 -.82.807h-2.3a2.068 2.068 0 0 1 .913-1.743 3.832 3.832 0 0 1 2.328-.67 3.363 3.363 0 0 1 2.235.69 2.4 2.4 0 0 1 .841 1.894v3.274a3.353 3.353 0 0 0 .314 1.559v.115zm-1.442-1.5a1.285 1.285 0 0 0 .714-.185 1.157 1.157 0 0 0 .407-.417v-1.186h-.67q-1.2 0-1.2 1.08a.659.659 0 0 0 .212.509.767.767 0 0 0 .536.199z" fill="#12263f" transform="translate(48 185.758)"/><rect fill="#ffce79" height="29" rx="14.5" width="199" x="230" y="179.758"/><path d="m6.925 10.782h-3.774v2.372h4.457v1.846h-6.856v-9.953h6.87v1.853h-4.471v2.1h3.774zm5.428 2.14a.532.532 0 0 0 -.308-.472 4.679 4.679 0 0 0 -1.169-.369 5.33 5.33 0 0 1 -1.422-.5 2.382 2.382 0 0 1 -.854-.755 1.8 1.8 0 0 1 -.294-1.026 2.044 2.044 0 0 1 .841-1.678 3.464 3.464 0 0 1 2.2-.66 3.837 3.837 0 0 1 2.353.668 2.074 2.074 0 0 1 .889 1.743h-2.312q0-.889-.937-.889a.928.928 0 0 0 -.608.2.624.624 0 0 0 -.246.5.573.573 0 0 0 .3.5 2.842 2.842 0 0 0 .96.314 8.3 8.3 0 0 1 1.159.294 2.105 2.105 0 0 1 1.668 2.058 1.937 1.937 0 0 1 -.9 1.647 3.942 3.942 0 0 1 -2.328.636 4.023 4.023 0 0 1 -1.7-.342 2.835 2.835 0 0 1 -1.162-.93 2.105 2.105 0 0 1 -.417-1.237h2.153a.89.89 0 0 0 .342.749 1.406 1.406 0 0 0 .841.236 1.106 1.106 0 0 0 .708-.191.612.612 0 0 0 .243-.496zm5.981-7.157v1.835h1.217v1.6h-1.217v3.384a.864.864 0 0 0 .15.581.807.807 0 0 0 .595.164 3.38 3.38 0 0 0 .574-.041v1.647a4.252 4.252 0 0 1 -1.3.2 2.413 2.413 0 0 1 -1.757-.561 2.3 2.3 0 0 1 -.567-1.7v-3.674h-.943v-1.6h.943v-1.835zm6.289 9.235a2.6 2.6 0 0 1 -.219-.663 2.142 2.142 0 0 1 -1.777.8 2.624 2.624 0 0 1 -1.777-.637 2.013 2.013 0 0 1 -.731-1.589 2.069 2.069 0 0 1 .889-1.818 4.527 4.527 0 0 1 2.584-.615h.708v-.39q0-1.019-.882-1.019a.719.719 0 0 0 -.82.807h-2.298a2.068 2.068 0 0 1 .913-1.743 3.832 3.832 0 0 1 2.328-.67 3.363 3.363 0 0 1 2.235.69 2.4 2.4 0 0 1 .841 1.894v3.274a3.353 3.353 0 0 0 .314 1.559v.12zm-1.442-1.5a1.285 1.285 0 0 0 .714-.185 1.157 1.157 0 0 0 .407-.417v-1.186h-.67q-1.2 0-1.2 1.08a.659.659 0 0 0 .212.509.767.767 0 0 0 .537.199zm11.573-2.133a4.508 4.508 0 0 1 -.752 2.8 2.519 2.519 0 0 1 -2.119.978 2.186 2.186 0 0 1 -1.818-.9l-.1.759h-2.065v-10.504h2.3v3.7a2.109 2.109 0 0 1 1.661-.731 2.519 2.519 0 0 1 2.139.989 4.531 4.531 0 0 1 .752 2.789zm-2.311-.144a3.016 3.016 0 0 0 -.283-1.523.956.956 0 0 0 -.872-.455 1.1 1.1 0 0 0 -1.08.595v2.939a1.109 1.109 0 0 0 1.094.588.979.979 0 0 0 1.032-.793 5.7 5.7 0 0 0 .109-1.354zm5.757 3.777h-2.311v-7.4h2.311zm-2.448-9.3a1.028 1.028 0 0 1 .355-.807 1.511 1.511 0 0 1 1.846 0 1.028 1.028 0 0 1 .355.807 1.028 1.028 0 0 1 -.355.807 1.511 1.511 0 0 1 -1.846 0 1.028 1.028 0 0 1 -.355-.807zm6.3 9.3h-2.315v-10.5h2.311zm3.848 0h-2.314v-7.4h2.314zm-2.451-9.3a1.028 1.028 0 0 1 .351-.81 1.511 1.511 0 0 1 1.846 0 1.028 1.028 0 0 1 .355.807 1.028 1.028 0 0 1 -.355.807 1.511 1.511 0 0 1 -1.846 0 1.028 1.028 0 0 1 -.351-.804zm3.575 5.551a4.518 4.518 0 0 1 .759-2.769 2.5 2.5 0 0 1 2.117-1.015 2.124 2.124 0 0 1 1.668.779v-3.746h2.311v10.5h-2.069l-.116-.793a2.181 2.181 0 0 1 -1.8.93 2.493 2.493 0 0 1 -2.094-1.012 4.662 4.662 0 0 1 -.776-2.878zm2.3.144q0 1.969 1.148 1.969a1.134 1.134 0 0 0 1.094-.643v-2.821a1.1 1.1 0 0 0 -1.08-.656q-1.066 0-1.155 1.723zm10.032 3.605a2.6 2.6 0 0 1 -.219-.663 2.142 2.142 0 0 1 -1.777.8 2.624 2.624 0 0 1 -1.777-.632 2.013 2.013 0 0 1 -.731-1.589 2.069 2.069 0 0 1 .888-1.816 4.527 4.527 0 0 1 2.584-.615h.711v-.39q0-1.019-.882-1.019a.719.719 0 0 0 -.82.807h-2.3a2.068 2.068 0 0 1 .913-1.743 3.832 3.832 0 0 1 2.328-.67 3.363 3.363 0 0 1 2.235.69 2.4 2.4 0 0 1 .841 1.894v3.274a3.353 3.353 0 0 0 .314 1.559v.113zm-1.442-1.5a1.285 1.285 0 0 0 .714-.185 1.157 1.157 0 0 0 .407-.417v-1.186h-.67q-1.2 0-1.2 1.08a.659.659 0 0 0 .212.509.767.767 0 0 0 .537.199zm4.416-2.249a4.518 4.518 0 0 1 .759-2.769 2.5 2.5 0 0 1 2.119-1.012 2.124 2.124 0 0 1 1.668.779v-3.749h2.311v10.5h-2.072l-.115-.793a2.181 2.181 0 0 1 -1.8.93 2.493 2.493 0 0 1 -2.1-1.012 4.662 4.662 0 0 1 -.77-2.878zm2.3.144q0 1.969 1.148 1.969a1.134 1.134 0 0 0 1.094-.643v-2.821a1.1 1.1 0 0 0 -1.08-.656q-1.066 0-1.155 1.723zm9.058-.144a4.518 4.518 0 0 1 .759-2.769 2.5 2.5 0 0 1 2.119-1.012 2.124 2.124 0 0 1 1.668.779v-3.749h2.311v10.5h-2.068l-.116-.793a2.181 2.181 0 0 1 -1.8.93 2.493 2.493 0 0 1 -2.092-1.012 4.661 4.661 0 0 1 -.778-2.878zm2.3.144q0 1.969 1.148 1.969a1.134 1.134 0 0 0 1.094-.643v-2.821a1.1 1.1 0 0 0 -1.08-.656q-1.066 0-1.155 1.723zm9.44 3.746a3.8 3.8 0 0 1 -2.755-1.015 3.506 3.506 0 0 1 -1.053-2.642v-.191a4.542 4.542 0 0 1 .42-2 3.076 3.076 0 0 1 1.227-1.343 3.7 3.7 0 0 1 1.914-.475 3.2 3.2 0 0 1 2.461.967 3.8 3.8 0 0 1 .9 2.7v.9h-4.58a1.66 1.66 0 0 0 .54.978 1.607 1.607 0 0 0 1.08.355 2.07 2.07 0 0 0 1.709-.766l1.053 1.244a2.943 2.943 0 0 1 -1.22.947 4.124 4.124 0 0 1 -1.688.337zm-.26-5.893q-1.012 0-1.2 1.34h2.332v-.178a1.141 1.141 0 0 0 -.28-.858 1.115 1.115 0 0 0 -.844-.308zm6.741 5.752h-2.309v-10.5h2.311zm11.771-3.644a4.46 4.46 0 0 1 -.776 2.751 2.488 2.488 0 0 1 -2.1 1.029 2.132 2.132 0 0 1 -1.675-.745v3.452h-2.3v-10.243h2.153l.068.684a2.132 2.132 0 0 1 1.743-.82 2.508 2.508 0 0 1 2.126 1.008 4.515 4.515 0 0 1 .759 2.772zm-2.3-.144q0-1.969-1.148-1.969a1.084 1.084 0 0 0 -1.094.588v2.912a1.119 1.119 0 0 0 1.107.615q1.1 0 1.135-1.9zm7.793-1.524-.759-.055a1.363 1.363 0 0 0 -1.395.684v4.683h-2.3v-7.4h2.16l.075.95a1.784 1.784 0 0 1 1.62-1.087 2.246 2.246 0 0 1 .643.082zm.294 1.545a4.366 4.366 0 0 1 .431-1.972 3.08 3.08 0 0 1 1.237-1.33 3.726 3.726 0 0 1 1.894-.465 3.4 3.4 0 0 1 2.615 1.034 3.948 3.948 0 0 1 .957 2.8v.082a3.83 3.83 0 0 1 -.96 2.745 3.41 3.41 0 0 1 -2.6 1.015 3.449 3.449 0 0 1 -2.536-.947 3.7 3.7 0 0 1 -1.032-2.567zm2.3.144a2.752 2.752 0 0 0 .321 1.5 1.07 1.07 0 0 0 .95.479q1.23 0 1.258-1.894v-.232q0-1.989-1.271-1.989-1.155 0-1.251 1.716zm5.558-.13a4.518 4.518 0 0 1 .759-2.769 2.5 2.5 0 0 1 2.116-1.011 2.124 2.124 0 0 1 1.668.779v-3.746h2.311v10.5h-2.069l-.116-.793a2.181 2.181 0 0 1 -1.8.93 2.493 2.493 0 0 1 -2.092-1.012 4.661 4.661 0 0 1 -.777-2.878zm2.3.144q0 1.969 1.148 1.969a1.134 1.134 0 0 0 1.094-.643v-2.817a1.1 1.1 0 0 0 -1.08-.656q-1.066 0-1.155 1.723zm10.275 2.809a2.375 2.375 0 0 1 -1.976.937 2.329 2.329 0 0 1 -1.842-.708 2.976 2.976 0 0 1 -.625-2.034v-4.795h2.3v4.806a.828.828 0 0 0 .923.95 1.2 1.2 0 0 0 1.128-.567v-5.189h2.317v7.4h-2.16zm6.617-.841a1.025 1.025 0 0 0 .752-.263.965.965 0 0 0 .26-.735h2.16a2.557 2.557 0 0 1 -.872 2 3.242 3.242 0 0 1 -2.246.779 3.283 3.283 0 0 1 -2.543-1.012 3.986 3.986 0 0 1 -.93-2.8v-.1a4.505 4.505 0 0 1 .414-1.979 3.011 3.011 0 0 1 1.188-1.321 3.557 3.557 0 0 1 1.846-.461 3.2 3.2 0 0 1 2.29.8 2.837 2.837 0 0 1 .848 2.167h-2.16a1.265 1.265 0 0 0 -.28-.882.967.967 0 0 0 -.752-.308q-.9 0-1.046 1.142a8.054 8.054 0 0 0 -.048 1 3.164 3.164 0 0 0 .267 1.545.923.923 0 0 0 .849.428zm6.829-7.595v1.836h1.217v1.6h-1.217v3.384a.864.864 0 0 0 .15.581.807.807 0 0 0 .595.164 3.38 3.38 0 0 0 .574-.041v1.647a4.252 4.252 0 0 1 -1.3.2 2.413 2.413 0 0 1 -1.757-.561 2.3 2.3 0 0 1 -.567-1.7v-3.674h-.941v-1.6h.943v-1.835zm1.627 5.469a4.366 4.366 0 0 1 .431-1.972 3.08 3.08 0 0 1 1.237-1.33 3.726 3.726 0 0 1 1.894-.465 3.4 3.4 0 0 1 2.614 1.034 3.948 3.948 0 0 1 .957 2.8v.082a3.83 3.83 0 0 1 -.96 2.745 3.41 3.41 0 0 1 -2.6 1.015 3.449 3.449 0 0 1 -2.536-.947 3.7 3.7 0 0 1 -1.032-2.567zm2.3.144a2.752 2.752 0 0 0 .321 1.5 1.07 1.07 0 0 0 .95.479q1.23 0 1.258-1.894v-.232q0-1.989-1.271-1.989-1.155 0-1.251 1.716z" fill="#12263f" transform="translate(252 185.758)"/><rect fill="#ffce79" height="29" rx="14.5" width="145" x="459" y="179.758"/><path d="m4.614 12.293 1.986-7.246h2.68l-3.353 9.953h-2.627l-3.321-9.953h2.66zm9.133 2.707a2.6 2.6 0 0 1 -.219-.663 2.142 2.142 0 0 1 -1.777.8 2.624 2.624 0 0 1 -1.777-.637 2.013 2.013 0 0 1 -.731-1.589 2.069 2.069 0 0 1 .889-1.818 4.527 4.527 0 0 1 2.584-.615h.711v-.39q0-1.019-.882-1.019a.719.719 0 0 0 -.82.807h-2.305a2.068 2.068 0 0 1 .913-1.743 3.832 3.832 0 0 1 2.328-.67 3.363 3.363 0 0 1 2.235.69 2.4 2.4 0 0 1 .841 1.894v3.274a3.353 3.353 0 0 0 .314 1.559v.12zm-1.447-1.5a1.285 1.285 0 0 0 .714-.185 1.157 1.157 0 0 0 .407-.417v-1.186h-.67q-1.2 0-1.2 1.08a.659.659 0 0 0 .212.509.767.767 0 0 0 .537.199zm7.141 1.5h-2.31v-10.5h2.311zm1.128-3.767a4.366 4.366 0 0 1 .431-1.972 3.08 3.08 0 0 1 1.237-1.33 3.726 3.726 0 0 1 1.894-.465 3.4 3.4 0 0 1 2.618 1.034 3.948 3.948 0 0 1 .957 2.8v.082a3.83 3.83 0 0 1 -.96 2.745 3.41 3.41 0 0 1 -2.6 1.015 3.449 3.449 0 0 1 -2.536-.947 3.7 3.7 0 0 1 -1.032-2.567zm2.3.144a2.752 2.752 0 0 0 .321 1.5 1.07 1.07 0 0 0 .95.479q1.23 0 1.258-1.894v-.232q0-1.989-1.271-1.989-1.155 0-1.251 1.716zm10.331-1.689-.759-.055a1.363 1.363 0 0 0 -1.395.684v4.683h-2.3v-7.4h2.154l.075.95a1.784 1.784 0 0 1 1.62-1.087 2.247 2.247 0 0 1 .643.082zm6.428-2.088.075.868a2.508 2.508 0 0 1 2.112-1 2.11 2.11 0 0 1 1.726.69 3.287 3.287 0 0 1 .591 2.078v4.764h-2.31v-4.669a1.248 1.248 0 0 0 -.226-.824 1.044 1.044 0 0 0 -.82-.263 1.1 1.1 0 0 0 -1 .533v5.223h-2.3v-7.4zm10.186 6.6a2.375 2.375 0 0 1 -1.976.937 2.329 2.329 0 0 1 -1.838-.708 2.976 2.976 0 0 1 -.63-2.029v-4.8h2.3v4.806a.828.828 0 0 0 .923.95 1.2 1.2 0 0 0 1.128-.567v-5.189h2.317v7.4h-2.16zm6.173-8.436v1.836h1.213v1.6h-1.214v3.384a.864.864 0 0 0 .15.581.807.807 0 0 0 .595.164 3.38 3.38 0 0 0 .574-.041v1.647a4.252 4.252 0 0 1 -1.3.2 2.413 2.413 0 0 1 -1.757-.561 2.3 2.3 0 0 1 -.567-1.7v-3.674h-.943v-1.6h.943v-1.835zm6.6 3.924-.759-.055a1.363 1.363 0 0 0 -1.395.684v4.683h-2.3v-7.4h2.16l.075.95a1.784 1.784 0 0 1 1.62-1.087 2.247 2.247 0 0 1 .643.082zm3.257 5.312h-2.311v-7.4h2.311zm-2.444-9.3a1.028 1.028 0 0 1 .355-.807 1.511 1.511 0 0 1 1.846 0 1.028 1.028 0 0 1 .355.807 1.028 1.028 0 0 1 -.356.8 1.511 1.511 0 0 1 -1.846 0 1.028 1.028 0 0 1 -.354-.8zm6.993 7.663a1.025 1.025 0 0 0 .752-.263.965.965 0 0 0 .26-.735h2.16a2.557 2.557 0 0 1 -.872 2 3.242 3.242 0 0 1 -2.246.779 3.282 3.282 0 0 1 -2.547-1.019 3.986 3.986 0 0 1 -.93-2.8v-.1a4.505 4.505 0 0 1 .414-1.979 3.011 3.011 0 0 1 1.193-1.319 3.557 3.557 0 0 1 1.846-.461 3.2 3.2 0 0 1 2.29.8 2.837 2.837 0 0 1 .848 2.167h-2.161a1.265 1.265 0 0 0 -.28-.882.967.967 0 0 0 -.752-.308q-.9 0-1.046 1.142a8.056 8.056 0 0 0 -.048 1 3.164 3.164 0 0 0 .267 1.545.923.923 0 0 0 .849.429zm6.573 1.637h-2.311v-7.4h2.311zm-2.447-9.3a1.028 1.028 0 0 1 .355-.807 1.511 1.511 0 0 1 1.846 0 1.028 1.028 0 0 1 .355.807 1.028 1.028 0 0 1 -.355.807 1.511 1.511 0 0 1 -1.846 0 1.028 1.028 0 0 1 -.355-.807zm3.575 5.537a4.366 4.366 0 0 1 .431-1.972 3.08 3.08 0 0 1 1.237-1.33 3.726 3.726 0 0 1 1.894-.465 3.4 3.4 0 0 1 2.617 1.03 3.948 3.948 0 0 1 .957 2.8v.082a3.83 3.83 0 0 1 -.96 2.745 3.41 3.41 0 0 1 -2.6 1.015 3.449 3.449 0 0 1 -2.536-.947 3.7 3.7 0 0 1 -1.034-2.572zm2.3.144a2.752 2.752 0 0 0 .321 1.5 1.07 1.07 0 0 0 .95.479q1.23 0 1.258-1.894v-.232q0-1.989-1.271-1.989-1.155 0-1.251 1.716zm7.967-3.781.075.868a2.508 2.508 0 0 1 2.112-1 2.11 2.11 0 0 1 1.726.69 3.287 3.287 0 0 1 .591 2.078v4.764h-2.309v-4.669a1.248 1.248 0 0 0 -.226-.824 1.044 1.044 0 0 0 -.82-.263 1.1 1.1 0 0 0 -1 .533v5.223h-2.31v-7.4zm9.947 7.4a2.6 2.6 0 0 1 -.219-.663 2.142 2.142 0 0 1 -1.777.8 2.624 2.624 0 0 1 -1.777-.632 2.013 2.013 0 0 1 -.731-1.589 2.069 2.069 0 0 1 .889-1.818 4.527 4.527 0 0 1 2.584-.615h.711v-.39q0-1.019-.882-1.019a.719.719 0 0 0 -.82.807h-2.3a2.068 2.068 0 0 1 .913-1.743 3.832 3.832 0 0 1 2.328-.67 3.363 3.363 0 0 1 2.235.69 2.4 2.4 0 0 1 .841 1.894v3.274a3.353 3.353 0 0 0 .314 1.559v.115zm-1.442-1.5a1.285 1.285 0 0 0 .714-.185 1.157 1.157 0 0 0 .407-.417v-1.186h-.67q-1.2 0-1.2 1.08a.659.659 0 0 0 .212.509.767.767 0 0 0 .536.199zm7.134 1.5h-2.311v-10.5h2.311z" fill="#12263f" transform="translate(478 185.758)"/><rect fill="#ffce79" height="29" rx="14.5" width="180" x="639" y="179.758"/><path d="m6.405 13.141h-3.288l-.574 1.859h-2.564l3.651-9.953h2.256l3.677 9.953h-2.577zm-2.714-1.853h2.14l-1.073-3.452zm9.618 2.071a1.025 1.025 0 0 0 .752-.263.965.965 0 0 0 .26-.735h2.16a2.557 2.557 0 0 1 -.872 2 3.242 3.242 0 0 1 -2.246.779 3.282 3.282 0 0 1 -2.543-1.012 3.986 3.986 0 0 1 -.93-2.8v-.1a4.505 4.505 0 0 1 .414-1.979 3.011 3.011 0 0 1 1.196-1.321 3.557 3.557 0 0 1 1.846-.461 3.2 3.2 0 0 1 2.29.8 2.837 2.837 0 0 1 .848 2.167h-2.16a1.265 1.265 0 0 0 -.28-.882.967.967 0 0 0 -.752-.308q-.9 0-1.046 1.142a8.055 8.055 0 0 0 -.048 1 3.164 3.164 0 0 0 .267 1.545.923.923 0 0 0 .845.428zm7.725 1.777a3.8 3.8 0 0 1 -2.755-1.015 3.506 3.506 0 0 1 -1.053-2.642v-.191a4.542 4.542 0 0 1 .42-2 3.076 3.076 0 0 1 1.227-1.343 3.7 3.7 0 0 1 1.914-.475 3.2 3.2 0 0 1 2.461.967 3.8 3.8 0 0 1 .9 2.7v.9h-4.58a1.66 1.66 0 0 0 .54.978 1.607 1.607 0 0 0 1.08.355 2.07 2.07 0 0 0 1.709-.766l1.053 1.244a2.943 2.943 0 0 1 -1.22.947 4.124 4.124 0 0 1 -1.696.342zm-.26-5.893q-1.012 0-1.2 1.34h2.326v-.178a1.141 1.141 0 0 0 -.28-.858 1.115 1.115 0 0 0 -.846-.303zm11.17 2.112a4.46 4.46 0 0 1 -.776 2.751 2.488 2.488 0 0 1 -2.1 1.029 2.132 2.132 0 0 1 -1.675-.745v3.452h-2.3v-10.242h2.153l.068.684a2.132 2.132 0 0 1 1.743-.82 2.508 2.508 0 0 1 2.126 1.008 4.515 4.515 0 0 1 .759 2.772zm-2.3-.144q0-1.969-1.148-1.969a1.084 1.084 0 0 0 -1.094.588v2.912a1.119 1.119 0 0 0 1.107.615q1.1 0 1.135-1.9zm6-5.448v1.837h1.217v1.6h-1.218v3.384a.864.864 0 0 0 .15.581.807.807 0 0 0 .595.164 3.38 3.38 0 0 0 .574-.041v1.647a4.252 4.252 0 0 1 -1.3.2 2.413 2.413 0 0 1 -1.757-.561 2.3 2.3 0 0 1 -.567-1.7v-3.674h-.938v-1.6h.943v-1.835zm6.288 9.237a2.6 2.6 0 0 1 -.219-.663 2.142 2.142 0 0 1 -1.777.8 2.624 2.624 0 0 1 -1.777-.632 2.013 2.013 0 0 1 -.731-1.589 2.069 2.069 0 0 1 .889-1.818 4.527 4.527 0 0 1 2.584-.615h.711v-.39q0-1.019-.882-1.019a.719.719 0 0 0 -.82.807h-2.31a2.068 2.068 0 0 1 .913-1.743 3.832 3.832 0 0 1 2.328-.67 3.363 3.363 0 0 1 2.235.69 2.4 2.4 0 0 1 .841 1.894v3.274a3.353 3.353 0 0 0 .314 1.559v.115zm-1.442-1.5a1.285 1.285 0 0 0 .714-.185 1.157 1.157 0 0 0 .407-.417v-1.186h-.67q-1.2 0-1.2 1.08a.659.659 0 0 0 .212.509.767.767 0 0 0 .536.199zm7.834-.137a1.025 1.025 0 0 0 .752-.263.965.965 0 0 0 .26-.735h2.164a2.557 2.557 0 0 1 -.872 2 3.242 3.242 0 0 1 -2.246.779 3.282 3.282 0 0 1 -2.543-1.012 3.986 3.986 0 0 1 -.93-2.8v-.1a4.505 4.505 0 0 1 .414-1.979 3.011 3.011 0 0 1 1.193-1.319 3.557 3.557 0 0 1 1.846-.461 3.2 3.2 0 0 1 2.29.8 2.837 2.837 0 0 1 .848 2.167h-2.16a1.265 1.265 0 0 0 -.28-.882.967.967 0 0 0 -.752-.308q-.9 0-1.046 1.142a8.055 8.055 0 0 0 -.048 1 3.164 3.164 0 0 0 .267 1.545.923.923 0 0 0 .842.422zm6.576 1.637h-2.311v-7.4h2.311zm-2.448-9.3a1.028 1.028 0 0 1 .355-.807 1.511 1.511 0 0 1 1.846 0 1.028 1.028 0 0 1 .355.807 1.028 1.028 0 0 1 -.355.807 1.511 1.511 0 0 1 -1.846 0 1.028 1.028 0 0 1 -.355-.807zm3.575 5.537a4.366 4.366 0 0 1 .431-1.972 3.08 3.08 0 0 1 1.242-1.333 3.726 3.726 0 0 1 1.894-.465 3.4 3.4 0 0 1 2.613 1.033 3.948 3.948 0 0 1 .957 2.8v.082a3.83 3.83 0 0 1 -.96 2.745 3.41 3.41 0 0 1 -2.6 1.015 3.449 3.449 0 0 1 -2.536-.947 3.7 3.7 0 0 1 -1.032-2.567zm2.3.144a2.752 2.752 0 0 0 .321 1.5 1.07 1.07 0 0 0 .95.479q1.23 0 1.258-1.894v-.232q0-1.989-1.271-1.989-1.155 0-1.251 1.716zm1.573-6.881h2.434l-1.9 2.146h-1.88zm6.392 3.1.075.868a2.508 2.508 0 0 1 2.112-1 2.11 2.11 0 0 1 1.726.69 3.287 3.287 0 0 1 .591 2.078v4.764h-2.307v-4.669a1.248 1.248 0 0 0 -.226-.824 1.044 1.044 0 0 0 -.82-.263 1.1 1.1 0 0 0 -1 .533v5.223h-2.3v-7.4zm13.139 5.318a.532.532 0 0 0 -.308-.472 4.679 4.679 0 0 0 -1.169-.369 5.33 5.33 0 0 1 -1.422-.5 2.382 2.382 0 0 1 -.854-.755 1.8 1.8 0 0 1 -.291-1.022 2.044 2.044 0 0 1 .841-1.678 3.464 3.464 0 0 1 2.2-.66 3.837 3.837 0 0 1 2.352.663 2.074 2.074 0 0 1 .889 1.743h-2.311q0-.889-.937-.889a.928.928 0 0 0 -.608.2.624.624 0 0 0 -.246.5.573.573 0 0 0 .3.5 2.842 2.842 0 0 0 .96.314 8.3 8.3 0 0 1 1.159.294 2.105 2.105 0 0 1 1.668 2.058 1.937 1.937 0 0 1 -.9 1.647 3.942 3.942 0 0 1 -2.328.636 4.023 4.023 0 0 1 -1.7-.342 2.835 2.835 0 0 1 -1.162-.93 2.105 2.105 0 0 1 -.417-1.237h2.153a.89.89 0 0 0 .342.749 1.406 1.406 0 0 0 .841.236 1.106 1.106 0 0 0 .708-.191.612.612 0 0 0 .243-.491zm6.877 2.215a3.8 3.8 0 0 1 -2.755-1.015 3.506 3.506 0 0 1 -1.053-2.639v-.191a4.542 4.542 0 0 1 .42-2 3.076 3.076 0 0 1 1.23-1.346 3.7 3.7 0 0 1 1.914-.475 3.2 3.2 0 0 1 2.461.967 3.8 3.8 0 0 1 .9 2.7v.9h-4.58a1.66 1.66 0 0 0 .54.978 1.607 1.607 0 0 0 1.08.355 2.07 2.07 0 0 0 1.709-.766l1.053 1.244a2.943 2.943 0 0 1 -1.22.947 4.124 4.124 0 0 1 -1.696.345zm-.26-5.893q-1.012 0-1.2 1.34h2.324v-.178a1.141 1.141 0 0 0 -.28-.858 1.115 1.115 0 0 0 -.841-.3zm6.422-1.64.075.868a2.508 2.508 0 0 1 2.112-1 2.11 2.11 0 0 1 1.726.69 3.287 3.287 0 0 1 .591 2.078v4.764h-2.31v-4.669a1.248 1.248 0 0 0 -.226-.824 1.044 1.044 0 0 0 -.82-.263 1.1 1.1 0 0 0 -1 .533v5.223h-2.3v-7.4zm9.652 5.318a.532.532 0 0 0 -.308-.472 4.679 4.679 0 0 0 -1.169-.369 5.33 5.33 0 0 1 -1.422-.5 2.382 2.382 0 0 1 -.854-.755 1.8 1.8 0 0 1 -.294-1.022 2.044 2.044 0 0 1 .841-1.678 3.464 3.464 0 0 1 2.2-.66 3.837 3.837 0 0 1 2.352.663 2.074 2.074 0 0 1 .889 1.743h-2.311q0-.889-.937-.889a.928.928 0 0 0 -.608.2.624.624 0 0 0 -.246.5.573.573 0 0 0 .3.5 2.842 2.842 0 0 0 .96.314 8.3 8.3 0 0 1 1.159.294 2.105 2.105 0 0 1 1.668 2.058 1.937 1.937 0 0 1 -.9 1.647 3.942 3.942 0 0 1 -2.328.636 4.023 4.023 0 0 1 -1.7-.342 2.835 2.835 0 0 1 -1.162-.93 2.105 2.105 0 0 1 -.417-1.237h2.165a.89.89 0 0 0 .342.749 1.406 1.406 0 0 0 .841.236 1.106 1.106 0 0 0 .708-.191.612.612 0 0 0 .231-.491zm3.008-1.688a4.366 4.366 0 0 1 .431-1.972 3.08 3.08 0 0 1 1.237-1.33 3.726 3.726 0 0 1 1.894-.465 3.4 3.4 0 0 1 2.618 1.037 3.948 3.948 0 0 1 .957 2.8v.082a3.83 3.83 0 0 1 -.96 2.745 3.41 3.41 0 0 1 -2.6 1.015 3.449 3.449 0 0 1 -2.536-.947 3.7 3.7 0 0 1 -1.032-2.567zm2.3.144a2.752 2.752 0 0 0 .321 1.5 1.07 1.07 0 0 0 .95.479q1.23 0 1.258-1.894v-.232q0-1.989-1.271-1.989-1.155 0-1.251 1.716zm10.322-1.688-.752-.052a1.363 1.363 0 0 0 -1.395.684v4.682h-2.3v-7.4h2.16l.075.95a1.784 1.784 0 0 1 1.62-1.087 2.246 2.246 0 0 1 .643.082zm3.265 5.314h-2.311v-7.4h2.311zm-2.447-9.3a1.028 1.028 0 0 1 .355-.807 1.511 1.511 0 0 1 1.846 0 1.028 1.028 0 0 1 .355.807 1.028 1.028 0 0 1 -.355.807 1.511 1.511 0 0 1 -1.846 0 1.028 1.028 0 0 1 -.356-.807zm8.03 9.3a2.6 2.6 0 0 1 -.219-.663 2.142 2.142 0 0 1 -1.777.8 2.624 2.624 0 0 1 -1.777-.632 2.013 2.013 0 0 1 -.731-1.589 2.069 2.069 0 0 1 .889-1.818 4.527 4.527 0 0 1 2.584-.615h.711v-.39q0-1.019-.882-1.019a.719.719 0 0 0 -.82.807h-2.3a2.068 2.068 0 0 1 .913-1.743 3.832 3.832 0 0 1 2.328-.67 3.363 3.363 0 0 1 2.235.69 2.4 2.4 0 0 1 .841 1.894v3.274a3.353 3.353 0 0 0 .314 1.559v.115zm-1.442-1.5a1.285 1.285 0 0 0 .714-.185 1.157 1.157 0 0 0 .407-.417v-1.186h-.67q-1.2 0-1.2 1.08a.659.659 0 0 0 .212.509.767.767 0 0 0 .538.199zm7.142 1.5h-2.311v-10.5h2.311z" fill="#12263f" transform="translate(661 185.758)"/></svg>