<svg xmlns="http://www.w3.org/2000/svg" width="82" height="82" viewBox="0 0 82 82">
  <g id="Grupo_1116921" data-name="Grupo 1116921" transform="translate(-707.051 -3514)">
    <g id="Grupo_1116526" data-name="Grupo 1116526" transform="translate(696.899 3503.941)">
      <g id="Elipse_157" data-name="Elipse 157" transform="translate(15.151 15.059)" fill="#fff" stroke="#ffce79" stroke-linejoin="round" stroke-width="5">
        <circle cx="36" cy="36" r="36" stroke="none"/>
        <circle cx="36" cy="36" r="38.5" fill="none"/>
      </g>
    </g>
    <g id="Grupo_1127710" data-name="Grupo 1127710" transform="translate(643.842 3530.579)">
      <path id="Trazado_919252" data-name="Trazado 919252" d="M127.7,12.093V10.234a2.63,2.63,0,0,1,2.63-2.63h19.217a2.63,2.63,0,0,1,2.63,2.63v5.35" transform="translate(-35.729 -6.879)" fill="#55b5e0"/>
      <path id="Trazado_919253" data-name="Trazado 919253" d="M133.356,12.093V10.234a2.63,2.63,0,0,1,2.63-2.63h-5.657a2.63,2.63,0,0,0-2.63,2.63v1.86l24.477,3.49v-.807Z" transform="translate(-35.729 -6.879)" fill="#188eb7"/>
      <path id="Trazado_919254" data-name="Trazado 919254" d="M131.4,88.5v21.365a5.674,5.674,0,0,1-5.674,5.674H107.694a5.674,5.674,0,0,1-5.674-5.674V88.5a5.947,5.947,0,0,1,1.657-4.119,5.96,5.96,0,0,0,1.655-4.119V74.538l22.753.788v4.938a5.949,5.949,0,0,0,.239,1.671c.055.186.118.368.19.548a5.906,5.906,0,0,0,1.225,1.9A5.952,5.952,0,0,1,131.4,88.5Z" transform="translate(-12.5 -67.428)" fill="#a7e6fc"/>
      <path id="Trazado_919255" data-name="Trazado 919255" d="M108.02,109.867V88.5a9.653,9.653,0,0,1,.253-2.219,7.343,7.343,0,0,1,.726-1.9q.069-.121.133-.249a4.022,4.022,0,0,1,3.591-2.2h15.6a5.945,5.945,0,0,1-.239-1.671V75.326l-22.753-.788v3.975h0v1.751c0,.088,0,.175-.006.263,0,.022,0,.043,0,.065q-.006.1-.015.2c0,.023,0,.046-.006.069-.009.085-.019.17-.031.255l0,.027q-.017.111-.037.221c-.006.03-.012.06-.018.089-.011.054-.023.107-.035.161-.007.032-.015.064-.023.1-.016.064-.033.128-.052.192l-.009.034h0a5.946,5.946,0,0,1-1.415,2.448,5.947,5.947,0,0,0-1.657,4.119v21.365a5.674,5.674,0,0,0,5.674,5.674h3.683C109.522,115.541,108.02,113,108.02,109.867Z" transform="translate(-12.499 -67.428)" fill="#8acfe2"/>
      <path id="Trazado_919256" data-name="Trazado 919256" d="M126.367,56.757v1.3a2.091,2.091,0,0,1-2.091,2.091H97.9a2.091,2.091,0,0,1-2.091-2.091v-1.3a2.063,2.063,0,0,1,.023-.31,2.091,2.091,0,0,1,2.068-1.78h26.38a2.091,2.091,0,0,1,2.068,1.78A2.049,2.049,0,0,1,126.367,56.757Z" transform="translate(-6.878 -49.451)" fill="#188eb7"/>
      <path id="Trazado_919257" data-name="Trazado 919257" d="M178.622,56.447a2.092,2.092,0,0,1-2.068,1.779H155.066a1.471,1.471,0,0,1-1.47-1.469h0a2.091,2.091,0,0,1,2.091-2.091h20.867A2.091,2.091,0,0,1,178.622,56.447Z" transform="translate(-59.156 -49.452)" fill="#55b5e0"/>
      <path id="Trazado_919258" data-name="Trazado 919258" d="M154.368,199.643v21.365a2.97,2.97,0,0,1-2.966,2.966H133.374a2.97,2.97,0,0,1-2.966-2.966V199.643a3.227,3.227,0,0,1,.232-1.206,3.261,3.261,0,0,1,.67-1.038h22.155A3.231,3.231,0,0,1,154.368,199.643Z" transform="translate(-38.18 -178.568)" fill="#f0f0f0"/>
      <path id="Trazado_919259" data-name="Trazado 919259" d="M254.506,147.474a8.173,8.173,0,0,1-9.482,4.829,8.169,8.169,0,0,1,9.865-9.864A8.2,8.2,0,0,1,254.506,147.474Z" transform="translate(-141.656 -128.644)" fill="#55c43d"/>
      <path id="Trazado_919260" data-name="Trazado 919260" d="M254.506,197.4a8.173,8.173,0,0,1-9.482,4.829,8.205,8.205,0,0,1,.3-4.828Z" transform="translate(-141.656 -178.568)" fill="#45af2c"/>
      <path id="Trazado_919261" data-name="Trazado 919261" d="M134.2,223.983h-.821a2.97,2.97,0,0,1-2.966-2.966V199.652a3.233,3.233,0,0,1,.9-2.244h2.65l-.006.024a9.654,9.654,0,0,0-.253,2.22v21.365A8.762,8.762,0,0,0,134.2,223.983Z" transform="translate(-38.18 -178.578)" fill="#c4c4c4"/>
      <path id="Trazado_919262" data-name="Trazado 919262" d="M175.878,288.154c-5.911-3.591-8.449-7.288-8.449-10.26a4.891,4.891,0,0,1,1.5-3.531,4.837,4.837,0,0,1,6.775-.068l.07.068.105.1.175-.171h0c.036-.035.072-.068.109-.1a4.839,4.839,0,0,1,6.666.169,5.351,5.351,0,0,1,.86,1.112h0C185.53,278.676,183.531,283.5,175.878,288.154Z" transform="translate(-71.67 -246.909)" fill="#f44d4d"/>
      <path id="Trazado_919263" data-name="Trazado 919263" d="M117.4,47.06h-5.532a.725.725,0,0,0,0,1.451H117.4a1.367,1.367,0,0,1,1.365,1.366v1.3a1.367,1.367,0,0,1-1.365,1.366H91.018a1.367,1.367,0,0,1-1.365-1.366v-1.3a1.367,1.367,0,0,1,1.365-1.366h18.43a.725.725,0,0,0,0-1.451H91.018A2.819,2.819,0,0,0,88.2,49.876v1.3a2.819,2.819,0,0,0,2.816,2.816H117.4a2.819,2.819,0,0,0,2.816-2.816v-1.3A2.82,2.82,0,0,0,117.4,47.06Z" transform="translate(0 -42.571)"/>
      <path id="Trazado_919264" data-name="Trazado 919264" d="M120.821,4.081a.725.725,0,0,0,.725-.725,1.907,1.907,0,0,1,1.9-1.9h19.217a1.907,1.907,0,0,1,1.9,1.9.725.725,0,1,0,1.451,0A3.359,3.359,0,0,0,142.668,0H123.451A3.359,3.359,0,0,0,120.1,3.355.725.725,0,0,0,120.821,4.081Z" transform="translate(-28.852 0)"/>
      <path id="Trazado_919265" data-name="Trazado 919265" d="M123.906,190.015a3.984,3.984,0,0,0-.819,1.269,3.944,3.944,0,0,0-.285,1.476v5.692a.725.725,0,1,0,1.451,0V192.76a2.5,2.5,0,0,1,.18-.935,2.543,2.543,0,0,1,.331-.584h21.488a2.5,2.5,0,0,1,.511,1.52v21.365a2.243,2.243,0,0,1-2.241,2.241H126.493a2.243,2.243,0,0,1-2.241-2.241V200.871a.725.725,0,1,0-1.451,0v13.255a3.7,3.7,0,0,0,3.691,3.691h18.028a3.7,3.7,0,0,0,3.691-3.691V192.76a3.953,3.953,0,0,0-1.105-2.747.726.726,0,0,0-.524-.223H124.43A.726.726,0,0,0,123.906,190.015Z" transform="translate(-31.3 -171.686)"/>
      <path id="Trazado_919266" data-name="Trazado 919266" d="M122.308,129.642a5.2,5.2,0,0,1-.377-1.949.725.725,0,0,0-1.451,0,6.678,6.678,0,0,0,1.857,4.621,5.2,5.2,0,0,1,1.455,3.617V157.3a4.954,4.954,0,0,1-4.949,4.949H100.815a4.954,4.954,0,0,1-4.949-4.949V135.931a5.221,5.221,0,0,1,1.455-3.617,6.643,6.643,0,0,0,1.857-4.621.725.725,0,1,0-1.451,0,5.2,5.2,0,0,1-1.454,3.617,6.672,6.672,0,0,0-1.858,4.62V157.3a6.407,6.407,0,0,0,6.4,6.4h18.028a6.407,6.407,0,0,0,6.4-6.4V135.931a6.649,6.649,0,0,0-1.859-4.621A5.177,5.177,0,0,1,122.308,129.642Z" transform="translate(-5.621 -114.857)"/>
      <path id="Trazado_919267" data-name="Trazado 919267" d="M161.538,266.943a5.628,5.628,0,0,0-1.713,4.044c0,2.068,1.143,6.23,8.8,10.88a.726.726,0,0,0,.753,0c3.739-2.272,6.337-4.677,7.722-7.148,1.3-2.321,1.42-4.634.338-6.513l-.007-.012a6.1,6.1,0,0,0-.968-1.251,5.558,5.558,0,0,0-7.461-.371q-.1-.085-.209-.163a5.566,5.566,0,0,0-7.251.534Zm6.78.963.174.17a.725.725,0,0,0,1.016,0l.175-.171.032-.033.053-.048a4.109,4.109,0,0,1,5.666.144,4.633,4.633,0,0,1,.744.962l.007.012c.822,1.436.7,3.189-.353,5.068-1.2,2.138-3.555,4.34-6.832,6.385-4.915-3.068-7.724-6.483-7.724-9.409a4.151,4.151,0,0,1,1.289-3.019,4.115,4.115,0,0,1,5.36-.4A4.2,4.2,0,0,1,168.319,267.907Z" transform="translate(-64.791 -240.003)"/>
      <path id="Trazado_919268" data-name="Trazado 919268" d="M238.124,206.724a.725.725,0,0,0-.831.6,8.871,8.871,0,0,0,.138,3.5.725.725,0,0,0,.535.535,9.026,9.026,0,0,0,2.122.254,8.83,8.83,0,0,0,6.264-2.609,9.12,9.12,0,0,0,.968-1.144.725.725,0,1,0-1.181-.842,7.684,7.684,0,0,1-.813.961,7.391,7.391,0,0,1-6.577,2.063,7.428,7.428,0,0,1-.023-2.489A.726.726,0,0,0,238.124,206.724Z" transform="translate(-134.768 -186.996)"/>
      <path id="Trazado_919269" data-name="Trazado 919269" d="M262.579,139.274a.725.725,0,0,0,.817-.62,8.89,8.89,0,0,0-.167-3.307.726.726,0,0,0-.535-.535,8.837,8.837,0,0,0-8.385,2.355,9.04,9.04,0,0,0-.936,1.1.725.725,0,1,0,1.176.849,7.568,7.568,0,0,1,.786-.923,7.391,7.391,0,0,1,6.577-2.064,7.437,7.437,0,0,1,.047,2.329A.726.726,0,0,0,262.579,139.274Z" transform="translate(-149.291 -121.722)"/>
    </g>
  </g>
</svg>
