<svg height="67.516" viewBox="0 0 63.289 67.516" width="63.289" xmlns="http://www.w3.org/2000/svg"><g transform="translate(-.499)"><path d="m167.58 16.753h-6.342v-4.227s2.114-5.284 9.512-5.284h2.114l4.228 4.227a11.708 11.708 0 0 1 -9.512 5.284zm0 0" fill="#c2fa93" transform="translate(-139.543 -6.287)"/><path d="m175.124 24.379a11.4 11.4 0 0 1 -8.6 4.081h-5.285v3.17h6.342a11.708 11.708 0 0 0 9.512-5.284zm0 0" fill="#8edf78" transform="translate(-139.543 -21.164)"/><path d="m56.876 16.75h-6.341a11.708 11.708 0 0 1 -9.511-5.284l4.228-4.228h2.113c7.4 0 9.512 5.285 9.512 5.285zm0 0" fill="#c2fa93" transform="translate(-35.18 -6.284)"/><path d="m49.125 112.926v16.909a9.512 9.512 0 0 1 -9.512 9.512h-4.227a9.455 9.455 0 0 1 -6.341-2.441 9.455 9.455 0 0 1 -6.341 2.441h-4.227a9.513 9.513 0 0 1 -9.512-9.512v-16.909a9.513 9.513 0 0 1 9.512-9.512h4.223a9.453 9.453 0 0 1 6.341 2.441 9.452 9.452 0 0 1 6.341-2.441h4.228a9.512 9.512 0 0 1 9.515 9.512zm0 0" fill="#ffee6e" transform="translate(-7.35 -89.777)"/><path d="m220.51 103.414h-3.17a9.512 9.512 0 0 1 9.512 9.512v16.909a9.512 9.512 0 0 1 -9.512 9.512h3.171a9.512 9.512 0 0 0 9.512-9.512v-16.91a9.512 9.512 0 0 0 -9.513-9.511zm0 0" fill="#ffbc36" transform="translate(-188.247 -89.777)"/><path d="m139.838 215.613v38.047h-50.728v-38.047zm-4.228 33.819v-29.591h-42.273v29.591zm0 0" fill="#cdd2e1" transform="translate(-76.926 -187.181)"/><path d="m163.441 247.672v29.591h-42.273v-4.228h3.171a9.452 9.452 0 0 0 6.341-2.441 9.454 9.454 0 0 0 6.341 2.441h4.227a9.513 9.513 0 0 0 9.512-9.512v-15.852zm0 0" fill="#b5efff" transform="translate(-104.757 -215.011)"/><path d="m150.759 247.672v15.853a9.512 9.512 0 0 1 -9.511 9.512h-4.228a9.452 9.452 0 0 1 -6.341-2.441 9.453 9.453 0 0 1 -6.341 2.441h-3.171v-25.365zm0 0" fill="#ffee6e" transform="translate(-104.756 -215.012)"/><path d="m417.7 247.672h3.171v29.591h-3.171zm0 0" fill="#80dbff" transform="translate(-362.185 -215.012)"/><path d="m201.313 287.742h12.687v4.228h-12.687zm0 0" fill="#c2fa93" transform="translate(-174.333 -249.798)"/><path d="m273.441 287.742h3.17v4.228h-3.17zm0 0" fill="#8edf78" transform="translate(-236.95 -249.798)"/><path d="m42.563 141.465h-1.993a4.762 4.762 0 0 1 2.664-4.59 6.2 6.2 0 0 1 2.56-.634l.005 1.992a3.116 3.116 0 0 0 -3.236 3.231zm0 0" fill="#fff" transform="translate(-34.787 -118.276)"/><path d="m264.516 376.676h5.284v1.992h-5.284zm0 0" fill="#fff" transform="translate(-229.201 -327.004)"/><path d="m54.337 27.478v1.992h7.463v36.054h-48.74v-36.054h38.107v-1.992h-8.516v-4.288a10.52 10.52 0 0 0 -10.507-10.508h-4.228a10.454 10.454 0 0 0 -5.345 1.472v-2.654h5.345a12.624 12.624 0 0 0 10.366-5.764l.4-.667-5.069-5.069h-2.526c-5.39 0-8.215 2.585-9.512 4.339-1.296-1.754-4.122-4.339-9.512-4.339h-2.526l-5.069 5.069.4.667a12.624 12.624 0 0 0 10.366 5.764h5.345v2.65a10.455 10.455 0 0 0 -5.345-1.472h-4.227a10.52 10.52 0 0 0 -10.507 10.512v2.11h1.991v-2.11a8.526 8.526 0 0 1 8.516-8.516h4.227a8.494 8.494 0 0 1 5.676 2.182l.666.6.665-.6a8.494 8.494 0 0 1 5.675-2.182h4.228a8.526 8.526 0 0 1 8.516 8.516v4.288h-29.592v21.137h-.061a8.525 8.525 0 0 1 -8.516-8.515v-11.626h-1.991v11.626a10.52 10.52 0 0 0 10.507 10.507h.061v16.909h52.72v-40.038zm-23.25-25.486h1.7l3.345 3.345a10.475 10.475 0 0 1 -8.217 4.174h-4.9c1.366-1.111 4.485-3.292 8.072-3.292v-1.992a14.921 14.921 0 0 0 -8.515 3.1v-.827c.407-.831 2.547-4.5 8.515-4.5zm-24.07 3.345 3.345-3.345h1.7c5.975 0 8.113 3.681 8.515 4.5v.834a14.925 14.925 0 0 0 -8.515-3.1v1.993c3.582 0 6.706 2.175 8.073 3.292h-4.9a10.476 10.476 0 0 1 -8.218-4.174zm0 0"/><path d="m112.7 272.017h44.266v-31.584h-44.266zm1.992-29.592h27.6v14.857a8.525 8.525 0 0 1 -8.516 8.515h-4.227a8.478 8.478 0 0 1 -5.675-2.186l-.667-.6-.666.6a8.441 8.441 0 0 1 -4.729 2.133l.222 1.98a10.387 10.387 0 0 0 5.174-2.08 10.456 10.456 0 0 0 6.341 2.144h4.227a10.52 10.52 0 0 0 10.508-10.508v-14.855h10.69v2.235h-8.516v1.992h8.516v23.372h-40.283zm0 0" transform="translate(-97.404 -208.728)"/><path d="m207.518 280.5h-14.674v6.219h14.674zm-1.992 4.228h-10.69v-2.228h10.69zm0 0" transform="translate(-166.981 -243.514)"/><path d="m200.4 344.621h13.739v1.992h-13.739zm0 0" transform="translate(-173.539 -299.176)"/><path d="m232.457 376.676h2.113v1.992h-2.113zm0 0" transform="translate(-201.37 -327.004)"/></g></svg>