<svg height="75.948" viewBox="0 0 75.948 75.948" width="75.948" xmlns="http://www.w3.org/2000/svg"><path d="m0 0h75.948v75.948h-75.948z" fill="none"/><g transform="translate(17.051 7)"><path d="m1 57h28a4 4 0 0 1 -4 4h-20a3.995 3.995 0 0 1 -4-4z" fill="#969faa"/><path d="m25 41 4 16h-28l4-16z" fill="#aab2bd"/><path d="m25 31v10h-4v-32h4z" fill="#ccd1d9"/><path d="m25 9h-20a4 4 0 0 1 4-4h12a4 4 0 0 1 4 4z" fill="#ccd1d9"/><path d="m5 9h4v32h-4z" fill="#ccd1d9"/><path d="m9 41v-32h12v32z" fill="#e6e9ed"/><path d="m17 18v18a1 1 0 0 1 -1 1h-2a1 1 0 0 1 -1-1v-18a1 1 0 0 1 1-1h2a1 1 0 0 1 1 1z" fill="#69d6f4"/></g><circle cx="32.051" cy="54" fill="#ef7385" r="2"/><path d="m45 4 1.41 1.41a2.006 2.006 0 0 1 .59 1.42v.17a2.015 2.015 0 0 1 -2 2 2.006 2.006 0 0 1 -2-2v-1l-1.41-1.41a2.006 2.006 0 0 1 -.59-1.42v-.17a1.955 1.955 0 0 1 .59-1.41 1.955 1.955 0 0 1 1.41-.59 2.006 2.006 0 0 1 2 2z" fill="#b4dd7f" transform="translate(17.051 7)"/><circle cx="50.051" cy="14" fill="#b4dd7f" r="2"/><path d="m43.83 50.17a4.008 4.008 0 1 1 -2.83-1.17 4.025 4.025 0 0 1 2.83 1.17z" fill="#b4dd7f" transform="translate(17.051 7)"/><path d="m33 42v1a2.006 2.006 0 0 1 -2 2 2.015 2.015 0 0 1 -2-2v-.17a2.006 2.006 0 0 1 .59-1.42l1.41-1.41v-1a2.006 2.006 0 0 1 2-2 2.015 2.015 0 0 1 2 2v.17a2.006 2.006 0 0 1 -.59 1.42z" fill="#b4dd7f" transform="translate(17.051 7)"/><g transform="translate(17.051 7)"><path d="m26 32h16a2 2 0 0 1 0 4h-.146a1.991 1.991 0 0 1 -1.789-1.1l-.171-.342-1.789.9.171.342a3.98 3.98 0 0 0 3.578 2.2h.146a4 4 0 1 0 0-8h-16v-6h11a1 1 0 0 1 0 2h-.171a1 1 0 0 1 -.708-.293l-.414-.414-1.414 1.414.414.414a2.978 2.978 0 0 0 2.122.879h.171a3 3 0 0 0 0-6h-19v-2h20a4 4 0 0 0 0-8h-.146a3.979 3.979 0 0 0 -3.578 2.211l-.171.342 1.789.895.171-.342a1.99 1.99 0 0 1 1.789-1.106h.146a2 2 0 0 1 0 4h-12v-9a5.006 5.006 0 0 0 -5-5h-12a5.006 5.006 0 0 0 -5 5v31.877l-3.97 15.88-.03.243a5.006 5.006 0 0 0 5 5h20a5.006 5.006 0 0 0 5-5l-4-16.123zm-2 8h-2v-16h2zm-8-4h-2v-2h2zm-2-14h2v2h-2zm0-2v-2h2v2zm2 12h-2v-2h2zm0-4h-2v-2h2zm0-12h-2a2 2 0 0 0 -2 2v18a2 2 0 0 0 2 2h2a2 2 0 0 0 2-2v-12h2v16h-10v-30h10v8h-2a2 2 0 0 0 -2-2zm-8-6v30h-2.029l.029-30zm14 8v-8h2v8zm-13-12h12a3 3 0 0 1 2.816 2h-17.632a3 3 0 0 1 2.816-2zm16 54h-20a2.994 2.994 0 0 1 -2.814-2h25.628a2.994 2.994 0 0 1 -2.814 2zm2.722-4h-25.441l3.5-14h18.467z"/><path d="m12 12h6v2h-6z"/><path d="m15 44a3 3 0 1 0 3 3 3 3 0 0 0 -3-3zm0 4a1 1 0 1 1 1-1 1 1 0 0 1 -1 1z"/><path d="m8 52h2v2h-2z"/><path d="m12 52h2v2h-2z"/><path d="m16 52h2v2h-2z"/><path d="m20 52h2v2h-2z"/><path d="m48 50v2h-2.1a4.961 4.961 0 0 0 -.732-1.753l1.54-1.54-1.414-1.414-1.54 1.54a4.961 4.961 0 0 0 -1.754-.733v-2.1h2v-2h-6v2h2v2.1a4.961 4.961 0 0 0 -1.753.732l-1.54-1.54-1.414 1.414 1.54 1.54a4.961 4.961 0 0 0 -.733 1.754h-2.1v-2h-2v6h2v-2h2.1a4.961 4.961 0 0 0 .732 1.753l-1.54 1.54 1.414 1.414 1.54-1.54a4.961 4.961 0 0 0 1.754.733v2.1h-2v2h6v-2h-2v-2.1a4.961 4.961 0 0 0 1.753-.732l1.54 1.54 1.414-1.414-1.54-1.54a4.961 4.961 0 0 0 .733-1.754h2.1v2h2v-6zm-7 6a3 3 0 1 1 3-3 3 3 0 0 1 -3 3z"/><path d="m42 6.414v.586a3 3 0 0 0 6 0v-.171a2.982 2.982 0 0 0 -.879-2.122l-1.121-1.121v-.586a3 3 0 0 0 -6 0v.171a2.982 2.982 0 0 0 .879 2.122zm0-3.414a1 1 0 0 1 2 0v1.414l1.707 1.707a1 1 0 0 1 .293.708v.171a1 1 0 0 1 -2 0v-1.414l-1.707-1.707a1 1 0 0 1 -.293-.708z"/><path d="m34 43v-.586l1.121-1.121a2.978 2.978 0 0 0 .879-2.122v-.171a3 3 0 0 0 -6 0v.586l-1.121 1.121a2.978 2.978 0 0 0 -.879 2.122v.171a3 3 0 0 0 6 0zm-2 0a1 1 0 0 1 -2 0v-.171a1 1 0 0 1 .293-.708l1.707-1.707v-1.414a1 1 0 0 1 2 0v.171a1 1 0 0 1 -.293.708l-1.707 1.707z"/><path d="m32 9.816v2.184h2v-2.184a3 3 0 0 0 1.816-1.816h2.184v-2h-2.184a3 3 0 0 0 -1.816-1.816v-2.184h-2v2.184a3 3 0 0 0 -1.816 1.816h-2.184v2h2.184a3 3 0 0 0 1.816 1.816zm1-3.816a1 1 0 1 1 -1 1 1 1 0 0 1 1-1z"/></g></svg>