<svg xmlns="http://www.w3.org/2000/svg" width="75.948" height="75.948" viewBox="0 0 75.948 75.948">
  <g id="Grupo_1127550" data-name="Grupo 1127550" transform="translate(-1326 -3109)">
    <rect id="Rectángulo_409889" data-name="Rectángulo 409889" width="75.948" height="75.948" transform="translate(1326 3109)" fill="none"/>
    <g id="Grupo_1127549" data-name="Grupo 1127549" transform="translate(1343.051 3116)">
      <g id="Grupo_1127547" data-name="Grupo 1127547">
        <g id="Grupo_1127535" data-name="Grupo 1127535">
          <path id="Trazado_918072" data-name="Trazado 918072" d="M1,57H29a4,4,0,0,1-4,4H5a3.995,3.995,0,0,1-4-4Z" fill="#969faa"/>
        </g>
        <g id="Grupo_1127536" data-name="Grupo 1127536">
          <path id="Trazado_918073" data-name="Trazado 918073" d="M25,41l4,16H1L5,41H25Z" fill="#aab2bd"/>
        </g>
        <g id="Grupo_1127537" data-name="Grupo 1127537">
          <path id="Trazado_918074" data-name="Trazado 918074" d="M25,31V41H21V9h4V31Z" fill="#ccd1d9"/>
        </g>
        <g id="Grupo_1127538" data-name="Grupo 1127538">
          <path id="Trazado_918075" data-name="Trazado 918075" d="M25,9H5A4,4,0,0,1,9,5H21A4,4,0,0,1,25,9Z" fill="#ccd1d9"/>
        </g>
        <g id="Grupo_1127539" data-name="Grupo 1127539">
          <path id="Trazado_918076" data-name="Trazado 918076" d="M5,9H9V41H5Z" fill="#ccd1d9"/>
        </g>
        <g id="Grupo_1127540" data-name="Grupo 1127540">
          <path id="Trazado_918077" data-name="Trazado 918077" d="M9,41V9H21V41Z" fill="#e6e9ed"/>
        </g>
        <g id="Grupo_1127541" data-name="Grupo 1127541">
          <path id="Trazado_918078" data-name="Trazado 918078" d="M17,18V36a1,1,0,0,1-1,1H14a1,1,0,0,1-1-1V18a1,1,0,0,1,1-1h2A1,1,0,0,1,17,18Z" fill="#69d6f4"/>
        </g>
        <g id="Grupo_1127542" data-name="Grupo 1127542">
          <circle id="Elipse_12350" data-name="Elipse 12350" cx="2" cy="2" r="2" transform="translate(13 45)" fill="#ef7385"/>
        </g>
        <g id="Grupo_1127543" data-name="Grupo 1127543">
          <path id="Trazado_918079" data-name="Trazado 918079" d="M45,4l1.41,1.41A2.006,2.006,0,0,1,47,6.83V7a2.015,2.015,0,0,1-2,2,2.006,2.006,0,0,1-2-2V6L41.59,4.59A2.006,2.006,0,0,1,41,3.17V3a1.955,1.955,0,0,1,.59-1.41A1.955,1.955,0,0,1,43,1a2.006,2.006,0,0,1,2,2Z" fill="#b4dd7f"/>
        </g>
        <g id="Grupo_1127544" data-name="Grupo 1127544">
          <circle id="Elipse_12351" data-name="Elipse 12351" cx="2" cy="2" r="2" transform="translate(31 5)" fill="#b4dd7f"/>
        </g>
        <g id="Grupo_1127545" data-name="Grupo 1127545">
          <path id="Trazado_918080" data-name="Trazado 918080" d="M43.83,50.17A4.008,4.008,0,1,1,41,49,4.025,4.025,0,0,1,43.83,50.17Z" fill="#b4dd7f"/>
        </g>
        <g id="Grupo_1127546" data-name="Grupo 1127546">
          <path id="Trazado_918081" data-name="Trazado 918081" d="M33,42v1a2.006,2.006,0,0,1-2,2,2.015,2.015,0,0,1-2-2v-.17a2.006,2.006,0,0,1,.59-1.42L31,40V39a2.006,2.006,0,0,1,2-2,2.015,2.015,0,0,1,2,2v.17a2.006,2.006,0,0,1-.59,1.42Z" fill="#b4dd7f"/>
        </g>
      </g>
      <g id="Grupo_1127548" data-name="Grupo 1127548">
        <path id="Trazado_918082" data-name="Trazado 918082" d="M26,32H42a2,2,0,0,1,0,4h-.146a1.991,1.991,0,0,1-1.789-1.1l-.171-.342-1.789.9.171.342A3.98,3.98,0,0,0,41.854,38H42a4,4,0,1,0,0-8H26V24H37a1,1,0,0,1,0,2h-.171a1,1,0,0,1-.708-.293l-.414-.414-1.414,1.414.414.414A2.978,2.978,0,0,0,36.829,28H37a3,3,0,0,0,0-6H18V20H38a4,4,0,0,0,0-8h-.146a3.979,3.979,0,0,0-3.578,2.211l-.171.342,1.789.895.171-.342A1.99,1.99,0,0,1,37.854,14H38a2,2,0,0,1,0,4H26V9a5.006,5.006,0,0,0-5-5H9A5.006,5.006,0,0,0,4,9V40.877L.03,56.757,0,57a5.006,5.006,0,0,0,5,5H25a5.006,5.006,0,0,0,5-5L26,40.877Zm-2,8H22V24h2Zm-8-4H14V34h2ZM14,22h2v2H14Zm0-2V18h2v2Zm2,12H14V30h2Zm0-4H14V26h2Zm0-12H14a2,2,0,0,0-2,2V36a2,2,0,0,0,2,2h2a2,2,0,0,0,2-2V24h2V40H10V10H20v8H18a2,2,0,0,0-2-2ZM8,10V40H5.971L6,10Zm14,8V10h2v8ZM9,6H21a3,3,0,0,1,2.816,2H6.184A3,3,0,0,1,9,6ZM25,60H5a2.994,2.994,0,0,1-2.814-2H27.814A2.994,2.994,0,0,1,25,60Zm2.722-4H2.281l3.5-14H24.248Z"/>
        <path id="Trazado_918083" data-name="Trazado 918083" d="M12,12h6v2H12Z"/>
        <path id="Trazado_918084" data-name="Trazado 918084" d="M15,44a3,3,0,1,0,3,3A3,3,0,0,0,15,44Zm0,4a1,1,0,1,1,1-1A1,1,0,0,1,15,48Z"/>
        <path id="Trazado_918085" data-name="Trazado 918085" d="M8,52h2v2H8Z"/>
        <path id="Trazado_918086" data-name="Trazado 918086" d="M12,52h2v2H12Z"/>
        <path id="Trazado_918087" data-name="Trazado 918087" d="M16,52h2v2H16Z"/>
        <path id="Trazado_918088" data-name="Trazado 918088" d="M20,52h2v2H20Z"/>
        <path id="Trazado_918089" data-name="Trazado 918089" d="M48,50v2H45.9a4.961,4.961,0,0,0-.732-1.753l1.54-1.54-1.414-1.414-1.54,1.54A4.961,4.961,0,0,0,42,48.1V46h2V44H38v2h2v2.1a4.961,4.961,0,0,0-1.753.732l-1.54-1.54-1.414,1.414,1.54,1.54A4.961,4.961,0,0,0,36.1,52H34V50H32v6h2V54h2.1a4.961,4.961,0,0,0,.732,1.753l-1.54,1.54,1.414,1.414,1.54-1.54A4.961,4.961,0,0,0,40,57.9V60H38v2h6V60H42V57.9a4.961,4.961,0,0,0,1.753-.732l1.54,1.54,1.414-1.414-1.54-1.54A4.961,4.961,0,0,0,45.9,54H48v2h2V50Zm-7,6a3,3,0,1,1,3-3A3,3,0,0,1,41,56Z"/>
        <path id="Trazado_918090" data-name="Trazado 918090" d="M42,6.414V7a3,3,0,0,0,6,0V6.829a2.982,2.982,0,0,0-.879-2.122L46,3.586V3a3,3,0,0,0-6,0v.171a2.982,2.982,0,0,0,.879,2.122ZM42,3a1,1,0,0,1,2,0V4.414l1.707,1.707A1,1,0,0,1,46,6.829V7a1,1,0,0,1-2,0V5.586L42.293,3.879A1,1,0,0,1,42,3.171Z"/>
        <path id="Trazado_918091" data-name="Trazado 918091" d="M34,43v-.586l1.121-1.121A2.978,2.978,0,0,0,36,39.171V39a3,3,0,0,0-6,0v.586l-1.121,1.121A2.978,2.978,0,0,0,28,42.829V43a3,3,0,0,0,6,0Zm-2,0a1,1,0,0,1-2,0v-.171a1,1,0,0,1,.293-.708L32,40.414V39a1,1,0,0,1,2,0v.171a1,1,0,0,1-.293.708L32,41.586Z"/>
        <path id="Trazado_918092" data-name="Trazado 918092" d="M32,9.816V12h2V9.816A3,3,0,0,0,35.816,8H38V6H35.816A3,3,0,0,0,34,4.184V2H32V4.184A3,3,0,0,0,30.184,6H28V8h2.184A3,3,0,0,0,32,9.816ZM33,6a1,1,0,1,1-1,1A1,1,0,0,1,33,6Z"/>
      </g>
    </g>
  </g>
</svg>
