<svg xmlns="http://www.w3.org/2000/svg" xmlns:xlink="http://www.w3.org/1999/xlink" width="129" height="129" viewBox="0 0 129 129">
  <defs>
    <radialGradient id="radial-gradient" cx="0.5" cy="0.5" r="0.5" gradientUnits="objectBoundingBox">
      <stop offset="0" stop-color="#fff"/>
      <stop offset="1" stop-color="#fff7ea"/>
    </radialGradient>
  </defs>
  <g id="Grupo_1127832" data-name="Grupo 1127832" transform="translate(-336 -1407.988)">
    <g id="Grupo_1127831" data-name="Grupo 1127831">
      <g id="Grupo_1116867" data-name="Grupo 1116867" transform="translate(-401.051 -2222.012)">
        <g id="Grupo_1106785" data-name="Grupo 1106785" transform="translate(0.479 -533)">
          <g id="Grupo_1106776" data-name="Grupo 1106776" transform="translate(311)">
            <g id="Elipse_12307" data-name="Elipse 12307" transform="translate(440.571 4178)" stroke="#fff" stroke-width="2" fill="url(#radial-gradient)">
              <circle cx="49.5" cy="49.5" r="49.5" stroke="none"/>
              <circle cx="49.5" cy="49.5" r="48.5" fill="none"/>
            </g>
            <g id="Elipse_12308" data-name="Elipse 12308" transform="translate(425.571 4163)" fill="none" stroke="#59836b" stroke-width="10" opacity="0.43">
              <circle cx="64.5" cy="64.5" r="64.5" stroke="none"/>
              <circle cx="64.5" cy="64.5" r="59.5" fill="none"/>
            </g>
          </g>
        </g>
        <g id="Grupo_1127820" data-name="Grupo 1127820" transform="translate(783.051 3663.582)">
          <g id="Grupo_1127818" data-name="Grupo 1127818">
            <g id="Grupo_1127812" data-name="Grupo 1127812">
              <path id="Trazado_919620" data-name="Trazado 919620" d="M33,3V13H5V3A2.006,2.006,0,0,1,7,1H31A2.006,2.006,0,0,1,33,3Z" fill="#fcd770"/>
            </g>
            <g id="Grupo_1127813" data-name="Grupo 1127813">
              <path id="Trazado_919621" data-name="Trazado 919621" d="M33,13a7.241,7.241,0,0,1,4,6.47V55a6,6,0,0,1-6,6H7a6,6,0,0,1-6-6V19.47A7.241,7.241,0,0,1,5,13Z" fill="#ffeaa7"/>
            </g>
            <g id="Grupo_1127814" data-name="Grupo 1127814">
              <path id="Trazado_919622" data-name="Trazado 919622" d="M23,9H15a4,4,0,1,1,8,0Z" fill="#e6e9ed"/>
            </g>
            <g id="Grupo_1127815" data-name="Grupo 1127815">
              <path id="Trazado_919623" data-name="Trazado 919623" d="M19,19A14,14,0,1,1,5,33,14,14,0,0,1,19,19Z" fill="#ff826e"/>
            </g>
            <g id="Grupo_1127816" data-name="Grupo 1127816">
              <path id="Trazado_919624" data-name="Trazado 919624" d="M23,26v7H20a1,1,0,0,0-1,1v3H12a1,1,0,0,1-1-1V26a1,1,0,0,1,1-1H22A1,1,0,0,1,23,26Z" fill="#ccd1d9"/>
            </g>
            <g id="Grupo_1127817" data-name="Grupo 1127817">
              <path id="Trazado_919625" data-name="Trazado 919625" d="M27,34v6a1,1,0,0,1-1,1H20a1,1,0,0,1-1-1V34a1,1,0,0,1,1-1h6A1,1,0,0,1,27,34Z" fill="#e6e9ed"/>
            </g>
          </g>
          <g id="Grupo_1127819" data-name="Grupo 1127819">
            <path id="Trazado_919626" data-name="Trazado 919626" d="M19,18A15,15,0,1,0,34,33,15.017,15.017,0,0,0,19,18Zm0,2a12.932,12.932,0,0,1,8.447,3.138L24,26.586V26a2,2,0,0,0-2-2H12a2,2,0,0,0-2,2V36a2,2,0,0,0,2,2h.586L9.139,41.447A12.982,12.982,0,0,1,19,20Zm7,14v6H20V34Zm-6-2a2,2,0,0,0-2,2v2H12V26H22v6ZM19,46a12.932,12.932,0,0,1-8.447-3.138L15.414,38H18v2a2,2,0,0,0,2,2h6a2,2,0,0,0,2-2V34a2,2,0,0,0-2-2H24V29.414l4.862-4.862A12.984,12.984,0,0,1,19,46Z"/>
            <path id="Trazado_919627" data-name="Trazado 919627" d="M34,12.431V3a3,3,0,0,0-3-3H7A3,3,0,0,0,4,3v9.431a8.171,8.171,0,0,0-4,7.041V55a7.008,7.008,0,0,0,7,7H31a7.008,7.008,0,0,0,7-7V19.472A8.173,8.173,0,0,0,34,12.431ZM6,10H8v2H6Zm4,0h2v2H10Zm6.184-2a2.982,2.982,0,0,1,5.632,0ZM14,10h2v2H14Zm4,0h2v2H18Zm4,0h2v2H22Zm4,0h2v2H26Zm4,0h2v2H30ZM7,2H31a1,1,0,0,1,1,1V8H23.9a5,5,0,0,0-9.8,0H6V3A1,1,0,0,1,7,2ZM36,55a5.006,5.006,0,0,1-5,5H7a5.006,5.006,0,0,1-5-5V19.472A6.192,6.192,0,0,1,5.268,14H32.731A6.191,6.191,0,0,1,36,19.472Z"/>
            <path id="Trazado_919628" data-name="Trazado 919628" d="M4,50H8v2H4Z"/>
            <path id="Trazado_919629" data-name="Trazado 919629" d="M10,50h4v2H10Z"/>
            <path id="Trazado_919630" data-name="Trazado 919630" d="M4,54H14v2H4Z"/>
          </g>
        </g>
      </g>
    </g>
  </g>
</svg>
