<svg xmlns="http://www.w3.org/2000/svg" width="82" height="82" viewBox="0 0 82 82">
  <g id="Grupo_1127831" data-name="Grupo 1127831" transform="translate(-833.236 -753.831)">
    <g id="Grupo_1106486" data-name="Grupo 1106486" transform="translate(823.085 743.771)">
      <g id="Elipse_157" data-name="Elipse 157" transform="translate(15.151 15.059)" fill="#fff" stroke="#ffce79" stroke-linejoin="round" stroke-width="5">
        <circle cx="36" cy="36" r="36" stroke="none"/>
        <circle cx="36" cy="36" r="38.5" fill="none"/>
      </g>
    </g>
    <g id="Grupo_1127794" data-name="Grupo 1127794" transform="translate(843.745 762.64)">
      <g id="Grupo_1127792" data-name="Grupo 1127792" transform="translate(7.501 7.5)">
        <path id="Trazado_919548" data-name="Trazado 919548" d="M11.982,331.252l-.944-.226a4.612,4.612,0,0,1-3.409-5.56l.519-2.161a.192.192,0,0,1,.231-.142l.752.18a4.617,4.617,0,0,1,3.412,5.566Z" transform="translate(-7.502 -292.885)" fill="#80d261"/>
        <path id="Trazado_919549" data-name="Trazado 919549" d="M282.487,331.252l.944-.226a4.612,4.612,0,0,0,3.409-5.56l-.519-2.161a.192.192,0,0,0-.231-.142l-.752.18a4.617,4.617,0,0,0-3.412,5.566Z" transform="translate(-255.491 -292.885)" fill="#80d261"/>
        <path id="Trazado_919550" data-name="Trazado 919550" d="M152.738,23.053H148.26V11.883a2.3,2.3,0,0,1,.748-1.7l2.766-2.531a.575.575,0,0,1,.964.425Z" transform="translate(-134.761 -7.502)" fill="#80d261"/>
        <path id="Trazado_919551" data-name="Trazado 919551" d="M151.406,10.184l1.333-1.219V8.078a.575.575,0,0,0-.964-.425l-2.766,2.531a2.3,2.3,0,0,0-.748,1.7v11.17h2.4V11.882A2.3,2.3,0,0,1,151.406,10.184Z" transform="translate(-134.761 -7.501)" fill="#68ca44"/>
        <path id="Trazado_919552" data-name="Trazado 919552" d="M45.682,195.838l-.957-.16a4.612,4.612,0,0,1-3.786-5.31l.367-2.192a.192.192,0,0,1,.221-.157l.763.128a4.617,4.617,0,0,1,3.791,5.316Z" transform="translate(-37.674 -170.703)" fill="#80d261"/>
        <path id="Trazado_919553" data-name="Trazado 919553" d="M250.451,197.581l.957-.16a4.612,4.612,0,0,0,3.786-5.31l-.367-2.192a.192.192,0,0,0-.221-.157l-.763.128a4.617,4.617,0,0,0-3.791,5.316Z" transform="translate(-226.734 -172.279)" fill="#80d261"/>
        <path id="Trazado_919554" data-name="Trazado 919554" d="M51.759,103.9V99.643a.575.575,0,0,0-.945-.441l-2.575,2.159a.575.575,0,0,1-.595.089l-2.44-1.037a.575.575,0,0,0-.8.53v2.678a2.788,2.788,0,0,1-1.061,2.2c-5,3.912-8.558,13.368-8.558,19.01a13.122,13.122,0,0,0,26.244,0c0-5.537-3.43-14.748-8.281-18.787A2.778,2.778,0,0,1,51.759,103.9Z" transform="translate(-32.168 -90.285)" fill="#ee6161"/>
        <path id="Trazado_919555" data-name="Trazado 919555" d="M107.826,252.317a6.762,6.762,0,0,1,1.787-5.033.193.193,0,0,1,.308.008l3.286,4.667a.192.192,0,0,1-.21.295,6.914,6.914,0,0,0-4.891.205A.191.191,0,0,1,107.826,252.317Z" transform="translate(-98.174 -224.222)" fill="#80d261"/>
        <path id="Trazado_919556" data-name="Trazado 919556" d="M83.479,357.283c-.1-.755-.137-2.873,1.944-5.476a.209.209,0,0,1,.335.009l3.575,5.078a.209.209,0,0,1-.229.32,7.523,7.523,0,0,0-5.321.223A.208.208,0,0,1,83.479,357.283Z" transform="translate(-76.16 -318.716)" fill="#80d261"/>
        <path id="Trazado_919557" data-name="Trazado 919557" d="M200.712,288.637a6.716,6.716,0,0,0-1.775-5,.191.191,0,0,0-.306.008l-3.264,4.635a.19.19,0,0,0,.209.293,6.866,6.866,0,0,1,4.857.2A.19.19,0,0,0,200.712,288.637Z" transform="translate(-177.319 -257.091)" fill="#80d261"/>
        <path id="Trazado_919558" data-name="Trazado 919558" d="M180.857,394.224c.1-.755.137-2.873-1.944-5.476a.21.21,0,0,0-.335.009L175,393.835a.209.209,0,0,0,.229.321,7.523,7.523,0,0,1,5.321.223A.208.208,0,0,0,180.857,394.224Z" transform="translate(-158.904 -352.114)" fill="#80d261"/>
        <path id="Trazado_919559" data-name="Trazado 919559" d="M176.75,198.821a4.931,4.931,0,0,1,1.3-3.67.14.14,0,0,1,.224.006l2.4,3.4a.14.14,0,0,1-.153.215,5.042,5.042,0,0,0-3.567.15A.139.139,0,0,1,176.75,198.821Z" transform="translate(-160.497 -177.106)" fill="#80d261"/>
        <path id="Trazado_919560" data-name="Trazado 919560" d="M271.942,382.079h10.946a.77.77,0,0,1,.765.828,11.741,11.741,0,0,1-23.422,0,.77.77,0,0,1,.765-.828Z" transform="translate(-235.992 -346.156)" fill="#e94444"/>
        <path id="Trazado_919561" data-name="Trazado 919561" d="M303.66,382.079h8.349a8.349,8.349,0,1,1-16.7,0Z" transform="translate(-267.709 -346.156)" fill="#ffefd2"/>
        <path id="Trazado_919562" data-name="Trazado 919562" d="M37.181,137.07c0-5.642,3.561-15.1,8.558-19.01a2.787,2.787,0,0,0,1.061-2.2v-2.529l-1.6-.679a.575.575,0,0,0-.8.529v2.678a2.788,2.788,0,0,1-1.061,2.2c-5,3.912-8.558,13.368-8.558,19.01A13.122,13.122,0,0,0,47.9,150.192c.4,0,.8-.019,1.2-.055A13.123,13.123,0,0,1,37.181,137.07Z" transform="translate(-32.167 -102.528)" fill="#e94444"/>
        <path id="Trazado_919563" data-name="Trazado 919563" d="M262.627,382.908a.77.77,0,0,1,.765-.828h-2.4a.77.77,0,0,0-.765.828,11.8,11.8,0,0,0,11.711,10.912,11.664,11.664,0,0,0,1.2-.062A11.815,11.815,0,0,1,262.627,382.908Z" transform="translate(-235.99 -346.157)" fill="#d83131"/>
        <path id="Trazado_919564" data-name="Trazado 919564" d="M297.708,382.079h-2.4a8.389,8.389,0,0,0,8.349,8.349,8.28,8.28,0,0,0,1.2-.088A8.4,8.4,0,0,1,297.708,382.079Z" transform="translate(-267.708 -346.156)" fill="#fee8c7"/>
      </g>
      <g id="Grupo_1127793" data-name="Grupo 1127793" transform="translate(7.501 7.5)">
        <path id="Trazado_919565" data-name="Trazado 919565" d="M10.58,330.891a4.61,4.61,0,0,1-2.95-5.424l.518-2.162a.193.193,0,0,1,.232-.142l.752.18a4.64,4.64,0,0,1,1.349.56" transform="translate(-7.501 -292.886)" fill="none" stroke="#000" stroke-linecap="round" stroke-linejoin="round" stroke-miterlimit="10" stroke-width="1"/>
        <path id="Trazado_919566" data-name="Trazado 919566" d="M304.642,323.9a4.64,4.64,0,0,1,1.349-.56l.753-.18a.192.192,0,0,1,.231.142l.519,2.162a4.594,4.594,0,0,1-.469,3.342" transform="translate(-276.145 -292.886)" fill="none" stroke="#000" stroke-linecap="round" stroke-linejoin="round" stroke-miterlimit="10" stroke-width="1"/>
        <path id="Trazado_919567" data-name="Trazado 919567" d="M148.262,17.824V11.881a2.3,2.3,0,0,1,.748-1.7l2.766-2.531a.575.575,0,0,1,.964.425v8.9" transform="translate(-134.763 -7.5)" fill="none" stroke="#000" stroke-linecap="round" stroke-linejoin="round" stroke-miterlimit="10" stroke-width="1"/>
        <path id="Trazado_919568" data-name="Trazado 919568" d="M42.788,194.873a4.609,4.609,0,0,1-1.852-4.5l.367-2.192a.191.191,0,0,1,.221-.157l.763.128a4.606,4.606,0,0,1,3.07,1.98" transform="translate(-37.672 -170.705)" fill="none" stroke="#000" stroke-linecap="round" stroke-linejoin="round" stroke-miterlimit="10" stroke-width="1"/>
        <path id="Trazado_919569" data-name="Trazado 919569" d="M257.462,191.974a4.6,4.6,0,0,1,3.138-2.086l.763-.129a.192.192,0,0,1,.221.158l.367,2.191a4.612,4.612,0,0,1-1.988,4.6" transform="translate(-233.49 -172.278)" fill="none" stroke="#000" stroke-linecap="round" stroke-linejoin="round" stroke-miterlimit="10" stroke-width="1"/>
        <path id="Trazado_919570" data-name="Trazado 919570" d="M75.982,451.583A13.12,13.12,0,0,0,95.627,450.1" transform="translate(-69.415 -407.657)" fill="none" stroke="#000" stroke-linecap="round" stroke-linejoin="round" stroke-miterlimit="10" stroke-width="1"/>
        <path id="Trazado_919571" data-name="Trazado 919571" d="M36.65,131.579a13.054,13.054,0,0,1-1.868-6.752c0-5.642,3.561-15.1,8.558-19.01a2.789,2.789,0,0,0,1.061-2.2v-2.679a.576.576,0,0,1,.8-.529l2.441,1.038a.576.576,0,0,0,.595-.088L50.812,99.2a.575.575,0,0,1,.945.441V103.9a2.777,2.777,0,0,0,.989,2.138c4.851,4.038,8.28,13.25,8.28,18.786a13.148,13.148,0,0,1-.072,1.382" transform="translate(-32.166 -90.286)" fill="none" stroke="#000" stroke-linecap="round" stroke-linejoin="round" stroke-miterlimit="10" stroke-width="1"/>
        <path id="Trazado_919572" data-name="Trazado 919572" d="M107.826,252.319a6.762,6.762,0,0,1,1.787-5.033.193.193,0,0,1,.308.008l3.286,4.667a.192.192,0,0,1-.21.295,6.913,6.913,0,0,0-4.891.205A.191.191,0,0,1,107.826,252.319Z" transform="translate(-98.174 -224.224)" fill="none" stroke="#000" stroke-linecap="round" stroke-linejoin="round" stroke-miterlimit="10" stroke-width="1"/>
        <path id="Trazado_919573" data-name="Trazado 919573" d="M83.479,357.285c-.1-.755-.137-2.873,1.944-5.476a.209.209,0,0,1,.335.009l3.575,5.078a.209.209,0,0,1-.229.32,7.522,7.522,0,0,0-5.321.223A.208.208,0,0,1,83.479,357.285Z" transform="translate(-76.16 -318.718)" fill="none" stroke="#000" stroke-linecap="round" stroke-linejoin="round" stroke-miterlimit="10" stroke-width="1"/>
        <path id="Trazado_919574" data-name="Trazado 919574" d="M200.712,288.639a6.716,6.716,0,0,0-1.775-5,.191.191,0,0,0-.306.008l-3.264,4.635a.19.19,0,0,0,.209.293,6.866,6.866,0,0,1,4.857.2A.19.19,0,0,0,200.712,288.639Z" transform="translate(-177.319 -257.093)" fill="none" stroke="#000" stroke-linecap="round" stroke-linejoin="round" stroke-miterlimit="10" stroke-width="1"/>
        <path id="Trazado_919575" data-name="Trazado 919575" d="M180.857,394.226c.1-.755.137-2.873-1.944-5.476a.21.21,0,0,0-.335.009L175,393.837a.209.209,0,0,0,.229.32,7.523,7.523,0,0,1,5.321.223A.208.208,0,0,0,180.857,394.226Z" transform="translate(-158.904 -352.116)" fill="none" stroke="#000" stroke-linecap="round" stroke-linejoin="round" stroke-miterlimit="10" stroke-width="1"/>
        <path id="Trazado_919576" data-name="Trazado 919576" d="M176.75,198.823a4.931,4.931,0,0,1,1.3-3.67.14.14,0,0,1,.224.006l2.4,3.4a.14.14,0,0,1-.153.215,5.042,5.042,0,0,0-3.567.15A.139.139,0,0,1,176.75,198.823Z" transform="translate(-160.497 -177.108)" fill="none" stroke="#000" stroke-linecap="round" stroke-linejoin="round" stroke-miterlimit="10" stroke-width="1"/>
        <path id="Trazado_919577" data-name="Trazado 919577" d="M277.978,382.084h4.912a.77.77,0,0,1,.765.829,11.74,11.74,0,0,1-23.422,0,.769.769,0,0,1,.764-.829h13.624" transform="translate(-235.994 -346.16)" fill="none" stroke="#000" stroke-linecap="round" stroke-linejoin="round" stroke-miterlimit="10" stroke-width="1"/>
        <path id="Trazado_919578" data-name="Trazado 919578" d="M295.312,382.084a8.349,8.349,0,0,0,16.7,0" transform="translate(-267.71 -346.16)" fill="none" stroke="#000" stroke-linecap="round" stroke-linejoin="round" stroke-miterlimit="10" stroke-width="1"/>
        <line id="Línea_3849" data-name="Línea 3849" x2="0.48" transform="translate(32.354 38.417)" fill="none" stroke="#000" stroke-linecap="round" stroke-linejoin="round" stroke-miterlimit="10" stroke-width="1"/>
        <line id="Línea_3850" data-name="Línea 3850" x2="0.48" transform="translate(35.711 38.417)" fill="none" stroke="#000" stroke-linecap="round" stroke-linejoin="round" stroke-miterlimit="10" stroke-width="1"/>
        <line id="Línea_3851" data-name="Línea 3851" x2="0.48" transform="translate(39.067 38.417)" fill="none" stroke="#000" stroke-linecap="round" stroke-linejoin="round" stroke-miterlimit="10" stroke-width="1"/>
        <line id="Línea_3852" data-name="Línea 3852" x2="0.48" transform="translate(34.032 41.13)" fill="none" stroke="#000" stroke-linecap="round" stroke-linejoin="round" stroke-miterlimit="10" stroke-width="1"/>
        <line id="Línea_3853" data-name="Línea 3853" x2="0.48" transform="translate(37.389 41.13)" fill="none" stroke="#000" stroke-linecap="round" stroke-linejoin="round" stroke-miterlimit="10" stroke-width="1"/>
      </g>
    </g>
  </g>
</svg>
