<svg height="82" viewBox="0 0 82 82" width="82" xmlns="http://www.w3.org/2000/svg" xmlns:xlink="http://www.w3.org/1999/xlink"><clipPath id="a"><path d="m0-682.665h45.747v45.747h-45.747z" transform="translate(0 682.665)"/></clipPath><g fill="#fff" stroke="#ffce79" stroke-linejoin="round" stroke-width="5"><circle cx="41" cy="41" r="36" stroke="none"/><circle cx="41" cy="41" fill="none" r="38.5"/></g><g clip-path="url(#a)" transform="translate(18.076 18.127)"><path d="m-157.135-39.333a3.234 3.234 0 0 0 -3.617-2.8 3.226 3.226 0 0 0 -2.281 1.415 3.225 3.225 0 0 0 -2.563-.8 3.234 3.234 0 0 0 -2.8 3.617c.288 2.262 2.8 6.128 5.059 5.84a1.843 1.843 0 0 0 1.3-.811 1.843 1.843 0 0 0 1.466.457c2.173-.277 3.745-4.464 3.431-6.923" fill="#b8cb56" transform="translate(186.181 53.885)"/><path d="m-109.485-39.333a3.234 3.234 0 0 0 -3.617-2.8 3.213 3.213 0 0 0 -1.378.514 3.226 3.226 0 0 1 1.421 2.285c.314 2.458-1.258 6.646-3.431 6.923a1.833 1.833 0 0 1 -.858-.095 2.552 2.552 0 0 0 1.663.448 1.843 1.843 0 0 0 1.3-.811 1.843 1.843 0 0 0 1.466.457c2.173-.277 3.745-4.464 3.431-6.923" fill="#a7bd39" transform="translate(138.531 53.885)"/><path d="m-155.122-74.6a3.234 3.234 0 0 0 -2.275-3.967 3.225 3.225 0 0 0 -2.648.437 3.226 3.226 0 0 0 -2.065-1.715 3.234 3.234 0 0 0 -3.967 2.275c-.6 2.2.25 6.733 2.448 7.329a1.843 1.843 0 0 0 1.515-.252 1.843 1.843 0 0 0 1.18.982c2.115.573 5.165-2.7 5.813-5.09" fill="#b8cb56" transform="translate(191.846 94.61)"/><path d="m-158.035-45.816a3.234 3.234 0 0 0 -3.211-3.256 3.225 3.225 0 0 0 -2.45 1.1 3.225 3.225 0 0 0 -2.434-1.132 3.234 3.234 0 0 0 -3.256 3.211c-.016 2.28 1.957 6.447 4.234 6.463a1.843 1.843 0 0 0 1.4-.629 1.843 1.843 0 0 0 1.392.649c2.191.015 4.307-3.925 4.325-6.4" fill="#b8cb56" transform="translate(178.297 64.589)"/><path d="m-59.011 0a3.216 3.216 0 0 0 -1.81.539 3.231 3.231 0 0 1 1.447 2.717c-.016 2.308-1.853 5.884-3.876 6.352a1.937 1.937 0 0 0 .333.032 1.843 1.843 0 0 0 1.4-.629 1.843 1.843 0 0 0 1.392.649c2.191.015 4.307-3.925 4.325-6.4a3.234 3.234 0 0 0 -3.211-3.26" fill="#a7bd39" transform="translate(76.061 15.518)"/><path d="m95.338-352.382h-14.672v-24.592h14.672z" fill="#ffc103" transform="translate(-75.261 397.459)"/><path d="m246.27-352.382h3.574v-24.592h-3.574z" fill="#fab403" transform="translate(-229.767 397.459)"/><path d="m319.868-352.382h-20.268v-24.592h20.264z" fill="#ffc103" transform="translate(-279.526 397.459)"/><path d="m548.665-352.382h3.574v-24.592h-3.574z" fill="#fab403" transform="translate(-511.898 397.459)"/><path d="m-270.2 0-4.736 5.994h-14.664l4.732-5.994z" fill="#c57a3b" transform="translate(290.273 20.485)"/><path d="m-65.931 0-4.736 5.994h3.574l4.736-5.994z" fill="#b87137" transform="translate(82.434 20.485)"/><path d="m0 0 4.736 5.994h20.264l-4.736-5.994z" fill="#c57a3b" transform="translate(20.077 20.485)"/><path d="m-49.759 0h-3.574l4.733 5.994h3.574z" fill="#b87137" transform="translate(90.101 20.485)"/><path d="m455.128-154.337h-7.172v-7.172h7.172z" fill="#fff" transform="translate(-417.937 196.433)"/><g fill="none" stroke="#000" stroke-linecap="round" stroke-linejoin="round" stroke-miterlimit="10"><path d="m-77.887-16.068a3.967 3.967 0 0 0 -5.594 0" transform="translate(103.557 21.123)"/><path d="m-150.135-30.97a7.647 7.647 0 0 0 -10.784 0" transform="translate(178.4 33.865)"/><path d="m-157.117-39.333a3.234 3.234 0 0 0 -3.617-2.8 3.225 3.225 0 0 0 -2.281 1.415 3.225 3.225 0 0 0 -2.563-.8 3.235 3.235 0 0 0 -2.822 3.118" transform="translate(186.163 53.885)"/><path d="m-1.3-49.609a4.931 4.931 0 0 1 .633-3.563" transform="translate(24.447 62.777)"/><path d="m-152.974-81.166c.061-.16.112-.318.154-.472a3.234 3.234 0 0 0 -2.28-3.962 3.226 3.226 0 0 0 -2.649.437 3.225 3.225 0 0 0 -2.065-1.715 3.234 3.234 0 0 0 -3.967 2.275 8.306 8.306 0 0 0 -.014 3.441" transform="translate(189.544 101.652)"/><path d="m0-42.491a4.932 4.932 0 0 1 1.945-3.052" transform="translate(31.799 58.975)"/><path d="m-154.844-67.483a6.373 6.373 0 0 0 .229-1.556 3.234 3.234 0 0 0 -3.211-3.256 3.225 3.225 0 0 0 -2.45 1.1 3.225 3.225 0 0 0 -2.434-1.132 3.234 3.234 0 0 0 -3.257 3.211 6.577 6.577 0 0 0 .282 1.792" transform="translate(174.877 87.813)"/><path d="m-.09-47.989a4.932 4.932 0 0 1 1.1-3.447" transform="translate(14.691 64.604)"/><path d="m-204.265 0v24.592h-14.672v-18.598" transform="translate(224.343 20.485)"/><path d="m-282.131-83.454v18.6h-20.269v-24.594" transform="translate(322.472 109.933)"/><path d="m-141.222 0h-5.408l-4.736 5.994h14.672l4.736-5.994h-5.692" transform="translate(152.035 20.485)"/><path d="m0 0 4.736 5.994h20.264l-4.736-5.994z" transform="translate(20.077 20.485)"/><path d="m-99.847-35.021v-2.515h-7.172v7.172h7.172v-1.087" transform="translate(137.037 72.46)"/></g></g></svg>