<svg xmlns="http://www.w3.org/2000/svg" xmlns:xlink="http://www.w3.org/1999/xlink" width="82" height="82" viewBox="0 0 82 82">
  <defs>
    <clipPath id="clip-path">
      <path id="path1794" d="M0-682.665H46v46H0Z" transform="translate(0 682.665)"/>
    </clipPath>
  </defs>
  <g id="Grupo_1127733" data-name="Grupo 1127733" transform="translate(-1243 10126)">
    <g id="Grupo_1116526" data-name="Grupo 1116526" transform="translate(1232.849 -10136.059)">
      <g id="Elipse_157" data-name="Elipse 157" transform="translate(15.151 15.059)" fill="#fff" stroke="#ffce79" stroke-linejoin="round" stroke-width="5">
        <circle cx="36" cy="36" r="36" stroke="none"/>
        <circle cx="36" cy="36" r="38.5" fill="none"/>
      </g>
    </g>
    <g id="g1788" transform="translate(1260.999 -9425.336)">
      <g id="g1790" transform="translate(0 -682.665)">
        <g id="g1792" clip-path="url(#clip-path)">
          <g id="g1798" transform="translate(12.554 0.674)">
            <path id="path1800" d="M-289.156-144.579A10.446,10.446,0,0,1-299.6-134.133a10.446,10.446,0,0,1-10.446-10.446A10.446,10.446,0,0,1-299.6-155.025a10.446,10.446,0,0,1,10.446,10.446" transform="translate(310.049 155.025)" fill="#99e6fc"/>
          </g>
          <g id="g1802" transform="translate(12.554 0.674)">
            <path id="path1804" d="M-230.574-28.353a10.4,10.4,0,0,0-6.213-2.049,10.446,10.446,0,0,0-10.446,10.446A10.446,10.446,0,0,0-236.788-9.509a10.446,10.446,0,0,0,10.446-10.446,10.4,10.4,0,0,0-2.069-6.241" transform="translate(247.234 30.401)" fill="none" stroke="#000" stroke-linecap="round" stroke-linejoin="round" stroke-miterlimit="10" stroke-width="1"/>
          </g>
          <g id="g1806" transform="translate(17.684 5.803)">
            <path id="path1808" d="M-147.168-73.583a5.317,5.317,0,0,1-5.317,5.317,5.317,5.317,0,0,1-5.317-5.317,5.317,5.317,0,0,1,5.317-5.317,5.317,5.317,0,0,1,5.317,5.317" transform="translate(157.801 78.9)" fill="#62dbfb"/>
          </g>
          <g id="g1810" transform="translate(22.085 5.803)">
            <path id="path1812" d="M-86.261-73.589a5.317,5.317,0,0,1-5.317,5.316,5.4,5.4,0,0,1-.915-.078,5.318,5.318,0,0,0,4.4-5.238,5.319,5.319,0,0,0-4.4-5.239,5.394,5.394,0,0,1,.915-.078,5.318,5.318,0,0,1,5.317,5.317" transform="translate(92.493 78.906)" fill="#01d1fa"/>
          </g>
          <g id="g1814" transform="translate(17.684 5.803)">
            <path id="path1816" d="M-147.168-73.583a5.317,5.317,0,0,1-5.317,5.317,5.317,5.317,0,0,1-5.317-5.317,5.317,5.317,0,0,1,5.317-5.317A5.317,5.317,0,0,1-147.168-73.583Z" transform="translate(157.801 78.9)" fill="none" stroke="#000" stroke-linecap="round" stroke-linejoin="round" stroke-miterlimit="10" stroke-width="1"/>
          </g>
          <g id="g1818" transform="translate(15.087 5.524)">
            <path id="path1820" d="M-32.08-154.9a7.914,7.914,0,0,1,0-11.192" transform="translate(34.398 166.089)" fill="none" stroke="#000" stroke-linecap="round" stroke-linejoin="round" stroke-miterlimit="10" stroke-width="1"/>
          </g>
          <g id="g1822" transform="translate(28.596 5.524)">
            <path id="path1824" d="M0,0A7.914,7.914,0,0,1,0,11.192" fill="none" stroke="#000" stroke-linecap="round" stroke-linejoin="round" stroke-miterlimit="10" stroke-width="1"/>
          </g>
          <path id="path1826" d="M217.26-383.652H197.934v-24.81H217.26Z" transform="translate(-184.597 426.939)" fill="#fd636f"/>
          <path id="path1828" d="M460.918-383.648H459.2v-24.809h1.72Z" transform="translate(-428.255 426.935)" fill="#fe4855"/>
          <path id="path1830" d="M217.26-238.637H197.934v-14.332H217.26Z" transform="translate(-184.597 281.923)" fill="#f8f3f1"/>
          <path id="path1832" d="M460.918-238.637H459.2v-14.332h1.72Z" transform="translate(-428.255 281.923)" fill="#eee2dd"/>
          <g id="g1834" transform="translate(13.338 18.477)">
            <path id="path1836" d="M-267.47-343.373v-24.81H-286.8v13.6" transform="translate(286.795 368.183)" fill="none" stroke="#000" stroke-linecap="round" stroke-linejoin="round" stroke-miterlimit="10" stroke-width="1"/>
          </g>
          <g id="g1838" transform="translate(13.338 35.13)">
            <path id="path1840" d="M0,0V8.157" fill="none" stroke="#000" stroke-linecap="round" stroke-linejoin="round" stroke-miterlimit="10" stroke-width="1"/>
          </g>
          <g id="g1842" transform="translate(13.338 28.955)">
            <path id="path1844" d="M0,0H19.325" fill="none" stroke="#000" stroke-linecap="round" stroke-linejoin="round" stroke-miterlimit="10" stroke-width="1"/>
          </g>
          <g id="g1846" transform="translate(19.119 25.074)">
            <path id="path1848" d="M-107.432-53.716a3.881,3.881,0,0,1-3.881,3.881,3.881,3.881,0,0,1-3.881-3.881,3.881,3.881,0,0,1,3.881-3.881,3.881,3.881,0,0,1,3.881,3.881" transform="translate(115.194 57.597)" fill="#fdc266"/>
          </g>
          <g id="g1850" transform="translate(19.119 25.074)">
            <path id="path1852" d="M-107.432-53.716a3.881,3.881,0,0,1-3.881,3.881,3.881,3.881,0,0,1-3.881-3.881,3.881,3.881,0,0,1,3.881-3.881A3.881,3.881,0,0,1-107.432-53.716Z" transform="translate(115.194 57.597)" fill="none" stroke="#000" stroke-linecap="round" stroke-linejoin="round" stroke-miterlimit="10" stroke-width="1"/>
          </g>
          <g id="g1854" transform="translate(21.169 27.123)">
            <path id="path1856" d="M-50.694-25.347a1.831,1.831,0,0,1-1.831,1.831,1.831,1.831,0,0,1-1.831-1.831,1.831,1.831,0,0,1,1.831-1.831,1.831,1.831,0,0,1,1.831,1.831" transform="translate(54.357 27.179)" fill="#bb7c63"/>
          </g>
          <g id="g1858" transform="translate(21.169 27.123)">
            <path id="path1860" d="M-50.694-25.347a1.831,1.831,0,0,1-1.831,1.831,1.831,1.831,0,0,1-1.831-1.831,1.831,1.831,0,0,1,1.831-1.831A1.831,1.831,0,0,1-50.694-25.347Z" transform="translate(54.357 27.179)" fill="none" stroke="#000" stroke-linecap="round" stroke-linejoin="round" stroke-miterlimit="10" stroke-width="1"/>
          </g>
          <g id="g1862" transform="translate(18.125 35.483)">
            <path id="path1864" d="M-129.611-33.083h-8.979a.386.386,0,0,1-.386-.386v-1.619a.386.386,0,0,1,.386-.386h8.979a.386.386,0,0,1,.386.386v1.619a.386.386,0,0,1-.386.386" transform="translate(138.976 35.473)" fill="#fd636f"/>
          </g>
          <g id="g1866" transform="translate(18.125 35.483)">
            <path id="path1868" d="M-129.611-33.083h-8.979a.386.386,0,0,1-.386-.386v-1.619a.386.386,0,0,1,.386-.386h8.979a.386.386,0,0,1,.386.386v1.619A.386.386,0,0,1-129.611-33.083Z" transform="translate(138.976 35.473)" fill="none" stroke="#000" stroke-linecap="round" stroke-linejoin="round" stroke-miterlimit="10" stroke-width="1"/>
          </g>
          <g id="g1870" transform="translate(13.478 40.419)">
            <path id="path1872" d="M0,0H5.86" fill="none" stroke="#000" stroke-linecap="round" stroke-linejoin="round" stroke-miterlimit="10" stroke-width="1"/>
          </g>
          <g id="g1874" transform="translate(26.662 40.419)">
            <path id="path1876" d="M0,0H5.86" fill="none" stroke="#000" stroke-linecap="round" stroke-linejoin="round" stroke-miterlimit="10" stroke-width="1"/>
          </g>
          <g id="g1878" transform="translate(21.702 40.419)">
            <path id="path1880" d="M0,0H.077" fill="none" stroke="#000" stroke-linecap="round" stroke-linejoin="round" stroke-miterlimit="10" stroke-width="1"/>
          </g>
          <g id="g1882" transform="translate(24.221 40.419)">
            <path id="path1884" d="M0,0H.077" fill="none" stroke="#000" stroke-linecap="round" stroke-linejoin="round" stroke-miterlimit="10" stroke-width="1"/>
          </g>
          <g id="g1886" transform="translate(13.478 21.344)">
            <path id="path1888" d="M0,0H5.86" fill="none" stroke="#000" stroke-linecap="round" stroke-linejoin="round" stroke-miterlimit="10" stroke-width="1"/>
          </g>
          <g id="g1890" transform="translate(26.662 21.344)">
            <path id="path1892" d="M0,0H5.86" fill="none" stroke="#000" stroke-linecap="round" stroke-linejoin="round" stroke-miterlimit="10" stroke-width="1"/>
          </g>
          <g id="g1894" transform="translate(21.702 21.344)">
            <path id="path1896" d="M0,0H.077" fill="none" stroke="#000" stroke-linecap="round" stroke-linejoin="round" stroke-miterlimit="10" stroke-width="1"/>
          </g>
          <g id="g1898" transform="translate(24.221 21.344)">
            <path id="path1900" d="M0,0H.077" fill="none" stroke="#000" stroke-linecap="round" stroke-linejoin="round" stroke-miterlimit="10" stroke-width="1"/>
          </g>
          <g id="g1902" transform="translate(12.554 16.437)">
            <path id="path1904" d="M-277.109-34.757h-19.151a.871.871,0,0,1-.871-.871v-.77a.871.871,0,0,1,.871-.871h19.151a.87.87,0,0,1,.87.871v.77a.87.87,0,0,1-.87.871" transform="translate(297.131 37.268)" fill="#def6fe"/>
          </g>
          <g id="g1906" transform="translate(30.932 16.436)">
            <path id="path1908" d="M-34.805-12.049v.771a.87.87,0,0,1-.871.87H-37.32a.869.869,0,0,0,.871-.87v-.771a.87.87,0,0,0-.871-.871h1.644a.871.871,0,0,1,.871.871" transform="translate(37.32 12.92)" fill="#c8f0fe"/>
          </g>
          <g id="g1910" transform="translate(12.554 42.816)">
            <path id="path1912" d="M-277.109-34.757h-19.151a.871.871,0,0,1-.871-.871v-.77a.871.871,0,0,1,.871-.871h19.151a.87.87,0,0,1,.87.871v.77a.87.87,0,0,1-.87.871" transform="translate(297.131 37.268)" fill="#def6fe"/>
          </g>
          <g id="g1914" transform="translate(30.932 42.816)">
            <path id="path1916" d="M-34.805-12.049v.77a.871.871,0,0,1-.871.871H-37.32a.87.87,0,0,0,.871-.871v-.77a.87.87,0,0,0-.871-.871h1.644a.871.871,0,0,1,.871.871" transform="translate(37.32 12.92)" fill="#c8f0fe"/>
          </g>
          <g id="g1918" transform="translate(12.554 16.437)">
            <path id="path1920" d="M-277.109-34.757h-19.151a.871.871,0,0,1-.871-.871v-.77a.871.871,0,0,1,.871-.871h19.151a.87.87,0,0,1,.87.871v.77A.87.87,0,0,1-277.109-34.757Z" transform="translate(297.131 37.268)" fill="none" stroke="#000" stroke-linecap="round" stroke-linejoin="round" stroke-miterlimit="10" stroke-width="1"/>
          </g>
          <g id="g1922" transform="translate(12.554 42.816)">
            <path id="path1924" d="M-187.479,0h-12.675a.871.871,0,0,0-.871.871v.77a.871.871,0,0,0,.871.871H-181a.871.871,0,0,0,.871-.871V.871A.871.871,0,0,0-181,0h-3.421" transform="translate(201.025)" fill="none" stroke="#000" stroke-linecap="round" stroke-linejoin="round" stroke-miterlimit="10" stroke-width="1"/>
          </g>
        </g>
      </g>
    </g>
  </g>
</svg>
