<svg xmlns="http://www.w3.org/2000/svg" width="55.555" height="55.555" viewBox="0 0 55.555 55.555">
  <g id="Grupo_1127832" data-name="Grupo 1127832" transform="translate(-618.8 -3266)">
    <g id="Grupo_1127345" data-name="Grupo 1127345" transform="translate(623.8 3271)">
      <g id="Elipse_157" data-name="Elipse 157" fill="#fff" stroke="#ffce79" stroke-linejoin="round" stroke-width="5">
        <circle cx="22.777" cy="22.777" r="22.777" stroke="none"/>
        <circle cx="22.777" cy="22.777" r="25.277" fill="none"/>
      </g>
    </g>
    <path id="Trazado_919700" data-name="Trazado 919700" d="M14.711,19H5.782V17.066L9.9,12.742a4.909,4.909,0,0,0,1.521-2.751,1.913,1.913,0,0,0-.36-1.257A1.287,1.287,0,0,0,10.009,8.3a1.3,1.3,0,0,0-1.1.576,2.366,2.366,0,0,0-.422,1.437H5.518a4.2,4.2,0,0,1,.589-2.175,4.129,4.129,0,0,1,1.635-1.56,4.856,4.856,0,0,1,2.338-.562,4.777,4.777,0,0,1,3.195.958A3.42,3.42,0,0,1,14.4,9.728a4,4,0,0,1-.281,1.472,6.456,6.456,0,0,1-.875,1.5,22.029,22.029,0,0,1-1.912,2.1L9.675,16.715h5.036Z" transform="translate(636.8 3283)" fill="#8c492a"/>
  </g>
</svg>
