<svg height="74" viewBox="0 0 74 74" width="74" xmlns="http://www.w3.org/2000/svg"><g transform="translate(5 5)"><path d="m47 61h-30l-2-4v-45l2-5h30l2 5v45z" fill="#f7f7f7"/><path d="m47 7h-30l-2 5v.25a20 20 0 0 1 0 39.5v5.25l2 4h30l2-4v-45z" fill="#ededed"/><path d="m49 57h-34l2 4h30z" fill="#009b48"/><rect fill="#009b48" height="4" rx="2" width="34" x="15" y="3"/><path d="m15 22h34v20h-34z" fill="#ee700d"/><circle cx="32" cy="32" fill="#fbc148" r="14"/><path d="m40.42 32a2.885 2.885 0 0 0 -2.56-5.17l-1.33.63.64-1.33a2.885 2.885 0 0 0 -5.17-2.56 2.9 2.9 0 0 0 -4-1.21 3 3 0 0 0 -1.14 3.9l.57 1.21-1.33-.64a2.88 2.88 0 0 0 -2.53 5.17 2.9 2.9 0 0 0 -1.21 4 3 3 0 0 0 3.9 1.14l1.19-.57-.63 1.32a2.89 2.89 0 0 0 5.18 2.53 2.885 2.885 0 1 0 5.17-2.56l-.63-1.31 1.32.63a2.89 2.89 0 0 0 2.56-5.18z" fill="#49cb5c"/><path d="m40.42 32a2.885 2.885 0 0 0 -2.56-5.17l-1.33.63.64-1.33a2.885 2.885 0 0 0 -5.17-2.56 2.89 2.89 0 0 0 -2.69-1.57 19.91 19.91 0 0 1 0 20 2.9 2.9 0 0 0 2.69-1.58 2.885 2.885 0 1 0 5.17-2.56l-.63-1.31 1.32.63a2.89 2.89 0 0 0 2.56-5.18z" fill="#36b23f"/><path d="m50 5a3 3 0 0 0 -3-3h-30a3 3 0 0 0 -1.34 5.67l-1.59 4a.94.94 0 0 0 -.07.33v45a1 1 0 0 0 .11.45l2 4a1 1 0 0 0 .89.55h30a1 1 0 0 0 .89-.55l2-4a1 1 0 0 0 .11-.45v-45a.94.94 0 0 0 -.07-.37l-1.59-4a3 3 0 0 0 1.66-2.63zm-34 18h4a14.88 14.88 0 0 0 0 18h-4zm16-4a13 13 0 1 1 -13 13 13 13 0 0 1 13-13zm16 37h-3v2h2.38l-1 2h-28.76l-1-2h26.38v-2h-27v-13h5.84a14.9 14.9 0 0 0 20.32 0h5.84zm0-15h-4a14.88 14.88 0 0 0 0-18h4zm0-20h-5.84a14.9 14.9 0 0 0 -20.32 0h-5.84v-8.81l1.68-4.19h28.64l1.68 4.19zm-1-15h-30a1 1 0 0 1 0-2h30a1 1 0 0 1 0 2z"/><path d="m25.62 38.36a3.89 3.89 0 0 0 3.82 4.64 3.85 3.85 0 0 0 2.56-1 3.89 3.89 0 0 0 6.39-3.64 3.92 3.92 0 0 0 4.23-2.15 3.87 3.87 0 0 0 -.62-4.21 3.89 3.89 0 0 0 -3.64-6.39 3.878 3.878 0 0 0 -6.36-3.61 4 4 0 0 0 -1.43-.8 3.88 3.88 0 0 0 -3 .31 3.92 3.92 0 0 0 -1.91 4.14 3.79 3.79 0 0 0 -2.05.15 3.89 3.89 0 0 0 -1.61 6.2 4 4 0 0 0 -.8 1.43 3.89 3.89 0 0 0 .31 3 3.93 3.93 0 0 0 4.11 1.93zm-2.38-2.87a1.88 1.88 0 0 1 .79-2.6 1 1 0 0 0 0-1.78 1.885 1.885 0 0 1 1.67-3.38l1.33.64a1 1 0 0 0 1.34-1.33l-.58-1.21a2 2 0 0 1 .72-2.59 1.88 1.88 0 0 1 2.6.79 1 1 0 0 0 1.78 0 1.885 1.885 0 0 1 3.38 1.67l-.64 1.3a1 1 0 0 0 1.33 1.34l1.34-.64a1.905 1.905 0 1 1 1.7 3.41 1 1 0 0 0 0 1.78 1.89 1.89 0 0 1 .85 2.49 1.91 1.91 0 0 1 -2.53.89l-1.32-.63a1 1 0 0 0 -1.33 1.34l.63 1.32a1.905 1.905 0 0 1 -3.41 1.7 1 1 0 0 0 -1.78 0 1.89 1.89 0 0 1 -2.49.85 1.91 1.91 0 0 1 -.89-2.53l.63-1.32a1 1 0 0 0 -1.33-1.33l-1.2.57a2 2 0 0 1 -2.59-.75z"/><path d="m31 27h2v3h-2z"/><path d="m27 31h3v2h-3z"/><path d="m34 31h3v2h-3z"/><path d="m31 34h2v3h-2z"/></g><path d="m0 0h74v74h-74z" fill="none"/></svg>