<svg height="82" viewBox="0 0 82 82" width="82" xmlns="http://www.w3.org/2000/svg"><g fill="#fff" stroke="#ffce79" stroke-linejoin="round" stroke-width="5"><circle cx="40.999" cy="41" r="36" stroke="none"/><circle cx="40.999" cy="41" fill="none" r="38.5"/></g><path d="m20.735 123.022a6.83 6.83 0 0 1 -4.647 8.607 6.83 6.83 0 0 1 -8.328-5.129c-1.018-3.8 1.176-9.11 2.651-11.358.407-.621.759-1.008.974-1.066a1.979 1.979 0 0 1 1.012.263c2.269 1.01 7.266 4.682 8.338 8.683z" fill="#80d261" transform="translate(10.508 -86.323)"/><path d="m341.642 203.9h-.116a8 8 0 0 1 -7.868-7.847 8.043 8.043 0 0 1 .167-1.776l2.548-12.211a4.674 4.674 0 0 1 4.576-3.719h1.386a4.674 4.674 0 0 1 4.576 3.719l2.548 12.211a8.036 8.036 0 0 1 .169 1.638 7.985 7.985 0 0 1 -7.986 7.986z" fill="#4fc123" transform="translate(-285.159 -144.593)"/><path d="m134.925 92.017-2.356 2.356a6.234 6.234 0 0 1 -8.816 0l-2.353-2.356a13.907 13.907 0 0 1 -3.852-12.317l4.152-22.851a3.357 3.357 0 0 1 3.3-2.756h6.314a3.357 3.357 0 0 1 3.3 2.756l4.16 22.851a13.907 13.907 0 0 1 -3.849 12.317z" fill="#fe9738" transform="translate(-89.049 -31.958)"/><path d="m189.079 79.7-4.154-22.85a3.357 3.357 0 0 0 -3.3-2.756h-1.329l3.515 19.332a20.266 20.266 0 0 1 -5.611 17.956 6.226 6.226 0 0 1 -5.384 1.749l1.242 1.242a6.234 6.234 0 0 0 8.816 0l2.356-2.356a13.907 13.907 0 0 0 3.849-12.317z" fill="#fe860a" transform="translate(-139.353 -31.959)"/><path d="m296.86 340.261a5.789 5.789 0 0 0 -3.142.051 3.561 3.561 0 0 1 -2 0 5.789 5.789 0 0 0 -3.142-.051c-3.575.958-5.541 5.212-4.392 9.5a8.906 8.906 0 0 0 3.3 4.934 4.178 4.178 0 0 0 4.554.134 1.365 1.365 0 0 1 1.363 0 4.178 4.178 0 0 0 4.554-.134 8.906 8.906 0 0 0 3.3-4.934c1.145-4.288-.82-8.542-4.395-9.5z" fill="#e94444" transform="translate(-240.015 -291.199)"/><path d="m390.211 340.261a5.789 5.789 0 0 0 -3.142.051q-.116.034-.234.06c3.343 1.14 5.138 5.249 4.028 9.391a8.907 8.907 0 0 1 -3.3 4.934 3.9 3.9 0 0 1 -.493.3 4.14 4.14 0 0 0 4.233-.3 8.906 8.906 0 0 0 3.3-4.934c1.149-4.29-.817-8.544-4.392-9.502z" fill="#d83131" transform="translate(-333.366 -291.199)"/><path d="m90 246.92.965 4.823h-5.81l1.056-5.282a5.609 5.609 0 0 1 1.534-2.866l1.695-1.695a.7.7 0 0 1 .991 0l1.062 1.061a.7.7 0 0 1 0 .992l-.856.856a2.337 2.337 0 0 0 -.637 2.111z" fill="#47a920" transform="translate(-59.888 -202.022)"/><path d="m24.95 319.395-3.444-.453a.486.486 0 0 1 -.252-.106 3 3 0 0 0 -1.945-.709h-3.684a3 3 0 0 0 -1.945.709.486.486 0 0 1 -.252.106l-3.444.453a2.851 2.851 0 0 0 -2.365 3.624l3.139 10.771a2.443 2.443 0 0 0 2.665 1.739l.86-.113a2.438 2.438 0 0 0 .864-.284.462.462 0 0 1 .472.013 2.581 2.581 0 0 0 1.391.405h.919a2.581 2.581 0 0 0 1.391-.405.462.462 0 0 1 .472-.013 2.436 2.436 0 0 0 .864.284l.86.113a2.443 2.443 0 0 0 2.665-1.739l3.139-10.771a2.851 2.851 0 0 0 -2.37-3.624z" fill="#ffc344" transform="translate(10.507 -271.308)"/><g fill="none" stroke="#000" stroke-linecap="round" stroke-linejoin="round" stroke-miterlimit="10"><path d="m22.878 31.432 3.463 12.922"/><path d="m21.534 35.576 3.108 2.439"/><path d="m22.922 40.755 3.108 2.439"/><path d="m26.772 36.561-1.511 3.765"/><path d="m33.226 37.969 1.069-5.877"/><path d="m43.175 27.942 2.112 11.615"/><path d="m233.255 11.856v-1.936a2.337 2.337 0 0 1 .684-1.653l.767-.767" transform="translate(-194.143 10.279)"/><path d="m296.86 340.261a5.789 5.789 0 0 0 -3.142.051 3.561 3.561 0 0 1 -2 0 5.789 5.789 0 0 0 -3.142-.051c-3.575.958-5.541 5.212-4.392 9.5a8.906 8.906 0 0 0 3.3 4.934 4.178 4.178 0 0 0 4.554.134 1.365 1.365 0 0 1 1.363 0 4.178 4.178 0 0 0 4.554-.134 8.906 8.906 0 0 0 3.3-4.934c1.145-4.288-.82-8.542-4.395-9.5z" transform="translate(-240.015 -291.199)"/><path d="m52.704 46.817v4.021"/><path d="m25.658 328.7 1.657-5.685a2.851 2.851 0 0 0 -2.365-3.624l-3.444-.453a.486.486 0 0 1 -.252-.106 3 3 0 0 0 -1.945-.709h-3.684a3 3 0 0 0 -1.945.709.486.486 0 0 1 -.252.106l-3.444.453a2.851 2.851 0 0 0 -2.365 3.624l3.139 10.771a2.443 2.443 0 0 0 2.665 1.739l.86-.113a2.438 2.438 0 0 0 .864-.284.462.462 0 0 1 .472.013 2.581 2.581 0 0 0 1.391.405h.919a2.581 2.581 0 0 0 1.391-.405.462.462 0 0 1 .472-.013 2.436 2.436 0 0 0 .864.284l.86.113a2.443 2.443 0 0 0 2.665-1.739l.535-1.835" transform="translate(10.507 -271.308)"/><path d="m78.188 457.5.338 2.2a2.586 2.586 0 0 0 1.167 1.789" transform="translate(-53.572 -397.65)"/><path d="m63.166 325.709a3.014 3.014 0 0 0 -1.04 2.771l.358 2.328" transform="translate(-38.979 -278.183)"/><path d="m135.4 457.5-.338 2.2a2.586 2.586 0 0 1 -1.167 1.789" transform="translate(-104.074 -397.65)"/><path d="m154.583 325.709a3.014 3.014 0 0 1 1.04 2.771l-.358 2.328" transform="translate(-122.826 -278.183)"/><path d="m53.58 25.039v-1.452"/><path d="m53.58 30.846v-1.452"/><path d="m55.758 27.216h1.452"/><path d="m49.95 27.216h1.452"/><path d="m25.993 19.231v-1.452"/><path d="m25.993 25.039v-1.452"/><path d="m28.171 21.409h1.452"/><path d="m22.363 21.409h1.452"/><path d="m20.239 121.7c-1.657-3.463-5.825-6.462-7.842-7.36a1.979 1.979 0 0 0 -1.012-.263c-.215.057-.567.445-.974 1.066-1.474 2.247-3.668 7.557-2.65 11.357a6.831 6.831 0 0 0 7.861 5.234" transform="translate(10.507 -86.324)"/><path d="m96 248.92-.4-2a2.337 2.337 0 0 1 .639-2.111l.856-.856a.7.7 0 0 0 0-.992l-1.058-1.061a.7.7 0 0 0 -.991 0l-1.695 1.695a5.609 5.609 0 0 0 -1.534 2.867l-.478 2.392" transform="translate(-65.493 -202.022)"/><path d="m186.1 469.629a6.234 6.234 0 0 0 8.816 0l1.582-1.582" transform="translate(-151.396 -407.214)"/><path d="m31.44 31.559-1.476 8.119"/><path d="m175.393 80.83q-.056-.567-.158-1.134l-4.154-22.846a3.357 3.357 0 0 0 -3.3-2.756h-6.314a3.357 3.357 0 0 0 -3.3 2.756l-.618 3.4" transform="translate(-125.51 -31.959)"/><path d="m356.067 183.037-.2-.974a4.674 4.674 0 0 0 -4.576-3.719h-1.391a4.674 4.674 0 0 0 -4.576 3.719l-1.794 8.595" transform="translate(-294.112 -144.594)"/><path d="m472.181 279.315a8.141 8.141 0 0 0 .682-.61 7.933 7.933 0 0 0 2.339-5.647 8.036 8.036 0 0 0 -.168-1.638l-1.664-7.974" transform="translate(-410.733 -221.74)"/></g></svg>