<svg xmlns="http://www.w3.org/2000/svg" xmlns:xlink="http://www.w3.org/1999/xlink" width="82" height="82" viewBox="0 0 82 82">
  <defs>
    <clipPath id="clip-path">
      <path id="path7293" d="M0-682.665H45.747v45.747H0Z" transform="translate(0 682.665)"/>
    </clipPath>
  </defs>
  <g id="Grupo_1127734" data-name="Grupo 1127734" transform="translate(-1566.994 10126.295)">
    <g id="Grupo_1116526" data-name="Grupo 1116526" transform="translate(1556.843 -10136.354)">
      <g id="Elipse_157" data-name="Elipse 157" transform="translate(15.151 15.059)" fill="#fff" stroke="#ffce79" stroke-linejoin="round" stroke-width="5">
        <circle cx="36" cy="36" r="36" stroke="none"/>
        <circle cx="36" cy="36" r="38.5" fill="none"/>
      </g>
    </g>
    <g id="g7287" transform="translate(1585.07 -9425.503)">
      <g id="g7289" transform="translate(0 -682.665)">
        <g id="g7291" clip-path="url(#clip-path)">
          <g id="g7297" transform="translate(17.759 11.727)">
            <path id="path7299" d="M-157.135-39.333a3.234,3.234,0,0,0-3.617-2.8,3.226,3.226,0,0,0-2.281,1.415,3.225,3.225,0,0,0-2.563-.8,3.234,3.234,0,0,0-2.8,3.617c.288,2.262,2.8,6.128,5.059,5.84a1.843,1.843,0,0,0,1.3-.811,1.843,1.843,0,0,0,1.466.457c2.173-.277,3.745-4.464,3.431-6.923" transform="translate(168.422 42.158)" fill="#b8cb56"/>
          </g>
          <g id="g7301" transform="translate(21.182 11.727)">
            <path id="path7303" d="M-109.485-39.333a3.234,3.234,0,0,0-3.617-2.8,3.213,3.213,0,0,0-1.378.514,3.226,3.226,0,0,1,1.421,2.285c.314,2.458-1.258,6.646-3.431,6.923a1.833,1.833,0,0,1-.858-.095,2.552,2.552,0,0,0,1.663.448,1.843,1.843,0,0,0,1.3-.811,1.843,1.843,0,0,0,1.466.457c2.173-.277,3.745-4.464,3.431-6.923" transform="translate(117.349 42.158)" fill="#a7bd39"/>
          </g>
          <g id="g7305" transform="translate(25.582 14.656)">
            <path id="path7307" d="M-155.122-74.6a3.234,3.234,0,0,0-2.275-3.967,3.225,3.225,0,0,0-2.648.437,3.226,3.226,0,0,0-2.065-1.715,3.234,3.234,0,0,0-3.967,2.275c-.6,2.2.25,6.733,2.448,7.329a1.843,1.843,0,0,0,1.515-.252,1.843,1.843,0,0,0,1.18.982c2.115.573,5.165-2.7,5.813-5.09" transform="translate(166.264 79.954)" fill="#b8cb56"/>
          </g>
          <g id="g7309" transform="translate(8.911 15.483)">
            <path id="path7311" d="M-158.035-45.816a3.234,3.234,0,0,0-3.211-3.256,3.225,3.225,0,0,0-2.45,1.1,3.225,3.225,0,0,0-2.434-1.132,3.234,3.234,0,0,0-3.256,3.211c-.016,2.28,1.957,6.447,4.234,6.463a1.843,1.843,0,0,0,1.4-.629,1.843,1.843,0,0,0,1.392.649c2.191.015,4.307-3.925,4.325-6.4" transform="translate(169.386 49.106)" fill="#b8cb56"/>
          </g>
          <g id="g7313" transform="translate(12.812 15.517)">
            <path id="path7315" d="M-59.011,0a3.216,3.216,0,0,0-1.81.539,3.231,3.231,0,0,1,1.447,2.717c-.016,2.308-1.853,5.884-3.876,6.352a1.937,1.937,0,0,0,.333.032,1.843,1.843,0,0,0,1.4-.629,1.843,1.843,0,0,0,1.392.649c2.191.015,4.307-3.925,4.325-6.4A3.234,3.234,0,0,0-59.011,0" transform="translate(63.249 0.001)" fill="#a7bd39"/>
          </g>
          <path id="path7317" d="M95.338-352.382H80.666v-24.592H95.338Z" transform="translate(-75.261 397.459)" fill="#ffc103"/>
          <path id="path7319" d="M246.27-352.382h3.574v-24.592H246.27Z" transform="translate(-229.767 397.459)" fill="#fab403"/>
          <path id="path7321" d="M319.868-352.382H299.6v-24.592h20.264Z" transform="translate(-279.526 397.459)" fill="#ffc103"/>
          <path id="path7323" d="M548.665-352.382h3.574v-24.592h-3.574Z" transform="translate(-511.898 397.459)" fill="#fab403"/>
          <g id="g7325" transform="translate(0.67 20.485)">
            <path id="path7327" d="M-270.2,0l-4.736,5.994H-289.6L-284.868,0Z" transform="translate(289.603)" fill="#c57a3b"/>
          </g>
          <g id="g7329" transform="translate(11.768 20.485)">
            <path id="path7331" d="M-65.931,0l-4.736,5.994h3.574L-62.357,0Z" transform="translate(70.666)" fill="#b87137"/>
          </g>
          <g id="g7333" transform="translate(20.077 20.485)">
            <path id="path7335" d="M0,0,4.736,5.994H25L20.264,0Z" fill="#c57a3b"/>
          </g>
          <g id="g7337" transform="translate(36.768 20.485)">
            <path id="path7339" d="M-49.759,0h-3.574L-48.6,5.994h3.574Z" transform="translate(53.333)" fill="#b87137"/>
          </g>
          <path id="path7341" d="M455.128-154.337h-7.172v-7.172h7.172Z" transform="translate(-417.937 196.433)" fill="#fff"/>
          <g id="g7343" transform="translate(20.076 3.901)">
            <path id="path7345" d="M-77.887-16.068a3.967,3.967,0,0,0-5.594,0" transform="translate(83.481 17.222)" fill="none" stroke="#000" stroke-linecap="round" stroke-linejoin="round" stroke-miterlimit="10" stroke-width="1"/>
          </g>
          <g id="g7347" transform="translate(17.482 0.67)">
            <path id="path7349" d="M-150.135-30.97a7.647,7.647,0,0,0-10.784,0" transform="translate(160.918 33.195)" fill="none" stroke="#000" stroke-linecap="round" stroke-linejoin="round" stroke-miterlimit="10" stroke-width="1"/>
          </g>
          <g id="g7351" transform="translate(17.761 11.727)">
            <path id="path7353" d="M-157.117-39.333a3.234,3.234,0,0,0-3.617-2.8,3.225,3.225,0,0,0-2.281,1.415,3.225,3.225,0,0,0-2.563-.8A3.235,3.235,0,0,0-168.4-38.4" transform="translate(168.402 42.158)" fill="none" stroke="#000" stroke-linecap="round" stroke-linejoin="round" stroke-miterlimit="10" stroke-width="1"/>
          </g>
          <g id="g7355" transform="translate(23.054 9.605)">
            <path id="path7357" d="M-1.3-49.609a4.931,4.931,0,0,1,.633-3.563" transform="translate(1.393 53.172)" fill="none" stroke="#000" stroke-linecap="round" stroke-linejoin="round" stroke-miterlimit="10" stroke-width="1"/>
          </g>
          <g id="g7359" transform="translate(25.582 14.656)">
            <path id="path7361" d="M-152.974-81.166c.061-.16.112-.318.154-.472A3.234,3.234,0,0,0-155.1-85.6a3.226,3.226,0,0,0-2.649.437,3.225,3.225,0,0,0-2.065-1.715,3.234,3.234,0,0,0-3.967,2.275,8.306,8.306,0,0,0-.014,3.441" transform="translate(163.962 86.996)" fill="none" stroke="#000" stroke-linecap="round" stroke-linejoin="round" stroke-miterlimit="10" stroke-width="1"/>
          </g>
          <g id="g7363" transform="translate(31.799 13.432)">
            <path id="path7365" d="M0-42.491a4.932,4.932,0,0,1,1.945-3.052" transform="translate(0 45.543)" fill="none" stroke="#000" stroke-linecap="round" stroke-linejoin="round" stroke-miterlimit="10" stroke-width="1"/>
          </g>
          <g id="g7367" transform="translate(8.911 15.483)">
            <path id="path7369" d="M-154.844-67.483a6.373,6.373,0,0,0,.229-1.556,3.234,3.234,0,0,0-3.211-3.256,3.225,3.225,0,0,0-2.45,1.1,3.225,3.225,0,0,0-2.434-1.132,3.234,3.234,0,0,0-3.257,3.211,6.577,6.577,0,0,0,.282,1.792" transform="translate(165.966 72.33)" fill="none" stroke="#000" stroke-linecap="round" stroke-linejoin="round" stroke-miterlimit="10" stroke-width="1"/>
          </g>
          <g id="g7371" transform="translate(14.594 13.168)">
            <path id="path7373" d="M-.09-47.989a4.932,4.932,0,0,1,1.1-3.447" transform="translate(0.097 51.436)" fill="none" stroke="#000" stroke-linecap="round" stroke-linejoin="round" stroke-miterlimit="10" stroke-width="1"/>
          </g>
          <g id="g7375" transform="translate(5.406 20.485)">
            <path id="path7377" d="M-204.265,0V24.592h-14.672V5.994" transform="translate(218.937)" fill="none" stroke="#000" stroke-linecap="round" stroke-linejoin="round" stroke-miterlimit="10" stroke-width="1"/>
          </g>
          <g id="g7379" transform="translate(20.077 20.485)">
            <path id="path7381" d="M-282.131-83.454v18.6H-302.4V-89.448" transform="translate(302.395 89.448)" fill="none" stroke="#000" stroke-linecap="round" stroke-linejoin="round" stroke-miterlimit="10" stroke-width="1"/>
          </g>
          <g id="g7383" transform="translate(0.67 20.485)">
            <path id="path7385" d="M-141.222,0h-5.408l-4.736,5.994h14.672L-131.958,0h-5.692" transform="translate(151.365)" fill="none" stroke="#000" stroke-linecap="round" stroke-linejoin="round" stroke-miterlimit="10" stroke-width="1"/>
          </g>
          <g id="g7387" transform="translate(20.077 20.485)">
            <path id="path7389" d="M0,0,4.736,5.994H25L20.264,0Z" fill="none" stroke="#000" stroke-linecap="round" stroke-linejoin="round" stroke-miterlimit="10" stroke-width="1"/>
          </g>
          <g id="g7391" transform="translate(30.019 34.924)">
            <path id="path7393" d="M-99.847-35.021v-2.515h-7.172v7.172h7.172v-1.087" transform="translate(107.018 37.536)" fill="none" stroke="#000" stroke-linecap="round" stroke-linejoin="round" stroke-miterlimit="10" stroke-width="1"/>
          </g>
        </g>
      </g>
    </g>
  </g>
</svg>
