<svg xmlns="http://www.w3.org/2000/svg" xmlns:xlink="http://www.w3.org/1999/xlink" width="129" height="129" viewBox="0 0 129 129">
  <defs>
    <radialGradient id="radial-gradient" cx="0.5" cy="0.5" r="0.5" gradientUnits="objectBoundingBox">
      <stop offset="0" stop-color="#fff"/>
      <stop offset="1" stop-color="#fff7ea"/>
    </radialGradient>
  </defs>
  <g id="Grupo_1127833" data-name="Grupo 1127833" transform="translate(-1157 -1343.488)">
    <g id="Grupo_1127465" data-name="Grupo 1127465" transform="translate(419.949 -2286.512)">
      <g id="Grupo_1106785" data-name="Grupo 1106785" transform="translate(0.479 -533)">
        <g id="Grupo_1106776" data-name="Grupo 1106776" transform="translate(311)">
          <g id="Elipse_12307" data-name="Elipse 12307" transform="translate(440.571 4178)" stroke="#fff" stroke-width="2" fill="url(#radial-gradient)">
            <circle cx="49.5" cy="49.5" r="49.5" stroke="none"/>
            <circle cx="49.5" cy="49.5" r="48.5" fill="none"/>
          </g>
          <g id="Elipse_12308" data-name="Elipse 12308" transform="translate(425.571 4163)" fill="none" stroke="#59836b" stroke-width="10" opacity="0.43">
            <circle cx="64.5" cy="64.5" r="64.5" stroke="none"/>
            <circle cx="64.5" cy="64.5" r="59.5" fill="none"/>
          </g>
        </g>
      </g>
      <g id="Grupo_1127822" data-name="Grupo 1127822" transform="translate(709.849 3667.082)">
        <path id="Trazado_919675" data-name="Trazado 919675" d="M143.867,17.963H113.24V11.932A4.432,4.432,0,0,1,117.672,7.5h21.763a4.432,4.432,0,0,1,4.432,4.432v6.031h0Z" transform="translate(-36.829 -6.697)" fill="#85eddb"/>
        <path id="Trazado_919676" data-name="Trazado 919676" d="M128.143,7.5H117.672a4.432,4.432,0,0,0-4.432,4.432v6.031h10.472V11.932A4.432,4.432,0,0,1,128.143,7.5Z" transform="translate(-36.828 -6.697)" fill="#71d8c5"/>
        <path id="Trazado_919677" data-name="Trazado 919677" d="M137.913,147.956H119.2A5.955,5.955,0,0,1,113.241,142V105.189h30.627V142A5.955,5.955,0,0,1,137.913,147.956Z" transform="translate(-36.829 -93.923)" fill="#d8d7da"/>
        <path id="Trazado_919678" data-name="Trazado 919678" d="M128.7,111.031,136.647,109V105.19H113.24V142a5.955,5.955,0,0,0,5.955,5.955h9.359a5.128,5.128,0,0,1-3.666-1.184,2.087,2.087,0,0,1,1.08-3.557l9.223-1.693H123.7V117.471A6.647,6.647,0,0,1,128.7,111.031Z" transform="translate(-36.829 -93.924)" fill="#c6c5ca"/>
        <path id="Trazado_919679" data-name="Trazado 919679" d="M113.448,77.268H83.3a3.817,3.817,0,0,1-3.806-3.806h0A3.817,3.817,0,0,1,83.3,69.657h30.15a3.817,3.817,0,0,1,3.806,3.806h0A3.817,3.817,0,0,1,113.448,77.268Z" transform="translate(-6.696 -62.197)" fill="#acabb1"/>
        <path id="Trazado_919680" data-name="Trazado 919680" d="M90.393,73.463h0A3.817,3.817,0,0,1,94.2,69.657H83.3a3.817,3.817,0,0,0-3.806,3.806h0A3.817,3.817,0,0,0,83.3,77.268H94.2A3.817,3.817,0,0,1,90.393,73.463Z" transform="translate(-6.696 -62.197)" fill="#898890"/>
        <path id="Trazado_919681" data-name="Trazado 919681" d="M113.892,380.973H83.743a3.817,3.817,0,0,1-3.806-3.806h0a3.817,3.817,0,0,1,3.806-3.806h30.15a3.817,3.817,0,0,1,3.806,3.806h0A3.817,3.817,0,0,1,113.892,380.973Z" transform="translate(-7.092 -333.374)" fill="#acabb1"/>
        <path id="Trazado_919682" data-name="Trazado 919682" d="M90.837,377.168h0a3.817,3.817,0,0,1,3.806-3.806h-10.9a3.817,3.817,0,0,0-3.806,3.806h0a3.817,3.817,0,0,0,3.806,3.806h10.9A3.817,3.817,0,0,1,90.837,377.168Z" transform="translate(-7.092 -333.374)" fill="#898890"/>
        <path id="Trazado_919683" data-name="Trazado 919683" d="M162.83,197.831a9.965,9.965,0,0,1,10.322,10.322,2.322,2.322,0,0,1-2.217,2.217,9.965,9.965,0,0,1-10.322-10.322A2.322,2.322,0,0,1,162.83,197.831Z" transform="translate(-79.119 -176.635)" fill="#7ec66a"/>
        <path id="Trazado_919684" data-name="Trazado 919684" d="M212.438,220.652a9.943,9.943,0,0,0-4.7-8.832q-.14.167-.276.338a13.2,13.2,0,0,0-2.819,9.249,9.786,9.786,0,0,0,5.577,1.462A2.322,2.322,0,0,0,212.438,220.652Z" transform="translate(-118.406 -189.134)" fill="#67b758"/>
        <path id="Trazado_919685" data-name="Trazado 919685" d="M244.914,197.833a10.057,10.057,0,0,0-10.049,12.4,10.038,10.038,0,0,0,12.267-10.181A2.315,2.315,0,0,0,244.914,197.833Z" transform="translate(-145.175 -176.637)" fill="#92dd7a"/>
        <path id="Trazado_919686" data-name="Trazado 919686" d="M111.409,43.793a4.616,4.616,0,0,0-3.567-4.489V15.743a4.608,4.608,0,0,0-1.09-9.086H77.215V5.235a3.633,3.633,0,0,1,3.629-3.629h21.763a3.612,3.612,0,0,1,3.466,2.549.8.8,0,0,0,1.534-.477,5.211,5.211,0,0,0-5-3.679H80.843a5.241,5.241,0,0,0-5.235,5.235V6.766a4.608,4.608,0,0,0,0,9V39.3a4.608,4.608,0,0,0,.005,8.978,6.764,6.764,0,0,0,6.753,6.553h18.718a6.765,6.765,0,0,0,6.753-6.553A4.616,4.616,0,0,0,111.409,43.793Zm-5.173-27.918v23.31H77.215V15.875ZM73.6,11.266a3.006,3.006,0,0,1,3-3h30.15a3,3,0,0,1,0,6H76.6A3.006,3.006,0,0,1,73.6,11.266ZM106.8,46.8h-4.777a.8.8,0,1,0,0,1.607h4.2a5.157,5.157,0,0,1-5.14,4.827H82.366a5.157,5.157,0,0,1-5.14-4.827H98.7a.8.8,0,1,0,0-1.607H76.65a3,3,0,1,1,0-6H106.8a3,3,0,0,1,0,6Z"/>
        <path id="Trazado_919687" data-name="Trazado 919687" d="M161.951,204.319a10.46,10.46,0,0,0,9.237-2.158,10.72,10.72,0,0,0,3.995-8.844,3.1,3.1,0,0,0-2.986-2.986,10.543,10.543,0,0,0-8.021,3.211,10.647,10.647,0,0,0-8.076-3.211,3.141,3.141,0,0,0-2.986,2.986A10.79,10.79,0,0,0,161.951,204.319Zm10.177-12.383a1.506,1.506,0,0,1,1.449,1.449,9.322,9.322,0,0,1-3.411,7.535,8.991,8.991,0,0,1-6.437,2.056l6.466-6.466a.8.8,0,0,0-1.136-1.136l-6.4,6.4a9.193,9.193,0,0,1,2.105-6.486A9,9,0,0,1,172.128,191.937Zm-17.41,1.449a1.524,1.524,0,0,1,1.449-1.449,9.055,9.055,0,0,1,6.962,2.837,10.9,10.9,0,0,0-1.525,2.918l-2.452-2.452a.819.819,0,0,0-1.159,1.159l3.155,3.155a10.778,10.778,0,0,0-.043,2.905A9.176,9.176,0,0,1,154.719,193.386Z" transform="translate(-72.423 -169.938)"/>
      </g>
    </g>
  </g>
</svg>
