<svg xmlns="http://www.w3.org/2000/svg" width="75.948" height="75.948" viewBox="0 0 75.948 75.948">
  <g id="Grupo_1127527" data-name="Grupo 1127527" transform="translate(-303.051 -2537)">
    <rect id="Rectángulo_409889" data-name="Rectángulo 409889" width="75.948" height="75.948" transform="translate(303.051 2537)" fill="none"/>
    <g id="XMLID_1_" transform="translate(230.656 2518)">
      <g id="XMLID_3_" transform="translate(81.395 24)">
        <g id="Grupo_1127526" data-name="Grupo 1127526" transform="translate(0 0)">
          <path id="Trazado_918039" data-name="Trazado 918039" d="M137.88,33.976a7.11,7.11,0,0,1,2.247,5,4.711,4.711,0,0,1-3.26,4.538,4.76,4.76,0,0,1-2.769-.145V85.023a4.945,4.945,0,0,1-4.941,4.941H91.277a4.945,4.945,0,0,1-4.941-4.941V43.613a4.363,4.363,0,0,1-1.681-.107,4.713,4.713,0,0,1-3.26-4.538,7.107,7.107,0,0,1,2.247-4.991,15.429,15.429,0,0,1,3.317-2.436,4.477,4.477,0,0,1-.617-2.266v-.806A4.478,4.478,0,0,1,90.811,24h38.817a4.478,4.478,0,0,1,4.469,4.469v.806a4.458,4.458,0,0,1-.378,1.788,17.815,17.815,0,0,1,4.161,2.914Zm.736,4.979A5.711,5.711,0,0,0,136.8,35.04a16.83,16.83,0,0,0-3.921-2.713,4.471,4.471,0,0,1-3.26,1.416H90.805a4.457,4.457,0,0,1-2.851-1.032,14.974,14.974,0,0,0-3.242,2.329A5.711,5.711,0,0,0,82.9,38.955a3.232,3.232,0,0,0,2.146,3.1c1.536.409,3.235-.673,4.607-1.548,1.693-1.076,3.9-2.2,5.967-1.284a6.606,6.606,0,0,1,2.392,2.14,5.9,5.9,0,0,0,1.693,1.649c1.234.648,2.933.277,5.054-1.108,1.813-1.183,3.695-2.4,6-2.4s4.186,1.221,6,2.4c2.127,1.385,3.827,1.756,5.054,1.108a5.923,5.923,0,0,0,1.7-1.649,6.606,6.606,0,0,1,2.392-2.14c2.071-.913,4.28.208,5.967,1.284a19.816,19.816,0,0,0,1.769,1.039c.025.013.044.025.069.038a4.048,4.048,0,0,0,2.763.472,2.376,2.376,0,0,0,.793-.384,3.4,3.4,0,0,0,1.341-2.644.259.259,0,0,0,.006-.069Zm-6.011,15.666V42.694c-.138-.076-.271-.151-.4-.227-.4-.233-.774-.472-1.127-.692-1.372-.875-3.128-1.8-4.544-1.177a5.434,5.434,0,0,0-1.819,1.7,7.113,7.113,0,0,1-2.172,2.046,4.262,4.262,0,0,1-2.008.485,8.652,8.652,0,0,1-4.576-1.662c-1.637-1.064-3.323-2.159-5.18-2.159s-3.55,1.1-5.18,2.159a8.688,8.688,0,0,1-4.576,1.662,4.263,4.263,0,0,1-2.008-.485A7.19,7.19,0,0,1,96.841,42.3a5.376,5.376,0,0,0-1.819-1.7c-1.416-.623-3.172.3-4.544,1.177a15.562,15.562,0,0,1-2.618,1.435V54.622Zm-.013,30.4V56.132H87.859V85.023a3.434,3.434,0,0,0,3.43,3.43h37.879a1.536,1.536,0,0,0,.17-.006,3.417,3.417,0,0,0,2.19-.944,3.539,3.539,0,0,0,.818-1.215A3.307,3.307,0,0,0,132.593,85.023Zm0-55.748v-.806a3.186,3.186,0,0,0-.088-.736,2.958,2.958,0,0,0-2.713-2.216c-.05,0-.1-.006-.151-.006H90.818a2.963,2.963,0,0,0-2.958,2.958v.806a2.963,2.963,0,0,0,2.958,2.958h38.823a1.114,1.114,0,0,0,.145-.006,2.958,2.958,0,0,0,2.713-2.216A3.574,3.574,0,0,0,132.593,29.275Z" transform="translate(-81.395 -24)"/>
          <path id="Trazado_918040" data-name="Trazado 918040" d="M159.3,159.013a5.711,5.711,0,0,1,1.813,3.915V163a3.434,3.434,0,0,1-1.341,2.644,2.436,2.436,0,0,1-.793.384,4.048,4.048,0,0,1-2.763-.472c-.025-.013-.044-.025-.069-.038a19.81,19.81,0,0,1-1.769-1.039c-1.687-1.076-3.9-2.2-5.967-1.284a6.606,6.606,0,0,0-2.392,2.14,5.923,5.923,0,0,1-1.7,1.649c-1.227.648-2.927.277-5.054-1.108-1.819-1.183-3.695-2.4-6-2.4s-4.186,1.221-6,2.4c-2.121,1.385-3.821,1.756-5.054,1.108a5.905,5.905,0,0,1-1.693-1.649,6.606,6.606,0,0,0-2.392-2.14c-2.071-.913-4.274.208-5.967,1.284-1.372.875-3.072,1.958-4.607,1.548a3.232,3.232,0,0,1-2.146-3.1,5.711,5.711,0,0,1,1.813-3.915,14.974,14.974,0,0,1,3.242-2.329,4.457,4.457,0,0,0,2.851,1.032H152.12a4.471,4.471,0,0,0,3.26-1.416A16.921,16.921,0,0,1,159.3,159.013Z" transform="translate(-103.887 -147.973)" fill="#bd8a5b"/>
          <path id="Trazado_918041" data-name="Trazado 918041" d="M970.541,262.7a3.4,3.4,0,0,1-1.341,2.644A3.434,3.434,0,0,0,970.541,262.7Z" transform="translate(-913.319 -247.676)"/>
          <path id="Trazado_918042" data-name="Trazado 918042" d="M228.846,286.763v11.928H184.1V287.28a15.561,15.561,0,0,0,2.618-1.435c1.372-.875,3.128-1.8,4.544-1.177a5.377,5.377,0,0,1,1.819,1.7,7.188,7.188,0,0,0,2.172,2.046,4.262,4.262,0,0,0,2.008.485,8.688,8.688,0,0,0,4.576-1.662c1.63-1.064,3.317-2.159,5.18-2.159s3.544,1.1,5.18,2.159a8.653,8.653,0,0,0,4.576,1.662,4.262,4.262,0,0,0,2.008-.485,7.112,7.112,0,0,0,2.172-2.046,5.434,5.434,0,0,1,1.819-1.7c1.416-.623,3.172.3,4.544,1.177.346.22.724.46,1.127.692.132.076.264.151.4.227Z" transform="translate(-177.635 -268.069)" fill="#d3effb"/>
          <path id="Trazado_918043" data-name="Trazado 918043" d="M228.833,534.406V563.3a3.367,3.367,0,0,1-.239,1.259c-.019.05-.044.1-.063.151s-.044.1-.069.151a1.067,1.067,0,0,1-.082.145.259.259,0,0,1-.044.069c-.031.05-.057.094-.088.138a2.346,2.346,0,0,1-.145.2,2.72,2.72,0,0,1-.214.245l-.057.057-.057.057a3.436,3.436,0,0,1-2.19.944c-.057,0-.113.006-.17.006H187.53a3.434,3.434,0,0,1-3.43-3.43V534.4Zm-12.576,21.268v-10.43a.621.621,0,0,0-.019-.151.779.779,0,0,0-.365-.5l-9.032-5.218a.769.769,0,0,0-.755,0l-9.026,5.218a.754.754,0,0,0-.378.655v10.43a.761.761,0,0,0,.378.655l9.032,5.218a.759.759,0,0,0,.755,0l9.032-5.218A.753.753,0,0,0,216.257,555.675Z" transform="translate(-177.635 -502.274)" fill="#fadf68"/>
          <path id="Trazado_918044" data-name="Trazado 918044" d="M228.833,50.958v.806a3.467,3.467,0,0,1-.032.447c-.013.1-.038.2-.057.29a2.966,2.966,0,0,1-2.713,2.216c-.05,0-.094.006-.145.006H187.058a2.963,2.963,0,0,1-2.958-2.958v-.806A2.963,2.963,0,0,1,187.058,48h38.817a1.212,1.212,0,0,1,.151.006,2.966,2.966,0,0,1,2.713,2.216,2.144,2.144,0,0,1,.057.29A2.622,2.622,0,0,1,228.833,50.958Z" transform="translate(-177.635 -46.489)" fill="#bd8a5b"/>
          <path id="Trazado_918045" data-name="Trazado 918045" d="M893.3,83.3a2.162,2.162,0,0,1,.057.29A2.162,2.162,0,0,0,893.3,83.3Z" transform="translate(-842.197 -79.568)"/>
          <path id="Trazado_918046" data-name="Trazado 918046" d="M850.2,48.1a2.958,2.958,0,0,1,2.713,2.216A2.958,2.958,0,0,0,850.2,48.1Z" transform="translate(-801.809 -46.583)"/>
          <path id="Trazado_918047" data-name="Trazado 918047" d="M403.575,617.8v10.43a.753.753,0,0,1-.378.655l-9.032,5.218a.758.758,0,0,1-.755,0l-9.032-5.218a.761.761,0,0,1-.378-.655V617.8a.754.754,0,0,1,.378-.655l9.032-5.218a.769.769,0,0,1,.755,0l9.032,5.218a.849.849,0,0,1,.365.5A1.212,1.212,0,0,1,403.575,617.8Zm-1.511,10v-9.561l-8.277-4.777-8.277,4.777v9.561l8.277,4.777Z" transform="translate(-364.953 -574.826)"/>
          <path id="Trazado_918048" data-name="Trazado 918048" d="M424.554,642.477v9.561l-8.277,4.777L408,652.038v-9.561l8.277-4.777Zm-7.9-1.58a.759.759,0,0,0,.277-1.032.752.752,0,0,0-.617-.378h-.094a.731.731,0,0,0-.334.1l-6.08,3.512a.753.753,0,0,0-.378.655v7.018a.76.76,0,0,0,.724.755h.069a.756.756,0,0,0,.724-.755v-6.584Z" transform="translate(-387.443 -599.072)" fill="#fb5050"/>
          <path id="Trazado_918049" data-name="Trazado 918049" d="M438.384,666.478a.759.759,0,0,1-.277,1.032l-5.7,3.292v6.584a.759.759,0,0,1-.718.755h-.069a.759.759,0,0,1-.718-.755v-7.018a.753.753,0,0,1,.378-.655l6.08-3.512a.686.686,0,0,1,.327-.1h.094A.77.77,0,0,1,438.384,666.478Z" transform="translate(-408.901 -625.685)"/>
          <path id="Trazado_918050" data-name="Trazado 918050" d="M437.592,666.1a.708.708,0,0,0-.327.1l-6.08,3.512a.754.754,0,0,0-.378.655v7.018a.759.759,0,0,0,.718.755.756.756,0,0,1-.724-.755v-7.018a.753.753,0,0,1,.378-.655l6.08-3.512A.71.71,0,0,1,437.592,666.1Z" transform="translate(-408.807 -625.685)"/>
        </g>
      </g>
    </g>
  </g>
</svg>
