<svg height="82" viewBox="0 0 82 82" width="82" xmlns="http://www.w3.org/2000/svg"><g fill="#fff" stroke="#ffce79" stroke-linejoin="round" stroke-width="5"><circle cx="40.999" cy="41.001" r="36" stroke="none"/><circle cx="40.999" cy="41.001" fill="none" r="38.5"/></g><path d="m163.731 76.8v35.7c0 3.757-6.085 6.8-13.6 6.8-.3 0-.586-.008-.875-.017s-.552-.025-.824-.034c-6.714-.416-11.9-3.281-11.9-6.748v-31.201a21.221 21.221 0 0 0 10.2 2.3c.238 0 .467-.008.7-.017h.161c.28.008.561.017.841.017s.552-.008.824-.017c.289.008.578.017.875.017.161 0 .331 0 .493-.008.119 0 .238 0 .357-.008.561-.017 1.113-.051 1.649-.1.272-.017.535-.051.8-.085s.527-.068.782-.11a19.1 19.1 0 0 0 5.133-1.487 4.721 4.721 0 0 0 .51-.246c.161-.076.323-.17.476-.255.119-.068.247-.136.365-.212.17-.1.331-.2.484-.314 1.605-1.128 2.549-2.496 2.549-3.975z" fill="#ffa800" transform="translate(-107.433 -53.648)"/><path d="m129.6 76.8v35.7c0 3.468-5.184 6.332-11.9 6.748-.272.008-.544.025-.824.034s-.578.017-.875.017c-7.513 0-13.6-3.043-13.6-6.8v-35.699c0 1.479.943 2.847 2.55 3.969a8.43 8.43 0 0 0 .85.527 21.221 21.221 0 0 0 10.199 2.304c.238 0 .467-.008.7-.017h.161c7.11-.222 12.739-3.171 12.739-6.783z" fill="#fff" transform="translate(-76.7 -53.648)"/><path d="m153.5 116.651v31.727c0 3.612-5.269 6.561-11.924 6.782-.272.008-.544.017-.824.017s-.552-.008-.824-.017c-6.655-.221-11.924-3.17-11.924-6.782v-31.727a8.428 8.428 0 0 0 .85.527 21.221 21.221 0 0 0 10.2 2.3c.238 0 .467-.008.7-.017h.161c.28.008.561.017.841.017s.552-.008.824-.017c.289.008.578.017.875.017.161 0 .331 0 .493-.008.119 0 .238 0 .357-.008.561-.017 1.113-.051 1.649-.1.272-.017.535-.051.8-.085s.527-.068.782-.11a19.1 19.1 0 0 0 5.133-1.487 4.723 4.723 0 0 0 .51-.247c.161-.076.323-.17.476-.255.119-.068.247-.136.365-.212.163-.103.324-.205.48-.315z" fill="#ffe100" transform="translate(-99.749 -89.53)"/><ellipse cx="42.699" cy="23.152" fill="#ffa800" rx="13.598" ry="6.799"/><ellipse cx="39.299" cy="23.152" fill="#fff" rx="13.598" ry="6.799"/><ellipse cx="41" cy="23.152" fill="#ffe100" rx="12.749" ry="6.799"/><path d="m110.015 15.3c-9.055 0-16.148-3.36-16.148-7.649s7.093-7.651 16.148-7.651 16.148 3.36 16.148 7.649-7.093 7.651-16.148 7.651zm0-13.6c-8.643 0-14.448 3.076-14.448 5.949s5.806 5.949 14.448 5.949 14.448-3.076 14.448-5.949-5.805-5.949-14.448-5.949z" transform="translate(-69.016 15.503)"/><path d="m99.151 236.877a.851.851 0 0 1 -.345-.074c-3.185-1.421-4.94-3.393-4.94-5.553a.85.85 0 1 1 1.7 0c0 1.428 1.433 2.886 3.933 4a.85.85 0 0 1 -.347 1.626z" transform="translate(-69.015 -191.95)"/><path d="m357.377 236.877a.85.85 0 0 1 -.347-1.626c2.5-1.115 3.933-2.573 3.933-4a.85.85 0 1 1 1.7 0c0 2.16-1.755 4.133-4.94 5.553a.849.849 0 0 1 -.345.074z" transform="translate(-305.515 -191.95)"/><path d="m110.015 435.166c-9.055 0-16.148-3.36-16.148-7.649a.85.85 0 1 1 1.7 0c0 2.873 5.806 5.949 14.448 5.949s14.448-3.076 14.448-5.949a.85.85 0 1 1 1.7 0c-0 4.289-7.093 7.649-16.148 7.649z" transform="translate(-69.016 -368.669)"/><path d="m223.554 461.386h-.054c-.3-.018-.588-.041-.876-.068a.85.85 0 1 1 .158-1.692q.407.038.825.064a.85.85 0 0 1 -.052 1.7z" transform="translate(-184.253 -398.34)"/><path d="m134.8 415.716a.858.858 0 0 1 -.206-.025c-4.127-1.024-6.59-2.983-6.59-5.241a.85.85 0 1 1 1.7 0c0 1.362 2.13 2.8 5.3 3.591a.85.85 0 0 1 -.2 1.675z" transform="translate(-99.749 -353.302)"/><path d="m94.716 220.914a.85.85 0 0 1 -.85-.85v-22.947a.85.85 0 1 1 1.7 0v22.947a.85.85 0 0 1 -.85.85z" transform="translate(-69.015 -161.216)"/><path d="m94.716 75.917a.85.85 0 0 1 -.85-.85v-5.95a.85.85 0 1 1 1.7 0v5.95a.85.85 0 0 1 -.85.85z" transform="translate(-69.015 -45.965)"/><path d="m94.716 163.853a.713.713 0 0 1 -.323-.068.8.8 0 0 1 -.281-.178.862.862 0 0 1 0-1.207.871.871 0 0 1 .764-.229.517.517 0 0 1 .162.051.644.644 0 0 1 .153.077l.128.1a.862.862 0 0 1 0 1.207l-.128.1a.646.646 0 0 1 -.153.077.525.525 0 0 1 -.162.051 1.065 1.065 0 0 1 -.16.019z" transform="translate(-69.015 -130.502)"/><path d="m401.916 105.663a.85.85 0 0 1 -.85-.85v-35.7a.85.85 0 1 1 1.7 0v35.7a.85.85 0 0 1 -.85.85z" transform="translate(-345.619 -45.965)"/><circle cx="41" cy="46.1" fill="#ffa800" r="11.049"/><ellipse cx="39.725" cy="46.1" fill="#ffe100" rx="9.774" ry="11.049"/><path d="m148.432 211.53a11.9 11.9 0 1 1 11.9-11.9 11.9 11.9 0 0 1 -11.9 11.9zm0-22.1a10.2 10.2 0 1 0 10.2 10.2 10.2 10.2 0 0 0 -10.2-10.197z" transform="translate(-107.432 -153.532)"/><path d="m148.432 42.632c-5.913 0-11.9-1.46-11.9-4.25s5.986-4.25 11.9-4.25 11.9 1.46 11.9 4.25-5.988 4.25-11.9 4.25zm0-6.8c-6.327 0-10.2 1.651-10.2 2.55s3.872 2.55 10.2 2.55 10.2-1.651 10.2-2.55-3.873-2.549-10.2-2.549z" transform="translate(-107.432 -15.23)"/><ellipse cx="41" cy="23.153" fill="#ffa800" rx="11.049" ry="3.4"/><ellipse cx="39.725" cy="23.153" fill="#ffe100" rx="9.774" ry="3.4"/><path d="m148.432 42.632c-5.913 0-11.9-1.46-11.9-4.25s5.986-4.25 11.9-4.25 11.9 1.46 11.9 4.25-5.988 4.25-11.9 4.25zm0-6.8c-6.327 0-10.2 1.651-10.2 2.55s3.872 2.55 10.2 2.55 10.2-1.651 10.2-2.55-3.873-2.549-10.2-2.549z" transform="translate(-107.432 -15.23)"/><path d="m220.982 69.967h-6.8a.85.85 0 1 1 0-1.7h6.8a.85.85 0 0 1 0 1.7z" transform="translate(-176.583 -45.965)"/><ellipse cx="40.999" cy="48.224" fill="#dd3859" rx="5.949" ry="5.524"/><ellipse cx="39.724" cy="48.224" fill="#e4667f" rx="4.674" ry="5.524"/><path d="m194.532 277.254a6.388 6.388 0 1 1 6.8-6.374 6.6 6.6 0 0 1 -6.8 6.374zm0-11.049a4.692 4.692 0 1 0 5.1 4.674 4.906 4.906 0 0 0 -5.1-4.674z" transform="translate(-153.533 -222.656)"/><path d="m225.267 323.828a3.212 3.212 0 0 1 -3.4-2.974.85.85 0 1 1 1.7 0c0 .691.779 1.274 1.7 1.274a.85.85 0 0 1 0 1.7z" transform="translate(-184.267 -272.63)"/><path d="m248.316 227.816a.85.85 0 0 1 -.85-.85v-4.249a.85.85 0 1 1 1.7 0v4.25a.85.85 0 0 1 -.85.85z" transform="translate(-207.317 -184.267)"/><path d="m217.585 243.186a.842.842 0 0 1 -.509-.17l-3.4-2.55a.85.85 0 1 1 1.019-1.36l3.4 2.55a.85.85 0 0 1 -.511 1.53z" transform="translate(-176.587 -199.636)"/><path d="m248.319 243.186a.85.85 0 0 1 -.51-1.53l3.4-2.55a.85.85 0 0 1 1.019 1.359l-3.4 2.55a.842.842 0 0 1 -.509.17z" transform="translate(-207.319 -199.637)"/></svg>