<svg height="73.12" viewBox="0 0 85 73.12" width="85" xmlns="http://www.w3.org/2000/svg"><g transform="translate(-23.577 -56.878)"><g fill-rule="evenodd"><path d="m197.329 81.7a9.686 9.686 0 0 1 -14.526-8.86 9.683 9.683 0 0 1 14.526 8.86z" fill="#7ac143" transform="translate(-130.044 -11.961)"/><path d="m197.01 71.791a9.717 9.717 0 0 1 11.685 7.182 9.756 9.756 0 0 1 -10.652-4.586 9.491 9.491 0 0 1 -1.033-2.6z" fill="#a4cf5f" transform="translate(-141.659 -11.969)"/><path d="m264.366 64.052c-6.658 15.662-6.1 14.926-.769 28.64.733 1.874-3.677 5.432-5.5-.3-4.3-13.539-4.767-12.78.769-28.64 1.885-5.401 6.334-1.652 5.5.3z" fill="#916e5a" transform="translate(-188.855 -3.332)"/><path d="m276.759 66.1c-6.658 15.662-6.1 14.926-.769 28.641a2.207 2.207 0 0 1 -1.1 2.352 5.1 5.1 0 0 1 -1.62-2.649c-4.305-13.539-4.773-12.78.764-28.641a4.751 4.751 0 0 1 1.511-2.338 2.409 2.409 0 0 1 1.209 2.634z" fill="#a68a7a" transform="translate(-201.249 -5.385)"/><path d="m183.92 157.346c4.031 0 8.605-3.723 12.381-2.363 11.623 4.2 7.369 20.715-1.792 28.318-3.541 2.935-5.562.421-10.564.421-4.908 0-7.379 2.31-10.89-.518-9.644-7.8-12.421-24.865-2.528-28.651 3.515-1.346 9.352 2.793 13.393 2.793z" fill="#961a1d" transform="translate(-114.968 -79.56)"/><path d="m218.976 159.132c4.031 0 8.605-3.723 12.381-2.363 11.623 4.2 7.369 20.715-1.792 28.318-3.541 2.935-5.562.421-10.564.421a17.6 17.6 0 0 0 -2.239.15c-.266-.234-.524-.462-.784-.671-9.083-7.332-12.075-22.892-4.144-27.845 2.477.883 5.047 1.99 7.141 1.99z" fill="#e02e27" transform="translate(-150.024 -81.347)"/><path d="m234.005 195.97a29.68 29.68 0 0 1 -49.445 32.838z" fill="#128241" transform="translate(-131.49 -113.61)"/><path d="m191.97 239.923a29.545 29.545 0 0 1 -7.4-7.546l48.24-32.037a29.681 29.681 0 0 1 -40.84 39.583z" fill="#3c9a61" transform="translate(-131.498 -117.179)"/><path d="m239.623 202.3c6.85 10.626.224 27.265-10.34 34.28s-28.567 6.736-35.7-3.7z" fill="#961a1d" transform="translate(-138.857 -118.78)"/><path d="m257.152 202.3c4.067 6.315 3.38 14.748-.062 22.03a28.862 28.862 0 0 1 -7.764 7.852c-9.924 6.59-26.407 6.74-34.285-1.905z" fill="#e02e27" transform="translate(-156.386 -118.78)"/><path d="m85.525 179.707c2.171 18.1 7.4 24.678 21.682 31 1.958.863-.769 7.447-6.278 4.461-13.03-7.052-18.145-13.7-21.682-30.993-1.204-5.895 6.009-6.727 6.278-4.468z" fill="#916e5a" transform="translate(-45.36 -99.383)"/><path d="m99.124 179.7c2.171 18.1 7.4 24.678 21.682 31 .826.363.815 1.744.119 3a5.343 5.343 0 0 1 -3.349-.722c-13.03-7.052-18.145-13.706-21.682-31a4.929 4.929 0 0 1 .348-3.34c1.429-.292 2.768.114 2.882 1.062z" fill="#a68a7a" transform="translate(-58.959 -99.377)"/><path d="m30.53 299.045a18.268 18.268 0 0 1 23.219 4.133 19.43 19.43 0 0 1 -8.526 20.435q-.025-7.557-1.163-8.953a14.618 14.618 0 0 1 -12.458.462 17.862 17.862 0 0 1 5.234-11.155 11.253 11.253 0 0 1 -6.306-4.921z" fill="#a4cf5f" transform="translate(-5.679 -195.786)"/><path d="m58.51 297.051a18.26 18.26 0 0 1 18.09 6.143 19.417 19.417 0 0 1 -4.067 16.5q-.082-6.694-1.155-7.994a14.6 14.6 0 0 1 -12.452.456 17.875 17.875 0 0 1 5.234-11.156 11.262 11.262 0 0 1 -5.65-3.949z" fill="#7ac143" transform="translate(-28.533 -195.803)"/><path d="m138.477 254.244a6.182 6.182 0 1 1 -6.89 5.386 6.181 6.181 0 0 1 6.89-5.386z" fill="#ad8ec2" transform="translate(-88.185 -161.17)"/><path d="m143.034 279.923a6.184 6.184 0 0 1 -11.414-2.913 6.184 6.184 0 0 1 11.414 2.913z" fill="#8661a9" transform="translate(-88.249 -177.432)"/><path d="m107.714 316.522a6.184 6.184 0 1 1 -6.887 5.39 6.182 6.182 0 0 1 6.887-5.39z" fill="#ad8ec2" transform="translate(-63.06 -212.038)"/><path d="m113.069 341.842a6.184 6.184 0 0 1 -11.7-1.427 6.184 6.184 0 0 1 11.7 1.427z" fill="#8661a9" transform="translate(-63.541 -228.643)"/><path d="m156.683 361.117a6.185 6.185 0 1 1 -6.889 5.392 6.191 6.191 0 0 1 6.889-5.392z" fill="#ad8ec2" transform="translate(-103.055 -248.464)"/><path d="m162.058 387.246a6.186 6.186 0 0 1 -11.648-1.418 6.186 6.186 0 0 1 11.648 1.418z" fill="#8661a9" transform="translate(-103.596 -265.801)"/><path d="m202.671 256.284a6.184 6.184 0 1 1 -6.887 5.39 6.181 6.181 0 0 1 6.887-5.39z" fill="#ad8ec2" transform="translate(-140.62 -162.836)"/><path d="m205.719 278.4a6.2 6.2 0 1 1 .431-1.647 6.182 6.182 0 0 1 -.431 1.647z" fill="#8661a9" transform="translate(-140.62 -173.926)"/><path d="m219.977 378.632a6.184 6.184 0 1 1 -6.89 5.384 6.181 6.181 0 0 1 6.89-5.384z" fill="#ad8ec2" transform="translate(-154.753 -262.769)"/><path d="m219.976 378.632a5.488 5.488 0 1 1 -6.207 9.052 6.183 6.183 0 0 1 6.207-9.052z" fill="#8661a9" transform="translate(-154.752 -262.769)"/><path d="m213.967 319.694a6.184 6.184 0 1 1 -6.89 5.384 6.181 6.181 0 0 1 6.89-5.384z" fill="#ad8ec2" transform="translate(-149.844 -214.629)"/><path d="m217.272 344.644a6.184 6.184 0 0 1 -10.2-5.412 6.89 6.89 0 0 1 .136-.733 6.184 6.184 0 0 1 10.2 5.412 6.9 6.9 0 0 1 -.136.733z" fill="#8661a9" transform="translate(-149.836 -228.781)"/><path d="m165.279 299.607a6.184 6.184 0 1 1 -6.887 5.39 6.189 6.189 0 0 1 6.887-5.39z" fill="#ad8ec2" transform="translate(-110.078 -198.223)"/><path d="m170.641 325.207a6.186 6.186 0 0 1 -11.681-1.427 6.184 6.184 0 0 1 11.681 1.427z" fill="#8661a9" transform="translate(-110.58 -215.078)"/></g><path d="m56.452 100.855a7.481 7.481 0 0 1 4.628 3.77 6.992 6.992 0 0 1 .878-.224 7.2 7.2 0 0 1 1.931-.119c.062-.037.125-.079.181-.119a.744.744 0 0 1 .136-.093 5.019 5.019 0 0 0 1.132-1.163 4.905 4.905 0 1 0 -8.9-3.386 4.768 4.768 0 0 0 -.02 1.033c.009.1.018.2.035.3zm5.4 6.211a7.42 7.42 0 0 1 .015 1.838c-.005.037-.011.068-.015.1a7.43 7.43 0 0 1 -2.8 4.923l-.048.037a4.978 4.978 0 0 0 1.2 1.511c.1.082.207.167.317.244.026.015.048.037.073.051a4.9 4.9 0 0 0 6.641-7.063 4.912 4.912 0 0 0 -1.1-1.028.351.351 0 0 1 -.057-.042 4.915 4.915 0 0 0 -2.114-.773 5.013 5.013 0 0 0 -1.532.051 4.672 4.672 0 0 0 -.581.152zm-6.04 8.325a7.519 7.519 0 0 1 -2.217.079l-.1-.015a7.435 7.435 0 0 1 -2.369-.716 4.808 4.808 0 0 0 -1.112.6l-.114.079a5.093 5.093 0 0 0 -.738.7 4.9 4.9 0 0 0 -1.152 2.581v.031a4.894 4.894 0 0 0 4.269 5.463 4.942 4.942 0 0 0 2.825-.493 5 5 0 0 0 1.927-1.766c.005-.1.016-.2.026-.306a7.485 7.485 0 0 1 .722-2.4 4.953 4.953 0 0 0 -1.968-3.836zm-7.233-2.737-.005-.005a7.454 7.454 0 0 1 -1.557-5.293 4.353 4.353 0 0 0 -.909-.592 4.909 4.909 0 1 0 .529 8.459 6.754 6.754 0 0 1 .6-.784 7.037 7.037 0 0 1 .982-.945 4.3 4.3 0 0 0 .269-.581c.031-.082.06-.17.093-.258zm-.628-8.279a7.5 7.5 0 0 1 5.9-3.77 7.659 7.659 0 0 1 .286-2.592 4.962 4.962 0 0 0 -1.418-2.021 4.906 4.906 0 1 0 -4.767 8.383zm10.364.65a4.907 4.907 0 0 0 -7.728 6.051 3.607 3.607 0 0 0 .266.311.527.527 0 0 1 .093.1 5.018 5.018 0 0 0 .94.747c.02.011.048.026.073.042a4.888 4.888 0 0 0 1.9.639 4.973 4.973 0 0 0 1.841-.115c.015-.006.037-.011.057-.016a4.945 4.945 0 0 0 1.713-.867 4.906 4.906 0 0 0 1.687-5.22.12.12 0 0 0 -.011-.042 4.918 4.918 0 0 0 -.831-1.63zm10.6 1.713c.114.13.229.26.332.394a7.456 7.456 0 0 1 -.229 9.474 7.508 7.508 0 0 1 2.882 5.174 31.766 31.766 0 0 0 8.959-.8 27.488 27.488 0 0 0 8.86-3.723 29.916 29.916 0 0 0 11.441-15.907c1.61-5.344 1.594-10.932-.815-15.486zm-1.973 11.546a7.434 7.434 0 0 1 -4.476.857 7.632 7.632 0 0 1 -1.268-.266 5 5 0 0 0 -.826.951.15.15 0 0 1 -.02.031c-.026.042-.051.082-.079.125s-.048.082-.073.119a.79.79 0 0 1 -.051.1 4.736 4.736 0 0 0 -.54 1.729 4.905 4.905 0 0 0 7.891 4.46c.031-.026.062-.051.093-.079a.729.729 0 0 1 .068-.051 4.908 4.908 0 0 0 1.678-3.142h.006a4.915 4.915 0 0 0 -2.4-4.835zm4.773 6.044a7.5 7.5 0 0 1 -.982 2.264 28.4 28.4 0 0 0 34.679-21.745l.006-.042a28.379 28.379 0 0 0 -1.075-15.387 25.294 25.294 0 0 1 -.733 12.661 32.519 32.519 0 0 1 -12.48 17.309 29.948 29.948 0 0 1 -9.7 4.093 34.1 34.1 0 0 1 -9.715.846zm-3.023 4.353a7.444 7.444 0 0 1 -5.078 1.262c-.031-.005-.062-.005-.093-.011a7.509 7.509 0 0 1 -6.024-4.752 7.729 7.729 0 0 1 -1.231.79 7.473 7.473 0 0 1 -4.232.769.76.76 0 0 1 -.11-.016 7.43 7.43 0 0 1 -4.923-2.8 7.722 7.722 0 0 1 -.509-.736 20.52 20.52 0 0 1 -1.786 2.389 20.868 20.868 0 0 1 -4.476 3.864 1.277 1.277 0 0 1 -1.964-1.079 49.691 49.691 0 0 0 -.291-5.848c-.079-.566-.156-1.028-.238-1.392a15.953 15.953 0 0 1 -12.313-.073 1.278 1.278 0 0 1 -.773-1.288h-.005a19.216 19.216 0 0 1 4.32-10.547 12.456 12.456 0 0 1 -5.2-4.756 1.274 1.274 0 0 1 .431-1.75l.02-.015a19.543 19.543 0 0 1 7.7-2.528 19.752 19.752 0 0 1 5.251.145c-.436-.92-.846-1.88-1.237-2.887a74.288 74.288 0 0 1 -3.287-11.841 5.551 5.551 0 0 1 2.327-6.205 6.185 6.185 0 0 1 1.953-.8 5.5 5.5 0 0 1 1.931-.1 2.7 2.7 0 0 1 2.592 2.244 73.754 73.754 0 0 0 1.522 8.761 39.5 39.5 0 0 0 1.495 4.815c.156-.145.322-.286.487-.421a7.441 7.441 0 0 1 4.043-1.575 20.1 20.1 0 0 1 -.394-10.416 10.541 10.541 0 0 1 6.5-7.555c2.457-.94 5.449.167 8.429 1.262.379.141.758.28 1.132.416a19.232 19.232 0 0 1 .4-3.459 11.027 11.027 0 0 1 -12.121-5.174.651.651 0 0 1 -.04-.074 10.808 10.808 0 0 1 -1.127-2.836 10.991 10.991 0 0 1 -.291-3.122 1.283 1.283 0 0 1 .628-1.042l.11-.062a10.751 10.751 0 0 1 8.215-1.05 11.005 11.005 0 0 1 6.606 5c.062.1-.042-.079.062.11h.006c.082.145.167.3.238.447.431-1.268.914-2.658 1.46-4.212.846-2.426 2.222-3.439 3.609-3.626a3.65 3.65 0 0 1 1.8.229 4.333 4.333 0 0 1 1.413.914 3.459 3.459 0 0 1 1.059 3.7c-1.942 4.56-3.261 7.717-4.014 10.19a15.173 15.173 0 0 0 -.764 4.512c.628-.2 1.271-.442 1.911-.676 2.664-.987 5.324-1.973 7.94-1.028a11.227 11.227 0 0 1 7.172 7.083 16.22 16.22 0 0 1 .379 8.283l10.732-7.114a.384.384 0 0 1 .031-.026l1.735-1.147a1.279 1.279 0 0 1 1.772.359c.015.02.026.042.042.068a30.863 30.863 0 0 1 4.305 23.078l-.016.057a30.973 30.973 0 0 1 -26.076 24.33 31.179 31.179 0 0 1 -13.145-1.037zm-13.128-33.342a7.341 7.341 0 0 1 1.138-1.1 7.465 7.465 0 0 1 11.285 9.2c.322-.02.654-.031.991-.031l.322.006 16.832-11.186a15.384 15.384 0 0 0 .385-9.565 8.77 8.77 0 0 0 -5.617-5.511c-1.735-.623-3.963.2-6.2 1.028a17.079 17.079 0 0 1 -5.754 1.413 19.521 19.521 0 0 1 -6.3-1.6c-2.528-.929-5.069-1.869-6.638-1.271a8.078 8.078 0 0 0 -4.934 5.811 18.15 18.15 0 0 0 .691 10.085 7.429 7.429 0 0 1 2.6 1.438 7.164 7.164 0 0 1 1.194 1.288zm-10.132 24.518a6.958 6.958 0 0 1 .031-1.392v-.015a7.24 7.24 0 0 1 -2.4.114.769.769 0 0 1 -.114-.011 7.488 7.488 0 0 1 -6.46-8.263c.005-.031.011-.062.015-.1a7.414 7.414 0 0 1 2.8-4.917c.156-.125.322-.244.487-.354-.368-.535-.716-1.085-1.059-1.651a16.93 16.93 0 0 0 -12.007.976 10.3 10.3 0 0 0 1.61 1.574 9.91 9.91 0 0 0 3.105 1.636 1.331 1.331 0 0 1 .623.348 1.28 1.28 0 0 1 -.011 1.812 16.517 16.517 0 0 0 -4.752 9.409 13.292 13.292 0 0 0 10.487-.758 1.277 1.277 0 0 1 1.574.328 7.418 7.418 0 0 1 1.143 3.578q.2 1.511.269 3.688a17.975 17.975 0 0 0 1.99-1.962 18.5 18.5 0 0 0 2.664-4.042zm-3.246-15.976a7.442 7.442 0 0 1 1.039-.167 7.455 7.455 0 0 1 -1.1-4.877v-.005a7.542 7.542 0 0 1 .577-2.1 39.323 39.323 0 0 1 -2.228-6.663 75.5 75.5 0 0 1 -1.58-9.069c0-.031-.156.02-.385-.011a3.028 3.028 0 0 0 -1.044.057 3.571 3.571 0 0 0 -1.121.467 3.145 3.145 0 0 0 -1.205 3.541 71.745 71.745 0 0 0 3.173 11.425 33.022 33.022 0 0 0 3.874 7.403zm30.262 7.619a1.28 1.28 0 1 1 2.424-.821l.94 2.757a1.28 1.28 0 1 1 -2.426.821zm7.731-3.376a1.279 1.279 0 1 1 2.1-1.464l1.735 2.482a1.279 1.279 0 1 1 -2.1 1.464zm5.994-4a1.283 1.283 0 0 1 1.325-2.2l2.748 1.662a1.279 1.279 0 0 1 -1.319 2.191zm5.4-5.038a1.277 1.277 0 1 1 1.165-2.286l2.924 1.5a1.277 1.277 0 1 1 -1.163 2.274zm-29.788-15.993a1.28 1.28 0 0 1 1.585-2.01 7.886 7.886 0 0 0 9.726 0 1.278 1.278 0 1 1 1.579 2.01 10.417 10.417 0 0 1 -12.89 0zm5.443-6.3a7.638 7.638 0 0 0 1.724.234c.136 0 .275-.005.416-.015a16.733 16.733 0 0 1 .867-5.817c.8-2.627 2.134-5.831 4.1-10.448.079-.181-.136-.535-.467-.852a1.865 1.865 0 0 0 -.577-.379 1.175 1.175 0 0 0 -.54-.079c-.509.068-1.064.6-1.532 1.936-1.158 3.329-2.057 5.919-2.706 8.059-.006.031-.015.057-.02.082-.229.747-.421 1.444-.586 2.092a17.817 17.817 0 0 0 -.676 5.185zm-1.429-7.2c.057-.2.114-.41.181-.617a8.442 8.442 0 0 0 -.328-1.651 8.186 8.186 0 0 0 -.764-1.744h.005l-.005-.005c-.073-.125.048.082-.051-.088a8.441 8.441 0 0 0 -5.064-3.816 8.226 8.226 0 0 0 -5.743.5 8.06 8.06 0 0 0 .229 1.682 8.173 8.173 0 0 0 .857 2.171c.011.02.026.042.037.062a8.441 8.441 0 0 0 4.947 3.865 8.279 8.279 0 0 0 5.7-.361z"/></g></svg>