<svg xmlns="http://www.w3.org/2000/svg" width="49.226" height="49.226" viewBox="0 0 49.226 49.226">
  <g id="Grupo_1127835" data-name="Grupo 1127835" transform="translate(-4372.837 8339.311)">
    <g id="Grupo_1127404" data-name="Grupo 1127404" transform="translate(4069.311 -11615.613)">
      <g id="Grupo_1106486" data-name="Grupo 1106486" transform="translate(306.526 3279.302)">
        <g id="Elipse_157" data-name="Elipse 157" transform="translate(0 0)" fill="#73964a" stroke="#ffce79" stroke-linejoin="round" stroke-width="3">
          <circle cx="21.613" cy="21.613" r="21.613" stroke="none"/>
          <circle cx="21.613" cy="21.613" r="23.113" fill="none"/>
        </g>
      </g>
      <path id="Trazado_919703" data-name="Trazado 919703" d="M1.248,12.707l.738-6.5H9.158V8.321H4.069l-.316,2.751a4.027,4.027,0,0,1,1.925-.483,3.689,3.689,0,0,1,2.865,1.134A4.529,4.529,0,0,1,9.58,14.9a4.64,4.64,0,0,1-.523,2.219,3.691,3.691,0,0,1-1.5,1.521,4.678,4.678,0,0,1-2.3.541,4.968,4.968,0,0,1-2.153-.47,3.819,3.819,0,0,1-1.569-1.323A3.605,3.605,0,0,1,.923,15.44H3.437a1.878,1.878,0,0,0,.558,1.244,1.769,1.769,0,0,0,1.252.444,1.562,1.562,0,0,0,1.327-.62,2.87,2.87,0,0,0,.466-1.753,2.374,2.374,0,0,0-.536-1.67,1.967,1.967,0,0,0-1.521-.58,2.2,2.2,0,0,0-1.468.475l-.246.229Z" transform="translate(322.196 3289.915)" fill="#fff"/>
    </g>
  </g>
</svg>
