<svg xmlns="http://www.w3.org/2000/svg" width="82" height="82" viewBox="0 0 82 82">
  <g id="Grupo_1127833" data-name="Grupo 1127833" transform="translate(-15892.371 10854.17)">
    <g id="Grupo_1127462" data-name="Grupo 1127462" transform="translate(15500.321 -14368.169)">
      <g id="Grupo_1106486" data-name="Grupo 1106486" transform="translate(381.898 3503.941)">
        <g id="Elipse_157" data-name="Elipse 157" transform="translate(15.151 15.059)" fill="#fff" stroke="#ffce79" stroke-linejoin="round" stroke-width="5">
          <circle cx="36" cy="36" r="36" stroke="none"/>
          <circle cx="36" cy="36" r="38.5" fill="none"/>
        </g>
      </g>
      <g id="Grupo_1127807" data-name="Grupo 1127807" transform="translate(400.254 3522.203)">
        <g id="Grupo_1127804" data-name="Grupo 1127804" transform="translate(7.947 7.5)">
          <circle id="Elipse_12373" data-name="Elipse 12373" cx="24.849" cy="24.849" r="24.849" transform="translate(0 0.447)" fill="#73964a"/>
          <path id="Trazado_919590" data-name="Trazado 919590" d="M68.826,91.333l1.4-.048,4.392-.672,7.1-3.4,7.307-9.369L89.7,64.887l-5.828-9.907L75.082,50l-5.032-.766H68.826a21.08,21.08,0,0,0,0,42.094Z" transform="translate(-45.148 -44.99)" fill="#e3f9ff"/>
          <path id="Trazado_919591" data-name="Trazado 919591" d="M123.321,169.909a3.484,3.484,0,0,0,2.625,0c9.675-3.929,11.87-10.94,12.085-13.784a6.931,6.931,0,0,0-5.23-7.619,8.5,8.5,0,0,0-7.883,2.131.42.42,0,0,1-.569,0,8.5,8.5,0,0,0-7.883-2.131,6.931,6.931,0,0,0-5.23,7.619C111.451,158.97,113.646,165.98,123.321,169.909Z" transform="translate(-101.102 -133.899)" fill="#ffce79"/>
          <path id="Trazado_919592" data-name="Trazado 919592" d="M245.671,7.5c-.393,0-.783.01-1.171.028a25.3,25.3,0,0,1,0,50.536c.388.018.778.028,1.171.028a25.3,25.3,0,0,0,0-50.592Z" transform="translate(-220.822 -7.5)" fill="#455a2d"/>
          <path id="Trazado_919593" data-name="Trazado 919593" d="M245.671,48.917c-.393,0-.783.012-1.171.033a21.08,21.08,0,0,1,0,42.094c.388.021.778.033,1.171.033a21.08,21.08,0,1,0,0-42.16Z" transform="translate(-220.822 -44.701)" fill="#cde3ea"/>
          <g id="Grupo_1127801" data-name="Grupo 1127801" transform="translate(22.361 14.326)">
            <g id="Grupo_1127800" data-name="Grupo 1127800" transform="translate(0 0)">
              <g id="Grupo_1127799" data-name="Grupo 1127799">
                <path id="Trazado_919594" data-name="Trazado 919594" d="M240.9,148.514a7.521,7.521,0,0,0-3.214-.188,7.785,7.785,0,0,1,.873.188,6.931,6.931,0,0,1,5.23,7.619c-.215,2.845-2.41,9.856-12.085,13.784-.047.019-.094.037-.142.054a3.484,3.484,0,0,0,2.483-.054c9.675-3.929,11.87-10.94,12.085-13.784A6.931,6.931,0,0,0,240.9,148.514Z" transform="translate(-231.566 -148.233)" fill="#cca561"/>
              </g>
            </g>
          </g>
          <g id="Grupo_1127803" data-name="Grupo 1127803" transform="translate(19.351 22.204)">
            <g id="Grupo_1127802" data-name="Grupo 1127802" transform="translate(0)">
              <path id="Trazado_919595" data-name="Trazado 919595" d="M205.841,229.562h-3.009a.843.843,0,0,0-.843.843v1.686a.843.843,0,0,0,.843.843h4.274a1.686,1.686,0,0,0,1.349-.675l.843-1.124a.422.422,0,0,1,.674,0l4.047,5.4a.843.843,0,0,0,1.349,0l2.445-3.26a.843.843,0,0,1,.674-.337h2.894a.843.843,0,0,0,.843-.843v-1.686a.843.843,0,0,0-.843-.843h-4.158a1.686,1.686,0,0,0-1.349.675l-.843,1.124a.422.422,0,0,1-.675,0l-4.047-5.4a.843.843,0,0,0-1.349,0l-2.445,3.26A.842.842,0,0,1,205.841,229.562Z" transform="translate(-201.989 -225.628)" fill="#6ecf61"/>
            </g>
          </g>
        </g>
        <g id="Grupo_1127806" data-name="Grupo 1127806" transform="translate(7.5 7.5)">
          <path id="Trazado_919596" data-name="Trazado 919596" d="M16.213,13.693a25.295,25.295,0,1,1-2.54,2.543" transform="translate(-7.5 -7.5)" fill="none" stroke="#000" stroke-linecap="round" stroke-linejoin="round" stroke-miterlimit="10" stroke-width="1"/>
          <circle id="Elipse_12374" data-name="Elipse 12374" cx="21.08" cy="21.08" r="21.08" transform="translate(4.216 4.216)" fill="none" stroke="#000" stroke-linecap="round" stroke-linejoin="round" stroke-miterlimit="10" stroke-width="1"/>
          <g id="Grupo_1127805" data-name="Grupo 1127805" transform="translate(10.557 14.322)">
            <path id="Trazado_919597" data-name="Trazado 919597" d="M205.841,229.562h-3.009a.843.843,0,0,0-.843.843v1.686a.843.843,0,0,0,.843.843h4.274a1.686,1.686,0,0,0,1.349-.675l.843-1.124a.422.422,0,0,1,.674,0l4.047,5.4a.843.843,0,0,0,1.349,0l2.445-3.26a.843.843,0,0,1,.674-.337h2.894a.843.843,0,0,0,.843-.843v-1.686a.843.843,0,0,0-.843-.843h-4.158a1.686,1.686,0,0,0-1.349.675l-.843,1.124a.422.422,0,0,1-.675,0l-4.047-5.4a.843.843,0,0,0-1.349,0l-2.445,3.26A.842.842,0,0,1,205.841,229.562Z" transform="translate(-192.748 -217.746)" fill="none" stroke="#000" stroke-linecap="round" stroke-linejoin="round" stroke-miterlimit="10" stroke-width="1"/>
            <path id="Trazado_919598" data-name="Trazado 919598" d="M175.25,327.071a24.054,24.054,0,0,0,5.591,3.139,3.483,3.483,0,0,0,2.625,0,23.644,23.644,0,0,0,6.074-3.521" transform="translate(-168.731 -308.52)" fill="none" stroke="#000" stroke-linecap="round" stroke-linejoin="round" stroke-miterlimit="10" stroke-width="1"/>
            <path id="Trazado_919599" data-name="Trazado 919599" d="M136.975,160.014a12.328,12.328,0,0,0,1.056-3.914,6.932,6.932,0,0,0-5.23-7.621,8.439,8.439,0,0,0-7.728,1.993.667.667,0,0,1-.878,0,8.439,8.439,0,0,0-7.728-1.993,6.933,6.933,0,0,0-5.23,7.621,14.62,14.62,0,0,0,3.87,8.234" transform="translate(-111.212 -148.197)" fill="none" stroke="#000" stroke-linecap="round" stroke-linejoin="round" stroke-miterlimit="10" stroke-width="1"/>
          </g>
        </g>
      </g>
    </g>
  </g>
</svg>
