<svg height="74" viewBox="0 0 74 74" width="74" xmlns="http://www.w3.org/2000/svg"><path d="m0 0h74v74h-74z" fill="none"/><g transform="translate(-26.755)"><path d="m83.794 436.243h2.98l-2.98-2.982z" fill="#eceff1" transform="translate(-39.819 -375.974)"/><path d="m114.042 126.175h-.042a.811.811 0 0 1 -.7-.484l-1.16-2.638-2.864.316a.811.811 0 0 1 -.791-1.212l2.639-4.574-.4-.228a2.592 2.592 0 0 1 -1.323-2.29v-1.065a.915.915 0 0 0 -.134-.5l-.534-.928a2.6 2.6 0 0 1 0-2.646l.527-.916a.925.925 0 0 0 .138-.512v-1.061a2.59 2.59 0 0 1 1.32-2.288l.924-.531a.96.96 0 0 0 .371-.374l.534-.92a2.609 2.609 0 0 1 2.293-1.324h1.06a1.125 1.125 0 0 0 .141-.009v-12.132h-6.328v.424a.811.811 0 0 1 -.811.811h-17.969a.811.811 0 0 1 -.811-.811v-.424h-6.328v37.029h4.938a.811.811 0 0 1 .811.811v4.941h26.5v-9.121l-1.3 2.25a.811.811 0 0 1 -.7.406z" fill="#eceff1" transform="translate(-39.819 -72.372)"/><path d="m348.21 233.321a4.764 4.764 0 1 0 4.767 4.764 4.769 4.769 0 0 0 -4.767-4.764z" fill="#ffc338" transform="translate(-269.378 -199.207)"/><path d="m56.522 25.241a.811.811 0 0 1 .811-.811h13.542a.811.811 0 0 1 0 1.623h-13.542a.811.811 0 0 1 -.811-.812zm.811 4.175h13.542a.811.811 0 0 0 0-1.623h-13.542a.811.811 0 0 0 0 1.623zm-8.009-5.384h4.159a.811.811 0 0 1 .811.811v4.157a.811.811 0 0 1 -.811.811h-4.159a.811.811 0 0 1 -.812-.811v-4.157a.811.811 0 0 1 .812-.811zm.811 4.159h2.537v-2.536h-2.537zm7.2 5.831h10.93a.811.811 0 0 0 0-1.623h-10.932a.811.811 0 0 0 0 1.623zm0 3.364h9.876a.811.811 0 0 0 0-1.623h-9.878a.811.811 0 0 0 0 1.623zm-3.039-4.573v4.159a.811.811 0 0 1 -.811.811h-4.161a.811.811 0 0 1 -.811-.811v-4.158a.811.811 0 0 1 .811-.814h4.159a.811.811 0 0 1 .811.814zm-1.623.811h-2.538v2.537h2.537zm4.662 8.368h9.876a.811.811 0 0 0 0-1.623h-9.878a.811.811 0 0 0 0 1.623zm0 3.364h10.93a.811.811 0 0 0 0-1.623h-10.932a.811.811 0 1 0 0 1.623zm-3.039-4.573v4.159a.811.811 0 0 1 -.811.811h-4.161a.811.811 0 0 1 -.811-.811v-4.158a.811.811 0 0 1 .811-.811h4.159a.811.811 0 0 1 .811.811zm-1.623.811h-2.538v2.537h2.537zm4.662 8.368h9.534a.811.811 0 0 0 0-1.623h-9.536a.811.811 0 1 0 0 1.623zm0 3.364h12.9a.811.811 0 0 0 0-1.623h-12.9a.811.811 0 1 0 0 1.623zm-3.039-4.573v4.159a.811.811 0 0 1 -.811.811h-4.161a.811.811 0 0 1 -.811-.811v-4.158a.811.811 0 0 1 .811-.811h4.159a.811.811 0 0 1 .811.811zm-1.623.811h-2.538v2.536h2.537zm36.307 1.069a.81.81 0 0 1 -.768.363l-2.867-.316-1.157 2.638a.811.811 0 0 1 -.7.484h-.045a.811.811 0 0 1 -.7-.406l-1.3-2.248v11.887a2.455 2.455 0 0 1 -2.454 2.451h-37.78a2.455 2.455 0 0 1 -2.454-2.451v-48.313a2.455 2.455 0 0 1 2.454-2.451h9.091v-.424a.811.811 0 0 1 .811-.811h5.228a3.843 3.843 0 0 1 7.515 0h5.228a.811.811 0 0 1 .811.811v.424h9.097a2.455 2.455 0 0 1 2.454 2.451v14.9a1.126 1.126 0 0 0 .142.009h1.061a2.611 2.611 0 0 1 2.291 1.324l.53.913a.959.959 0 0 0 .378.38l.915.526a2.592 2.592 0 0 1 1.323 2.29v1.061a.94.94 0 0 0 .134.51l.533.92a2.622 2.622 0 0 1 0 2.644l-.533.921a.941.941 0 0 0 -.134.51v1.061a2.59 2.59 0 0 1 -1.32 2.288l-.4.231 2.636 4.573a.812.812 0 0 1 -.02.85zm-7.395-19.38a2.589 2.589 0 0 1 -1.32-.354l-.922-.534a.981.981 0 0 0 -1.024 0l-.913.53a2.592 2.592 0 0 1 -1.324.356h-1.061a.968.968 0 0 0 -.883.509l-.534.921a2.6 2.6 0 0 1 -.959.965l-.928.534a.977.977 0 0 0 -.51.883v1.061a2.544 2.544 0 0 1 -.359 1.329l-.524.912a.977.977 0 0 0 0 1.021l.531.923a2.534 2.534 0 0 1 .354 1.321v1.061a.979.979 0 0 0 .513.886l.916.527a2.611 2.611 0 0 1 .97.973l.53.913a.97.97 0 0 0 .885.513h1.061a2.59 2.59 0 0 1 1.32.354l.919.53a.968.968 0 0 0 1.02 0l.923-.531a2.59 2.59 0 0 1 1.321-.354h1.061a.968.968 0 0 0 .883-.509l.534-.921a2.581 2.581 0 0 1 .963-.967l.925-.532a.977.977 0 0 0 .51-.883v-1.059a2.571 2.571 0 0 1 .352-1.323l.532-.919a.989.989 0 0 0 0-1.022l-.532-.919a2.57 2.57 0 0 1 -.352-1.323v-1.061a.979.979 0 0 0 -.513-.886l-.916-.527a2.591 2.591 0 0 1 -.97-.974l-.53-.912a.971.971 0 0 0 -.885-.513h-1.064zm-10.715 17.954 1.864-.207a.812.812 0 0 1 .832.48l.755 1.717 1.773-3.072h-1.073a2.611 2.611 0 0 1 -2.291-1.325l-.237-.407zm-.97-35.314v1.972h7.139a.811.811 0 0 1 .811.811v12.124a2.561 2.561 0 0 1 1.975 0v-14.079a.831.831 0 0 0 -.831-.828zm-17.975 3.207h16.348v-4.442h-5.141a.811.811 0 0 1 -.811-.811 2.221 2.221 0 1 0 -4.442 0 .811.811 0 0 1 -.811.811h-5.142v4.442zm-.811 1.623a.811.811 0 0 1 -.811-.811v-.424h-6.328v37.028h4.938a.811.811 0 0 1 .811.811v4.941h26.5v-9.121l-1.3 2.25a.811.811 0 0 1 -.7.406h-.044a.811.811 0 0 1 -.7-.484l-1.16-2.639-2.864.32a.811.811 0 0 1 -.791-1.212l2.635-4.578-.4-.228a2.592 2.592 0 0 1 -1.323-2.29v-1.061a.915.915 0 0 0 -.134-.5l-.534-.928a2.6 2.6 0 0 1 0-2.646l.527-.916a.925.925 0 0 0 .138-.512v-1.065a2.59 2.59 0 0 1 1.32-2.288l.924-.531a.96.96 0 0 0 .371-.374l.534-.92a2.609 2.609 0 0 1 2.288-1.321h1.061a1.125 1.125 0 0 0 .141-.009v-12.134h-6.313v.424a.811.811 0 0 1 -.811.811h-17.975zm-7.139 41.546h2.98l-2.98-2.982zm4.125-1.148v-2.982h-2.98zm31.719 3.914v-14.078a2.586 2.586 0 0 1 -1.975 0v12.123a.811.811 0 0 1 -.811.811h-33.869a.811.811 0 0 1 -.811-.811v-44.4a.811.811 0 0 1 .811-.811h7.136v-1.976h-9.091a.831.831 0 0 0 -.831.828v48.314a.831.831 0 0 0 .831.828h37.781a.831.831 0 0 0 .831-.828zm6.981-13.828-1.628-2.807-.237.409a2.609 2.609 0 0 1 -2.288 1.321h-1.076l1.775 3.07.753-1.716a.812.812 0 0 1 .831-.484l1.866.206zm-7.968-16.715a6.386 6.386 0 1 1 -6.386 6.386 6.4 6.4 0 0 1 6.386-6.386zm0 1.623a4.764 4.764 0 1 0 4.768 4.763 4.769 4.769 0 0 0 -4.768-4.764zm-1.977 4.311a.811.811 0 0 0 -1.125 1.169l1.758 1.692a.812.812 0 0 0 .563.227h.027a.811.811 0 0 0 .573-.264l3.323-3.65a.811.811 0 0 0 -1.2-1.093l-2.763 3.031z"/><path d="m96.667 423.355h-2.98l2.98 2.982z" fill="#d2d9db" transform="translate(-48.565 -367.216)"/><path d="m136.944 160.33h2.537v2.537h-2.537z" fill="#6cf5c2" transform="translate(-86.809 -134.675)"/><path d="m53.586 108.82h37.781a.831.831 0 0 0 .831-.828v-14.079a2.586 2.586 0 0 1 -1.975 0v12.123a.811.811 0 0 1 -.811.811h-33.871a.811.811 0 0 1 -.811-.811v-44.4a.811.811 0 0 1 .811-.811h7.139v-1.975h-9.094a.831.831 0 0 0 -.831.828v48.313a.831.831 0 0 0 .831.828z" fill="#e3a76f" transform="translate(-12.377 -44.957)"/><g fill="#6cf5c2"><path d="m136.944 297.866h2.537v2.534h-2.537z" transform="translate(-86.809 -256.271)"/><path d="m136.944 229.1h2.537v2.537h-2.537z" transform="translate(-86.809 -195.473)"/><path d="m136.944 366.634h2.537v2.537h-2.537z" transform="translate(-86.809 -317.069)"/></g><path d="m315.4 61.632v12.12a2.561 2.561 0 0 1 1.975 0v-14.075a.831.831 0 0 0 -.831-.828h-9.094v1.972h7.139a.811.811 0 0 1 .811.811z" fill="#e3a76f" transform="translate(-237.55 -44.956)"/><path d="m411.549 339.7a2.609 2.609 0 0 1 -2.288 1.321h-1.075l1.774 3.071.753-1.716a.812.812 0 0 1 .832-.48l1.866.206-1.624-2.811-.237.409z" fill="#fe646f" transform="translate(-326.615 -292.898)"/><path d="m168.742 25.036h-5.142a.811.811 0 0 1 -.811-.811 2.221 2.221 0 1 0 -4.442 0 .811.811 0 0 1 -.811.811h-5.142v4.442h16.348z" fill="#a79ba7" transform="translate(-100.468 -12.377)"/><path d="m318.027 199.88-.913.53a2.592 2.592 0 0 1 -1.324.356h-1.061a.968.968 0 0 0 -.883.509l-.534.921a2.6 2.6 0 0 1 -.959.965l-.928.534a.977.977 0 0 0 -.51.883v1.061a2.544 2.544 0 0 1 -.359 1.329l-.524.912a.977.977 0 0 0 0 1.021l.531.923a2.534 2.534 0 0 1 .354 1.321v1.061a.979.979 0 0 0 .513.886l.916.527a2.611 2.611 0 0 1 .97.973l.53.913a.97.97 0 0 0 .885.513h1.061a2.591 2.591 0 0 1 1.32.354l.919.53a.968.968 0 0 0 1.02 0l.923-.531a2.59 2.59 0 0 1 1.321-.354h1.061a.968.968 0 0 0 .883-.509l.534-.921a2.581 2.581 0 0 1 .963-.967l.925-.532a.977.977 0 0 0 .51-.883v-1.061a2.571 2.571 0 0 1 .352-1.323l.532-.919a.989.989 0 0 0 0-1.022l-.531-.919a2.57 2.57 0 0 1 -.352-1.323v-1.061a.979.979 0 0 0 -.513-.886l-.916-.527a2.591 2.591 0 0 1 -.97-.974l-.53-.912a.971.971 0 0 0 -.885-.513h-1.061a2.589 2.589 0 0 1 -1.32-.354l-.922-.534a.981.981 0 0 0 -1.024 0zm6.9 8.511a6.388 6.388 0 1 1 -6.387-6.391 6.4 6.4 0 0 1 6.39 6.391z" fill="#ffe177" transform="translate(-239.708 -169.513)"/><path d="m320 341.006a2.611 2.611 0 0 1 -2.291-1.324l-.237-.408-1.623 2.813 1.864-.205a.812.812 0 0 1 .832.48l.755 1.717 1.773-3.072h-1.073z" fill="#fe646f" transform="translate(-244.984 -292.88)"/></g></svg>