<svg height="71.854" viewBox="0 0 71.854 71.854" width="71.854" xmlns="http://www.w3.org/2000/svg"><path d="m50.567 14.03a2.765 2.765 0 0 0 -2.758-2.758h-1.379l.661-1.159 3.836-6.722a2.784 2.784 0 0 1 2.399-1.391 2.7 2.7 0 0 1 1.344.348l8.379 4.659a2.76 2.76 0 0 1 1.426 2.411v.046a2.814 2.814 0 0 1 -.29 1.228l-6.026 12.053-5.274-.345-2.318-.151z" fill="#e6e9ed" transform="translate(6.221 -.841)"/><path d="m45.548 3.391 3.836 6.722-.661 1.159h-9.329a2.765 2.765 0 0 0 -2.758 2.758v5.354l-4.346-8.692a2.814 2.814 0 0 1 -.29-1.228v-.047a2.76 2.76 0 0 1 1.425-2.411l8.375-4.658a2.7 2.7 0 0 1 1.349-.348 2.784 2.784 0 0 1 2.4 1.391z" fill="#b4dd7f" transform="translate(3.927 -.841)"/><path d="m49.467 10a2.765 2.765 0 0 1 2.758 2.758v8.217l-4.636-.313-6.953-.462-4.636-.314v-7.128a2.765 2.765 0 0 1 2.758-2.758z" fill="#fcd770" transform="translate(4.563 .431)"/><path d="m29.589 10.318v2.318h-9.271a2.325 2.325 0 0 1 -2.318-2.318 2.335 2.335 0 0 1 2.318-2.318h6.954a2.325 2.325 0 0 1 2.317 2.318z" fill="#aab2bd" transform="translate(1.702 .113)"/><ellipse cx="66.031" cy="52.152" fill="#969faa" rx="4.626" ry="5.047"/><path d="m61.088 20.2-5.273-.348-2.315-.152-4.636-.313-6.954-.464-4.636-.313-2.318-.151-6.956-.459v9.272l1.843-1.843a1.639 1.639 0 0 1 2.793 1.159v5.32h2.318a4.634 4.634 0 0 1 4.636 4.636v2.318h18.543a4.635 4.635 0 0 0 4.636-4.636v-13.908z" fill="#ff826e" transform="translate(3.292 1.702)"/><path d="m39.086 30.954a4.634 4.634 0 0 1 4.636 4.636v27.81a4.634 4.634 0 0 1 -4.636 4.636h-32.45a4.634 4.634 0 0 1 -4.636-4.636v-27.811a4.634 4.634 0 0 1 4.636-4.636h20.864l4.636-4.636 1.843-1.843a1.639 1.639 0 0 1 2.793 1.159v5.32z" fill="#e6e9ed" transform="translate(-.841 2.656)"/><path d="m12.636 57.907v2.318h-4.636v-16.225h4.636z" fill="#b4dd7f" transform="translate(.113 5.835)"/><path d="m32.861 47.907a2.325 2.325 0 0 1 2.318 2.318 2.335 2.335 0 0 1 -2.318 2.318 2.325 2.325 0 0 1 2.318 2.318 2.335 2.335 0 0 1 -2.318 2.318 2.335 2.335 0 0 1 2.318 2.321 2.325 2.325 0 0 1 -2.318 2.318h-14.301a4.64 4.64 0 0 1 -3.28-1.356l-.962-.962h-2.318v-11.593l2.306-1.541a4.627 4.627 0 0 1 2.573-.776h.568a4.987 4.987 0 0 0 4.983-4.983v-5.448a1.162 1.162 0 0 1 1.159-1.159 3.472 3.472 0 0 1 3.477 3.477v5.795h5.795a2.335 2.335 0 0 1 2.318 2.318 2.325 2.325 0 0 1 -2.318 2.317z" fill="#f0d0b4" transform="translate(.748 4.245)"/><path d="m67.06 47.358h-22.02v-4.636h17.384a5.8 5.8 0 0 0 5.795-5.795v-14.992l-1.025-.068 5.246-10.493a3.979 3.979 0 0 0 .415-1.8 3.921 3.921 0 0 0 -2.017-3.427l-8.385-4.66a3.924 3.924 0 0 0 -5.307 1.483l-2.835 4.966-2.834-4.961a3.92 3.92 0 0 0 -5.308-1.481l-8.384 4.659a3.97 3.97 0 0 0 -1.6 5.221l4.215 8.443v.264l-6.954-.464v-8.187a3.481 3.481 0 0 0 -3.477-3.477h-6.949a3.477 3.477 0 1 0 0 6.954h8.113v14.587l-3.957 3.956h-20.381a5.8 5.8 0 0 0 -5.795 5.795v27.815a5.8 5.8 0 0 0 5.795 5.795h32.45a5.8 5.8 0 0 0 5.795-5.795v-17.384h17.414a5.735 5.735 0 0 0 -1.189 3.477 5.795 5.795 0 1 0 5.795-5.795zm-23.209-11.59h8.143v4.632h-6.954v-1.155a5.735 5.735 0 0 0 -1.189-3.477zm-5.813-6.954h7v4.636h-6.952v-4.156a2.726 2.726 0 0 0 -.048-.479zm7-6.1v3.786h-4.638v-4.1zm20.862 1.386v2.4h-4.635v-2.7zm-11.589 9.35v-4.635h4.636v4.635zm4.636 2.318v4.632h-4.636v-4.632zm-6.953-2.318h-4.636v-4.635h4.636zm9.272-4.636h4.634v4.636h-4.635zm-2.318-5.174v2.86h-4.637v-3.168zm-6.954 2.86h-4.636v-3.632l4.636.309zm10.43 13.9h-1.159v-4.632h4.635v1.159a3.481 3.481 0 0 1 -3.476 3.473zm-3.265-36.275a1.647 1.647 0 0 1 2.17-.6l8.384 4.659a1.652 1.652 0 0 1 .655 2.158l-5.682 11.358-5.739-.384v-7.124a3.917 3.917 0 0 0 -3.334-3.862zm-20.9 6.211a1.662 1.662 0 0 1 -.169-.757 1.6 1.6 0 0 1 .824-1.4l8.379-4.659a1.644 1.644 0 0 1 2.171.6l3.513 6.148h-8.653a3.925 3.925 0 0 0 -3.92 3.921v.442zm4.467 3.857a1.6 1.6 0 0 1 1.6-1.6h10.7a1.6 1.6 0 0 1 1.6 1.6v6.971l-13.907-.927zm-4.64 8.057v4.25h-2.8a2.808 2.808 0 0 0 -1.838.7v-5.26zm-15.066-9.661a1.159 1.159 0 1 1 0-2.318h6.954a1.159 1.159 0 0 1 1.159 1.159v1.159zm19.7 54.47a3.481 3.481 0 0 1 -3.477 3.477h-32.448a3.481 3.481 0 0 1 -3.477-3.476v-27.815a3.481 3.481 0 0 1 3.477-3.477h21.34l6.813-6.813a.5.5 0 0 1 .819.34v6.474h3.477a3.481 3.481 0 0 1 3.477 3.477zm24.34-10.43a3.477 3.477 0 1 1 3.477-3.477 3.481 3.481 0 0 1 -3.477 3.477z" transform="translate(-1 -1)"/><path d="m33.656 42.272h-4.636v-4.636a4.64 4.64 0 0 0 -4.636-4.636 2.32 2.32 0 0 0 -2.318 2.318v5.444a3.829 3.829 0 0 1 -3.828 3.828h-.563a5.764 5.764 0 0 0 -3.214.974l-.508.338v-1.313h-6.953v18.544h6.954v-2.318h.679l.62.62a5.759 5.759 0 0 0 4.1 1.7h14.3a3.462 3.462 0 0 0 2.573-5.795 3.424 3.424 0 0 0 0-4.636 3.424 3.424 0 0 0 0-4.636 3.462 3.462 0 0 0 -2.573-5.795zm-22.02 18.543h-2.318v-13.908h2.318zm22.02 0h-14.3a3.457 3.457 0 0 1 -2.464-1.015l-1.3-1.3h-1.638v-9.81l1.793-1.195a3.459 3.459 0 0 1 1.928-.584h.563a6.146 6.146 0 0 0 6.146-6.146v-5.447a2.32 2.32 0 0 1 2.316 2.318v6.954h6.954a1.159 1.159 0 1 1 0 2.318h-3.475v2.318h3.477a1.159 1.159 0 1 1 0 2.318h-3.477v2.318h3.477a1.159 1.159 0 0 1 0 2.318h-3.477v2.32h3.477a1.159 1.159 0 0 1 0 2.318z" transform="translate(-.046 4.086)"/><path d="m5 17h16.225v2.318h-16.225z" transform="translate(-.364 1.543)"/><path d="m5 21h16.225v2.318h-16.225z" transform="translate(-.364 2.179)"/><path d="m13 25h2.318v2.318h-2.318z" transform="translate(.907 2.815)"/><path d="m17 25h2.318v2.318h-2.318z" transform="translate(1.543 2.815)"/><path d="m5 25h2.318v2.318h-2.318z" transform="translate(-.364 2.815)"/><path d="m9 25h2.318v2.318h-2.318z" transform="translate(.272 2.815)"/><path d="m5 33h11.589v2.318h-11.589z" transform="translate(-.364 4.086)"/><path d="m5 37h11.589v2.318h-11.589z" transform="translate(-.364 4.722)"/></svg>