<svg xmlns="http://www.w3.org/2000/svg" width="82.961" height="82.971" viewBox="0 0 82.961 82.971">
  <g id="Grupo_1127737" data-name="Grupo 1127737" transform="translate(0 0.005)">
    <path id="Trazado_919355" data-name="Trazado 919355" d="M61.583,29.563a20.728,20.728,0,0,0-27.436,30.81,9.744,9.744,0,0,0-7.384.8,14.066,14.066,0,0,1-6.748,1.756C9.518,62.931,1,48.8,1,33.891S9.518,9,20.014,9A14.564,14.564,0,0,1,28.2,11.614a5.646,5.646,0,0,0,6.444,0A14.564,14.564,0,0,1,42.831,9a16.179,16.179,0,0,1,6.2,1.231c6.513,2.71,11.422,9.721,12.556,19.332Z" transform="translate(0.383 3.448)" fill="#f44335"/>
    <path id="Trazado_919356" data-name="Trazado 919356" d="M33.858,10.231C39.789,12.7,44.38,18.742,46.011,27.059a20.534,20.534,0,0,1,4.551,2.5c-1.134-9.611-6.043-16.622-12.556-19.332A16.179,16.179,0,0,0,31.811,9a13.676,13.676,0,0,0-2.026.156,16.221,16.221,0,0,1,4.073,1.074Z" transform="translate(11.403 3.448)" fill="#c81e1e"/>
    <path id="Trazado_919357" data-name="Trazado 919357" d="M43.591,6.857a23.954,23.954,0,0,1-2.987,5.67,16.179,16.179,0,0,0-6.2-1.231,14.564,14.564,0,0,0-8.187,2.614A5.652,5.652,0,0,1,23,14.92V12.693a9.847,9.847,0,0,1,5.753-8.352c4.978-2.544,10.883-.871,13.663.194a1.9,1.9,0,0,1,1.175,2.323Z" transform="translate(8.806 1.151)" fill="#a4c400"/>
    <path id="Trazado_919358" data-name="Trazado 919358" d="M39.73,4.523a20.714,20.714,0,0,0-9.715-1.4,23.706,23.706,0,0,1,5.566,1.4,1.9,1.9,0,0,1,1.175,2.323,21.876,21.876,0,0,1-2.337,4.681,16.307,16.307,0,0,1,3.5.989,23.953,23.953,0,0,0,2.987-5.67A1.9,1.9,0,0,0,39.73,4.523Z" transform="translate(11.491 1.162)" fill="#90ac00"/>
    <path id="Trazado_919359" data-name="Trazado 919359" d="M63.506,63.506a2.738,2.738,0,0,1-3.9,0L45.1,49A20.828,20.828,0,0,0,49,45.1L63.506,59.606a2.73,2.73,0,0,1,0,3.9Z" transform="translate(17.267 17.269)" fill="#7f8e94"/>
    <path id="Trazado_919360" data-name="Trazado 919360" d="M62.5,41.743a20.772,20.772,0,1,1-8.56-16.774A20.772,20.772,0,0,1,62.5,41.743Z" transform="translate(8.024 8.042)" fill="#9e9e9e"/>
    <path id="Trazado_919361" data-name="Trazado 919361" d="M48.772,24.969A20.544,20.544,0,0,0,36.589,21a21.2,21.2,0,0,0-2.127.108A20.733,20.733,0,0,1,34.5,62.374a20.73,20.73,0,0,0,14.274-37.4Z" transform="translate(13.194 8.042)" fill="#707070"/>
    <circle id="Elipse_12358" data-name="Elipse 12358" cx="15.211" cy="15.211" r="15.211" transform="translate(34.571 34.573)" fill="#02a9f4"/>
    <path id="Trazado_919362" data-name="Trazado 919362" d="M36.574,25a15.32,15.32,0,0,0-2.074.158,15.193,15.193,0,0,1,0,30.108A15.2,15.2,0,1,0,36.574,25Z" transform="translate(13.209 9.573)" fill="#0377bc"/>
    <circle id="Elipse_12359" data-name="Elipse 12359" cx="2.766" cy="2.766" r="2.766" transform="translate(53.931 49.785)" fill="#60a917"/>
    <path id="Trazado_919363" data-name="Trazado 919363" d="M68.071,62.218A22.05,22.05,0,0,0,63.25,32.271c-1.2-8.9-5.685-15.856-11.844-19.132a22.8,22.8,0,0,0,2.315-4.734A3.269,3.269,0,0,0,51.716,4.4c-9.278-3.564-16.247-.874-19.537,4A13.174,13.174,0,0,0,25.4.1a1.383,1.383,0,0,0-1.037,2.565c.239.1,5.721,2.528,6.025,11.764a4.332,4.332,0,0,1-1.039-.516C17.562,5.988,0,14.886,0,37.339,0,53.546,9.532,67.762,20.4,67.762A15.38,15.38,0,0,0,27.8,65.838a8.417,8.417,0,0,1,6.024-.765,22.047,22.047,0,0,0,28.389,3L75.893,81.754A4.141,4.141,0,0,0,81.748,75.9ZM38.188,6.721c4.425-2.264,9.757-.812,12.54.254a.524.524,0,0,1,.34.651,21.521,21.521,0,0,1-2.213,4.378,16.055,16.055,0,0,0-14.613,1.917,4.252,4.252,0,0,1-1.054.521v-.6a8.556,8.556,0,0,1,5-7.123Zm-11.7,56.687C13.775,70.3,2.766,53.9,2.766,37.339,2.766,17.221,17.839,9.5,27.8,16.2a7.148,7.148,0,0,0,8,.01,13.137,13.137,0,0,1,7.418-2.379c8.1,0,14.734,6.609,16.871,16.388A22.1,22.1,0,0,0,31.391,62.073a11.184,11.184,0,0,0-4.9,1.336Zm3.937-13.624a19.36,19.36,0,1,1,19.36,19.36,19.36,19.36,0,0,1-19.36-19.36ZM79.791,79.793a1.383,1.383,0,0,1-1.944,0L64.4,66.345A22.629,22.629,0,0,0,66.345,64.4L79.8,77.857a1.347,1.347,0,0,1-.007,1.936Z"/>
    <path id="Trazado_919364" data-name="Trazado 919364" d="M40.594,24A16.594,16.594,0,1,0,57.189,40.594,16.594,16.594,0,0,0,40.594,24Zm0,30.423A13.829,13.829,0,1,1,54.423,40.594,13.829,13.829,0,0,1,40.594,54.423Z" transform="translate(9.189 9.191)"/>
    <circle id="Elipse_12360" data-name="Elipse 12360" cx="1.383" cy="1.383" r="1.383" transform="translate(48.4 38.722)"/>
    <circle id="Elipse_12361" data-name="Elipse 12361" cx="1.383" cy="1.383" r="1.383" transform="translate(48.4 56.699)"/>
    <path id="Trazado_919365" data-name="Trazado 919365" d="M33.976,31.01a4.74,4.74,0,0,0-3.945,3.872,1.383,1.383,0,1,0,2.71.542,1.993,1.993,0,0,1,1.605-1.668,1.383,1.383,0,0,0-.371-2.741Z" transform="translate(11.483 11.872)"/>
    <path id="Trazado_919366" data-name="Trazado 919366" d="M30.559,37.011a1.383,1.383,0,0,0-.351,2.744,2.015,2.015,0,0,1,1.586,1.659,1.383,1.383,0,1,0,2.71-.542,4.74,4.74,0,0,0-3.945-3.861Z" transform="translate(11.103 14.168)"/>
    <path id="Trazado_919367" data-name="Trazado 919367" d="M42.149,35A4.149,4.149,0,1,0,46.3,39.149,4.149,4.149,0,0,0,42.149,35Zm0,5.531a1.383,1.383,0,1,1,1.383-1.383A1.383,1.383,0,0,1,42.149,40.531Z" transform="translate(14.549 13.402)"/>
    <path id="Trazado_919368" data-name="Trazado 919368" d="M41.763,32.626a1.383,1.383,0,1,0-1.236-2.475l-2.766,1.383a1.383,1.383,0,0,0,.618,2.614C38.818,34.147,38.756,34.122,41.763,32.626Z" transform="translate(14.169 11.489)"/>
  </g>
</svg>
