<svg xmlns="http://www.w3.org/2000/svg" width="82" height="82" viewBox="0 0 82 82">
  <g id="Grupo_1127833" data-name="Grupo 1127833" transform="translate(7395 9225)">
    <g id="Grupo_1127521" data-name="Grupo 1127521">
      <g id="Grupo_1116527" data-name="Grupo 1116527" transform="translate(-7405.151 -9235.059)">
        <g id="Elipse_157" data-name="Elipse 157" transform="translate(15.151 15.059)" fill="#fff" stroke="#ffce79" stroke-linejoin="round" stroke-width="5">
          <circle cx="36" cy="36" r="36" stroke="none"/>
          <circle cx="36" cy="36" r="38.5" fill="none"/>
        </g>
      </g>
      <g id="Grupo_1127520" data-name="Grupo 1127520" transform="translate(-7384.456 -9214)">
        <g id="Grupo_1127507" data-name="Grupo 1127507">
          <g id="Grupo_1127492" data-name="Grupo 1127492">
            <g id="Grupo_1127488" data-name="Grupo 1127488">
              <g id="Grupo_1127487" data-name="Grupo 1127487">
                <g id="Grupo_1127486" data-name="Grupo 1127486">
                  <path id="Trazado_917978" data-name="Trazado 917978" d="M43.39,17.4V51.38A2.638,2.638,0,0,1,40.76,54H18.56a2.631,2.631,0,0,1-2.63-2.62V20.58c0-.36.04-.7.13-5.14Z" fill="#e7eef9"/>
                </g>
              </g>
            </g>
            <g id="Grupo_1127491" data-name="Grupo 1127491">
              <g id="Grupo_1127490" data-name="Grupo 1127490">
                <g id="Grupo_1127489" data-name="Grupo 1127489">
                  <path id="Trazado_917979" data-name="Trazado 917979" d="M40.76,55H18.56a3.628,3.628,0,0,1-3.63-3.62V20.58c0-.12,0-.24.01-.48.02-.51.06-1.61.12-4.68a1.012,1.012,0,0,1,.33-.72,1.075,1.075,0,0,1,.75-.26L43.47,16.4a1,1,0,0,1,.93,1V51.38A3.636,3.636,0,0,1,40.76,55ZM17.04,16.51c-.05,2.3-.08,3.21-.1,3.66-.01.21-.01.31-.01.41v30.8A1.628,1.628,0,0,0,18.56,53h22.2a1.648,1.648,0,0,0,1.63-1.62V18.33Z"/>
                </g>
              </g>
            </g>
          </g>
          <g id="Grupo_1127499" data-name="Grupo 1127499">
            <g id="Grupo_1127495" data-name="Grupo 1127495">
              <g id="Grupo_1127494" data-name="Grupo 1127494">
                <g id="Grupo_1127493" data-name="Grupo 1127493">
                  <path id="Trazado_917980" data-name="Trazado 917980" d="M42.68,8.86v3.96H16.64V8.86A2.859,2.859,0,0,1,19.5,6H39.81a2.868,2.868,0,0,1,2.87,2.86Z" fill="#2ba4f5"/>
                </g>
              </g>
            </g>
            <g id="Grupo_1127498" data-name="Grupo 1127498">
              <g id="Grupo_1127497" data-name="Grupo 1127497">
                <g id="Grupo_1127496" data-name="Grupo 1127496">
                  <path id="Trazado_917981" data-name="Trazado 917981" d="M42.68,13.82H16.64a1,1,0,0,1-1-1V8.86A3.869,3.869,0,0,1,19.5,5H39.81a3.871,3.871,0,0,1,3.87,3.86v3.96a1,1,0,0,1-1,1Zm-25.04-2H41.68V8.86A1.865,1.865,0,0,0,39.81,7H19.5a1.856,1.856,0,0,0-1.86,1.86Z"/>
                </g>
              </g>
            </g>
          </g>
          <g id="Grupo_1127506" data-name="Grupo 1127506">
            <g id="Grupo_1127502" data-name="Grupo 1127502">
              <g id="Grupo_1127501" data-name="Grupo 1127501">
                <g id="Grupo_1127500" data-name="Grupo 1127500">
                  <path id="Trazado_917982" data-name="Trazado 917982" d="M47.55,17.9a13.094,13.094,0,0,1-7.95,4.95c-5.11.85-6.16-2.37-10.98-3.6s-5.4,5.21-9.28,1.99c-3.74-3.11-6.69-1.27-6.9-1.14l4.2-7.28H42.68Z" fill="#52c392"/>
                </g>
              </g>
            </g>
            <g id="Grupo_1127505" data-name="Grupo 1127505">
              <g id="Grupo_1127504" data-name="Grupo 1127504">
                <g id="Grupo_1127503" data-name="Grupo 1127503">
                  <path id="Trazado_917983" data-name="Trazado 917983" d="M37.99,23.99a9.72,9.72,0,0,1-5.45-1.87,14.357,14.357,0,0,0-4.16-1.91c-1.79-.46-2.78.39-3.91,1.37-1.3,1.12-3.07,2.65-5.76.42-3.02-2.52-5.31-1.32-5.73-1.06a1,1,0,0,1-1.39-1.35l4.2-7.28a1,1,0,0,1,.87-.5H42.7a.992.992,0,0,1,.72.31l4.87,5.08a1,1,0,0,1,.1,1.26,14.036,14.036,0,0,1-8.61,5.37,10.875,10.875,0,0,1-1.79.16Zm-10.56-5.9a5.961,5.961,0,0,1,1.45.19,16.482,16.482,0,0,1,4.71,2.13c1.82,1.1,3.14,1.9,5.86,1.45a11.953,11.953,0,0,0,6.78-3.91l-3.96-4.14H17.22l-2.67,4.63a7.614,7.614,0,0,1,5.43,2.02c1.38,1.15,1.87.73,3.17-.39a6.447,6.447,0,0,1,4.28-1.98Z"/>
                </g>
              </g>
            </g>
          </g>
        </g>
        <g id="Grupo_1127519" data-name="Grupo 1127519">
          <g id="Grupo_1127514" data-name="Grupo 1127514">
            <g id="Grupo_1127510" data-name="Grupo 1127510">
              <g id="Grupo_1127509" data-name="Grupo 1127509">
                <g id="Grupo_1127508" data-name="Grupo 1127508">
                  <path id="Trazado_917984" data-name="Trazado 917984" d="M35.21,37.17c0,3.73-2.48,8.46-5.55,8.46s-5.55-4.73-5.55-8.46,2.48-5.04,5.55-5.04S35.21,33.44,35.21,37.17Z" fill="#e3334f"/>
                </g>
              </g>
            </g>
            <g id="Grupo_1127513" data-name="Grupo 1127513">
              <g id="Grupo_1127512" data-name="Grupo 1127512">
                <g id="Grupo_1127511" data-name="Grupo 1127511">
                  <path id="Trazado_917985" data-name="Trazado 917985" d="M29.66,46.62c-3.69,0-6.55-5.08-6.55-9.46,0-3.84,2.39-6.04,6.55-6.04s6.55,2.2,6.55,6.04C36.21,41.54,33.35,46.62,29.66,46.62Zm0-13.49c-4.55,0-4.55,3.04-4.55,4.04,0,3.26,2.21,7.46,4.55,7.46s4.55-4.2,4.55-7.46C34.21,36.17,34.21,33.13,29.66,33.13Z"/>
                </g>
              </g>
            </g>
          </g>
          <g id="Grupo_1127518" data-name="Grupo 1127518">
            <g id="Grupo_1127517" data-name="Grupo 1127517">
              <g id="Grupo_1127516" data-name="Grupo 1127516">
                <g id="Grupo_1127515" data-name="Grupo 1127515">
                  <path id="Trazado_917986" data-name="Trazado 917986" d="M29.66,33.13a1,1,0,0,1-1-.97c0-.16-.07-4.05,2.66-5.2a1,1,0,0,1,.78,1.84c-1.44.61-1.44,3.28-1.43,3.31a1,1,0,0,1-.98,1.02h-.03Z"/>
                </g>
              </g>
            </g>
          </g>
        </g>
      </g>
    </g>
  </g>
</svg>
