<svg height="82" viewBox="0 0 82 82" width="82" xmlns="http://www.w3.org/2000/svg" xmlns:xlink="http://www.w3.org/1999/xlink"><clipPath id="a"><path d="m0-682.665h39.333v39.333h-39.333z" transform="translate(0 682.665)"/></clipPath><g fill="#fff" stroke="#ffce79" stroke-linejoin="round" stroke-width="5"><circle cx="40.999" cy="41" r="36" stroke="none"/><circle cx="40.999" cy="41" fill="none" r="38.5"/></g><path d="m83.571-599.094h-33.571v-33.571h33.571z" fill="#e9edf5" transform="translate(-25.812 656.879)"/><path d="m50-599.094h9.219v-33.571h-9.219z" fill="#dce1eb" transform="translate(-25.812 656.879)"/><g clip-path="url(#a)" transform="translate(21.307 21.333)"><path d="m-50.26 0h6.031a3.073 3.073 0 0 1 3.073 3.073v8.335h-12.177v-8.335a3.073 3.073 0 0 1 3.073-3.073" fill="#f2b88f" transform="translate(74.536 25.044)"/><path d="m-125.651 0h-4.609a3.073 3.073 0 0 0 -3.073 3.073v8.335h4.609v-8.335a3.073 3.073 0 0 1 3.073-3.073" fill="#e3a57b" transform="translate(154.536 25.044)"/><path d="m-174.737-161.461a14.054 14.054 0 0 0 .341-2.958 17.765 17.765 0 0 0 -1.675-6.914h-7.673a17.766 17.766 0 0 0 -1.675 6.914 14.058 14.058 0 0 0 .341 2.958z" fill="#e0b8ff" transform="translate(191.951 197.914)"/><path d="m-80.962-161.461a14.054 14.054 0 0 1 -.341-2.958 17.765 17.765 0 0 1 1.675-6.914h-4.609a17.765 17.765 0 0 0 -1.675 6.914 14.053 14.053 0 0 0 .341 2.958z" fill="#d2a0f5" transform="translate(92.442 197.914)"/><path d="m-174.026-50.26h-9.1a1.536 1.536 0 0 1 -1.536-1.536 1.536 1.536 0 0 1 1.536-1.536h9.1a1.536 1.536 0 0 1 1.536 1.532 1.536 1.536 0 0 1 -1.536 1.536" fill="#ebccff" transform="translate(190.62 78.377)"/><path d="m-75.39-25.13a1.536 1.536 0 0 1 1.536-1.536h-4.609a1.536 1.536 0 0 0 -1.537 1.536 1.536 1.536 0 0 0 1.536 1.536h4.609a1.536 1.536 0 0 1 -1.535-1.536" fill="#e0b8ff" transform="translate(85.954 51.711)"/><path d="m-199.156-100.835v-3.212a5.183 5.183 0 0 0 -.147-1.224l-5.942-1.729-5.941 1.729a5.183 5.183 0 0 0 -.147 1.224v3.212z" fill="#fff48f" transform="translate(232.536 120.444)"/><path d="m-57.8-35.141a5.183 5.183 0 0 1 .147-1.224v-.924l-3.534.924a5.183 5.183 0 0 0 -.147 1.224v3.212h3.534z" fill="#ffee6e" transform="translate(82.536 51.537)"/><path d="m-142.614-56.543-4.36.864-4.36-.864v-2.157a1.3 1.3 0 0 1 1.3-1.3h6.127a1.3 1.3 0 0 1 1.3 1.3z" fill="#fff48f" transform="translate(174.265 68.258)"/><path d="m-57.8-21.2a1.3 1.3 0 0 1 1.3-1.3h-3.534a1.3 1.3 0 0 0 -1.3 1.3v2.161l3.534.7z" fill="#ffee6e" transform="translate(84.265 30.758)"/><path d="m0-56.543h11.882a5.189 5.189 0 0 0 -.4-1.095l-1.182-2.362h-8.718l-1.182 2.362a5.184 5.184 0 0 0 -.4 1.095" fill="#ffee6e" transform="translate(21.35 71.715)"/><path d="m-83.667 0h-3.533l-1.181 2.362a5.185 5.185 0 0 0 -.4 1.095h3.534a5.185 5.185 0 0 1 .4-1.095z" fill="#ffe45c" transform="translate(110.132 11.715)"/><path d="m-2.3-2.3c.3-.3 2.534-.2 3.952 1.214a1.936 1.936 0 0 1 -2.738 2.738c-1.414-1.418-1.514-3.652-1.214-3.952" fill="#94e8c8" transform="translate(11.239 10.698)"/><path d="m-56.056-66.934a4.514 4.514 0 0 1 -1.266-3.866 2.856 2.856 0 0 0 -2.02-.081c-.3.3-.2 2.534 1.213 3.952a1.937 1.937 0 0 0 2.406.266 1.947 1.947 0 0 1 -.333-.266" fill="#82d9b6" transform="translate(68.282 79.284)"/><path d="m-167.983-3.3a3.029 3.029 0 0 0 -2.536.176 3.7 3.7 0 0 1 -3.293 0 3.029 3.029 0 0 0 -2.536-.176c-1.8.747-2.439 3.349-1.419 5.81s3.309 3.852 5.112 3.1h.005a1.262 1.262 0 0 1 .969 0h.005c1.8.747 4.092-.643 5.112-3.1s.384-5.063-1.419-5.81" fill="#ff9696" transform="translate(184.207 14.304)"/><path d="m-58.529-98.337c-.932-2.251-.481-4.618.982-5.578l-.119-.056a3.029 3.029 0 0 0 -2.536-.176c-1.8.747-2.439 3.349-1.42 5.81s3.309 3.852 5.112 3.1h.005a1.262 1.262 0 0 1 .828-.049 5.523 5.523 0 0 1 -2.853-3.054" fill="#ff7d81" transform="translate(68.062 115.149)"/><path d="m-586.789-75.39h-33.571a2.3 2.3 0 0 1 -2.3-2.3 2.3 2.3 0 0 1 2.3-2.3h33.571a2.3 2.3 0 0 1 2.3 2.3 2.3 2.3 0 0 1 -2.3 2.3" fill="#f2f6fc" transform="translate(623.241 80.576)"/><path d="m-150.781-37.7a2.3 2.3 0 0 1 2.3-2.3h-9.219a2.3 2.3 0 0 0 -2.3 2.3 2.3 2.3 0 0 0 2.3 2.3h9.219a2.3 2.3 0 0 1 -2.3-2.3" fill="#e9edf5" transform="translate(160.576 40.576)"/><path d="m-586.789-75.39h-33.571a2.3 2.3 0 0 1 -2.3-2.3 2.3 2.3 0 0 1 2.3-2.3h33.571a2.3 2.3 0 0 1 2.3 2.3 2.3 2.3 0 0 1 -2.3 2.3" fill="#f2f6fc" transform="translate(623.241 114.148)"/><path d="m-586.789-75.39h-33.571a2.3 2.3 0 0 1 -2.3-2.3 2.3 2.3 0 0 1 2.3-2.3h33.571a2.3 2.3 0 0 1 2.3 2.3 2.3 2.3 0 0 1 -2.3 2.3" fill="#f2f6fc" transform="translate(623.241 97.362)"/><path d="m-150.781-37.7a2.3 2.3 0 0 1 2.3-2.3h-9.219a2.3 2.3 0 0 0 -2.3 2.3 2.3 2.3 0 0 0 2.3 2.3h9.219a2.3 2.3 0 0 1 -2.3-2.3" fill="#e9edf5" transform="translate(160.576 57.362)"/><path d="m-150.781-37.7a2.3 2.3 0 0 1 2.3-2.3h-9.219a2.3 2.3 0 0 0 -2.3 2.3 2.3 2.3 0 0 0 2.3 2.3h9.219a2.3 2.3 0 0 1 -2.3-2.3" fill="#e9edf5" transform="translate(160.576 74.148)"/><g fill="none" stroke="#000" stroke-linecap="round" stroke-linejoin="round" stroke-miterlimit="10"><path d="m0-147.866v-5.968a3.073 3.073 0 0 1 3.073-3.073h6.027a3.073 3.073 0 0 1 3.073 3.073v5.968" transform="translate(21.203 181.95)"/><path d="m-16.694 0a16.407 16.407 0 0 0 -1.021 5.321q0 .3.015.59" transform="translate(24.245 28.174)"/><path d="m-16.46-96.457q.014-.287.014-.576a16.406 16.406 0 0 0 -1.021-5.321" transform="translate(34 130.528)"/><path d="m-174.026-50.26h-9.1a1.536 1.536 0 0 1 -1.536-1.536 1.536 1.536 0 0 1 1.536-1.536h9.1a1.536 1.536 0 0 1 1.536 1.532 1.536 1.536 0 0 1 -1.536 1.54z" transform="translate(190.62 78.377)"/><path d="m-199.156-148.014v-.911a5.182 5.182 0 0 0 -.147-1.224 5.183 5.183 0 0 0 -.4-1.095l-1.181-2.362v-2.161a1.3 1.3 0 0 0 -1.3-1.3h-6.127a1.3 1.3 0 0 0 -1.3 1.3v2.161l-1.181 2.362a5.185 5.185 0 0 0 -.4 1.095 5.181 5.181 0 0 0 -.147 1.224v.925" transform="translate(232.536 165.322)"/><path d="m-5.511-40.784a3.208 3.208 0 0 1 -.2-2.353c.3-.3 2.534-.2 3.952 1.213a1.933 1.933 0 0 1 .559 1.591" transform="translate(14.647 51.536)"/><path d="m-187.318-106.691q.128-.247.237-.511c1.02-2.462.384-5.063-1.42-5.81a3.028 3.028 0 0 0 -2.536.176 3.7 3.7 0 0 1 -3.293 0 3.028 3.028 0 0 0 -2.536-.176c-1.8.747-2.439 3.349-1.419 5.81q.109.263.237.509" transform="translate(204.725 124.014)"/><path d="m-586.789-75.39h-33.571a2.3 2.3 0 0 1 -2.3-2.3 2.3 2.3 0 0 1 2.3-2.3h33.571a2.3 2.3 0 0 1 2.3 2.3 2.3 2.3 0 0 1 -2.3 2.3z" transform="translate(623.241 80.576)"/><path d="m-586.789-75.39h-33.571a2.3 2.3 0 0 1 -2.3-2.3 2.3 2.3 0 0 1 2.3-2.3h33.571a2.3 2.3 0 0 1 2.3 2.3 2.3 2.3 0 0 1 -2.3 2.3z" transform="translate(623.241 97.362)"/><path d="m-586.789-75.39h-33.571a2.3 2.3 0 0 1 -2.3-2.3 2.3 2.3 0 0 1 2.3-2.3h33.571a2.3 2.3 0 0 1 2.3 2.3 2.3 2.3 0 0 1 -2.3 2.3z" transform="translate(623.241 114.148)"/><path d="m0 0h8.6" transform="translate(22.989 11.715)"/><path d="m0 0h3" transform="translate(30.229 15.172)"/><path d="m0 0h6.574" transform="translate(21.35 15.172)"/><path d="m0 0v12.176" transform="translate(2.881 5.186)"/><path d="m0 0v6.457" transform="translate(2.881 27.69)"/><path d="m0 0v3.457" transform="translate(2.881 21.971)"/><path d="m0 0v12.176" transform="translate(36.452 5.186)"/><path d="m0 0v12.176" transform="translate(36.452 21.971)"/><path d="m0 0h3.073" transform="translate(25.755 28.117)"/></g></g></svg>