<svg xmlns="http://www.w3.org/2000/svg" width="50.198" height="70.298" viewBox="0 0 50.198 70.298">
  <g id="Grupo_1127760" data-name="Grupo 1127760" transform="translate(-79.009 -7)">
    <g id="Grupo_1127758" data-name="Grupo 1127758" transform="translate(79.484 7.5)">
      <path id="Trazado_919431" data-name="Trazado 919431" d="M120.134,84.758V79.933H88.059v4.825a1.883,1.883,0,0,1-.605,1.381c-13.4,12.408-8.271,22.917,3.387,51.613a2.212,2.212,0,0,0,2.048,1.38H115.3a2.212,2.212,0,0,0,2.048-1.38c11.658-28.7,16.79-39.205,3.387-51.613A1.883,1.883,0,0,1,120.134,84.758Z" transform="translate(-79.485 -69.833)" fill="#fee97d"/>
      <path id="Trazado_919432" data-name="Trazado 919432" d="M316.861,86.139a1.883,1.883,0,0,1-.605-1.381V79.933h-4.044v4.825a1.883,1.883,0,0,0,.606,1.381c13.4,12.408,8.271,22.917-3.387,51.613a2.212,2.212,0,0,1-2.048,1.38h4.044a2.212,2.212,0,0,0,2.048-1.38C325.131,109.056,330.264,98.547,316.861,86.139Z" transform="translate(-275.606 -69.833)" fill="#fed402"/>
      <path id="Trazado_919433" data-name="Trazado 919433" d="M229.4,379.753a3.486,3.486,0,0,1,.152-6.913c2.165-.233,4.74-1.1,5.453-5.8a3.486,3.486,0,0,1,6.893,1.045,14.413,14.413,0,0,1-3.556,7.9,12.5,12.5,0,0,1-8.045,3.788A3.488,3.488,0,0,1,229.4,379.753Z" transform="translate(-205.949 -314.356)" fill="#97da7b"/>
      <path id="Trazado_919434" data-name="Trazado 919434" d="M164.711,271.711a3.486,3.486,0,0,1-2.439-2.727c-.91-5.072-.143-14.21,4.413-18.645a3.486,3.486,0,0,1,4.863,5c-1.995,1.942-3.191,8.093-2.415,12.419a3.487,3.487,0,0,1-4.422,3.958Z" transform="translate(-150.439 -215.629)" fill="#97da7b"/>
      <path id="Trazado_919435" data-name="Trazado 919435" d="M124,156.857a3.487,3.487,0,0,1-3.432-2.9,20.476,20.476,0,0,1,.747-10.491,17.019,17.019,0,0,1,6.285-8.195,3.486,3.486,0,0,1,4.045,5.678c-4.584,3.266-4.816,8.24-4.2,11.838A3.489,3.489,0,0,1,124,156.857Z" transform="translate(-114.541 -116.898)" fill="#97da7b"/>
      <path id="Trazado_919436" data-name="Trazado 919436" d="M327.925,194.567a3.486,3.486,0,0,1-2.384-4.224,25.6,25.6,0,0,0-1.054-14.828,3.486,3.486,0,1,1,6.381-2.808c2.8,6.355,2.7,14.51,1.418,19.4a3.486,3.486,0,0,1-4.254,2.491Z" transform="translate(-290.071 -147.879)" fill="#97da7b"/>
      <path id="Trazado_919437" data-name="Trazado 919437" d="M81.05,235.1h46.119a31.71,31.71,0,0,0,1.43-11.9H79.621A31.708,31.708,0,0,0,81.05,235.1Z" transform="translate(-79.498 -193.121)" fill="#b3dafe"/>
      <path id="Trazado_919438" data-name="Trazado 919438" d="M392.379,235.1h4.044a31.71,31.71,0,0,0,1.43-11.9h-4.044A31.711,31.711,0,0,1,392.379,235.1Z" transform="translate(-348.751 -193.121)" fill="#8ac9fe"/>
      <ellipse id="Elipse_12366" data-name="Elipse 12366" cx="9.09" cy="10.822" rx="9.09" ry="10.822" transform="translate(15.522 25.205)" fill="#fd8087"/>
      <path id="Trazado_919439" data-name="Trazado 919439" d="M124.716,12.246v5.788h36.61V12.246A4.746,4.746,0,0,0,156.581,7.5H129.462A4.746,4.746,0,0,0,124.716,12.246Z" transform="translate(-118.409 -7.5)" fill="#8d9ca8"/>
      <path id="Trazado_919440" data-name="Trazado 919440" d="M329.152,7.5h-3.9a4.746,4.746,0,0,1,4.746,4.746v5.788h3.9V12.246A4.746,4.746,0,0,0,329.152,7.5Z" transform="translate(-290.981 -7.5)" fill="#7a8c98"/>
      <path id="Trazado_919441" data-name="Trazado 919441" d="M105.317,65.172V66.22a1.6,1.6,0,0,0,1.595,1.595h38.831a1.6,1.6,0,0,0,1.595-1.595V65.172a1.6,1.6,0,0,0-1.595-1.595H106.912A1.6,1.6,0,0,0,105.317,65.172Z" transform="translate(-101.715 -55.758)" fill="#b3dafe"/>
      <path id="Trazado_919442" data-name="Trazado 919442" d="M371.15,63.577h-3.9a1.6,1.6,0,0,1,1.594,1.595V66.22a1.6,1.6,0,0,1-1.595,1.595h3.9a1.6,1.6,0,0,0,1.595-1.595V65.171A1.594,1.594,0,0,0,371.15,63.577Z" transform="translate(-327.123 -55.758)" fill="#8ac9fe"/>
    </g>
    <g id="Grupo_1127759" data-name="Grupo 1127759" transform="translate(79.484 7.5)">
      <path id="Trazado_919443" data-name="Trazado 919443" d="M229.4,379.753a3.486,3.486,0,0,1,.152-6.913c2.165-.233,4.74-1.1,5.453-5.8a3.486,3.486,0,0,1,6.893,1.045,14.413,14.413,0,0,1-3.556,7.9,12.5,12.5,0,0,1-8.045,3.788A3.488,3.488,0,0,1,229.4,379.753Z" transform="translate(-205.949 -314.356)" fill="none" stroke="#000" stroke-linecap="round" stroke-linejoin="round" stroke-miterlimit="10" stroke-width="1"/>
      <path id="Trazado_919444" data-name="Trazado 919444" d="M259.088,445.98A12.083,12.083,0,0,1,256,447.514" transform="translate(-231.389 -384.842)" fill="none" stroke="#000" stroke-linecap="round" stroke-linejoin="round" stroke-miterlimit="10" stroke-width="1"/>
      <path id="Trazado_919445" data-name="Trazado 919445" d="M304.992,392.032a14.871,14.871,0,0,1-1.45,3.62" transform="translate(-272.301 -338.416)" fill="none" stroke="#000" stroke-linecap="round" stroke-linejoin="round" stroke-miterlimit="10" stroke-width="1"/>
      <path id="Trazado_919446" data-name="Trazado 919446" d="M162.835,308.57a28.284,28.284,0,0,0-.563,11.376,3.486,3.486,0,0,0,6.861-1.231,20.531,20.531,0,0,1,.273-7.613" transform="translate(-150.439 -266.591)" fill="none" stroke="#000" stroke-linecap="round" stroke-linejoin="round" stroke-miterlimit="10" stroke-width="1"/>
      <path id="Trazado_919447" data-name="Trazado 919447" d="M121.769,146.971a18.152,18.152,0,0,1,.88-3.508,17.028,17.028,0,0,1,6.286-8.2,3.486,3.486,0,0,1,4.045,5.679,10.128,10.128,0,0,0-4.109,6.025" transform="translate(-115.873 -116.895)" fill="none" stroke="#000" stroke-linecap="round" stroke-linejoin="round" stroke-miterlimit="10" stroke-width="1"/>
      <path id="Trazado_919448" data-name="Trazado 919448" d="M333.291,308.57c-.036.166-.077.328-.117.485a3.492,3.492,0,0,0,2.383,4.223l.107.031a3.475,3.475,0,0,0,4.254-2.492c.18-.689.336-1.443.466-2.248" transform="translate(-297.703 -266.591)" fill="none" stroke="#000" stroke-linecap="round" stroke-linejoin="round" stroke-miterlimit="10" stroke-width="1"/>
      <path id="Trazado_919449" data-name="Trazado 919449" d="M325.336,177.956a17.161,17.161,0,0,0-.849-2.44,3.486,3.486,0,1,1,6.38-2.808,25.68,25.68,0,0,1,1.627,5.248" transform="translate(-290.071 -147.881)" fill="none" stroke="#000" stroke-linecap="round" stroke-linejoin="round" stroke-miterlimit="10" stroke-width="1"/>
      <path id="Trazado_919450" data-name="Trazado 919450" d="M88.059,93.97v2.868a1.881,1.881,0,0,1-.605,1.38c-13.4,12.408-8.271,22.917,3.387,51.614a2.213,2.213,0,0,0,2.048,1.379H115.3a2.213,2.213,0,0,0,2.048-1.379q1.428-3.514,2.718-6.675" transform="translate(-79.484 -81.913)" fill="none" stroke="#000" stroke-linecap="round" stroke-linejoin="round" stroke-miterlimit="10" stroke-width="1"/>
      <path id="Trazado_919451" data-name="Trazado 919451" d="M371.019,93.97v2.868a1.881,1.881,0,0,0,.605,1.38c11.495,10.64,9.357,19.884,1.163,40.4" transform="translate(-330.37 -81.913)" fill="none" stroke="#000" stroke-linecap="round" stroke-linejoin="round" stroke-miterlimit="10" stroke-width="1"/>
      <line id="Línea_3830" data-name="Línea 3830" x1="15.467" transform="translate(32.204 41.979)" fill="none" stroke="#000" stroke-linecap="round" stroke-linejoin="round" stroke-miterlimit="10" stroke-width="1"/>
      <line id="Línea_3831" data-name="Línea 3831" x1="15.467" transform="translate(1.553 41.979)" fill="none" stroke="#000" stroke-linecap="round" stroke-linejoin="round" stroke-miterlimit="10" stroke-width="1"/>
      <line id="Línea_3832" data-name="Línea 3832" x1="16.896" transform="translate(0.123 30.076)" fill="none" stroke="#000" stroke-linecap="round" stroke-linejoin="round" stroke-miterlimit="10" stroke-width="1"/>
      <line id="Línea_3833" data-name="Línea 3833" x1="16.896" transform="translate(32.204 30.076)" fill="none" stroke="#000" stroke-linecap="round" stroke-linejoin="round" stroke-miterlimit="10" stroke-width="1"/>
      <ellipse id="Elipse_12367" data-name="Elipse 12367" cx="9.09" cy="10.822" rx="9.09" ry="10.822" transform="translate(15.522 25.205)" fill="none" stroke="#000" stroke-linecap="round" stroke-linejoin="round" stroke-miterlimit="10" stroke-width="1"/>
      <path id="Trazado_919452" data-name="Trazado 919452" d="M217.079,7.5h18.986a4.745,4.745,0,0,1,4.745,4.745v3.074" transform="translate(-197.894 -7.5)" fill="none" stroke="#000" stroke-linecap="round" stroke-linejoin="round" stroke-miterlimit="10" stroke-width="1"/>
      <path id="Trazado_919453" data-name="Trazado 919453" d="M124.719,15.319V12.245A4.745,4.745,0,0,1,129.464,7.5h3.253" transform="translate(-118.412 -7.5)" fill="none" stroke="#000" stroke-linecap="round" stroke-linejoin="round" stroke-miterlimit="10" stroke-width="1"/>
      <path id="Trazado_919454" data-name="Trazado 919454" d="M105.317,65.172V66.22a1.6,1.6,0,0,0,1.595,1.595h38.831a1.6,1.6,0,0,0,1.595-1.595V65.172a1.6,1.6,0,0,0-1.595-1.595H106.912A1.6,1.6,0,0,0,105.317,65.172Z" transform="translate(-101.715 -55.758)" fill="none" stroke="#000" stroke-linecap="round" stroke-linejoin="round" stroke-miterlimit="10" stroke-width="1"/>
      <path id="Trazado_919455" data-name="Trazado 919455" d="M186.539,349.457a22.51,22.51,0,0,1,.124-5.653" transform="translate(-171.505 -296.912)" fill="none" stroke="#000" stroke-linecap="round" stroke-linejoin="round" stroke-miterlimit="10" stroke-width="1"/>
      <path id="Trazado_919456" data-name="Trazado 919456" d="M147.029,174.867c.371-2.883,2.474-5.852,4.452-7.831" transform="translate(-137.611 -144.792)" fill="none" stroke="#000" stroke-linecap="round" stroke-linejoin="round" stroke-miterlimit="10" stroke-width="1"/>
    </g>
  </g>
</svg>
